<svg xmlns="http://www.w3.org/2000/svg" width="142.656" height="140.59" viewBox="0 0 142.656 140.59">
  <g id="audio-curso" transform="translate(-0.33 -2.18)">
    <path id="Trazado_102002" data-name="Trazado 102002" d="M136.93,98.231H9.92a5.587,5.587,0,0,1-5.587-5.587V11.764A5.587,5.587,0,0,1,9.92,6.177h127.01a5.587,5.587,0,0,1,5.587,5.587v80.88A5.586,5.586,0,0,1,136.93,98.231Z" transform="translate(-1.767 -1.764)" fill="#22577a"/>
    <path id="Trazado_102003" data-name="Trazado 102003" d="M137.532,96.189H25.793A2.794,2.794,0,0,1,23,93.4V26.359a2.794,2.794,0,0,1,2.793-2.793H137.532a2.794,2.794,0,0,1,2.793,2.793V93.4A2.793,2.793,0,0,1,137.532,96.189Z" transform="translate(-10.004 -9.438)" fill="#80ed99"/>
    <circle id="Elipse_4089" data-name="Elipse 4089" cx="26.416" cy="26.416" r="26.416" transform="translate(45.243 24.024)" fill="#ffc94a"/>
    <path id="Trazado_102004" data-name="Trazado 102004" d="M135.432,77.7a1.117,1.117,0,0,1,0,1.935L115.676,91.04A1.117,1.117,0,0,1,114,90.073V67.26a1.117,1.117,0,0,1,1.676-.968L135.432,77.7Z" transform="translate(-50.163 -28.226)" fill="#22577a"/>
    <path id="Trazado_102005" data-name="Trazado 102005" d="M92.269,176.859v4.562H83.956v-4.562a28.792,28.792,0,0,0-8.088-20.11,27.15,27.15,0,0,0-19.529-8.328c-15.252,0-27.617,12.732-27.617,28.439v4.562H20.411v-4.562c0-20.4,16.117-37,35.929-37s35.928,16.6,35.928,37Z" transform="translate(-8.862 -60.759)" fill="#57cc99"/>
    <path id="Trazado_102015" data-name="Trazado 102015" d="M137.294,229.473h-2.025a1.117,1.117,0,0,1-1.117-1.117V204.822a1.117,1.117,0,0,1,1.117-1.117h2.025a12.884,12.884,0,0,1,0,25.768Z" transform="translate(-59.056 -88.934)" fill="#22577a"/>
    <path id="Trazado_102016" data-name="Trazado 102016" d="M21.512,229.473H19.486a12.883,12.883,0,1,1,0-25.767h2.025a1.117,1.117,0,0,1,1.117,1.117v23.533A1.117,1.117,0,0,1,21.512,229.473Z" transform="translate(-2.768 -88.935)" fill="#22577a"/>
    <g id="Grupo_54419" data-name="Grupo 54419" transform="translate(0.33 2.18)">
      <path id="Trazado_102019" data-name="Trazado 102019" d="M135.165,2.18H8.152A7.83,7.83,0,0,0,.33,10V90.878A7.83,7.83,0,0,0,8.152,98.7h5.129a39.683,39.683,0,0,0-3.933,15.761A15.117,15.117,0,0,0,1.6,127.651c0,7.6,5.334,15.118,17.146,15.118a3.355,3.355,0,0,0,3.352-3.352V115.885A26.591,26.591,0,0,1,28.511,98.7H66.457a26.5,26.5,0,0,1,6.4,17.185v23.532a3.355,3.355,0,0,0,3.352,3.352c5.662,0,10.834-1.03,14.643-6.8,6.947,5.157,14.958,4.722,21.631-2.584,11.905,1.431,18.313-6.461,18.545-15.205,0-.02,0-.039,0-.059V98.7h4.134a7.83,7.83,0,0,0,7.822-7.822V10a7.829,7.829,0,0,0-7.821-7.822ZM77.329,138.3V117c7.611,0,11.559,5.329,11.559,10.649C88.889,132.86,85.073,138.3,77.329,138.3ZM47.478,85.425c-15.24,0-27.924,11.828-29.65,27.108a18.119,18.119,0,0,0-3.894.263c1.626-17.671,16.078-31.46,33.544-31.46,17.442,0,31.917,13.778,33.544,31.46a18.1,18.1,0,0,0-3.894-.263C75.4,97.076,62.586,85.425,47.478,85.425ZM17.627,138.3c-7.759,0-11.559-5.47-11.559-10.649,0-5.328,3.939-10.649,11.559-10.649ZM70.089,84.515a37.253,37.253,0,0,0-45.226,0H15.789a.56.56,0,0,1-.559-.559V16.918a.56.56,0,0,1,.559-.559H127.528a.56.56,0,0,1,.559.559V83.956a.56.56,0,0,1-.559.559ZM33.511,94.23a24.712,24.712,0,0,1,27.963,0Zm76.6,34.985a3.493,3.493,0,1,1,2.05-4.492A3.494,3.494,0,0,1,110.113,129.216Zm16.448-11.135c-.269,5.4-3.416,10.633-10.352,10.993a7.854,7.854,0,0,0,.653-3.126,7.967,7.967,0,1,0-11.28,7.241c.077.033.148.066.225.093-4.474,2.85-9.087,1.825-13.03-1.486a14.961,14.961,0,0,0,.58-4.144,15.117,15.117,0,0,0-7.749-13.191A39.683,39.683,0,0,0,81.675,98.7h44.886v19.381Zm11.955-27.2a3.355,3.355,0,0,1-3.352,3.352H79.151a39.468,39.468,0,0,0-4.112-5.246h52.489a5.036,5.036,0,0,0,5.028-5.028V16.918a5.036,5.036,0,0,0-5.028-5.028H15.789a5.036,5.036,0,0,0-5.028,5.028V83.956a5.036,5.036,0,0,0,5.028,5.028h4.129a39.468,39.468,0,0,0-4.112,5.246H8.152A3.355,3.355,0,0,1,4.8,90.878V10A3.355,3.355,0,0,1,8.152,6.65H135.165A3.355,3.355,0,0,1,138.517,10Z" transform="translate(-0.33 -2.18)"/>
      <path id="Trazado_102020" data-name="Trazado 102020" d="M105.37,37.28a28.65,28.65,0,1,0,28.65,28.65A28.679,28.679,0,0,0,105.37,37.28Zm0,52.83a24.18,24.18,0,1,1,24.18-24.18A24.207,24.207,0,0,1,105.37,90.11Z" transform="translate(-34.041 -17.67)"/>
      <path id="Trazado_102021" data-name="Trazado 102021" d="M134.784,73.995l-19.755-11.4a3.355,3.355,0,0,0-5.028,2.9V88.3a3.356,3.356,0,0,0,5.028,2.905L134.784,79.8A3.355,3.355,0,0,0,134.784,73.995ZM114.47,86.37V67.43l16.4,9.47Z" transform="translate(-48.728 -28.64)"/>
      <path id="Trazado_102022" data-name="Trazado 102022" d="M41,39.529V52.938a2.235,2.235,0,0,0,4.47,0V39.529A2.235,2.235,0,0,0,41,39.529Z" transform="translate(-18.278 -17.685)"/>
      <path id="Trazado_102023" data-name="Trazado 102023" d="M41,78.529v1.508a2.235,2.235,0,0,0,4.47,0V78.529A2.235,2.235,0,0,0,41,78.529Z" transform="translate(-18.278 -34.895)"/>
    </g>
  </g>
</svg>
