<svg xmlns="http://www.w3.org/2000/svg" width="142.656" height="146.907" viewBox="0 0 142.656 146.907">
  <g id="brand-awareness" transform="translate(-10.09 -6.592)">
    <path id="Trazado_101864" data-name="Trazado 101864" d="M23.642,132.953v30.232a6.263,6.263,0,0,0,12.526,0V132.953Z" transform="translate(-5.354 -49.92)" fill="#80ed99"/>
    <path id="Trazado_101865" data-name="Trazado 101865" d="M41.213,124.393h-12.6a14.52,14.52,0,1,1,0-29.039h12.6Z" transform="translate(-1.581 -35.066)" fill="#ffc94a"/>
    <path id="Trazado_101866" data-name="Trazado 101866" d="M115.383,65.369v63.061a2.843,2.843,0,0,1-4.548,2.281c-16.43-12.454-25.43-19.291-46.264-19.291H58.928V82.378h5.643c20.834,0,29.835-6.837,46.264-19.291a2.843,2.843,0,0,1,4.548,2.281Z" transform="translate(-19.294 -22.091)" fill="#80ed99"/>
    <g id="Grupo_54370" data-name="Grupo 54370" transform="translate(105.557 48.223)">
      <path id="Trazado_101869" data-name="Trazado 101869" d="M183.547,137.272V159.2a1.406,1.406,0,0,0,2.168,1.181l11.36-7.319,10.095,7.145a1.405,1.405,0,0,0,2.218-1.147v-21.79Z" transform="translate(-174.083 -99.849)" fill="#22577a"/>
      <circle id="Elipse_4081" data-name="Elipse 4081" cx="22.385" cy="22.385" r="22.385" transform="translate(0 0.001)" fill="#ffc94a"/>
      <path id="Trazado_101870" data-name="Trazado 101870" d="M207.883,101.243l-5.9-.857a1.355,1.355,0,0,1-1.02-.741L198.326,94.3a1.355,1.355,0,0,0-2.43,0l-2.638,5.345a1.355,1.355,0,0,1-1.02.741l-5.9.857a1.355,1.355,0,0,0-.751,2.311l4.268,4.161a1.353,1.353,0,0,1,.39,1.2l-1.008,5.875a1.355,1.355,0,0,0,1.965,1.428l5.276-2.774a1.354,1.354,0,0,1,1.261,0l5.276,2.774a1.355,1.355,0,0,0,1.966-1.428l-1.008-5.875a1.353,1.353,0,0,1,.39-1.2l4.268-4.161a1.354,1.354,0,0,0-.75-2.311Z" transform="translate(-174.727 -82.574)" fill="#57cc99"/>
    </g>
    <g id="Grupo_54371" data-name="Grupo 54371" transform="translate(10.09 6.592)">
      <path id="Trazado_101872" data-name="Trazado 101872" d="M97.166,101.91a59.959,59.959,0,0,1-12.382,2.932,2.421,2.421,0,0,0,.242,4.827,2.459,2.459,0,0,0,.248-.013,63.679,63.679,0,0,0,13.519-3.189,2.42,2.42,0,1,0-1.627-4.558Z" transform="translate(-38.746 -44.193)"/>
      <path id="Trazado_101873" data-name="Trazado 101873" d="M122.082,91.429a25.821,25.821,0,0,1-3.4,2.51,2.42,2.42,0,1,0,2.566,4.1,30.676,30.676,0,0,0,4.033-2.985,2.42,2.42,0,1,0-3.2-3.628Z" transform="translate(-52.543 -39.869)"/>
      <path id="Trazado_101874" data-name="Trazado 101874" d="M186.187,107.474l-.913,5.322a3.775,3.775,0,0,0,5.477,3.98l4.78-2.513,4.78,2.513a3.775,3.775,0,0,0,5.477-3.979l-.913-5.322,3.868-3.77a3.776,3.776,0,0,0-2.092-6.438l-5.344-.776-2.391-4.843a3.749,3.749,0,0,0-3.384-2.1h0a3.752,3.752,0,0,0-3.385,2.1l-2.39,4.843-5.344.776a3.775,3.775,0,0,0-2.092,6.438Zm9.344-11.75,1.683,3.411c1.088,2.2,3,2.087,6.6,2.611-4.526,4.412-4.255,3.394-3.166,9.743-5.6-2.944-4.551-2.993-10.245,0,1.07-6.233,1.44-5.253-3.165-9.743C193.6,100.822,192.728,101.4,195.531,95.724Z" transform="translate(-77.68 -39.363)"/>
      <path id="Trazado_101875" data-name="Trazado 101875" d="M173.371,115.684v17.5a3.828,3.828,0,0,0,5.9,3.215l9.986-6.433,8.758,6.2a3.827,3.827,0,0,0,6.039-3.121V115.683a24.789,24.789,0,0,0-15.34-44.274c-23.446,0-33.773,29.721-15.341,44.275Zm25.841,15.4-8.5-6.013a2.418,2.418,0,0,0-2.708-.059l-9.8,6.313V118.678a24.731,24.731,0,0,0,21,0Zm-10.5-54.833a19.965,19.965,0,1,1-19.965,19.965A19.987,19.987,0,0,1,188.711,76.249Z" transform="translate(-70.86 -32.199)"/>
      <path id="Trazado_101876" data-name="Trazado 101876" d="M170.693,38.647c1.048,0-2.008,1.794,42.725-27.612a2.42,2.42,0,1,0-2.658-4.044l-41.4,27.214a2.42,2.42,0,0,0,1.331,4.442Z" transform="translate(-72.581 -6.592)"/>
      <path id="Trazado_101877" data-name="Trazado 101877" d="M171.686,61.967l35.753-16.125a2.42,2.42,0,1,0-1.99-4.412L169.7,57.555a2.42,2.42,0,1,0,1.99,4.412Z" transform="translate(-72.581 -20.271)"/>
      <path id="Trazado_101878" data-name="Trazado 101878" d="M213.418,224.031l-41.4-27.214a2.42,2.42,0,1,0-2.658,4.044c44.618,29.33,41.677,27.612,42.725,27.612A2.422,2.422,0,0,0,213.418,224.031Z" transform="translate(-72.581 -81.585)"/>
      <path id="Trazado_101879" data-name="Trazado 101879" d="M171.686,180.343a2.42,2.42,0,1,0-1.99,4.412l35.753,16.125a2.42,2.42,0,1,0,1.99-4.412Z" transform="translate(-72.581 -75.15)"/>
      <path id="Trazado_101880" data-name="Trazado 101880" d="M95.58,59.067a5.233,5.233,0,0,0-5.544.547C64,79.346,61.873,78.38,27.031,78.38c-15.563,0-22.887,19.366-11.164,29.664v25.734a8.684,8.684,0,0,0,17.368,0V112.26c27.812,0,31.295-.567,56.845,18.8a5.264,5.264,0,0,0,8.429-4.209V63.79a5.246,5.246,0,0,0-2.929-4.723ZM28.4,133.778a3.844,3.844,0,0,1-7.689,0V111.03A18.316,18.316,0,0,0,28.4,112.26Zm8.816-26.358H27.031a12.1,12.1,0,0,1,0-24.2H37.212Zm56.458,19.43a.406.406,0,0,1-.243.388.4.4,0,0,1-.468-.07C73.5,112.416,65.888,107.42,42.054,107.42v-24.2c23.963,0,31.569-5.092,50.95-19.782a.371.371,0,0,1,.423-.036.406.406,0,0,1,.243.389v63.06Z" transform="translate(-10.09 -27.105)"/>
    </g>
  </g>
</svg>
