<svg xmlns="http://www.w3.org/2000/svg" width="140.418" height="104.133" viewBox="0 0 140.418 104.133">
  <g id="Grupo_54445" data-name="Grupo 54445" transform="translate(-964.582 -2316.775)">
    <rect id="Rect치ngulo_5570" data-name="Rect치ngulo 5570" width="140.418" height="61.495" rx="10" transform="translate(964.582 2316.775)" fill="#c7f9cc"/>
    <g id="microfono" transform="translate(959.13 2319.633)">
      <rect id="Rect치ngulo_5595" data-name="Rect치ngulo 5595" width="2.843" height="3.379" transform="translate(74.98 51.568) rotate(-45)" fill="#22577a"/>
      <path id="Trazado_102113" data-name="Trazado 102113" d="M107.474,19.24a9.653,9.653,0,0,0-14.04-.413L74.526,37.735,60.313,51.948,56.05,56.211a1.421,1.421,0,0,0-.405.829L54.223,68.41a1.419,1.419,0,0,0,.157.841l-5.436,5.436a1.422,1.422,0,0,0-.343.556L47.282,79.2A25.508,25.508,0,0,0,40,97.113v2.742a1.421,1.421,0,0,0,1.421,1.421h5.685a1.421,1.421,0,0,0,1.421-1.421V97.945a17.865,17.865,0,0,1,5.04-12.485L57.5,84.147a1.423,1.423,0,0,0,.556-.343l5.435-5.435a1.422,1.422,0,0,0,.843.155L75.707,77.1a1.422,1.422,0,0,0,.829-.405L80.8,72.434l3.643-3.643,6.823,2.274a5.669,5.669,0,0,0,1.321,2.7V99.854a1.421,1.421,0,0,0,1.421,1.421h5.685a1.421,1.421,0,0,0,1.421-1.421V73.762a5.68,5.68,0,0,0-3.421-9.377l-3.316-5.527.637-.637L114.235,39a8.577,8.577,0,0,0,.346-11.764ZM94.007,55.206l-2.964-2.964,8.649-8.65,2.964,2.964Zm6.69-14.629a1.422,1.422,0,0,0-2.01,0l-9.654,9.654-2.254-2.254,6.812-6.812-2.01-2.01-6.812,6.812-2.254-2.254L92.17,34.06a1.421,1.421,0,0,0,0-2.01L88.2,28.081l2.927-2.927L106.983,42.23l-2.317,2.317ZM77.541,38.74l8.649-8.649,2.964,2.964L80.505,41.7ZM61.44,76.4l-2.254,2.254-5.1-5.1,2.254-2.254ZM45.685,97.945v.488H42.842v-1.32A22.672,22.672,0,0,1,48.559,82l2.256,2.256A20.676,20.676,0,0,0,45.685,97.945Zm7.49-15.351-3.022-3.022,1.037-3.112.89-.89,5.1,5.1-.89.89Zm21.7-8.251-10.2,1.274L57.13,68.073l1.275-10.2,2.914-2.914L77.785,71.429Zm4.924-4.924L63.328,52.953l12.2-12.2L92,57.216l-3.675,3.675-6.879-6.879-2.01,2.01L86.312,62.9ZM95.429,98.433V75.513a5.7,5.7,0,0,0,2.843,0v22.92Zm4.264-28.425a2.843,2.843,0,1,1-2.843-2.843,2.843,2.843,0,0,1,2.843,2.843Zm-5.078-5.226a5.714,5.714,0,0,0-3.134,3.36l-4.791-1.6L92.3,60.93Zm17.61-27.793-3.23,3.23L93.138,23.143l2.306-2.306a6.81,6.81,0,0,1,9.906.291l7.107,8a5.735,5.735,0,0,1-.231,7.865Z" transform="translate(0 0)" fill="#22577a"/>
    </g>
  </g>
</svg>
