<svg xmlns="http://www.w3.org/2000/svg" xmlns:xlink="http://www.w3.org/1999/xlink" width="505" height="324.721" viewBox="0 0 505 324.721">
  <defs>
    <linearGradient id="linear-gradient" y1="0.5" x2="1" y2="0.5" gradientUnits="objectBoundingBox">
      <stop offset="0" stop-color="#dae3fe"/>
      <stop offset="1" stop-color="#e9effd"/>
    </linearGradient>
    <linearGradient id="linear-gradient-5" x1="0" y1="0.5" x2="1" y2="0.5" xlink:href="#linear-gradient"/>
    <linearGradient id="linear-gradient-9" x1="0.854" y1="0.023" x2="0.188" y2="1.233" gradientUnits="objectBoundingBox">
      <stop offset="0" stop-color="#ff928e"/>
      <stop offset="1" stop-color="#feb3b1"/>
    </linearGradient>
    <linearGradient id="linear-gradient-10" x1="1.684" y1="-1.134" x2="1.1" y2="-0.26" xlink:href="#linear-gradient-9"/>
    <linearGradient id="linear-gradient-11" x1="-62.021" y1="0.5" x2="-61.021" y2="0.5" xlink:href="#linear-gradient-9"/>
    <linearGradient id="linear-gradient-12" x1="1.055" y1="-0.113" x2="-0.09" y2="1.385" xlink:href="#linear-gradient-9"/>
    <linearGradient id="linear-gradient-13" x1="-245.46" y1="31.101" x2="-246.124" y2="29.892" xlink:href="#linear-gradient-9"/>
    <linearGradient id="linear-gradient-14" x1="-943.451" y1="96.867" x2="-946.008" y2="93.04" xlink:href="#linear-gradient-9"/>
    <linearGradient id="linear-gradient-15" x1="-139.055" y1="0.04" x2="-138.026" y2="1.767" xlink:href="#linear-gradient-9"/>
    <linearGradient id="linear-gradient-16" x1="-334.97" y1="1.716" x2="-336.846" y2="-0.451" xlink:href="#linear-gradient-9"/>
    <linearGradient id="linear-gradient-17" x1="405.094" y1="0.5" x2="406.093" y2="0.5" xlink:href="#linear-gradient-9"/>
    <linearGradient id="linear-gradient-18" x1="469.202" y1="0.5" x2="470.202" y2="0.5" xlink:href="#linear-gradient-9"/>
    <linearGradient id="linear-gradient-19" x1="-45.474" y1="-0.492" x2="-45.129" y2="0.348" xlink:href="#linear-gradient-9"/>
    <linearGradient id="linear-gradient-20" x1="0.678" y1="-0.44" x2="0.349" y2="1.359" xlink:href="#linear-gradient-9"/>
    <linearGradient id="linear-gradient-21" x1="-67.732" y1="-25.303" x2="-67.009" y2="-24.082" xlink:href="#linear-gradient-9"/>
    <linearGradient id="linear-gradient-22" x1="-221.591" y1="-124.467" x2="-219.234" y2="-118.55" xlink:href="#linear-gradient-9"/>
    <linearGradient id="linear-gradient-23" x1="1.275" y1="1.924" x2="0.358" y2="-0.193" xlink:href="#linear-gradient-9"/>
    <linearGradient id="linear-gradient-24" x1="1" y1="2.308" x2="-0.264" y2="-2.643" xlink:href="#linear-gradient-9"/>
    <linearGradient id="linear-gradient-25" x1="-127.86" y1="-32.474" x2="-128.795" y2="-30.837" xlink:href="#linear-gradient-9"/>
    <linearGradient id="linear-gradient-26" x1="4.024" y1="-2.316" x2="-4.726" y2="4.33" xlink:href="#linear-gradient-9"/>
    <linearGradient id="linear-gradient-27" x1="1.417" y1="-1.163" x2="1.078" y2="-0.575" xlink:href="#linear-gradient-9"/>
    <linearGradient id="linear-gradient-28" x1="3.605" y1="-0.615" x2="2.52" y2="-0.234" xlink:href="#linear-gradient-9"/>
    <linearGradient id="linear-gradient-29" x1="1.613" y1="-0.398" x2="1.126" y2="-0.004" xlink:href="#linear-gradient-9"/>
    <linearGradient id="linear-gradient-30" x1="0.411" y1="-0.35" x2="0.6" y2="1.605" xlink:href="#linear-gradient-9"/>
    <linearGradient id="linear-gradient-31" x1="0.837" y1="-0.399" x2="0.363" y2="1.062" xlink:href="#linear-gradient-9"/>
    <linearGradient id="linear-gradient-32" x1="1.584" y1="-2.498" x2="-0.14" y2="2.209" xlink:href="#linear-gradient-9"/>
    <linearGradient id="linear-gradient-33" x1="0.961" y1="-0.856" x2="0.612" y2="-0.024" xlink:href="#linear-gradient-9"/>
    <linearGradient id="linear-gradient-35" x1="0" y1="0.5" x2="1" y2="0.5" xlink:href="#linear-gradient-9"/>
    <linearGradient id="linear-gradient-37" x1="1.669" y1="-0.236" x2="-0.474" y2="1.254" xlink:href="#linear-gradient-9"/>
    <linearGradient id="linear-gradient-38" x1="0.708" y1="-0.012" x2="0.248" y2="1.987" xlink:href="#linear-gradient-9"/>
    <linearGradient id="linear-gradient-44" x1="0.123" y1="-0.187" x2="0.825" y2="0.911" xlink:href="#linear-gradient-9"/>
    <linearGradient id="linear-gradient-45" x1="-0.95" y1="-1.35" x2="1.925" y2="2.235" xlink:href="#linear-gradient-9"/>
    <linearGradient id="linear-gradient-46" x1="0.786" y1="-0.23" x2="-1.156" y2="3.848" xlink:href="#linear-gradient-9"/>
  </defs>
  <g id="Grupo_54268" data-name="Grupo 54268" transform="translate(-77.361 -110.18)">
    <path id="Trazado_101409" data-name="Trazado 101409" d="M190.294,288.778c12.614-18.3,39.346-28.106,40.044-55.528.265-10.385-7.289-18.728-3.89-28.91,14.315-42.881,63.621-38.59,99.2-31.662,33.573,6.539,64.286,21.336,98.432,25.943,31.754,4.284,62.257,1.442,93.487-4.712,30.055-5.922,58.886-21.2,90.529-15.818,8.952,1.523,17.9,4.782,24.433,11.09,8.108,7.83,11.543,19.459,12.091,30.717,1.6,32.948-18.431,63.5-20.028,96.451-.59,12.18,7.577,20.8,14.348,30.018,7.67,10.44,14.718,21.429,17.375,34.305,6.435,31.187-18.15,58.309-44.558,59.157-16.809.54-297.013,3.542-330.082,4.576-24.285.76-64.263,4.072-77.4-23.338C188.56,388.307,163.835,327.165,190.294,288.778Z" transform="translate(-78.951 -45.286)" fill="#c2ffcd"/>
    <g id="Grupo_54191" data-name="Grupo 54191" transform="translate(469.945 230.773)">
      <path id="Trazado_101410" data-name="Trazado 101410" d="M1967.138,657.346c-10.527,5.576-31.385,4.761-67.306,8.437-40.775,4.172-31.724,56.454-33.155,77.47a84.971,84.971,0,0,1-8.829,32.688.294.294,0,0,0,.482.33c16.614-18.833,7.017-56.84,16.571-65.257,9.844-8.673,34.747,5.727,63.088-1.047,22.842-5.459,30.211-38.012,32.211-50.44A2.1,2.1,0,0,0,1967.138,657.346Z" transform="translate(-1857.812 -657.095)" fill="#80ed99"/>
      <path id="Trazado_101411" data-name="Trazado 101411" d="M1905.168,766.326c.146-2.26.429-4.478.789-6.7s.8-4.418,1.329-6.6a71.154,71.154,0,0,1,4.355-12.763,51.21,51.21,0,0,1,3.207-5.971,39.842,39.842,0,0,1,4.11-5.423c.766-.842,1.58-1.642,2.425-2.408a32.788,32.788,0,0,1,2.679-2.133,29.514,29.514,0,0,1,2.92-1.8,26.648,26.648,0,0,1,3.126-1.418l.4-.155.407-.137.815-.271c.552-.152,1.1-.329,1.657-.448a28.386,28.386,0,0,1,3.365-.6,39.149,39.149,0,0,1,6.8-.259c.567.02,1.131.079,1.7.116.564.053,1.126.12,1.687.184.559.084,1.12.157,1.676.252s1.113.186,1.664.3c2.21.431,4.388.968,6.551,1.5s4.32,1.046,6.5,1.388a33.111,33.111,0,0,0,6.578.4,28.791,28.791,0,0,0,6.507-1.068,38.911,38.911,0,0,0,6.2-2.39l0,0a.172.172,0,0,1,.153.308l-1.495.769c-.247.134-.506.242-.76.36l-.767.348-.384.173-.392.154-.786.307c-.519.217-1.061.374-1.594.556a28.5,28.5,0,0,1-6.633,1.312,34.007,34.007,0,0,1-6.768-.255c-2.237-.3-4.437-.77-6.619-1.252s-4.343-1-6.519-1.386a47.249,47.249,0,0,0-6.554-.754,37.8,37.8,0,0,0-6.559.305,29.932,29.932,0,0,0-3.217.585c-.532.113-1.049.282-1.573.426l-.773.258-.386.13-.38.147a25.214,25.214,0,0,0-2.963,1.346,28.125,28.125,0,0,0-2.773,1.71,31.451,31.451,0,0,0-2.553,2.034c-.807.733-1.586,1.5-2.321,2.307a38.606,38.606,0,0,0-3.962,5.233,49.9,49.9,0,0,0-3.175,5.783,72,72,0,0,0-4.407,12.491q-.841,3.215-1.433,6.492c-.2,1.091-.373,2.186-.534,3.283s-.3,2.2-.4,3.291v.011a.459.459,0,0,1-.915-.07Z" transform="translate(-1894.725 -705.503)" fill="#3b966a"/>
    </g>
    <path id="Trazado_101412" data-name="Trazado 101412" d="M1851.19,472.386a.483.483,0,0,0,.952.06c1.725-7.75,8.828-31.971,30.641-34.859,25.428-3.366,61.509,7.087,77.212-78.829a4.8,4.8,0,0,0-5.214-5.63c-14.715,1.511-51.25,7.715-64.81,32.523-17.154,31.383-14.827,40.864-23.33,51.376C1851.6,455.616,1850.7,467.561,1851.19,472.386Z" transform="translate(-1382.631 -189.358)" fill="#57cc99"/>
    <g id="Grupo_54192" data-name="Grupo 54192" transform="translate(199.907 129.611)">
      <path id="Trazado_101413" data-name="Trazado 101413" d="M678.385,199.246a4.11,4.11,0,0,0-6.376,1.509c-2.832,6.386-9.751,20.8-26.654,53.16-28.872,55.281.913,80.013,12.81,99.851s-9.984,57.358-9.984,57.358,72.192-63.029,82.853-114.012C740.028,254.106,693.246,211.521,678.385,199.246Z" transform="translate(-633.134 -198.304)" fill="#80ed99"/>
      <path id="Trazado_101414" data-name="Trazado 101414" d="M764.165,303.633c1.211,3.711,2.212,7.47,3.147,11.25l.679,2.84.17.71.155.713.311,1.426.622,2.853.561,2.865c1.47,7.646,2.6,15.355,3.455,23.1.352,3.878.759,7.753.943,11.645l.175,2.916.087,1.458.045,1.46.171,5.841.04,1.46,0,1.461-.01,2.922-.01,2.922,0,1.461c-.01.487-.035.974-.051,1.46l-.222,5.841-.056,1.46c-.011.243-.016.487-.031.73l-.056.731-.226,2.922c-.06.976-.189,1.945-.294,2.916s-.211,1.943-.336,2.911L773,404.8l-.214,1.449-.259,1.442-.519,2.883-.6,2.866-.3,1.433c-.1.477-.227.949-.34,1.424l-.691,2.846a164.493,164.493,0,0,1-7.454,22.178c-1.5,3.6-3.1,7.162-4.827,10.656s-3.542,6.949-5.478,10.332-3.98,6.7-6.127,9.958-4.388,6.438-6.837,9.5a.475.475,0,0,1-.747-.589l.008-.01c1.178-1.513,2.308-3.1,3.409-4.686s2.18-3.2,3.223-4.832q3.139-4.888,5.964-9.969a188.449,188.449,0,0,0,10.084-20.91l.545-1.345c.183-.448.365-.9.533-1.35l1.03-2.713c.342-.9.649-1.822.977-2.732l.488-1.366c.159-.457.3-.918.458-1.377l.907-2.756.836-2.778c.138-.463.283-.925.415-1.39l.381-1.4c.251-.933.513-1.864.756-2.8l.682-2.818c.111-.47.232-.938.336-1.41l.3-1.418.6-2.837.511-2.853.256-1.427.211-1.434.419-2.868c.123-.958.219-1.919.33-2.879s.23-1.919.289-2.883l.221-2.889.055-.722c.016-.241.023-.484.034-.725l.063-1.451.252-5.806c.019-.484.047-.968.059-1.452l.013-1.453.025-2.906.025-2.906.013-1.453-.032-1.453-.139-5.812-.037-1.453-.079-1.451-.159-2.9c-.109-1.935-.19-3.872-.375-5.8l-.472-5.8c-.757-7.717-1.794-15.408-3.168-23.042a214.541,214.541,0,0,0-5.185-22.669l0-.009a.27.27,0,0,1,.515-.159Z" transform="translate(-715.266 -280.263)" fill="#3b966a"/>
    </g>
    <g id="Grupo_54193" data-name="Grupo 54193" transform="translate(100.211 123.321)">
      <path id="Trazado_101415" data-name="Trazado 101415" d="M295.071,404.852c3.035,2.339-23.228-49.219-20.1-121.168,1.472-33.9,9.776-75.069-5.708-94.734-12.887-16.366-67.569-18.813-85.551-19.173a2.653,2.653,0,0,0-2.135,4.3c6.894,8.674,21.329,28.763,22.587,46.3,1.657,23.121,19.627,41.269,37.483,48.823s27.471,13.316,30.485,44.942S286.446,398.206,295.071,404.852Z" transform="translate(-180.993 -169.777)" fill="#57cc99"/>
      <path id="Trazado_101416" data-name="Trazado 101416" d="M294.351,235.671a71.886,71.886,0,0,1,8.1,2.623q3.973,1.526,7.8,3.408a86.149,86.149,0,0,1,14.465,8.97,72.024,72.024,0,0,1,6.44,5.6c1.013,1,2,2.025,2.948,3.091s1.864,2.155,2.743,3.276,1.71,2.28,2.514,3.457c.787,1.188,1.556,2.39,2.257,3.632a56.6,56.6,0,0,1,3.692,7.711c.27.66.5,1.336.743,2.006s.447,1.354.669,2.032c.194.685.4,1.371.584,2.055l.546,2.053,1.093,4.106L350,293.8q2.106,8.231,3.991,16.517c2.485,11.052,4.74,22.161,6.338,33.385a.185.185,0,0,1-.367.055v0c-.443-2.79-.945-5.576-1.467-8.355-.256-1.391-.537-2.777-.8-4.166l-.844-4.158q-1.7-8.314-3.654-16.573-.478-2.067-.979-4.129l-.993-4.125c-.687-2.744-1.355-5.493-2.076-8.228l-1.066-4.107-1.1-4.1-.551-2.048c-.183-.683-.389-1.351-.582-2.027-.217-.667-.42-1.34-.652-2s-.461-1.327-.725-1.977a55.691,55.691,0,0,0-3.609-7.6c-.685-1.226-1.44-2.413-2.211-3.586-.789-1.163-1.6-2.31-2.467-3.418a69.624,69.624,0,0,0-11.921-11.9,86.5,86.5,0,0,0-14.266-9.042q-3.769-1.926-7.706-3.505-1.965-.79-3.966-1.485c-1.333-.461-2.68-.9-4.037-1.265h0a.149.149,0,0,1,.075-.288Z" transform="translate(-269.211 -221.138)" fill="#3b966a"/>
    </g>
    <g id="Grupo_54194" data-name="Grupo 54194" transform="translate(110.677 110.18)">
      <path id="Trazado_101417" data-name="Trazado 101417" d="M1482.637,373.244l80.8-152h-16.555a3.545,3.545,0,0,1-2.8-5.8L1630.2,112.376c3.732-4.467,11.105-1.634,10.759,4.134l-6.053,100.784a10.2,10.2,0,0,1-11.4,9.412l-11.542-1.3-80.17,170.485a12.782,12.782,0,0,1-11.589,7.28h-27.786Z" transform="translate(-1206.094 -110.18)" fill="#ffc94a"/>
      <path id="Trazado_101418" data-name="Trazado 101418" d="M1179.667,743.83l57.043,124.427a20.942,20.942,0,0,0,19.075,12.109h29.407a10.77,10.77,0,0,0,9.389-5.429l1.046-1.851h0a8.426,8.426,0,0,1-7.488-4.5l-76-146.229Z" transform="translate(-969.928 -587.371)" fill="#ffc94a"/>
      <path id="Trazado_101419" data-name="Trazado 101419" d="M818.9,686.029h0a12.618,12.618,0,0,0-18.116,2.826L716.913,812.588a36.412,36.412,0,0,1-30.16,15.864h-11.8l-9.6-27.168s77.969-117.394,98.066-135.152c0,0,20.013-17.712,39.745-4.32a32.442,32.442,0,0,1,11.589,14.339Z" transform="translate(-569.014 -536.276)" fill="#ffc94a"/>
      <path id="Trazado_101420" data-name="Trazado 101420" d="M228.458,902.943s19.153-9.892,46.358-12.573c0,0,12.921,4.323,38.663,49.616s42.828,65.948,62.879,54.666l-1.66,2.706a30.356,30.356,0,0,1-25.9,14.373H337.705a38.158,38.158,0,0,1-30.8-15.5C286.87,968.887,240.765,907.188,228.458,902.943Z" transform="translate(-228.458 -718.34)" fill="#ffc94a"/>
      <path id="Trazado_101421" data-name="Trazado 101421" d="M2155.434,261.617l-.038,0a.331.331,0,0,1-.291-.366l.568-4.921a.331.331,0,0,1,.657.076l-.568,4.921A.331.331,0,0,1,2155.434,261.617Z" transform="translate(-1730.283 -223.874)" fill="#fff" opacity="0.56"/>
      <path id="Trazado_101422" data-name="Trazado 101422" d="M1829.415,236.992a.331.331,0,0,1-.26-.535l71.111-90.731a2.48,2.48,0,0,1,2.959-.771,2.419,2.419,0,0,1,1.528,2.561l-1.255,10.876a.331.331,0,1,1-.657-.076l1.255-10.876a1.778,1.778,0,0,0-1.122-1.874,1.838,1.838,0,0,0-2.187.567l-71.111,90.731A.331.331,0,0,1,1829.415,236.992Z" transform="translate(-1476.151 -137.13)" fill="#fff" opacity="0.56"/>
      <path id="Trazado_101423" data-name="Trazado 101423" d="M1097.784,794.176a.331.331,0,0,1-.272-.518l36.777-53.53a6.064,6.064,0,0,1,10.417.777.331.331,0,1,1-.6.287,5.4,5.4,0,0,0-9.276-.69l-36.777,53.53A.33.33,0,0,1,1097.784,794.176Z" transform="translate(-905.842 -599.197)" fill="#fff" opacity="0.56"/>
      <path id="Trazado_101424" data-name="Trazado 101424" d="M1054.441,1043.063a.331.331,0,0,1-.272-.518l2.358-3.432a.331.331,0,0,1,.545.375l-2.358,3.432A.331.331,0,0,1,1054.441,1043.063Z" transform="translate(-872.056 -834.173)" fill="#fff" opacity="0.56"/>
    </g>
    <g id="Grupo_54205" data-name="Grupo 54205" transform="translate(347.118 257.313)">
      <g id="Grupo_54196" data-name="Grupo 54196" transform="translate(10.477)">
        <path id="Trazado_101425" data-name="Trazado 101425" d="M1556.757,913.955a3.872,3.872,0,0,1-3.688,4.013H1353.626a3.872,3.872,0,0,1-3.688-4.013l-1.66-124.812c0-2.207,2.388-6.515,6.763-6.191l194.918-5.492a8.916,8.916,0,0,1,6.808,2.951,10.6,10.6,0,0,1,2.729,7.4Z" transform="translate(-1348.278 -777.456)" fill="#193d51"/>
        <path id="Trazado_101426" data-name="Trazado 101426" d="M1571.153,926.931a3.665,3.665,0,0,1-3.489,3.8H1376.472a3.665,3.665,0,0,1-3.489-3.8l-1.566-113.306c.185-6.818,5.674-9.269,9-9.124l186.811-5.458a6.254,6.254,0,0,1,4.783,2.074,7.449,7.449,0,0,1,1.918,5.206Z" transform="translate(-1366.315 -794.281)" fill="#377aa0"/>
        <g id="Grupo_54195" data-name="Grupo 54195" transform="translate(7.693 10.932)">
          <path id="Trazado_101427" data-name="Trazado 101427" d="M1386.523,1099.25a.263.263,0,0,1-.263-.259l-.124-9.189a.263.263,0,0,1,.526-.007l.124,9.189a.263.263,0,0,1-.259.267Z" transform="translate(-1385.482 -1031.655)" fill="#3b966a"/>
          <path id="Trazado_101428" data-name="Trazado 101428" d="M1383.906,872.113a.263.263,0,0,1-.263-.259l-.474-35.193a7.648,7.648,0,0,1,2.164-5.747,9,9,0,0,1,6.024-2.135l59.657-1.743a.257.257,0,0,1,.27.255.263.263,0,0,1-.255.271l-59.673,1.743a8.437,8.437,0,0,0-5.66,1.99,7.141,7.141,0,0,0-2,5.364l.474,35.188a.263.263,0,0,1-.259.267Z" transform="translate(-1383.169 -827.035)" fill="#3b966a"/>
        </g>
        <path id="Trazado_101429" data-name="Trazado 101429" d="M1415.359,950.742c.2-9.365.126-92.293-.368-99.455s9.75-8.505,25.476-9.312,148.414-4,151.831-4.3c7.679-.678,9.269,11.822,8.5,38.957-.577,20.387-1.534,53.97-1.974,69.414-.131,4.6-3.583,8.247-7.807,8.26-31.93.1-154.309.478-162.456.742C1419.186,955.355,1415.28,954.456,1415.359,950.742Z" transform="translate(-1400.268 -824.378)" fill="#22577a"/>
      </g>
      <rect id="Rect치ngulo_5271" data-name="Rect치ngulo 5271" width="235.136" height="10.966" rx="5.483" transform="translate(0 139.906)" fill="#193d51"/>
      <g id="Grupo_54204" data-name="Grupo 54204" transform="translate(37.755 25.209)">
        <path id="Trazado_101430" data-name="Trazado 101430" d="M1629.164,981.626H1475.927a4.009,4.009,0,0,1-3.938-4.159v-78.7a4.037,4.037,0,0,1,3.911-4.138l153.216-2.85a3.94,3.94,0,0,1,2.877,1.188,4.224,4.224,0,0,1,1.207,2.95v81.546A4.1,4.1,0,0,1,1629.164,981.626Zm-153.255-86.467a3.515,3.515,0,0,0-3.395,3.613v78.7a3.49,3.49,0,0,0,3.412,3.633h153.237a3.577,3.577,0,0,0,3.51-3.633V895.922a3.694,3.694,0,0,0-1.055-2.581,3.412,3.412,0,0,0-2.494-1.032Z" transform="translate(-1471.989 -891.783)" fill="url(#linear-gradient)"/>
        <rect id="Rect치ngulo_5272" data-name="Rect치ngulo 5272" width="95.624" height="59.311" rx="13.365" transform="translate(6.618 13.929)" fill="#ffc94a"/>
        <g id="Grupo_54197" data-name="Grupo 54197" transform="translate(108.636 13.666)" opacity="0.79">
          <path id="Trazado_101431" data-name="Trazado 101431" d="M2000.948,973.653h-32.5a3.742,3.742,0,0,1-3.773-3.793V957.494a3.713,3.713,0,0,1,3.773-3.734h32.5a4.092,4.092,0,0,1,4.2,3.734V969.86A4.117,4.117,0,0,1,2000.948,973.653Zm-32.5-19.367a3.157,3.157,0,0,0-3.247,3.208V969.86a3.226,3.226,0,0,0,3.247,3.267h32.5a3.627,3.627,0,0,0,3.673-3.267V957.494a3.556,3.556,0,0,0-3.673-3.208Z" transform="translate(-1964.677 -953.76)" fill="url(#linear-gradient)"/>
          <path id="Trazado_101432" data-name="Trazado 101432" d="M2000.948,1086.188h-32.5a3.646,3.646,0,0,1-3.773-3.681v-12.366a3.771,3.771,0,0,1,3.773-3.846h32.5a4.194,4.194,0,0,1,4.2,3.846v12.366A4.019,4.019,0,0,1,2000.948,1086.188Zm-32.5-19.367a3.254,3.254,0,0,0-3.247,3.32v12.366a3.131,3.131,0,0,0,3.247,3.155h32.5a3.535,3.535,0,0,0,3.673-3.155v-12.366a3.649,3.649,0,0,0-3.673-3.32Z" transform="translate(-1964.677 -1041.481)" fill="url(#linear-gradient)"/>
          <path id="Trazado_101433" data-name="Trazado 101433" d="M2000.948,1198.724h-32.5a3.554,3.554,0,0,1-3.773-3.569v-12.366a3.882,3.882,0,0,1,3.773-3.958h32.5a4.245,4.245,0,0,1,4.2,3.958v12.366C2005.147,1197.123,2003.263,1198.724,2000.948,1198.724Zm-32.5-19.367a3.356,3.356,0,0,0-3.247,3.432v12.366a3.046,3.046,0,0,0,3.247,3.043h32.5c1.991,0,3.673-1.393,3.673-3.043v-12.366a3.749,3.749,0,0,0-3.673-3.432Z" transform="translate(-1964.677 -1129.203)" fill="url(#linear-gradient)"/>
        </g>
        <path id="Trazado_101434" data-name="Trazado 101434" d="M1563.625,1241.333c-9.147-.022-50.607-.118-59.772-.032a1.858,1.858,0,0,0-1.851,1.8v1a1.8,1.8,0,0,0,1.761,1.8l59.683,1.37a2.117,2.117,0,0,0,1.43-.511,1.946,1.946,0,0,0,.674-1.285v-2.341A1.914,1.914,0,0,0,1563.625,1241.333Z" transform="translate(-1495.383 -1164.206)" fill="#fff" opacity="0.33"/>
        <path id="Trazado_101435" data-name="Trazado 101435" d="M1632.937,929.583H1472.252a.263.263,0,1,1,0-.526h160.685a.263.263,0,1,1,0,.526Z" transform="translate(-1471.989 -920.838)" fill="url(#linear-gradient-5)"/>
        <path id="Trazado_101436" data-name="Trazado 101436" d="M2106.718,906.836h-.262a1.8,1.8,0,0,1-1.8-1.8v-.262a1.8,1.8,0,0,1,1.8-1.8h.262a1.8,1.8,0,0,1,1.8,1.8v.262A1.8,1.8,0,0,1,2106.718,906.836Zm-.262-3.329a1.272,1.272,0,0,0-1.271,1.27v.262a1.272,1.272,0,0,0,1.271,1.271h.262a1.272,1.272,0,0,0,1.271-1.271v-.262a1.272,1.272,0,0,0-1.271-1.27Z" transform="translate(-1965.158 -900.512)" fill="url(#linear-gradient)"/>
        <path id="Trazado_101437" data-name="Trazado 101437" d="M2138.283,906.836h-.262a1.8,1.8,0,0,1-1.8-1.8v-.262a1.8,1.8,0,0,1,1.8-1.8h.262a1.8,1.8,0,0,1,1.8,1.8v.262A1.8,1.8,0,0,1,2138.283,906.836Zm-.262-3.329a1.272,1.272,0,0,0-1.271,1.27v.262a1.272,1.272,0,0,0,1.271,1.271h.262a1.272,1.272,0,0,0,1.271-1.271v-.262a1.272,1.272,0,0,0-1.271-1.27Z" transform="translate(-1989.763 -900.512)" fill="url(#linear-gradient)"/>
        <path id="Trazado_101438" data-name="Trazado 101438" d="M2171.22,906.836h-.262a1.8,1.8,0,0,1-1.8-1.8v-.262a1.8,1.8,0,0,1,1.8-1.8h.262a1.8,1.8,0,0,1,1.8,1.8v.262A1.8,1.8,0,0,1,2171.22,906.836Zm-.262-3.329a1.272,1.272,0,0,0-1.271,1.27v.262a1.272,1.272,0,0,0,1.271,1.271h.262a1.272,1.272,0,0,0,1.271-1.271v-.262a1.272,1.272,0,0,0-1.271-1.27Z" transform="translate(-2015.437 -900.512)" fill="url(#linear-gradient)"/>
        <g id="Grupo_54200" data-name="Grupo 54200" transform="translate(28.109 17.982)">
          <path id="Trazado_101439" data-name="Trazado 101439" d="M1694.644,1084.437c2.966-7.775,11.158-12.087,18.752-9.688a14.27,14.27,0,0,1,2.325.968,11.968,11.968,0,1,1-21.076,8.72Z" transform="translate(-1673.658 -1051.87)" fill="#377aa0"/>
          <circle id="Elipse_4057" data-name="Elipse 4057" cx="17.52" cy="17.52" r="17.52" transform="translate(9.361)" fill="#377aa0"/>
          <g id="Grupo_54198" data-name="Grupo 54198" transform="translate(19.728 2.485)">
            <path id="Trazado_101440" data-name="Trazado 101440" d="M1692.283,988.52a14.33,14.33,0,0,1,5.557,19.488,14.525,14.525,0,0,1-4.42,4.944,14.451,14.451,0,0,0,10.508-26.62,14.213,14.213,0,0,0-14.99.877A14.07,14.07,0,0,1,1692.283,988.52Z" transform="translate(-1688.938 -984.602)" fill="#3b966a"/>
          </g>
          <path id="Trazado_101441" data-name="Trazado 101441" d="M1614.416,1017.24c6.363-5.363,7.734-14.518,2.966-20.9a14.285,14.285,0,0,0-1.68-1.876,11.968,11.968,0,1,0-1.286,22.773Z" transform="translate(-1599.468 -989.195)" fill="#377aa0"/>
          <g id="Grupo_54199" data-name="Grupo 54199" transform="translate(2.416 5.902)">
            <path id="Trazado_101442" data-name="Trazado 101442" d="M1624.082,1001.334a11.2,11.2,0,0,1,2.006,4.276,2.07,2.07,0,0,1-2.247,2.5c-3.569-.372-9.883-.183-11.115,5.516a.913.913,0,0,1-1.767.059c-1.3-4.412-1.033-12.771,10.436-13.573A3.1,3.1,0,0,1,1624.082,1001.334Z" transform="translate(-1610.426 -1000.103)" fill="#3b966a"/>
          </g>
        </g>
        <g id="Grupo_54201" data-name="Grupo 54201" transform="translate(63.837 20.92)">
          <path id="Trazado_101443" data-name="Trazado 101443" d="M1762,995.033a.5.5,0,0,0,.341-.136l6.741-6.385a3.131,3.131,0,0,1,2.161-.861h22.944a.5.5,0,1,0,0-.993h-22.944a4.12,4.12,0,0,0-2.844,1.133l-6.741,6.385a.5.5,0,0,0,.341.857Z" transform="translate(-1761.503 -986.658)" fill="#fff" opacity="0.68"/>
        </g>
        <g id="Grupo_54202" data-name="Grupo 54202" transform="translate(10.081 57.031)">
          <path id="Trazado_101444" data-name="Trazado 101444" d="M1553.224,1150.432a.538.538,0,0,0-.371.148l-7.325,6.939a3.4,3.4,0,0,1-2.349.936h-24.932a.54.54,0,0,0,0,1.079h24.932a4.476,4.476,0,0,0,3.091-1.231l7.325-6.938a.54.54,0,0,0-.371-.931Z" transform="translate(-1517.708 -1150.432)" fill="#fff" opacity="0.68"/>
        </g>
        <g id="Grupo_54203" data-name="Grupo 54203" transform="translate(47.123 33.447)">
          <path id="Trazado_101445" data-name="Trazado 101445" d="M1694.611,1061.276a8.9,8.9,0,1,1,8.9-8.908v.01A8.909,8.909,0,0,1,1694.611,1061.276Zm0-17.281a8.377,8.377,0,1,0,8.373,8.382v-.01A8.382,8.382,0,0,0,1694.611,1044Z" transform="translate(-1685.703 -1043.47)" fill="#fff"/>
          <path id="Trazado_101446" data-name="Trazado 101446" d="M1712.575,1072.059a.461.461,0,0,1-.461-.448l-.211-7.86a.742.742,0,0,1,1.056-.692l7.764,3.632a.742.742,0,0,1,.035,1.327l-6.854,3.654a.461.461,0,1,1-.434-.813l6.537-3.485-7.176-3.356.2,7.569a.461.461,0,0,1-.448.473Z" transform="translate(-1706.127 -1058.684)" fill="#fff"/>
        </g>
      </g>
    </g>
    <g id="Grupo_54206" data-name="Grupo 54206" transform="translate(77.361 232.192)">
      <path id="Trazado_101447" data-name="Trazado 101447" d="M210.507,792.979c1.939,1.022-10.921-21.113-11.908-40.615s-5.387-52.786-22.2-72.7-35.234-21.727-58.439-3.627c-19.338,15.084-31.4,22.7-38.475,24.111a2.673,2.673,0,0,0-1.793,3.9c4.537,8.356,17.365,27.549,38.9,26.2,27.474-1.724,60.771-19.584,70.92-4.685s8.845,23.236,9.157,30.3S197.675,786.214,210.507,792.979Z" transform="translate(-77.361 -663.527)" fill="#80ed99"/>
      <path id="Trazado_101448" data-name="Trazado 101448" d="M297.705,780.49a60.5,60.5,0,0,1,4.854-3.87c1.676-1.213,3.4-2.36,5.186-3.416a61.617,61.617,0,0,1,5.5-2.913,45.2,45.2,0,0,1,5.812-2.259,35.147,35.147,0,0,1,6.113-1.326,25.836,25.836,0,0,1,6.281-.021l.781.115a7.8,7.8,0,0,1,.778.135c.512.12,1.034.221,1.537.359s1,.285,1.5.438l1.484.488a40.674,40.674,0,0,1,5.735,2.485,36.175,36.175,0,0,1,9.847,7.638,45.4,45.4,0,0,1,6.939,10.33c.922,1.86,1.738,3.768,2.486,5.7s1.385,3.9,1.979,5.885a115.653,115.653,0,0,1,2.784,12.075.165.165,0,0,1-.325.062c-.829-4.034-1.8-8.04-3.022-11.966-.325-.975-.625-1.958-.979-2.922-.174-.483-.334-.971-.519-1.45l-.551-1.437c-.762-1.9-1.592-3.782-2.522-5.607a46.165,46.165,0,0,0-6.907-10.083,35.28,35.28,0,0,0-9.636-7.415,39.783,39.783,0,0,0-5.615-2.407l-1.456-.472c-.488-.148-.981-.282-1.472-.424s-.982-.232-1.472-.35a7.293,7.293,0,0,0-.744-.133l-.748-.114a24.92,24.92,0,0,0-6.057-.011,34.26,34.26,0,0,0-5.965,1.261A54.352,54.352,0,0,0,308.09,773.8a74.435,74.435,0,0,0-10.157,6.952l0,0a.172.172,0,0,1-.224-.261Z" transform="translate(-249.075 -743.799)" fill="#3b966a"/>
    </g>
    <g id="Grupo_54216" data-name="Grupo 54216" transform="translate(169.312 269.749)">
      <g id="Grupo_54207" data-name="Grupo 54207" transform="translate(0 0)">
        <path id="Trazado_101449" data-name="Trazado 101449" d="M581.658,840.833c.584,21.929,2.49,97.573,1.748,124.382a5.294,5.294,0,0,1-5.017,5.226c-13.572.5-52.617,1.765-74.822.86a8.922,8.922,0,0,1-8.421-8.843c-.523-23.018-1.714-87.76.627-117.426a7.28,7.28,0,0,1,6.4-6.756c14.778-1.57,54.03-5.415,73.215-4.178A6.83,6.83,0,0,1,581.658,840.833Z" transform="translate(-494.376 -833.857)" fill="#193d51"/>
        <path id="Trazado_101450" data-name="Trazado 101450" d="M595.629,883.056c.633,18.393,2.615,79.583,1.764,102.2a6.2,6.2,0,0,1-5.636,6.14c-12.654.722-45.109,2.287-63.654.581A6.98,6.98,0,0,1,522,985.152c-.841-18.767-3.24-75.746-2.42-98.11a6.869,6.869,0,0,1,6.027-6.767c13.692-1.241,48.856-4.178,64.618-3.161A5.991,5.991,0,0,1,595.629,883.056Z" transform="translate(-513.888 -867.412)" fill="#377aa0"/>
        <path id="Trazado_101451" data-name="Trazado 101451" d="M678.37,848.078h0a1.245,1.245,0,0,1-1.153,1.266c-3.206.182-12.236.7-16.271.951a1.249,1.249,0,0,1-1.274-1.5l.025-.138a1.238,1.238,0,0,1,1.085-1.023,150.833,150.833,0,0,1,16.413-.818A1.243,1.243,0,0,1,678.37,848.078Z" transform="translate(-623.208 -843.936)" fill="#193d51"/>
        <path id="Trazado_101452" data-name="Trazado 101452" d="M646.866,1414.962l24.49-.065a1.673,1.673,0,0,1,1.648,1.7l.007,2.588a1.673,1.673,0,0,1-1.639,1.705l-24.106.064a1.662,1.662,0,0,1-1.628-1.438l-.392-2.587A1.683,1.683,0,0,1,646.866,1414.962Z" transform="translate(-611.964 -1286.779)" fill="#193d51"/>
      </g>
      <g id="Grupo_54210" data-name="Grupo 54210" transform="translate(17.758 98.978)">
        <path id="Trazado_101453" data-name="Trazado 101453" d="M686.3,1326.029a6.325,6.325,0,0,1-6.325,6.325c-3.493,0-6.937-2.648-6.937-6.141s3.444-6.509,6.937-6.509A6.325,6.325,0,0,1,686.3,1326.029Z" transform="translate(-651.405 -1311.554)" fill="#3b966a"/>
        <path id="Trazado_101454" data-name="Trazado 101454" d="M694.318,1341.26h0a.84.84,0,0,1-.831-.75l-.57-5.328a.84.84,0,0,1,.9-.927l.57.044a.84.84,0,0,1,.775.837v5.283A.84.84,0,0,1,694.318,1341.26Z" transform="translate(-666.893 -1322.894)" fill="#fff" opacity="0.69"/>
        <path id="Trazado_101455" data-name="Trazado 101455" d="M707.5,1334.926v5.37a.84.84,0,0,0,.83.84l.135,0a.84.84,0,0,0,.849-.81l.194-5.372a.84.84,0,0,0-.839-.87h-.329A.84.84,0,0,0,707.5,1334.926Z" transform="translate(-678.263 -1322.765)" fill="#fff" opacity="0.69"/>
        <g id="Grupo_54208" data-name="Grupo 54208" transform="translate(38.115 9.655)">
          <path id="Trazado_101456" data-name="Trazado 101456" d="M757.876,1331.35a4.82,4.82,0,0,1-4.82,4.82c-2.662,0-5.287-2.018-5.287-4.68a5.36,5.36,0,0,1,5.287-4.96A4.82,4.82,0,0,1,757.876,1331.35Z" transform="translate(-747.77 -1326.53)" fill="#3b966a"/>
          <path id="Trazado_101457" data-name="Trazado 101457" d="M762.689,1336.6v4.294a.671.671,0,0,0,.664.671h.108a.671.671,0,0,0,.679-.647l.155-4.295a.671.671,0,0,0-.671-.7h-.263A.671.671,0,0,0,762.689,1336.6Z" transform="translate(-759.399 -1333.858)" fill="#fff" opacity="0.69"/>
          <path id="Trazado_101458" data-name="Trazado 101458" d="M773.594,1337.114l-.228,4.494a.36.36,0,0,0,.618.269l2.174-2.236a.36.36,0,0,0,.015-.486l-1.946-2.258A.36.36,0,0,0,773.594,1337.114Z" transform="translate(-767.722 -1334.513)" fill="#fff" opacity="0.69"/>
        </g>
        <g id="Grupo_54209" data-name="Grupo 54209" transform="translate(9.129 9.655)">
          <path id="Trazado_101459" data-name="Trazado 101459" d="M616.313,1331.35a4.82,4.82,0,0,0,4.82,4.82c2.662,0,5.287-2.018,5.287-4.68a5.36,5.36,0,0,0-5.287-4.96A4.82,4.82,0,0,0,616.313,1331.35Z" transform="translate(-616.313 -1326.53)" fill="#3b966a"/>
          <path id="Trazado_101460" data-name="Trazado 101460" d="M641.551,1336.6v4.294a.671.671,0,0,1-.663.671h-.108a.671.671,0,0,1-.679-.647l-.155-4.295a.672.672,0,0,1,.671-.7h.263A.671.671,0,0,1,641.551,1336.6Z" transform="translate(-634.734 -1333.858)" fill="#fff" opacity="0.69"/>
          <path id="Trazado_101461" data-name="Trazado 101461" d="M626.092,1337.114l.228,4.494a.36.36,0,0,1-.618.269l-2.174-2.236a.36.36,0,0,1-.015-.486l1.946-2.258A.36.36,0,0,1,626.092,1337.114Z" transform="translate(-621.858 -1334.513)" fill="#fff" opacity="0.69"/>
        </g>
        <path id="Trazado_101462" data-name="Trazado 101462" d="M574.918,1288.214l.056.558a1,1,0,0,0,1,.9h54.089a1,1,0,0,0,1-1h0a1,1,0,0,0-.99-1l-54.145-.558A1,1,0,0,0,574.918,1288.214Z" transform="translate(-574.913 -1286.149)" fill="#fff" opacity="0.69"/>
        <path id="Trazado_101463" data-name="Trazado 101463" d="M609.533,1289.032c-.063-.52-.141-1.046-.215-1.575l-33.394-.344a1,1,0,0,0-1.006,1.1l.056.558a1,1,0,0,0,1,.9h33.657C609.591,1289.448,609.558,1289.233,609.533,1289.032Z" transform="translate(-574.913 -1286.149)" fill="#3b966a"/>
        <circle id="Elipse_4058" data-name="Elipse 4058" cx="1.81" cy="1.81" r="1.81" transform="translate(32.524 1.385) rotate(-22.5)" fill="#fff"/>
      </g>
      <path id="Trazado_101464" data-name="Trazado 101464" d="M618.348,1028.723l-37.786,1.08a10.225,10.225,0,0,1-10.516-10.22V975.933a10.225,10.225,0,0,1,9.75-10.213l37.786-1.755a10.224,10.224,0,0,1,10.7,10.213V1018.5A10.224,10.224,0,0,1,618.348,1028.723Z" transform="translate(-553.36 -935.267)" fill="#193d51"/>
      <g id="Grupo_54215" data-name="Grupo 54215" transform="translate(22.26 41.717)">
        <g id="Grupo_54214" data-name="Grupo 54214" transform="translate(24.623)">
          <g id="Grupo_54211" data-name="Grupo 54211" transform="translate(0 13.463)">
            <path id="Trazado_101465" data-name="Trazado 101465" d="M707.466,1086.327c.867,1.036,7.46,4.968,0,11.258-.355.681.64,2.44,1.337,2.217,10.738-7.362.66-16.53-.445-15.631S706.458,1085.122,707.466,1086.327Z" transform="translate(-707.004 -1084.11)" fill="#fff"/>
          </g>
          <g id="Grupo_54212" data-name="Grupo 54212" transform="translate(4.148 7.55)">
            <path id="Trazado_101466" data-name="Trazado 101466" d="M726.6,1083.338c.161,1.373,1.1,2.664,2.3,2.278,1.183-.38,16.491-13.484-.765-28.078a1.04,1.04,0,0,0-1.471.129,2.557,2.557,0,0,0-.835,1.965C740.972,1072.986,726.44,1081.965,726.6,1083.338Z" transform="translate(-725.815 -1057.291)" fill="#fff"/>
          </g>
          <g id="Grupo_54213" data-name="Grupo 54213" transform="translate(8.433)">
            <path id="Trazado_101467" data-name="Trazado 101467" d="M746.323,1063.468c-.2.975.538,2.969,2.14,2.454,25.095-23.064-1.208-43.6-2.268-42.851a2.449,2.449,0,0,0-.743,2.9C769.008,1044.331,746.519,1062.493,746.323,1063.468Z" transform="translate(-745.25 -1023.051)" fill="#fff"/>
          </g>
        </g>
        <path id="Trazado_101468" data-name="Trazado 101468" d="M614.4,1041.222a.5.5,0,0,0-.566.122l-8.686,8.89a.525.525,0,0,1-.352.161l-7.221.361a1.406,1.406,0,0,0-1.332,1.308l-.9,13.033a1.408,1.408,0,0,0,1.249,1.5l8.243.916a.538.538,0,0,1,.312.146l8.725,8.337a.469.469,0,0,0,.539.106.5.5,0,0,0,.282-.495V1041.72A.5.5,0,0,0,614.4,1041.222Z" transform="translate(-595.331 -1037.184)" fill="#fff"/>
      </g>
    </g>
    <g id="Grupo_54218" data-name="Grupo 54218" transform="translate(394.559 156.741)">
      <circle id="Elipse_4059" data-name="Elipse 4059" cx="6.856" cy="6.856" r="6.856" transform="translate(0 5.247) rotate(-22.5)" fill="#ce9b36"/>
      <circle id="Elipse_4060" data-name="Elipse 4060" cx="6.628" cy="6.628" r="6.628" transform="translate(0.984 13.885) rotate(-76.717)" fill="#ffc94a"/>
      <path id="Trazado_101469" data-name="Trazado 101469" d="M1530.976,337.025a.22.22,0,0,1-.2-.32,6.312,6.312,0,0,1,5.662-3.486,6.406,6.406,0,0,1,1.143.1.221.221,0,0,1-.079.434,5.949,5.949,0,0,0-1.064-.1,5.873,5.873,0,0,0-5.268,3.244A.22.22,0,0,1,1530.976,337.025Z" transform="translate(-1527.484 -330.6)" fill="#fff" opacity="0.68"/>
      <circle id="Elipse_4061" data-name="Elipse 4061" cx="5.609" cy="5.609" r="5.609" transform="translate(3.492 3.492)" fill="#fff" opacity="0.68"/>
      <g id="Grupo_54217" data-name="Grupo 54217" transform="translate(6.631 5.132)">
        <path id="Trazado_101470" data-name="Trazado 101470" d="M1547.911,352.755v-.61a4.98,4.98,0,0,1-1.712-.371.353.353,0,0,1-.2-.417l.155-.569a.356.356,0,0,1,.483-.233,4.131,4.131,0,0,0,1.581.333c.613,0,1.07-.208,1.07-.633,0-.384-.353-.613-1.2-.841-1.215-.333-2.088-.862-2.088-1.932,0-.966.707-1.7,1.932-1.9v-.61a.355.355,0,0,1,.355-.356h.359a.356.356,0,0,1,.356.356v.548a4.547,4.547,0,0,1,1.357.244.354.354,0,0,1,.221.427l-.142.526a.355.355,0,0,1-.468.239,3.7,3.7,0,0,0-1.331-.242c-.727,0-.935.3-.935.571,0,.332.436.561,1.381.852,1.35.405,1.911.966,1.911,1.973a2.081,2.081,0,0,1-2.015,1.963v.683a.356.356,0,0,1-.356.356h-.359A.356.356,0,0,1,1547.911,352.755Z" transform="translate(-1545.99 -344.615)" fill="#ffc94a"/>
      </g>
    </g>
    <g id="Grupo_54220" data-name="Grupo 54220" transform="translate(384.117 180.128)">
      <circle id="Elipse_4062" data-name="Elipse 4062" cx="11.205" cy="11.205" r="11.205" transform="matrix(0.122, -0.993, 0.993, 0.122, 0.541, 22.784)" fill="#ce9b36"/>
      <circle id="Elipse_4063" data-name="Elipse 4063" cx="10.833" cy="10.833" r="10.833" transform="translate(0 21.086) rotate(-76.717)" fill="#ffc94a"/>
      <path id="Trazado_101471" data-name="Trazado 101471" d="M1486.375,446.1a.22.22,0,0,1-.2-.32,10.178,10.178,0,0,1,9.13-5.621,10.314,10.314,0,0,1,1.844.166.22.22,0,1,1-.079.434,9.881,9.881,0,0,0-1.764-.159,9.74,9.74,0,0,0-8.736,5.379A.22.22,0,0,1,1486.375,446.1Z" transform="translate(-1482.276 -437.346)" fill="#fff" opacity="0.68"/>
      <circle id="Elipse_4064" data-name="Elipse 4064" cx="9.169" cy="9.169" r="9.169" transform="translate(4.099 4.099)" fill="#fff" opacity="0.68"/>
      <g id="Grupo_54219" data-name="Grupo 54219" transform="translate(9.23 6.779)">
        <path id="Trazado_101472" data-name="Trazado 101472" d="M1513.561,471.456v-1a8.137,8.137,0,0,1-2.8-.607.577.577,0,0,1-.319-.682l.253-.929a.582.582,0,0,1,.79-.381,6.757,6.757,0,0,0,2.584.544c1,0,1.749-.34,1.749-1.035,0-.628-.577-1-1.969-1.375-1.986-.543-3.412-1.409-3.412-3.158,0-1.579,1.155-2.784,3.158-3.107v-1a.581.581,0,0,1,.581-.581h.586a.581.581,0,0,1,.581.581v.9a7.424,7.424,0,0,1,2.218.4.578.578,0,0,1,.361.7l-.233.859a.579.579,0,0,1-.765.391,6.054,6.054,0,0,0-2.176-.395c-1.188,0-1.528.492-1.528.934,0,.543.713.917,2.258,1.392,2.207.662,3.124,1.579,3.124,3.225,0,1.511-1.12,2.869-3.293,3.208v1.116a.581.581,0,0,1-.581.581h-.586A.581.581,0,0,1,1513.561,471.456Z" transform="translate(-1510.422 -458.151)" fill="#ffc94a"/>
      </g>
    </g>
    <g id="Grupo_54222" data-name="Grupo 54222" transform="translate(113.937 315.209)">
      <circle id="Elipse_4065" data-name="Elipse 4065" cx="9.727" cy="9.727" r="9.727" transform="matrix(0.383, -0.924, 0.924, 0.383, 0, 17.972)" fill="#ce9b36"/>
      <circle id="Elipse_4066" data-name="Elipse 4066" cx="9.403" cy="9.403" r="9.403" transform="matrix(0.383, -0.924, 0.924, 0.383, 0.423, 17.797)" fill="#ffc94a"/>
      <path id="Trazado_101473" data-name="Trazado 101473" d="M264.932,1062.51a.221.221,0,0,1-.2-.32,8.863,8.863,0,0,1,7.95-4.9,8.965,8.965,0,0,1,1.605.144.221.221,0,0,1-.079.434,8.517,8.517,0,0,0-1.527-.137,8.425,8.425,0,0,0-7.557,4.653A.221.221,0,0,1,264.932,1062.51Z" transform="translate(-259.977 -1053.487)" fill="#fff" opacity="0.68"/>
      <circle id="Elipse_4067" data-name="Elipse 4067" cx="7.959" cy="7.959" r="7.959" transform="matrix(0.23, -0.973, 0.973, 0.23, 3.339, 18.83)" fill="#fff" opacity="0.68"/>
      <g id="Grupo_54221" data-name="Grupo 54221" transform="translate(9.408 7.281)">
        <path id="Trazado_101474" data-name="Trazado 101474" d="M288.632,1084.595v-.866a7.064,7.064,0,0,1-2.429-.527.5.5,0,0,1-.277-.592l.22-.807a.5.5,0,0,1,.685-.33,5.863,5.863,0,0,0,2.243.472c.869,0,1.518-.295,1.518-.9,0-.545-.5-.869-1.709-1.193-1.724-.472-2.962-1.223-2.962-2.741,0-1.37,1-2.417,2.741-2.7v-.866a.5.5,0,0,1,.5-.5h.509a.5.5,0,0,1,.5.5v.777a6.435,6.435,0,0,1,1.926.346.5.5,0,0,1,.314.606l-.2.746a.5.5,0,0,1-.664.34,5.254,5.254,0,0,0-1.889-.343c-1.031,0-1.326.427-1.326.81,0,.472.619.8,1.96,1.208,1.916.575,2.711,1.37,2.711,2.8,0,1.311-.972,2.49-2.859,2.785v.969a.5.5,0,0,1-.5.5h-.509A.5.5,0,0,1,288.632,1084.595Z" transform="translate(-285.908 -1073.046)" fill="#ffc94a"/>
      </g>
    </g>
    <g id="Grupo_54224" data-name="Grupo 54224" transform="translate(103.568 338.456)">
      <circle id="Elipse_4068" data-name="Elipse 4068" cx="9.453" cy="9.453" r="9.453" transform="translate(0.149 18.81) rotate(-80.783)" fill="#ce9b36"/>
      <circle id="Elipse_4069" data-name="Elipse 4069" cx="9.138" cy="9.138" r="9.138" transform="matrix(0.23, -0.973, 0.973, 0.23, 0, 17.788)" fill="#ffc94a"/>
      <path id="Trazado_101475" data-name="Trazado 101475" d="M211.118,1161.136a.221.221,0,0,1-.2-.32,8.62,8.62,0,0,1,7.732-4.761,8.748,8.748,0,0,1,1.561.141.221.221,0,0,1-.079.434,8.288,8.288,0,0,0-1.482-.133,8.181,8.181,0,0,0-7.338,4.518A.22.22,0,0,1,211.118,1161.136Z" transform="translate(-207.66 -1153.718)" fill="#fff" opacity="0.68"/>
      <circle id="Elipse_4070" data-name="Elipse 4070" cx="7.734" cy="7.734" r="7.734" transform="translate(1.087 7.007) rotate(-22.5)" fill="#fff" opacity="0.68"/>
      <g id="Grupo_54223" data-name="Grupo 54223" transform="translate(7.786 5.718)">
        <path id="Trazado_101476" data-name="Trazado 101476" d="M234.172,1182.614v-.841a6.86,6.86,0,0,1-2.361-.512.487.487,0,0,1-.269-.575l.214-.784a.491.491,0,0,1,.666-.321,5.7,5.7,0,0,0,2.18.459c.845,0,1.475-.286,1.475-.874,0-.53-.487-.845-1.661-1.16-1.676-.458-2.879-1.189-2.879-2.664,0-1.332.974-2.349,2.664-2.621v-.842a.49.49,0,0,1,.49-.49h.494a.49.49,0,0,1,.49.49v.756a6.251,6.251,0,0,1,1.871.336.488.488,0,0,1,.3.589l-.2.725a.489.489,0,0,1-.645.33,5.1,5.1,0,0,0-1.835-.333c-1,0-1.289.415-1.289.787,0,.458.6.773,1.9,1.174,1.862.559,2.635,1.332,2.635,2.721,0,1.275-.945,2.42-2.778,2.707v.942a.49.49,0,0,1-.49.49h-.494A.49.49,0,0,1,234.172,1182.614Z" transform="translate(-231.525 -1171.39)" fill="#ffc94a"/>
      </g>
    </g>
    <g id="Grupo_54226" data-name="Grupo 54226" transform="translate(419.26 146.176)">
      <circle id="Elipse_4071" data-name="Elipse 4071" cx="9.945" cy="9.945" r="9.945" transform="translate(0.024 19.383) rotate(-76.717)" fill="#ce9b36"/>
      <circle id="Elipse_4072" data-name="Elipse 4072" cx="9.615" cy="9.615" r="9.615" transform="translate(0 18.404) rotate(-73.155)" fill="#ffc94a"/>
      <path id="Trazado_101477" data-name="Trazado 101477" d="M1645.578,291.869a.22.22,0,0,1-.2-.32,9.058,9.058,0,0,1,8.125-5,9.18,9.18,0,0,1,1.641.148.221.221,0,0,1-.079.434,8.735,8.735,0,0,0-1.562-.14,8.618,8.618,0,0,0-7.731,4.76A.22.22,0,0,1,1645.578,291.869Z" transform="translate(-1641.518 -283.655)" fill="#fff"/>
      <circle id="Elipse_4073" data-name="Elipse 4073" cx="8.138" cy="8.138" r="8.138" transform="translate(2.862 18.927) rotate(-80.783)" fill="#fff" opacity="0.68"/>
      <g id="Grupo_54225" data-name="Grupo 54225" transform="translate(8.614 6.439)">
        <path id="Trazado_101478" data-name="Trazado 101478" d="M1669.794,314.438v-.885a7.22,7.22,0,0,1-2.484-.538.512.512,0,0,1-.283-.605l.225-.825a.516.516,0,0,1,.7-.338,5.994,5.994,0,0,0,2.294.483c.889,0,1.552-.3,1.552-.919,0-.558-.512-.889-1.748-1.22-1.763-.482-3.028-1.25-3.028-2.8,0-1.4,1.024-2.471,2.8-2.757v-.886a.516.516,0,0,1,.516-.516h.52a.516.516,0,0,1,.516.516v.8a6.583,6.583,0,0,1,1.969.353.513.513,0,0,1,.321.62l-.207.762a.515.515,0,0,1-.679.348,5.371,5.371,0,0,0-1.931-.351c-1.055,0-1.356.437-1.356.829,0,.482.633.814,2,1.235,1.959.588,2.772,1.4,2.772,2.863,0,1.341-.994,2.546-2.923,2.848v.991a.516.516,0,0,1-.516.516h-.52A.516.516,0,0,1,1669.794,314.438Z" transform="translate(-1667.008 -302.629)" fill="#ffc94a"/>
      </g>
    </g>
    <g id="Grupo_54228" data-name="Grupo 54228" transform="translate(365.452 205.826)">
      <circle id="Elipse_4074" data-name="Elipse 4074" cx="14.265" cy="14.265" r="14.265" transform="translate(0)" fill="#ce9b36"/>
      <circle id="Elipse_4075" data-name="Elipse 4075" cx="13.79" cy="13.79" r="13.79" transform="translate(0.474 0.474)" fill="#ffc94a"/>
      <path id="Trazado_101479" data-name="Trazado 101479" d="M1396.256,557.358a.221.221,0,0,1-.2-.32,12.9,12.9,0,0,1,11.568-7.123,13.077,13.077,0,0,1,2.336.21.221.221,0,0,1-.079.434,12.623,12.623,0,0,0-2.257-.2,12.458,12.458,0,0,0-11.175,6.88A.22.22,0,0,1,1396.256,557.358Z" transform="translate(-1393.363 -548.601)" fill="#fff" opacity="0.68"/>
      <circle id="Elipse_4076" data-name="Elipse 4076" cx="11.672" cy="11.672" r="11.672" transform="matrix(0.23, -0.973, 0.973, 0.23, 0.524, 23.243)" fill="#fff" opacity="0.68"/>
      <g id="Grupo_54227" data-name="Grupo 54227" transform="translate(9.424 6.305)">
        <path id="Trazado_101480" data-name="Trazado 101480" d="M1430.65,589.486v-1.27a10.355,10.355,0,0,1-3.563-.773.734.734,0,0,1-.406-.868l.323-1.183a.74.74,0,0,1,1-.484,8.6,8.6,0,0,0,3.29.693c1.275,0,2.226-.432,2.226-1.318,0-.8-.735-1.275-2.507-1.75-2.529-.692-4.344-1.794-4.344-4.02,0-2.01,1.47-3.544,4.02-3.955v-1.27a.74.74,0,0,1,.74-.74h.746a.74.74,0,0,1,.74.74v1.14a9.436,9.436,0,0,1,2.824.507.736.736,0,0,1,.46.889l-.3,1.094a.738.738,0,0,1-.974.5,7.7,7.7,0,0,0-2.77-.5c-1.513,0-1.945.627-1.945,1.189,0,.691.907,1.167,2.874,1.772,2.809.843,3.976,2.01,3.976,4.106,0,1.923-1.426,3.652-4.192,4.084v1.421a.74.74,0,0,1-.74.74h-.746A.74.74,0,0,1,1430.65,589.486Z" transform="translate(-1426.655 -572.548)" fill="#ffc94a"/>
      </g>
    </g>
    <g id="Grupo_54233" data-name="Grupo 54233" transform="translate(303.808 174.672)">
      <path id="Trazado_101481" data-name="Trazado 101481" d="M1256.783,647.3c-.037-.014-20.034-35.033-22.736-38.328a2.1,2.1,0,0,0-1.87-.752l-5.581.665-6.557,14.185,10.924-6.362c-1.081,7.476,12.952,18.585,17.765,22.639a1.105,1.105,0,0,1,.087,1.61l-1.921,2.011a22.067,22.067,0,0,0,10.9,6.2Z" transform="translate(-1194.529 -562.882)" fill="url(#linear-gradient-9)"/>
      <path id="Trazado_101482" data-name="Trazado 101482" d="M1340.8,760.939a2.83,2.83,0,0,0-1.641,1.488,1.249,1.249,0,0,0,.47,1.44c2.019,1.447,8.68,6.117,11.753,7.032a.348.348,0,0,0,.435-.41,11.074,11.074,0,0,0-2.312-4.227l.147.3a.427.427,0,0,1-.591.564C1347.009,765.964,1342.822,763.424,1340.8,760.939Z" transform="translate(-1287.328 -681.941)" fill="#377aa0"/>
      <path id="Trazado_101483" data-name="Trazado 101483" d="M1241.482,669.893c-.034-.022-3.034-7.25-3.067-7.271a127.288,127.288,0,0,0-11.441-34.865,2.1,2.1,0,0,0-1.679-1.114l-5.6-.478-9.292,12.565,11.985-4.019c-2.571,7.1,8.923,20.822,12.816,25.766a1.106,1.106,0,0,1-.24,1.594l-2.289,1.581a22.065,22.065,0,0,0,9.422,8.278Z" transform="translate(-1187.017 -576.883)" fill="url(#linear-gradient-10)"/>
      <path id="Trazado_101484" data-name="Trazado 101484" d="M1309.959,792.369a2.829,2.829,0,0,0-1.909,1.125,1.25,1.25,0,0,0,.169,1.505c1.685,1.825,7.262,7.747,10.087,9.265a.348.348,0,0,0,.509-.313,11.072,11.072,0,0,0-1.408-4.607l.084.322a.427.427,0,0,1-.693.432C1315.019,798.546,1311.433,795.211,1309.959,792.369Z" transform="translate(-1262.994 -706.44)" fill="#377aa0"/>
      <g id="Grupo_54229" data-name="Grupo 54229" transform="translate(0.923 46.413)">
        <path id="Trazado_101485" data-name="Trazado 101485" d="M1114.07,613.378s-5.066,7.536-5.482,10.973,1.4,4.626,6.7,5.064c15.78,1.3,23.559-3.425,23.559-3.425,1.08-6.883,1.848-8.634,10.863-12.376,0,0-11.4.905-13.7.015S1114.07,613.378,1114.07,613.378Z" transform="translate(-1108.531 -613.156)" fill="#193d51"/>
      </g>
      <g id="Grupo_54231" data-name="Grupo 54231" transform="translate(0)">
        <path id="Trazado_101486" data-name="Trazado 101486" d="M1139.04,417.023s-3.529-4.175-7.28.947c-.679.928-3.289.162-4.246,2.1a2.465,2.465,0,0,1-2.66,1.37c-2.738-.5-7.212-.547-9.421,3.742-1.686,3.274-.384,5.191,1.3,6.283a2.764,2.764,0,0,1,.931,3.7c-.718,1.219-.853,2.871,1,4.858,4.155,4.453,12.38-2.826,12.38-2.826l6.531-15.432Z" transform="translate(-1112.375 -412.607)" fill="#193d51"/>
        <path id="Trazado_101487" data-name="Trazado 101487" d="M1129.213,513.072a115.669,115.669,0,0,0,8.8-9.339,7.9,7.9,0,0,0,1.337-7.105,98.117,98.117,0,0,0-3.9-9.814c-.329-1.1-6.945-1.058-6.945-1.058s-13.017,8.449-18.132,22.76l5.744,1.788a67.13,67.13,0,0,1,6.757-9.327s-5.811,7.677-6.016,10.819Z" transform="translate(-1109.049 -467.435)" fill="#ffc94a"/>
        <path id="Trazado_101488" data-name="Trazado 101488" d="M1135.75,595.75l-4.433-4.823-5.12,1.379s-5.969.925-9.385,0l-3.416-.925-7.72-2.4-1.213,3.427a2.063,2.063,0,0,0,.754,2.37,13.612,13.612,0,0,0,1.95,1.215c1.017.445,23.419.141,23.419.141Z" transform="translate(-1104.346 -547.896)" fill="url(#linear-gradient-11)"/>
        <path id="Trazado_101489" data-name="Trazado 101489" d="M1197.514,447.422l-4.446,8.268c.294,1.8,4.839,1.856,5.541.778a1.067,1.067,0,0,0,.14-.364l2.66-5.524c.114-.539-1.363-2.354-1.849-2.612l-1.767-.941C1197.112,446.664,1199.952,446.635,1197.514,447.422Z" transform="translate(-1173.505 -437.054)" fill="url(#linear-gradient-12)"/>
        <g id="Grupo_54230" data-name="Grupo 54230" transform="translate(19.456)">
          <path id="Trazado_101490" data-name="Trazado 101490" d="M1211.44,418.944a9.783,9.783,0,0,1,3.014,5.835c.764,4.1-.962,5.456-2.636,5.266a7.806,7.806,0,0,1-6.011-3.885C1203.872,423.131,1208.484,416.818,1211.44,418.944Z" transform="translate(-1202.533 -415.021)" fill="url(#linear-gradient-13)"/>
          <path id="Trazado_101491" data-name="Trazado 101491" d="M1198.084,412.3s-.509-5.846,4.248-4.669l.912,1.072s2.515-2.51.03-4.672-6.132-1.867-8.354,1.661-3.1,6.049-1.562,8.418,2.919.5,2.919.5-.65-2.009.039-2.813,1.432.578,1.432.578Z" transform="translate(-1192.585 -402.665)" fill="#193d51"/>
          <path id="Trazado_101492" data-name="Trazado 101492" d="M1205.874,440.062s-.244-3.007-1.818-2.247.38,2.818,1.171,3.526Z" transform="translate(-1201.062 -429.969)" fill="url(#linear-gradient-14)"/>
        </g>
      </g>
      <g id="Grupo_54232" data-name="Grupo 54232" transform="translate(15.864 31.25)">
        <path id="Trazado_101493" data-name="Trazado 101493" d="M1177.157,621.822h.047l20.39-.022a.913.913,0,0,0,0-1.826L1177.2,620a.913.913,0,0,0-.045,1.824Z" transform="translate(-1176.29 -603.309)" fill="#377aa0"/>
        <path id="Trazado_101494" data-name="Trazado 101494" d="M1257.905,544.39h-16.981a3.237,3.237,0,0,0-2.927,1.856l-7.85,16.646h21.1a1.967,1.967,0,0,0,1.829-1.244l6.088-15.4A1.356,1.356,0,0,0,1257.905,544.39Z" transform="translate(-1218.271 -544.39)" fill="#377aa0"/>
        <path id="Trazado_101495" data-name="Trazado 101495" d="M1301.2,577.086c-.368,1.143-.1,2.254.607,2.48s1.572-.517,1.94-1.66.1-2.254-.607-2.48S1301.57,575.942,1301.2,577.086Z" transform="translate(-1273.531 -568.551)" fill="#3b966a"/>
      </g>
    </g>
    <g id="Grupo_54238" data-name="Grupo 54238" transform="translate(141.261 321.197)">
      <g id="Grupo_54234" data-name="Grupo 54234" transform="translate(52.332 0)">
        <path id="Trazado_101496" data-name="Trazado 101496" d="M606.238,1076.552c.09.286-.953.723-1.568-.449-.022-.562-.363-2.968-.028-3.425a44.8,44.8,0,0,1,5.253-5.491.825.825,0,0,1,.1,1.146l-1.681,1.751a8.146,8.146,0,0,1,.982,1.94,2.356,2.356,0,0,1-.235,1.734c-.3.532-.7,1.223-1.078,1.764A2.326,2.326,0,0,1,606.238,1076.552Z" transform="translate(-604.496 -1067.186)" fill="url(#linear-gradient-15)"/>
        <path id="Trazado_101497" data-name="Trazado 101497" d="M611.378,1085.477l-1.532,1.3-.481,1.293,1.366,1.515a17.625,17.625,0,0,1,.8-3.121C611.873,1085.908,611.7,1085.639,611.378,1085.477Z" transform="translate(-608.291 -1081.444)" fill="url(#linear-gradient-16)"/>
      </g>
      <g id="Grupo_54237" data-name="Grupo 54237" transform="translate(0 3.233)">
        <path id="Trazado_101498" data-name="Trazado 101498" d="M473.868,1543.4s-.387,2.191-.577,4.36a1.494,1.494,0,0,0,1.429,1.619c2.888.12,9.066.354,11.283.255a.486.486,0,0,0,.428-.666h0a1.088,1.088,0,0,0-.557-.587l-10.2-4.69Z" transform="translate(-449.885 -1441.63)" fill="#193d51"/>
        <path id="Trazado_101499" data-name="Trazado 101499" d="M474.489,1536.132l.311,2.621s1.788.832,3.008-.1l-.74-2.921Z" transform="translate(-450.823 -1435.648)" fill="url(#linear-gradient-17)"/>
        <path id="Trazado_101500" data-name="Trazado 101500" d="M446.9,1314.11c-.134.684-.721,34.152,2.857,49.15a.509.509,0,0,1-.3.592,8.872,8.872,0,0,1-2.913.592.877.877,0,0,1-.87-.629c-1.023-3.48-5.923-20.914-6.562-37.569-.714-18.61,0-.634,0-.634l.419-11.5Z" transform="translate(-422.998 -1262.896)" fill="#193d51"/>
        <path id="Trazado_101501" data-name="Trazado 101501" d="M418.336,1548.585a15.764,15.764,0,0,0-1.213,4.045.912.912,0,0,0,.8,1.092c.954.094,2.422.215,3.6.206a.909.909,0,0,0,.9-1.014,7.666,7.666,0,0,0-1.79-4.2Z" transform="translate(-406.092 -1445.671)" fill="#193d51"/>
        <path id="Trazado_101502" data-name="Trazado 101502" d="M420.234,1532.754l.727,3.963a2.562,2.562,0,0,0,2.139.147l-.347-4.264Z" transform="translate(-408.531 -1433.211)" fill="url(#linear-gradient-18)"/>
        <path id="Trazado_101503" data-name="Trazado 101503" d="M407.351,1312.225c-2.926,17.658.635,43.643,1.835,48.729a.793.793,0,0,0,.64.6,5.326,5.326,0,0,0,2.289-.091.727.727,0,0,0,.523-.669c.161-4.112-.129-29.354,2.6-39.33a2.267,2.267,0,0,1,.874-1.25l5.292-3.762.405-6.08Z" transform="translate(-397.611 -1259.984)" fill="#193d51"/>
        <g id="Grupo_54235" data-name="Grupo 54235" transform="translate(8.647 5.203)">
          <path id="Trazado_101504" data-name="Trazado 101504" d="M426.114,1161.966a82.426,82.426,0,0,0-18.443,2.3c-2.614,15.25-.457,32.841-.457,32.841,6.788,1.78,14.446-1.088,14.446-1.088,1.128-6.374,6.392-24.314,6.392-24.314a28.88,28.88,0,0,0,10.72-3.4,18.8,18.8,0,0,1-3.716-7.772A29.412,29.412,0,0,1,426.114,1161.966Z" transform="translate(-406.378 -1148.387)" fill="#ffc94a"/>
          <path id="Trazado_101505" data-name="Trazado 101505" d="M553.4,1106.112a1.677,1.677,0,0,0-1.951-.548c-1.29,5.45-8.056,9.87-15.007,12.03a18.8,18.8,0,0,0,3.716,7.772C551.689,1118.88,553.4,1106.112,553.4,1106.112Z" transform="translate(-507.76 -1105.448)" fill="url(#linear-gradient-19)"/>
        </g>
        <path id="Trazado_101506" data-name="Trazado 101506" d="M381.891,1185.965l-3.363-8.49s-8.19,5.565-9.537,12.62a19.38,19.38,0,0,1,7.12,1.908C376.716,1188.672,381.891,1185.965,381.891,1185.965Z" transform="translate(-368.587 -1156.39)" fill="#ffc94a"/>
        <path id="Trazado_101507" data-name="Trazado 101507" d="M445.686,1134.75l-2.79,8.068a.291.291,0,0,0,.133.35,6.558,6.558,0,0,0,6.8-.458,1.369,1.369,0,0,0,.63-.978l.9-6.983Z" transform="translate(-426.184 -1123.085)" fill="url(#linear-gradient-20)"/>
        <g id="Grupo_54236" data-name="Grupo 54236" transform="translate(14.207)">
          <path id="Trazado_101508" data-name="Trazado 101508" d="M457.856,1100.866s3.064,5.767,2.671,8.1-4.19,2.162-7.505.27l-2.317-6.227Z" transform="translate(-446.491 -1096.673)" fill="url(#linear-gradient-21)"/>
          <path id="Trazado_101509" data-name="Trazado 101509" d="M438.27,1091.351a.238.238,0,0,0,.1-.348,6.207,6.207,0,0,1-.852-1.81s-.551-.353,1.4-.82,4.864-1.193,5.476-2.855c.6-1.62-.971-5.7-3.472-2.448a.238.238,0,0,1-.377,0,2.45,2.45,0,0,0-2.985-.97,2.248,2.248,0,0,0-1.539,2.172.237.237,0,0,1-.28.242,2.741,2.741,0,0,0-3.2,1.492c-.653,1.436-.229,2.249.158,2.646a.237.237,0,0,1-.1.393,1.426,1.426,0,0,0-1.006,1.627c.083,1.507,1.768,1.375,2.248,1.306a.239.239,0,0,1,.211.075c.411.455,2.265,2.388,4.271,2.621a.24.24,0,0,0,.252-.317l-.868-2.524a.239.239,0,0,1,.129-.3Z" transform="translate(-431.592 -1081.849)" fill="#193d51"/>
          <path id="Trazado_101510" data-name="Trazado 101510" d="M455.156,1123.947s-2.181-1.5-2.341-.236,1.964,1.826,3.016,1.356Z" transform="translate(-448.129 -1114.087)" fill="url(#linear-gradient-22)"/>
        </g>
        <path id="Trazado_101511" data-name="Trazado 101511" d="M374.684,1236.286s-2.862,12.914-.269,20.174c-3.179,1.474-2.592,1.2-2.592,1.2s-6.289-18.375-4.258-23.279C371.567,1233.953,373.552,1235.029,374.684,1236.286Z" transform="translate(-367.16 -1200.672)" fill="url(#linear-gradient-23)"/>
        <path id="Trazado_101512" data-name="Trazado 101512" d="M390.018,1333.606s1.638,2.12,1.507,2.965-.162,1.188-.162,1.188-.823-.563-.771-1.282c.114,2.283.879,4.879.184,4.754s-4.292-3.44-3.478-6.975C389.142,1332.974,389.659,1333.113,390.018,1333.606Z" transform="translate(-382.764 -1277.818)" fill="url(#linear-gradient-24)"/>
      </g>
    </g>
    <g id="Grupo_54241" data-name="Grupo 54241" transform="translate(444.242 321.863)">
      <g id="Grupo_54239" data-name="Grupo 54239" transform="translate(0 0)">
        <path id="Trazado_101513" data-name="Trazado 101513" d="M1745.812,1080.014c-.094.3,1.076.761,1.735-.458.012-.587.343-3.1-.04-3.577a50.231,50.231,0,0,0-5.957-5.772.824.824,0,0,0-.091,1.2l1.906,1.841a8.045,8.045,0,0,0-1.052,2.02,2.354,2.354,0,0,0,.3,1.812c.339.557.8,1.282,1.236,1.849A2.722,2.722,0,0,0,1745.812,1080.014Z" transform="translate(-1741.24 -1070.207)" fill="url(#linear-gradient-25)"/>
        <path id="Trazado_101514" data-name="Trazado 101514" d="M1753.7,1093.242a17.975,17.975,0,0,0-.939-3.226.953.953,0,0,1-.217-.765.688.688,0,0,1,.411-.425l.062-.03,1.808,1.427.573,1.381-.2.084-.551-1.327-1.653-1.305a.438.438,0,0,0-.233.253.773.773,0,0,0,.187.584,17.43,17.43,0,0,1,.971,3.3Z" transform="translate(-1750.039 -1084.698)" fill="url(#linear-gradient-26)"/>
      </g>
      <path id="Trazado_101515" data-name="Trazado 101515" d="M1857.462,1141.3s2.177,1.059,2.577,2.276c.321.976,2.729,1.1,2.966,3.021a2.2,2.2,0,0,0,1.843,1.936c2.459.377,6.248,1.654,6.854,5.922.463,3.258-1.2,4.494-2.941,4.922a2.469,2.469,0,0,0-1.872,2.852c.248,1.24-.122,2.673-2.27,3.806-4.813,2.54-9.62-6.017-9.62-6.017l-.985-14.941Z" transform="translate(-1829.148 -1125.625)" fill="#193d51"/>
      <path id="Trazado_101516" data-name="Trazado 101516" d="M1763.285,1105.568s6.193,16.884,16.746,22.161c0,0-3.512,5.731-5.345,6.078,0,0-11.274-14.429-12.423-26.25Z" transform="translate(-1757.627 -1097.771)" fill="url(#linear-gradient-27)"/>
      <path id="Trazado_101517" data-name="Trazado 101517" d="M1959.354,1562.7l.311,2.56a1.058,1.058,0,0,0,.928.925,16.368,16.368,0,0,0,3.427.054.906.906,0,0,0,.761-1.175,9.328,9.328,0,0,0-1.718-3.345h-2.84A.875.875,0,0,0,1959.354,1562.7Z" transform="translate(-1911.255 -1453.343)" fill="#193d51"/>
      <path id="Trazado_101518" data-name="Trazado 101518" d="M1850.936,1430.135l-.479,2.82s1.605,16.262,1.891,22.767a5.1,5.1,0,0,1-.754,2.9l-2.792,4.533,7.095-4.187.141-.866-1.161-1.6,1.521-18.218a5.589,5.589,0,0,0-.636-3.092l-1.468-2.757Z" transform="translate(-1825.085 -1350.772)" fill="url(#linear-gradient-28)"/>
      <path id="Trazado_101519" data-name="Trazado 101519" d="M1844.567,1559.057h2.264a1.363,1.363,0,0,0,1.082-.531c.706-.917,2.168-2.706,2.868-2.753.941-.063.821,3.284.821,3.284h.528l.668-4.159a2.462,2.462,0,0,0-1.292-2.573h0a3.481,3.481,0,0,1-1.382,2.3c-1.167.7-4.748,3.225-4.748,3.225a3.238,3.238,0,0,0-.92.024A.6.6,0,0,0,1844.567,1559.057Z" transform="translate(-1821.317 -1446.019)" fill="#193d51"/>
      <path id="Trazado_101520" data-name="Trazado 101520" d="M1902.554,1432.066s9.405,17.841,10.9,21.914a39.121,39.121,0,0,1,2.039,7.793c.031.5.657.985,2.381.985a1.654,1.654,0,0,0,1.539-.7,1,1,0,0,0,.038-.974c-.544-1.1-2.271-4.62-2.91-6.216-.763-1.905-2.406-10.541-3.306-13.543s-1.918-6.259-5.841-9.259C1907.393,1432.066,1904.7,1429.429,1902.554,1432.066Z" transform="translate(-1866.985 -1351.364)" fill="url(#linear-gradient-29)"/>
      <path id="Trazado_101521" data-name="Trazado 101521" d="M1828.828,1227.583c-2.426-10.281,3.72-16.095,3.72-16.095-3.878-3.723-10.944-5.417-10.944-5.417s-6.742,4.929-5.942,8.787c.469,2.261,4.739,13.545,4.739,13.545A9.383,9.383,0,0,0,1828.828,1227.583Z" transform="translate(-1799.201 -1176.113)" fill="#80ed99"/>
      <path id="Trazado_101522" data-name="Trazado 101522" d="M1849.464,1308.72c-.987-2.974-5.379-5.09-5.379-5.09a9.383,9.383,0,0,1-8.427.821,16.9,16.9,0,0,0-.274,6.531c.611,3.146,4.446,23.363,4.446,23.363,6.042,1.224,15.335-1.232,15.335-1.232C1851.316,1326.279,1850.452,1311.694,1849.464,1308.72Z" transform="translate(-1814.458 -1252.161)" fill="#ffc94a"/>
      <path id="Trazado_101523" data-name="Trazado 101523" d="M1849.359,1172.273l1.973,8.86c.189.781-.523.653-1.312.5-1.292-.244-2.958-.745-3.514-1.751a.959.959,0,0,1-.1-.334l-.847-6.144a1.1,1.1,0,0,1,.646-1.16l1.635-.725A1.1,1.1,0,0,1,1849.359,1172.273Z" transform="translate(-1822.547 -1149.11)" fill="url(#linear-gradient-30)"/>
      <g id="Grupo_54240" data-name="Grupo 54240" transform="translate(19.817 11.579)">
        <path id="Trazado_101524" data-name="Trazado 101524" d="M1835.8,1136.508a8.74,8.74,0,0,0-3.925,4.362c-1.589,3.376-.4,4.935,1.088,5.148a6.974,6.974,0,0,0,6.075-2C1841.391,1141.838,1838.833,1135.338,1835.8,1136.508Z" transform="translate(-1831.116 -1133.359)" fill="url(#linear-gradient-31)"/>
        <path id="Trazado_101525" data-name="Trazado 101525" d="M1845.236,1131.579s1.762-4.939-2.616-5l-1.03.72s-1.607-2.738,1.03-4.046,5.723-.227,6.845,3.325,1.314,5.931-.553,7.631-2.636-.228-2.636-.228,1.017-1.59.6-2.441-1.369.176-1.369.176Z" transform="translate(-1838.902 -1122.721)" fill="#193d51"/>
        <path id="Trazado_101526" data-name="Trazado 101526" d="M1862.068,1159.132s.891-2.544,2.08-1.531-.966,2.35-1.81,2.783Z" transform="translate(-1855.243 -1149.724)" fill="url(#linear-gradient-32)"/>
      </g>
      <path id="Trazado_101527" data-name="Trazado 101527" d="M1784.2,1214.224s-18.043,22.032-31.523-3.054a3.1,3.1,0,0,1-.1-1.567,14.955,14.955,0,0,0-.4-2.973.467.467,0,0,1,.415-.557h0a.639.639,0,0,1,.563.241l2.462,3.136a1.315,1.315,0,0,1-.7,1.56h0a.649.649,0,0,0-.24.979c10.252,13.438,27.4-1.308,27.712-1.135C1783.515,1211.47,1784.8,1212.149,1784.2,1214.224Z" transform="translate(-1749.766 -1176.113)" fill="url(#linear-gradient-33)"/>
    </g>
    <g id="Grupo_54246" data-name="Grupo 54246" transform="translate(281.967 277.863)">
      <g id="Grupo_54242" data-name="Grupo 54242" transform="translate(33.159)">
        <path id="Trazado_101528" data-name="Trazado 101528" d="M1209.976,871.129l-52.445-.473a1.848,1.848,0,0,0-1.859,1.864L1155.9,913a1.846,1.846,0,0,0,1.9,1.842c9.482-.284,51.581-1.539,53.44-1.461,1.836.077.839-32.44.565-40.463A1.847,1.847,0,0,0,1209.976,871.129Z" transform="translate(-1155.672 -870.656)" fill="#3b966a"/>
        <path id="Trazado_101529" data-name="Trazado 101529" d="M1162.507,918.171l-.229-40.479a.38.38,0,0,1,.112-.276.385.385,0,0,1,.278-.115l52.445.473a.386.386,0,0,1,.383.374c.678,19.841.691,35.073.033,38.806l-.025.143-.144,0c-6.95.1-44.915,1.232-52.455,1.458h-.013A.387.387,0,0,1,1162.507,918.171Zm52.639-40.011a.036.036,0,0,0-.037-.035l-52.445-.473,0-.176-.04.213.23,40.479c0,.021.016.038.026.038h.01c7.49-.225,45-1.345,52.316-1.456C1215.838,912.806,1215.816,897.734,1215.147,878.16Z" transform="translate(-1160.821 -875.836)" fill="url(#linear-gradient)"/>
        <path id="Trazado_101530" data-name="Trazado 101530" d="M1309.776,905.374h0c-.023.85.241,1.546.59,1.555l15.424.419c.349.009.651-.672.673-1.521h0c.023-.85-.241-1.546-.59-1.556l-15.424-.419C1310.1,903.843,1309.8,904.524,1309.776,905.374Z" transform="translate(-1275.795 -896.533)" fill="#fff"/>
        <path id="Trazado_101531" data-name="Trazado 101531" d="M1308.724,927.031h0a.711.711,0,0,0,.611.786l15.424.419a.711.711,0,0,0,.653-.752h0a.711.711,0,0,0-.611-.786l-15.424-.419A.711.711,0,0,0,1308.724,927.031Z" transform="translate(-1274.976 -914.014)" fill="#fff"/>
        <path id="Trazado_101532" data-name="Trazado 101532" d="M1307.684,941.515h0a.711.711,0,0,0,.611.786l15.424.419a.711.711,0,0,0,.653-.752h0a.711.711,0,0,0-.611-.786l-15.424-.419A.711.711,0,0,0,1307.684,941.515Z" transform="translate(-1274.165 -925.305)" fill="#fff"/>
        <path id="Trazado_101533" data-name="Trazado 101533" d="M1202.435,939.027l-.614-.047a.738.738,0,0,1-.68-.705l-.486-11.639a.739.739,0,0,1,.712-.769,5.224,5.224,0,0,0,2.071-.583,5.708,5.708,0,0,0,1.108-1.877,13.046,13.046,0,0,1,2.466-3.926,7.589,7.589,0,0,0,1.835-5.295,2.345,2.345,0,0,1,1.553-2.089c.566-.173,1.677-.2,2.755,1.549,1.347,2.188.485,4.937-.085,6.756a10.18,10.18,0,0,0-.386,1.433c0,.014,0,.025,0,.034.358.264,2.08.127,3.117.043.548-.044,1.114-.089,1.664-.112,1.922-.08,4.156.168,4.381,2.819a2.855,2.855,0,0,1-.933,2.354,3.226,3.226,0,0,1,1.124,2.442,2.87,2.87,0,0,1-.8,1.776,2.746,2.746,0,0,1,.654,2.68,3.25,3.25,0,0,1-1.142,1.687,1.648,1.648,0,0,1,.337,1.167c-.13,1.276-1.767,2.44-3.893,2.766C1214.62,939.887,1205,939.216,1202.435,939.027Zm-.276-11.769.43,10.3c2.576.189,12,.841,14.382.476,1.691-.26,2.609-1.073,2.648-1.456.015-.147-.249-.347-.656-.5a.738.738,0,0,1,.245-1.43,1.571,1.571,0,0,0,1.262-1.172,1.4,1.4,0,0,0-.763-1.645.738.738,0,0,1,.008-1.256,1.9,1.9,0,0,0,.847-1.238c.029-.686-.678-1.368-1.277-1.818a.738.738,0,0,1,.125-1.255,1.71,1.71,0,0,0,.965-1.518c-.063-.742-.132-1.583-2.848-1.47-.521.022-1.074.066-1.608.109-1.989.16-3.56.286-4.323-.511a1.437,1.437,0,0,1-.375-1.22,10.625,10.625,0,0,1,.442-1.693c.52-1.657,1.231-3.926.237-5.54-.385-.626-.785-.981-1.046-.916a.936.936,0,0,0-.53.638c.017.393.1,4.053-2.275,6.392a11.716,11.716,0,0,0-2.163,3.5,5.377,5.377,0,0,1-1.725,2.543A6.4,6.4,0,0,1,1202.158,927.257Zm10.524-5.366Z" transform="translate(-1190.735 -902.899)" fill="#fff"/>
      </g>
      <path id="Trazado_101534" data-name="Trazado 101534" d="M1115.987,1528.768c2.92.135,5.747.05,7.635-.047a38.306,38.306,0,0,0-8.99-4.944l-2.274-.136a9.267,9.267,0,0,0-1.046,3.854C1111.689,1527.965,1112.79,1528.621,1115.987,1528.768Z" transform="translate(-1087.935 -1379.66)" fill="#193d51"/>
      <path id="Trazado_101535" data-name="Trazado 101535" d="M1123.505,1542.363l-.024-.017c-1.887.1-4.714.181-7.635.047-3.2-.147-4.3-.8-4.675-1.273-.013.123-.026.246-.036.376a1.065,1.065,0,0,0,.978,1.15c2.392.181,8.322.59,11.182.44A.4.4,0,0,0,1123.505,1542.363Z" transform="translate(-1087.794 -1393.284)" fill="#377aa0"/>
      <path id="Trazado_101536" data-name="Trazado 101536" d="M1017.074,1528.454a22.041,22.041,0,0,0-.822-3.86c-.416-.8-1.839,0-1.839,0a3.776,3.776,0,0,0-1.459,1.242c-.293.495-1.1,1.9-1.653,2.859a.645.645,0,0,0-.086.341l5.7.2A1.138,1.138,0,0,0,1017.074,1528.454Z" transform="translate(-1009.909 -1380.127)" fill="#193d51"/>
      <path id="Trazado_101537" data-name="Trazado 101537" d="M1011.216,1545.989a.649.649,0,0,0,.632.631l4.06.112a1.145,1.145,0,0,0,1.007-.543Z" transform="translate(-1009.91 -1397.08)" fill="#377aa0"/>
      <path id="Trazado_101538" data-name="Trazado 101538" d="M1026.289,1502.662c-.049.165-.785,3.734-1.108,5.3a.894.894,0,0,1-.921.715c-.241-.012-.521-.034-.816-.072a1.08,1.08,0,0,1-.939-1.029c-.052-1.372-.078-4.007.426-5.028C1023.627,1501.14,1026.289,1502.662,1026.289,1502.662Z" transform="translate(-1018.689 -1362.752)" fill="url(#linear-gradient-35)"/>
      <path id="Trazado_101539" data-name="Trazado 101539" d="M1114.025,1505.8c.316-.01-.126,1.63.352,3.243a.829.829,0,0,0,.759.654c.246,0,.537,0,.833-.025a.915.915,0,0,0,.844-.825l.389-4.182Z" transform="translate(-1090.05 -1364.865)" fill="url(#linear-gradient-35)"/>
      <path id="Trazado_101540" data-name="Trazado 101540" d="M1051,1301c-.141.686-5.116,29.7-5.418,44.721a.511.511,0,0,1-.44.5,10.038,10.038,0,0,1-3.054-.02.36.36,0,0,1-.3-.331c-.174-2.8-1.572-26.457.141-37.595,0,0-14.146,29.772-16.29,37.981a.431.431,0,0,1-.442.323,10.686,10.686,0,0,1-2.866-.509.748.748,0,0,1-.472-.88c1.2-4.913,9.594-38.761,15.294-46.219Z" transform="translate(-1018.191 -1204.53)" fill="#193d51"/>
      <path id="Trazado_101541" data-name="Trazado 101541" d="M1112.3,1333.85a.186.186,0,0,1-.133-.315l1.894-1.937a.186.186,0,0,1,.266.26l-1.894,1.937A.184.184,0,0,1,1112.3,1333.85Z" transform="translate(-1088.563 -1229.918)" fill="#193d51"/>
      <path id="Trazado_101542" data-name="Trazado 101542" d="M1135.5,1132.737a17.957,17.957,0,0,1-9.407.022c-4.14-1.085-12.3-2.881-17.858-1.88l-.461,14.538,19,2.171.171-3.86s11.549-1.667,17.8-9.26a30.954,30.954,0,0,1-3.49-4.729A14.93,14.93,0,0,1,1135.5,1132.737Z" transform="translate(-1085.175 -1072.612)" fill="#ffc94a"/>
      <path id="Trazado_101543" data-name="Trazado 101543" d="M1266.419,1076.081l-1.465-.643s.073,7.317-5.38,11.973a30.96,30.96,0,0,0,3.49,4.729C1266.144,1088.4,1267.935,1083.215,1266.419,1076.081Z" transform="translate(-1203.506 -1030.284)" fill="url(#linear-gradient-37)"/>
      <path id="Trazado_101544" data-name="Trazado 101544" d="M1146.7,1098.268s-1.1,6.58-1.251,8.648c0,0,5.326,1.471,6.716.682l-.174-7.96Z" transform="translate(-1114.544 -1048.08)" fill="url(#linear-gradient-38)"/>
      <g id="Grupo_54244" data-name="Grupo 54244" transform="translate(0 69.594)">
        <path id="Trazado_101545" data-name="Trazado 101545" d="M1007.2,1186.595l46.936-.315a1.926,1.926,0,0,1,1.939,1.941l-.2,25.924a1.926,1.926,0,0,1-1.984,1.911l-46.428-1.4a1.926,1.926,0,0,1-1.868-1.9l-.311-24.214A1.926,1.926,0,0,1,1007.2,1186.595Z" transform="translate(-1005.291 -1186.28)" fill="#3b966a"/>
        <g id="Grupo_54243" data-name="Grupo 54243" transform="translate(1.561 1.561)">
          <path id="Trazado_101546" data-name="Trazado 101546" d="M1059.476,1220.014l-46.44-1.4a.365.365,0,0,1-.354-.361l-.311-24.214a.357.357,0,0,1,.1-.261.361.361,0,0,1,.258-.109l46.936-.315a.366.366,0,0,1,.368.369l-.2,25.924A.366.366,0,0,1,1059.476,1220.014Zm-46.421-1.769,46.426,1.4.182-25.917-46.927.323Z" transform="translate(-1012.371 -1193.358)" fill="#3b966a"/>
        </g>
        <path id="Trazado_101547" data-name="Trazado 101547" d="M1026.248,1202.892h0c0,.836.487,1.514,1.088,1.514h39.921c.6,0,1.088-.678,1.088-1.514h0c0-.836-.487-1.514-1.088-1.514h-39.921C1026.735,1201.378,1026.248,1202.056,1026.248,1202.892Z" transform="translate(-1021.627 -1198.049)" fill="url(#linear-gradient)"/>
        <path id="Trazado_101548" data-name="Trazado 101548" d="M1023.327,1225.27h16.808a1.077,1.077,0,0,1,1.077,1.077v13.877a1.077,1.077,0,0,1-1.107,1.077l-16.463-.456a1.077,1.077,0,0,1-1.047-1.049l-.344-13.42A1.077,1.077,0,0,1,1023.327,1225.27Z" transform="translate(-1018.51 -1216.673)" fill="url(#linear-gradient)"/>
        <path id="Trazado_101549" data-name="Trazado 101549" d="M1121.541,1226.818H1140.3a.837.837,0,0,1,.739.908h0a.837.837,0,0,1-.739.908h-18.761a.837.837,0,0,1-.739-.908h0A.836.836,0,0,1,1121.541,1226.818Z" transform="translate(-1095.332 -1217.879)" fill="url(#linear-gradient)"/>
        <path id="Trazado_101550" data-name="Trazado 101550" d="M1120.8,1243.382h0a.835.835,0,0,0,.738.906H1140.3a.835.835,0,0,0,.738-.906v-.56a.83.83,0,0,0-.756-.906l-18.764.56A.84.84,0,0,0,1120.8,1243.382Z" transform="translate(-1095.332 -1229.648)" fill="url(#linear-gradient)"/>
      </g>
      <path id="Trazado_101551" data-name="Trazado 101551" d="M1069.645,1142.755l-4.662-7.846s-9.748,8.351-12.7,19.964l5.17,3.248C1059.578,1154.333,1063.275,1149.288,1069.645,1142.755Z" transform="translate(-1041.925 -1076.642)" fill="#ffc94a"/>
      <path id="Trazado_101552" data-name="Trazado 101552" d="M1056.5,1245.933a1.265,1.265,0,0,1-1.124-.736,31.877,31.877,0,0,0-2.11-4.045,2.645,2.645,0,0,1,1.658-.046c1.06.248,1.957-.186,1.988-.773l-4.955-2.124c-.178-.506-.9-3.344,2.552-9.509l-5.17-3.248a24.721,24.721,0,0,0,.415,14.148s.975,5.675,2.949,6.823,4.975-.465,4.975-.465Z" transform="translate(-1038.971 -1147.22)" fill="url(#linear-gradient-35)"/>
      <g id="Grupo_54245" data-name="Grupo 54245" transform="translate(27.863 39.681)">
        <path id="Trazado_101553" data-name="Trazado 101553" d="M1153.16,1070.762s1.77,4.067,1.89,6.2.579,3.519-1.89,3.949a5.247,5.247,0,0,1-5.673-2.926s-1.765-3.276-1.369-4.618S1153.16,1070.762,1153.16,1070.762Z" transform="translate(-1142.883 -1066.32)" fill="url(#linear-gradient-44)"/>
        <path id="Trazado_101554" data-name="Trazado 101554" d="M1137.1,1060.755h.312s-1.286-2.637-.156-3.1,5.6-1.376,6.569-2.963a2.952,2.952,0,0,0-1.141-4.061.166.166,0,0,0-.211.078l-.1.195a.168.168,0,0,1-.309-.032h0a.167.167,0,0,0-.3-.046c-.3.475-1.1,1.247-3.242,1.643-3.045.562-5.058,1.795-5.108,3.9a.168.168,0,0,1-.26.137c-.225-.137-.584-.2-1.065.2-.836.7-.494,2.527,1.339,4.027a.166.166,0,0,1-.008.269c-.332.216-.828.731.456,1.417a3.422,3.422,0,0,0,2.383.55.167.167,0,0,0,.127-.173l-.115-1.865a.168.168,0,0,1,.167-.178Z" transform="translate(-1131.654 -1050.618)" fill="#193d51"/>
        <path id="Trazado_101555" data-name="Trazado 101555" d="M1148.84,1091.3s-.675-2.6-1.84-1.869.6,2.911,1.541,3.008Z" transform="translate(-1143.317 -1080.772)" fill="url(#linear-gradient-45)"/>
      </g>
      <path id="Trazado_101556" data-name="Trazado 101556" d="M1265.643,1050.688v2.938s2.392,3.042,5.506,3.162c0,0,2.743-.18,2.65-2.212l-4.387-.838a21,21,0,0,1-2.356-.822S1266.677,1050.781,1265.643,1050.688Z" transform="translate(-1208.236 -1010.991)" fill="url(#linear-gradient-46)"/>
    </g>
    <g id="Grupo_54249" data-name="Grupo 54249" transform="translate(348.024 169.003)">
      <g id="Grupo_54247" data-name="Grupo 54247" transform="translate(0 0)">
        <path id="Rect치ngulo_5273" data-name="Rect치ngulo 5273" d="M8.26,0H18.305a8.26,8.26,0,0,1,8.26,8.26v0a8.26,8.26,0,0,1-8.26,8.26H8.26A8.26,8.26,0,0,1,0,8.26v0A8.26,8.26,0,0,1,8.26,0Z" fill="#3b966a"/>
        <path id="Trazado_101557" data-name="Trazado 101557" d="M1346.1,444.787l3.534,6.342a.817.817,0,0,0,1.4-.006l3.378-6.337Z" transform="translate(-1337.006 -429.83)" fill="#3b966a"/>
      </g>
      <g id="Grupo_54248" data-name="Grupo 54248" transform="translate(16.971 4.934)">
        <path id="Trazado_101558" data-name="Trazado 101558" d="M1385.231,405.616h-3.391v-.639h1.3v-4.2h-1.3v-.572a3.934,3.934,0,0,0,.568-.044,1.43,1.43,0,0,0,.458-.128.863.863,0,0,0,.3-.267.853.853,0,0,0,.128-.435h.652v5.645h1.279Z" transform="translate(-1381.84 -399.332)" fill="#fff"/>
      </g>
      <path id="Trazado_101559" data-name="Trazado 101559" d="M1331.8,398.752a.217.217,0,0,0,.406-.022c.273-.871.989-2.214,2.749-1.566,3.444,1.269-.764,5.775-2.469,7.425a1.01,1.01,0,0,1-1.356.046c-1.713-1.447-5.781-5.321-3.094-7.471C1330.03,395.57,1331.3,397.627,1331.8,398.752Z" transform="translate(-1322.233 -392.253)" fill="#fff"/>
    </g>
    <g id="Grupo_54254" data-name="Grupo 54254" transform="translate(372.008 134.284)">
      <g id="Grupo_54252" data-name="Grupo 54252" transform="translate(0)">
        <g id="Grupo_54250" data-name="Grupo 54250">
          <path id="Rect치ngulo_5274" data-name="Rect치ngulo 5274" d="M8.26,0H18.305a8.26,8.26,0,0,1,8.26,8.26v0a8.26,8.26,0,0,1-8.26,8.26H8.26A8.26,8.26,0,0,1,0,8.26v0A8.26,8.26,0,0,1,8.26,0Z" fill="#3b966a"/>
        </g>
        <g id="Grupo_54251" data-name="Grupo 54251" transform="translate(9.09 14.957)">
          <path id="Trazado_101560" data-name="Trazado 101560" d="M1454.869,287.326l3.534,6.343a.817.817,0,0,0,1.405-.005l3.378-6.337Z" transform="translate(-1454.869 -287.326)" fill="#3b966a"/>
        </g>
      </g>
      <g id="Grupo_54253" data-name="Grupo 54253" transform="translate(16.971 4.934)">
        <path id="Trazado_101561" data-name="Trazado 101561" d="M1494,248.156h-3.39v-.639h1.3v-4.2h-1.3v-.572a3.967,3.967,0,0,0,.568-.044,1.438,1.438,0,0,0,.458-.128.86.86,0,0,0,.305-.267.85.85,0,0,0,.128-.435h.652v5.645H1494Z" transform="translate(-1490.613 -241.871)" fill="#fff"/>
      </g>
      <path id="Trazado_101562" data-name="Trazado 101562" d="M1440.575,241.291a.217.217,0,0,0,.406-.022c.273-.871.99-2.214,2.749-1.566,3.444,1.269-.764,5.775-2.469,7.425a1.01,1.01,0,0,1-1.356.046c-1.713-1.447-5.781-5.321-3.094-7.471C1438.8,238.109,1440.068,240.166,1440.575,241.291Z" transform="translate(-1431.006 -234.793)" fill="#fff"/>
    </g>
    <g id="Grupo_54257" data-name="Grupo 54257" transform="translate(412.352 113.276)">
      <g id="Grupo_54255" data-name="Grupo 54255" transform="translate(0 0)">
        <rect id="Rect치ngulo_5275" data-name="Rect치ngulo 5275" width="26.055" height="16.202" rx="8.101" fill="#3b966a"/>
        <path id="Trazado_101563" data-name="Trazado 101563" d="M1637.046,190.749l3.466,6.221a.8.8,0,0,0,1.378-.005l3.313-6.215Z" transform="translate(-1628.131 -176.08)" fill="#3b966a"/>
      </g>
      <g id="Grupo_54256" data-name="Grupo 54256" transform="translate(16.645 4.839)">
        <path id="Trazado_101564" data-name="Trazado 101564" d="M1675.429,152.331H1672.1V151.7h1.279v-4.117H1672.1v-.561a3.869,3.869,0,0,0,.557-.043,1.412,1.412,0,0,0,.45-.126.844.844,0,0,0,.3-.262.834.834,0,0,0,.126-.427h.639V151.7h1.254Z" transform="translate(-1672.104 -146.167)" fill="#fff"/>
      </g>
      <path id="Trazado_101565" data-name="Trazado 101565" d="M1623.027,145.6a.213.213,0,0,0,.4-.021c.267-.854.97-2.171,2.7-1.536,3.377,1.244-.75,5.664-2.422,7.283a.991.991,0,0,1-1.33.045c-1.68-1.419-5.67-5.219-3.035-7.328C1621.289,142.478,1622.53,144.495,1623.027,145.6Z" transform="translate(-1613.642 -139.225)" fill="#fff"/>
    </g>
    <g id="Grupo_54260" data-name="Grupo 54260" transform="translate(135.367 304.485)">
      <g id="Grupo_54258" data-name="Grupo 54258">
        <rect id="Rect치ngulo_5276" data-name="Rect치ngulo 5276" width="21.851" height="13.588" rx="6.794" fill="#3b966a"/>
        <path id="Trazado_101566" data-name="Trazado 101566" d="M374.337,1047.187l2.907,5.217a.672.672,0,0,0,1.156,0l2.779-5.213Z" transform="translate(-366.861 -1034.885)" fill="#3b966a"/>
      </g>
      <g id="Grupo_54259" data-name="Grupo 54259" transform="translate(13.959 4.058)">
        <path id="Trazado_101567" data-name="Trazado 101567" d="M406.527,1014.967h-2.789v-.526h1.073v-3.453h-1.073v-.471a3.278,3.278,0,0,0,.467-.036,1.181,1.181,0,0,0,.377-.106.711.711,0,0,0,.251-.22.7.7,0,0,0,.106-.358h.536v4.643h1.052Z" transform="translate(-403.738 -1009.798)" fill="#fff"/>
      </g>
      <path id="Trazado_101568" data-name="Trazado 101568" d="M362.58,1009.322a.179.179,0,0,0,.334-.018,1.638,1.638,0,0,1,2.261-1.288c2.832,1.044-.629,4.75-2.031,6.108a.831.831,0,0,1-1.116.038c-1.409-1.19-4.755-4.377-2.545-6.145C361.123,1006.7,362.163,1008.4,362.58,1009.322Z" transform="translate(-354.709 -1003.976)" fill="#fff"/>
    </g>
    <g id="Grupo_54265" data-name="Grupo 54265" transform="translate(469.507 307.224)">
      <g id="Grupo_54263" data-name="Grupo 54263" transform="translate(0 0)">
        <g id="Grupo_54261" data-name="Grupo 54261">
          <rect id="Rect치ngulo_5277" data-name="Rect치ngulo 5277" width="25.286" height="15.724" rx="7.862" fill="#3b966a"/>
        </g>
        <g id="Grupo_54262" data-name="Grupo 54262" transform="translate(8.652 14.237)">
          <path id="Trazado_101569" data-name="Trazado 101569" d="M1895.06,1068.38l3.364,6.037a.778.778,0,0,0,1.338-.005l3.216-6.032Z" transform="translate(-1895.06 -1068.38)" fill="#3b966a"/>
        </g>
      </g>
      <g id="Grupo_54264" data-name="Grupo 54264" transform="translate(16.154 4.696)">
        <path id="Trazado_101570" data-name="Trazado 101570" d="M1932.31,1031.1h-3.227v-.609h1.241v-4h-1.241v-.544a3.767,3.767,0,0,0,.541-.042,1.364,1.364,0,0,0,.436-.122.82.82,0,0,0,.29-.254.812.812,0,0,0,.122-.414h.62v5.373h1.217Z" transform="translate(-1929.083 -1025.114)" fill="#fff"/>
      </g>
      <path id="Trazado_101571" data-name="Trazado 101571" d="M1881.454,1024.562a.207.207,0,0,0,.387-.021c.26-.829.942-2.107,2.617-1.49,3.278,1.208-.728,5.5-2.351,7.068a.962.962,0,0,1-1.291.044c-1.63-1.377-5.5-5.065-2.945-7.111C1879.768,1021.533,1880.972,1023.491,1881.454,1024.562Z" transform="translate(-1872.346 -1018.376)" fill="#fff"/>
    </g>
    <g id="Grupo_54267" data-name="Grupo 54267" transform="translate(491.361 284.304)">
      <circle id="Elipse_4077" data-name="Elipse 4077" cx="11.536" cy="11.536" r="11.536" transform="translate(2.149 25.14) rotate(-85.183)" fill="#ce9b36"/>
      <circle id="Elipse_4078" data-name="Elipse 4078" cx="11.153" cy="11.153" r="11.153" transform="translate(0 20.547) rotate(-67.096)" fill="#ffc94a"/>
      <path id="Trazado_101572" data-name="Trazado 101572" d="M1978.726,924.558a.221.221,0,0,1-.2-.32,10.472,10.472,0,0,1,9.393-5.783,10.6,10.6,0,0,1,1.9.171.221.221,0,0,1-.079.434,10.15,10.15,0,0,0-1.818-.164,10.033,10.033,0,0,0-9,5.541A.22.22,0,0,1,1978.726,924.558Z" transform="translate(-1973.309 -914.357)" fill="#fff" opacity="0.68"/>
      <circle id="Elipse_4079" data-name="Elipse 4079" cx="9.439" cy="9.439" r="9.439" transform="matrix(0.571, -0.821, 0.821, 0.571, 1.719, 17.224)" fill="#fff" opacity="0.68"/>
      <g id="Grupo_54266" data-name="Grupo 54266" transform="translate(10.699 8.176)">
        <path id="Trazado_101573" data-name="Trazado 101573" d="M2006.691,950.648v-1.027a8.377,8.377,0,0,1-2.881-.625.594.594,0,0,1-.328-.7l.261-.957a.6.6,0,0,1,.813-.392,6.951,6.951,0,0,0,2.661.56c1.031,0,1.8-.35,1.8-1.066,0-.647-.594-1.031-2.027-1.416-2.045-.559-3.513-1.451-3.513-3.251,0-1.625,1.188-2.866,3.251-3.2v-1.027a.6.6,0,0,1,.6-.6h.6a.6.6,0,0,1,.6.6v.922a7.635,7.635,0,0,1,2.284.41.6.6,0,0,1,.372.719l-.24.885a.6.6,0,0,1-.788.4,6.235,6.235,0,0,0-2.24-.407c-1.223,0-1.573.507-1.573.961,0,.559.734.944,2.325,1.433,2.272.682,3.216,1.625,3.216,3.32,0,1.555-1.153,2.954-3.391,3.3v1.149a.6.6,0,0,1-.6.6h-.6A.6.6,0,0,1,2006.691,950.648Z" transform="translate(-2003.46 -936.95)" fill="#ffc94a"/>
      </g>
    </g>
  </g>
</svg>
