<svg xmlns="http://www.w3.org/2000/svg" width="505" height="343.665" viewBox="0 0 505 343.665">
  <g id="Grupo_54418" data-name="Grupo 54418" transform="translate(-81.018 -116.875)">
    <path id="Trazado_101900" data-name="Trazado 101900" d="M523.321,173.4c-14.271,0-27.8,5.169-39.9,14.411-25.657-27.214-59.907-43.834-97.528-43.834-53.76,0-100.638,33.936-125.388,84.23-61.862.153-111.968,55.549-111.968,123.863,0,68.409,50.245,123.865,112.226,123.865a104.061,104.061,0,0,0,59.007-18.486,128.425,128.425,0,0,0,66.124,18.486c30.249,0,58.32-10.746,81.5-29.1,15.61,18.842,34.968,30,55.935,30,51.743,0,93.688-67.925,93.688-151.714S575.064,173.4,523.321,173.4Z" transform="translate(-48.893 -19.623)" fill="#ffde9c"/>
    <g id="Grupo_54408" data-name="Grupo 54408" transform="translate(81.018 286.663)">
      <g id="Grupo_54391" data-name="Grupo 54391">
        <path id="Trazado_101901" data-name="Trazado 101901" d="M132.139,905.246s-53.665-24.556-23.12-69.656-28.423-43.548-28-72.536,38.6-60.393,44.968,23.4c0,0,16.939-20.287,22.484-6.514s-8.909,22.7-8.909,22.7,46.388-14.759,51.043,13.085-6.769,43.063-6.769,43.063,6.242-18.867,26.761-12.582,3.63,59.037,3.63,59.037Z" transform="translate(-81.018 -732.409)" fill="#57cc99"/>
        <g id="Grupo_54390" data-name="Grupo 54390" transform="translate(17.729 19.478)">
          <g id="Grupo_54386" data-name="Grupo 54386">
            <path id="Trazado_101902" data-name="Trazado 101902" d="M214.409,941.917a.213.213,0,0,0,.127-.383C197.2,928.674,146.214,804.409,145.7,803.155a.213.213,0,1,0-.394.161c.513,1.255,51.548,125.629,68.975,138.558A.212.212,0,0,0,214.409,941.917Z" transform="translate(-145.291 -803.023)" fill="#7befb8"/>
          </g>
          <g id="Grupo_54387" data-name="Grupo 54387" transform="translate(15.312 106.241)">
            <path id="Trazado_101903" data-name="Trazado 101903" d="M222.97,1195.856a66.039,66.039,0,0,0,13.866-1.5.213.213,0,0,0-.1-.413c-.244.059-24.5,5.819-35.566-5.7a.213.213,0,0,0-.306.295C206.479,1194.387,215.412,1195.856,222.97,1195.856Z" transform="translate(-200.803 -1188.18)" fill="#7befb8"/>
          </g>
          <g id="Grupo_54388" data-name="Grupo 54388" transform="translate(26.508 36.104)">
            <path id="Trazado_101904" data-name="Trazado 101904" d="M241.606,959.6a.212.212,0,0,0,.155-.068c.144-.154,14.387-15.5,16.08-25.374a.213.213,0,0,0-.42-.072c-1.671,9.749-15.828,25-15.971,25.157a.213.213,0,0,0,.155.358Z" transform="translate(-241.393 -933.911)" fill="#7befb8"/>
          </g>
          <g id="Grupo_54389" data-name="Grupo 54389" transform="translate(63.827 106.241)">
            <path id="Trazado_101905" data-name="Trazado 101905" d="M376.9,1215.328a.213.213,0,0,0,.172-.088c.135-.186,13.69-18.731,32.172-26.652a.213.213,0,0,0-.168-.391c-18.592,7.969-32.213,26.607-32.349,26.795a.213.213,0,0,0,.048.3A.216.216,0,0,0,376.9,1215.328Z" transform="translate(-376.686 -1188.179)" fill="#7befb8"/>
          </g>
        </g>
      </g>
      <g id="Grupo_54396" data-name="Grupo 54396" transform="translate(101.286 72.103)">
        <path id="Trazado_101906" data-name="Trazado 101906" d="M586.141,1094.539s6.2-21.9-4.278-43.431c-3.741-7.691-30.875,0-30.875,0s32.283-36.479,3.624-52.418S526.8,1009.1,536.136,1030.5c0,0-17.182-8.32-25.56,1.238s9.121,24.312,9.121,24.312-33.6-28.258-55.668-2.416-14.6,40.906-14.6,40.906Z" transform="translate(-448.214 -993.804)" fill="#80ed99"/>
        <g id="Grupo_54395" data-name="Grupo 54395" transform="translate(54.956 14.103)">
          <g id="Grupo_54392" data-name="Grupo 54392">
            <path id="Trazado_101907" data-name="Trazado 101907" d="M647.658,1124.384a.221.221,0,0,0,.076-.014,65.838,65.838,0,0,0,28.846-20.706,72,72,0,0,0,12.847-26.32,94.509,94.509,0,0,0,2.76-32.225.213.213,0,0,0-.422.053,94.045,94.045,0,0,1-2.753,32.075c-4.2,15.731-14.79,36.607-41.43,46.725a.213.213,0,0,0,.076.411Z" transform="translate(-647.445 -1044.933)" fill="#c2ffcd"/>
          </g>
          <g id="Grupo_54393" data-name="Grupo 54393" transform="translate(11.261 58.413)">
            <path id="Trazado_101908" data-name="Trazado 101908" d="M691.354,1272.388c9.188,0,38.1-1.179,53.9-15.317a.213.213,0,1,0-.283-.318c-18.741,16.762-56.106,15.181-56.481,15.162a.21.21,0,0,0-.222.2.212.212,0,0,0,.2.222C688.533,1272.344,689.574,1272.388,691.354,1272.388Z" transform="translate(-688.269 -1256.7)" fill="#c2ffcd"/>
          </g>
          <g id="Grupo_54394" data-name="Grupo 54394" transform="translate(16.876 28.266)">
            <path id="Trazado_101909" data-name="Trazado 101909" d="M728.716,1164.97a.213.213,0,0,0,.087-.406c-.155-.07-15.6-7.1-19.767-17.027a.213.213,0,1,0-.392.164c4.237,10.079,19.828,17.18,19.985,17.25A.209.209,0,0,0,728.716,1164.97Z" transform="translate(-708.627 -1147.406)" fill="#c2ffcd"/>
          </g>
        </g>
      </g>
      <g id="Grupo_54402" data-name="Grupo 54402" transform="translate(332.954 35.438)">
        <path id="Trazado_101910" data-name="Trazado 101910" d="M1393.471,998.282s56.414-14.51,40.8-47.728c-6.554-13.947-21.955-11.216-21.955-11.216s62-53.279,2.917-77.405c-21.767-8.888-17.213,41.584-17.213,41.584s-11.472-18.363-20.16-10.268-2.324,35.052-2.324,35.052-21.964-21.67-43.648-2.466-43.812,72.317-43.812,72.317Z" transform="translate(-1288.082 -860.883)" fill="#80ed99"/>
        <g id="Grupo_54401" data-name="Grupo 54401" transform="translate(62.674 19.079)">
          <g id="Grupo_54397" data-name="Grupo 54397">
            <path id="Trazado_101911" data-name="Trazado 101911" d="M1515.507,1041.565a.211.211,0,0,0,.116-.034c27.538-17.9,44.547-47.188,53.965-68.609A223.161,223.161,0,0,0,1583.57,930.3a.213.213,0,0,0-.418-.08,222.727,222.727,0,0,1-13.957,42.537c-9.4,21.364-26.356,50.576-53.8,68.414a.213.213,0,0,0,.116.391Z" transform="translate(-1515.295 -930.05)" fill="#c2ffcd"/>
          </g>
          <g id="Grupo_54398" data-name="Grupo 54398" transform="translate(12.635 88.557)">
            <path id="Trazado_101912" data-name="Trazado 101912" d="M1563.168,1264.526c6.732,0,30.309-.919,47.815-13.041a.213.213,0,0,0-.242-.35c-20.4,14.128-49.128,12.948-49.416,12.937a.21.21,0,0,0-.222.2.213.213,0,0,0,.2.222C1561.347,1264.5,1562.009,1264.526,1563.168,1264.526Z" transform="translate(-1561.102 -1251.096)" fill="#c2ffcd"/>
          </g>
          <g id="Grupo_54399" data-name="Grupo 54399" transform="translate(54.211 2.581)">
            <path id="Trazado_101913" data-name="Trazado 101913" d="M1716.427,968.269a.218.218,0,0,0,.083-.017.213.213,0,0,0,.113-.279c-.063-.15-6.286-15.109-3.776-28.315a.213.213,0,0,0-.418-.08c-2.535,13.334,3.738,28.409,3.8,28.56A.212.212,0,0,0,1716.427,968.269Z" transform="translate(-1711.826 -939.406)" fill="#c2ffcd"/>
          </g>
          <g id="Grupo_54400" data-name="Grupo 54400" transform="translate(20.468 69.969)">
            <path id="Trazado_101914" data-name="Trazado 101914" d="M1591.982,1204.269a.214.214,0,0,0,.2-.295,38.148,38.148,0,0,1-1.584-20.01.213.213,0,0,0-.417-.083,38.594,38.594,0,0,0,1.608,20.256A.213.213,0,0,0,1591.982,1204.269Z" transform="translate(-1589.497 -1183.71)" fill="#c2ffcd"/>
          </g>
        </g>
      </g>
      <g id="Grupo_54407" data-name="Grupo 54407" transform="translate(227.393 32.889)">
        <path id="Trazado_101915" data-name="Trazado 101915" d="M1013.206,991.46s44.478-53.7,27.508-69.952-29.908,9.439-29.908,9.439,12.091-80.3-35.423-79.3,4.508,58.273,4.508,58.273-17.308-16.611-24.517-7.776,2.987,26.972,15.952,27.768c0,0-60.645-12.179-65.088,12.371s9.989,49.089,9.989,49.089Z" transform="translate(-905.388 -851.64)" fill="#57cc99"/>
        <g id="Grupo_54406" data-name="Grupo 54406" transform="translate(61.701 19.785)">
          <g id="Grupo_54403" data-name="Grupo 54403" transform="translate(5.671)">
            <path id="Trazado_101916" data-name="Trazado 101916" d="M1149.847,1039.12a.211.211,0,0,0,.153-.065c9.084-9.378,15.109-21.294,17.908-35.417,2.238-11.289,2.43-24,.573-37.793a177.035,177.035,0,0,0-11.367-42.352.213.213,0,0,0-.39.171,176.57,176.57,0,0,1,11.336,42.248c2.906,21.582,2.079,51.739-18.366,72.847a.213.213,0,0,0,.153.36Z" transform="translate(-1149.634 -923.366)" fill="#7befb8"/>
          </g>
          <g id="Grupo_54404" data-name="Grupo 54404" transform="translate(17.901 78.938)">
            <path id="Trazado_101917" data-name="Trazado 101917" d="M1199.095,1228.821a47.449,47.449,0,0,0,9.987-1.059,38.527,38.527,0,0,0,25.333-17.9.213.213,0,1,0-.363-.221,38.11,38.11,0,0,1-25.06,17.7,44.645,44.645,0,0,1-14.777.758.213.213,0,0,0-.066.42A35.653,35.653,0,0,0,1199.095,1228.821Z" transform="translate(-1193.969 -1209.541)" fill="#7befb8"/>
          </g>
          <g id="Grupo_54405" data-name="Grupo 54405" transform="translate(0 41.756)">
            <path id="Trazado_101918" data-name="Trazado 101918" d="M1154.642,1095.214a.213.213,0,0,0,.181-.324c-.076-.122-7.731-12.25-25.45-20.125a.213.213,0,1,0-.173.389c17.6,7.822,25.186,19.839,25.26,19.96A.213.213,0,0,0,1154.642,1095.214Z" transform="translate(-1129.074 -1074.746)" fill="#7befb8"/>
          </g>
        </g>
      </g>
    </g>
    <g id="Grupo_54411" data-name="Grupo 54411" transform="translate(154.387 116.875)">
      <g id="Grupo_54409" data-name="Grupo 54409" transform="translate(0 41.277)">
        <path id="Trazado_101919" data-name="Trazado 101919" d="M347.005,291.238H466.09l-43.054-6.716s-.24-12.952-14.39-7.675c0,0-1.156-9.834-12.091-10.313s-10.215,8.874-10.215,8.874-13.911-9.114-22.066-.24,4.8,11.273,4.8,11.273Z" transform="translate(-347.005 -266.516)" fill="#ffc94a"/>
      </g>
      <g id="Grupo_54410" data-name="Grupo 54410" transform="translate(273.279)">
        <path id="Trazado_101920" data-name="Trazado 101920" d="M1407.049,131.266h-69.32l25.062-3.909s.14-7.539,8.377-4.468a7.063,7.063,0,0,1,7.038-6c6.365-.279,5.946,5.166,5.946,5.166s8.1-5.305,12.845-.14-2.792,6.562-2.792,6.562Z" transform="translate(-1337.729 -116.875)" fill="#ffc94a"/>
      </g>
    </g>
    <g id="Grupo_54412" data-name="Grupo 54412" transform="translate(113.844 212.514)">
      <path id="Trazado_101921" data-name="Trazado 101921" d="M421.24,838.02a8.629,8.629,0,0,1,.807-4.557l-7.22,2.883.081.539A11.383,11.383,0,0,0,421.24,838.02Z" transform="translate(-355.576 -731.439)" fill="#ed7e94"/>
      <path id="Trazado_101922" data-name="Trazado 101922" d="M431.043,805.289l.444-1.257-3.046-3.248c-1.576,2.446-4.394,4.314-3.607,7.461a4.925,4.925,0,0,0,3.986,3.5,19.642,19.642,0,0,0,3.9-2.025Z" transform="translate(-362.723 -707.775)" fill="#ff96a9"/>
      <path id="Trazado_101923" data-name="Trazado 101923" d="M406.61,805.322c-.787-3.147,2.031-5.016,3.607-7.461l-1.045-1.114-9.511,5.692s-1.257,6.431,4.09,7.319a13.3,13.3,0,0,0,6.845-.932A4.925,4.925,0,0,1,406.61,805.322Z" transform="translate(-344.5 -704.851)" fill="#ed7e94"/>
      <path id="Trazado_101924" data-name="Trazado 101924" d="M455.426,1017.841l-14.165,1.853c5.081,53.068,37.054,88.86,37.054,88.86q-.132-.366-.264-.739C462.179,1080.911,453.344,1049.627,455.426,1017.841Z" transform="translate(-374.718 -864.959)" fill="#193d51"/>
      <path id="Trazado_101925" data-name="Trazado 101925" d="M514.448,1107.266c-10.556-29.768-21.025-90.184-21.025-90.184l-1.6.209C489.741,1049.078,498.576,1080.361,514.448,1107.266Z" transform="translate(-411.115 -864.409)" fill="#22577a"/>
      <path id="Trazado_101926" data-name="Trazado 101926" d="M393.522,783.414A25.793,25.793,0,0,0,403.576,770.3s-11.729,6.308-19.122,15.179c0,0,1.478,4.238,8.378,5.125l-.2-5.224s-1.873,1.577-1.873-.789S393.522,783.414,393.522,783.414Z" transform="translate(-333.581 -685.703)" fill="#193d51"/>
      <path id="Trazado_101927" data-name="Trazado 101927" d="M407.356,1017.082l-11.276.846c-.067.109-.131.218-.2.326-5.175,8.28-7.836,16.559-10.645,25.43-6.442,20.9-10.943,41.8-12.565,63.373l28.7-76.891C408.92,1026.041,407.356,1017.082,407.356,1017.082Z" transform="translate(-325.048 -864.409)" fill="#22577a"/>
      <path id="Trazado_101928" data-name="Trazado 101928" d="M394.753,1020.474c.068-.109.132-.218.2-.326l-6.465.485c-19.515,37.921-17.3,89.592-17.3,89.592l.354-.947c1.621-21.572,6.123-42.473,12.565-63.374C386.917,1037.033,389.578,1028.754,394.753,1020.474Z" transform="translate(-323.92 -866.63)" fill="#193d51"/>
      <path id="Trazado_101929" data-name="Trazado 101929" d="M511.061,705.092c-.888,1.523-2.648,3.153-4.438,3.3-.258,4.346,3.992-.206,4.583-1.826,0,0,1.186,1.479,2.516,1.183l-.085,1.438a8,8,0,0,0,1.631-.365,26.5,26.5,0,0,1,.523-2.848C514.166,706.422,512.1,706.718,511.061,705.092Z" transform="translate(-422.042 -638.478)" fill="#ed7e94"/>
      <path id="Trazado_101930" data-name="Trazado 101930" d="M517.6,672.82s4.989-4.288,3.012-6.949-6.856-1.331-6.856-1.331-2.661-3.4-5.175-3.4,3.844,10.2,3.844,10.2-5.47.74-5.766,5.175c0,.018,0,.034,0,.052,1.79-.151,3.55-1.781,4.438-3.3,1.035,1.626,3.1,1.33,4.731.887A26.511,26.511,0,0,0,515.3,677a8.672,8.672,0,0,0,2.971-1.718C517.878,673.744,517.6,672.82,517.6,672.82Z" transform="translate(-422.072 -606.65)" fill="#ff96a9"/>
      <path id="Trazado_101931" data-name="Trazado 101931" d="M536.352,712.4a8.482,8.482,0,0,1-4.6,2.083l-.127,2.153a12.279,12.279,0,0,0,5.259-2.03C536.7,713.781,536.515,713.038,536.352,712.4Z" transform="translate(-440.156 -643.771)" fill="#e6e6e6"/>
      <path id="Trazado_101932" data-name="Trazado 101932" d="M318.814,766.011c.071-.627.156-1.244.258-1.845a7.523,7.523,0,0,1-4.847-.889c-.1.452-.242,1.117-.408,1.943A7.6,7.6,0,0,0,318.814,766.011Z" transform="translate(-282.429 -680.613)" fill="#e6e6e6"/>
      <path id="Trazado_101933" data-name="Trazado 101933" d="M434.04,1010.952c.038.715.045,1.428.016,2.138a19.432,19.432,0,0,0,17.741-1.331s.145-.741.339-2.027C446.619,1012.846,439.542,1013.917,434.04,1010.952Z" transform="translate(-369.489 -859.087)" fill="#322666"/>
      <path id="Trazado_101934" data-name="Trazado 101934" d="M529.376,726.893l-.856,14.557a132.342,132.342,0,0,0,2.445-14.886A12.41,12.41,0,0,1,529.376,726.893Z" transform="translate(-437.908 -654.027)" fill="#e6e6e6"/>
      <path id="Trazado_101935" data-name="Trazado 101935" d="M373.908,720.4a12.142,12.142,0,0,1-3.671,1.7,132.342,132.342,0,0,1-2.445,14.886l-.263,4.473s-10.793,17.3-14.785,18.777l-8.649.3-6.481,1.848-5.4.961s-13.769-5.027-18.2-11.754a77.32,77.32,0,0,1-.442-16.626,7.6,7.6,0,0,1-5-.792c-1.094,5.436-3.232,17.9-1.067,23.258,0,0,11.031,11.525,20.383,15.4,4.868,5.838,13.252,17.427,13.846,28.6,5.5,2.965,12.579,1.894,18.1-1.22.867-5.751,2.722-22.435-2.943-32.876,0,0,15.376-16.116,18.038-25.874C376.678,735.018,375.15,725.874,373.908,720.4Z" transform="translate(-277.18 -649.563)" fill="#fff"/>
      <path id="Trazado_101936" data-name="Trazado 101936" d="M555.055,1336.829l-4.71,5.305h27.13Z" transform="translate(-453.713 -1095.958)" fill="#193d51"/>
      <circle id="Elipse_4082" data-name="Elipse 4082" cx="8.803" cy="8.803" r="8.803" transform="translate(0 76.593) rotate(-79.973)" fill="#377aa0"/>
      <path id="Trazado_101937" data-name="Trazado 101937" d="M219.195,699.736a8.8,8.8,0,0,1-7.575-15.161,8.8,8.8,0,1,0,8.189,15.019C219.607,699.647,219.4,699.7,219.195,699.736Z" transform="translate(-203.689 -623.62)" fill="#22577a"/>
      <path id="Trazado_101938" data-name="Trazado 101938" d="M327.138,1336.829l3.622,5.305H308.878Z" transform="translate(-278.851 -1095.958)" fill="#193d51"/>
      <path id="Trazado_101939" data-name="Trazado 101939" d="M244.928,620.8c19.816,5.722,40.342,6.306,60.073-.132,17.284-5.614,34.487-12.622,52.279-14.98l-1.529-7.991Z" transform="translate(-232.541 -560.703)" fill="#377aa0"/>
      <path id="Trazado_101940" data-name="Trazado 101940" d="M234.885,641.775l-3.826.8,3.28,17.135,115.37-20.125-2.473-12.919c-17.792,2.359-34.994,9.366-52.279,14.98C275.226,648.08,254.7,647.5,234.885,641.775Z" transform="translate(-222.498 -581.683)" fill="#22577a"/>
      <circle id="Elipse_4083" data-name="Elipse 4083" cx="29.439" cy="29.439" r="29.439" transform="translate(112.438 41.633) rotate(-45)" fill="#57cc99"/>
      <path id="Trazado_101941" data-name="Trazado 101941" d="M666.69,537.1a29.425,29.425,0,0,1,9.569-27.729c-.173.03-.345.059-.518.092a29.439,29.439,0,1,0,24.879,51.109A29.438,29.438,0,0,1,666.69,537.1Z" transform="translate(-527.206 -496.743)" fill="#3b966a"/>
      <rect id="Rectángulo_5577" data-name="Rectángulo 5577" width="7.096" height="28.829" rx="3.548" transform="translate(119.02 33.666) rotate(-10.835)" fill="#377aa0"/>
      <path id="Trazado_101942" data-name="Trazado 101942" d="M644.293,610.7l-4.087.782a1.467,1.467,0,0,1-1.717-1.165l-4.868-25.433a1.477,1.477,0,0,1-.024-.237,1.467,1.467,0,0,0-1.159,1.715l4.868,25.433a1.467,1.467,0,0,0,1.717,1.165l4.087-.782a1.466,1.466,0,0,0,1.189-1.48Z" transform="translate(-513.142 -551.258)" fill="#22577a"/>
      <path id="Trazado_101943" data-name="Trazado 101943" d="M439.237,824.124l2.52-1.515s.776,2.07,0,2.55S439.237,824.124,439.237,824.124Z" transform="translate(-373.252 -723.579)" fill="#fff"/>
      <path id="Trazado_101944" data-name="Trazado 101944" d="M421.451,847a11.383,11.383,0,0,1-6.332-1.135l1.1,7.371,7.294,4.953-.813-6.8A11.646,11.646,0,0,1,421.451,847Z" transform="translate(-355.787 -740.422)" fill="#ff96a9"/>
      <path id="Trazado_101945" data-name="Trazado 101945" d="M343.652,836.358a59.044,59.044,0,0,0-14.514-30.263,52.753,52.753,0,0,1-19.812-14.253c-1.1-4.059.095-17.114.48-20.965a5.819,5.819,0,0,1-1.236-.557c-1.094,5.436-3.232,17.9-1.067,23.258,0,0,11.031,11.525,20.383,15.4,4.868,5.838,13.252,17.427,13.846,28.6,5.5,2.965,12.579,1.894,18.1-1.22C348.428,839.812,343.652,836.358,343.652,836.358Z" transform="translate(-277.18 -685.713)" fill="#e6e6e6"/>
      <path id="Trazado_101946" data-name="Trazado 101946" d="M477.718,802.985a16.808,16.808,0,0,1,3.1,4.632S496.2,791.5,498.86,781.744a24.976,24.976,0,0,0,.774-5.715C489.419,800.375,477.718,802.985,477.718,802.985Z" transform="translate(-401.119 -689.848)" fill="#e6e6e6"/>
      <path id="Trazado_101947" data-name="Trazado 101947" d="M414.827,871.83l9.314,9.265-.542-5.125,4.633,3.176-4.288-9.681,2.809,7.787-3.45-1.971v3.866Z" transform="translate(-355.576 -757.51)" fill="#f2f2f2"/>
      <path id="Trazado_101948" data-name="Trazado 101948" d="M446.63,893.049l.277,2.619,2.335,1.471-.311-2.513Z" transform="translate(-378.606 -774.589)" fill="#ce9b36"/>
      <path id="Trazado_101949" data-name="Trazado 101949" d="M451.364,900.463s4.608,15.894,2.464,28.683l7.319,7.466.169-.455c-.967-12.375-2.948-24.681-9.487-35.291Q451.6,900.661,451.364,900.463Z" transform="translate(-382.034 -779.958)" fill="#ce9b36"/>
      <path id="Trazado_101950" data-name="Trazado 101950" d="M453.047,901.926c6.54,10.61,8.521,22.916,9.487,35.291l3.366-9.082S462.43,910.315,453.047,901.926Z" transform="translate(-383.253 -781.018)" fill="#ffc94a"/>
      <circle id="Elipse_4084" data-name="Elipse 4084" cx="0.437" cy="0.437" r="0.437" transform="translate(31.838 83.358)" fill="#fff"/>
      <circle id="Elipse_4085" data-name="Elipse 4085" cx="0.481" cy="0.481" r="0.481" transform="translate(91.975 71.16)" fill="#fff"/>
      <path id="Trazado_101951" data-name="Trazado 101951" d="M301.788,705.945c-.544-4.626-.711-9.5.764-13.939-1.921-.735-1.651,13.347-1.651,13.347s-3.992,1.183-4.435,4.731c-.109.872.068,1.279.4,1.4C297.485,709.079,299.636,707.078,301.788,705.945Z" transform="translate(-269.84 -628.981)" fill="#ed7e94"/>
      <path id="Trazado_101952" data-name="Trazado 101952" d="M311.194,701.878c-1.331-4.288-6.681-1.075-6.681-1.075s1.654-6.317-.563-8.535a.794.794,0,0,0-.271-.189c-1.475,4.436-1.308,9.312-.764,13.939-2.153,1.133-4.3,3.135-4.926,5.538,1.008.365,3.447-1.99,3.447-1.99l1.478,1.479s-.056.24-.151.673a7.523,7.523,0,0,0,4.847.889,20.875,20.875,0,0,1,.923-3.633S312.525,706.165,311.194,701.878Z" transform="translate(-270.966 -629.054)" fill="#ff96a9"/>
    </g>
    <g id="Grupo_54413" data-name="Grupo 54413" transform="translate(363.415 264.924)">
      <rect id="Rectángulo_5578" data-name="Rectángulo 5578" width="9.204" height="157.492" transform="translate(130.883 16.14)" fill="#193d51"/>
      <path id="Trazado_101953" data-name="Trazado 101953" d="M1583.522,712.268h4.972v-.157h-9.2V869.6h4.232Z" transform="translate(-1448.406 -695.971)" fill="#22577a"/>
      <rect id="Rectángulo_5579" data-name="Rectángulo 5579" width="63.304" height="9.555" transform="translate(76.784 11.533)" fill="#22577a"/>
      <rect id="Rectángulo_5580" data-name="Rectángulo 5580" width="63.304" height="4.778" transform="translate(76.784 16.311)" fill="#193d51"/>
      <path id="Rectángulo_5581" data-name="Rectángulo 5581" d="M15.186,0H70.812A15.186,15.186,0,0,1,86,15.186v0A15.186,15.186,0,0,1,70.812,30.372H15.186A15.186,15.186,0,0,1,0,15.186v0A15.186,15.186,0,0,1,15.186,0Z" transform="translate(0 0.954)" fill="#57cc99"/>
      <path id="Trazado_101954" data-name="Trazado 101954" d="M1181.418,686.67h-55.625a15.186,15.186,0,0,1-15.186-15.186h0a15.181,15.181,0,0,1,.684-4.519,15.167,15.167,0,0,0-6.494,12.453h0a15.186,15.186,0,0,0,15.186,15.186h55.626a15.193,15.193,0,0,0,14.5-10.667A15.115,15.115,0,0,1,1181.418,686.67Z" transform="translate(-1104.796 -663.278)" fill="#3b966a"/>
      <rect id="Rectángulo_5582" data-name="Rectángulo 5582" width="103.402" height="14.333" rx="7.166" transform="translate(83.609 179.434)" fill="#ffc94a"/>
      <path id="Trazado_101955" data-name="Trazado 101955" d="M1510.112,1314.393h-89.069a7.166,7.166,0,0,1-7.166-7.167h0a7.137,7.137,0,0,1,.681-3.051,7.165,7.165,0,0,0-6.653,7.146h0a7.166,7.166,0,0,0,7.166,7.167h89.069a7.167,7.167,0,0,0,6.485-4.115C1510.456,1314.384,1510.285,1314.393,1510.112,1314.393Z" transform="translate(-1324.296 -1124.721)" fill="#ce9b36"/>
      <path id="Trazado_101956" data-name="Trazado 101956" d="M1557.344,1270.953h-46.753a12.626,12.626,0,0,1,12.626-12.627h21.5a12.626,12.626,0,0,1,12.626,12.627Z" transform="translate(-1398.657 -1091.519)" fill="#ffc94a"/>
      <path id="Trazado_101957" data-name="Trazado 101957" d="M1518.44,1268.905h0a12.613,12.613,0,0,1,5.737-10.579h-.959a12.626,12.626,0,0,0-12.626,12.627h46.753a12.713,12.713,0,0,0-.168-2.047Z" transform="translate(-1398.657 -1091.519)" fill="#ffde9c"/>
      <circle id="Elipse_4086" data-name="Elipse 4086" cx="12.028" cy="12.028" r="12.028" transform="translate(119.77 9.206) rotate(-22.5)" fill="#c2ffcd"/>
      <path id="Trazado_101958" data-name="Trazado 101958" d="M1568.492,691.719a12.031,12.031,0,0,1-10.864-17.192,12.028,12.028,0,1,0,17.634,15.107A11.969,11.969,0,0,1,1568.492,691.719Z" transform="translate(-1428.911 -668.754)" fill="#80ed99"/>
    </g>
    <g id="Grupo_54414" data-name="Grupo 54414" transform="translate(378.283 187.378)">
      <path id="Trazado_101959" data-name="Trazado 101959" d="M1287.269,492.217c-2.143,2.755-5.663,2.6-8.724,2.3,3.224,1.419,6.123,4.142,6.954,7.528.325-1.9.751-3.909,1.208-5.851.243-1.033,1.442-1.218,2.342-2.623a8.872,8.872,0,0,0,1.129-6.268,16.49,16.49,0,0,0-7.195-3.5C1285.891,485.331,1289.87,488.544,1287.269,492.217Z" transform="translate(-1245.487 -453.091)" fill="#80ed99"/>
      <path id="Trazado_101960" data-name="Trazado 101960" d="M1231.093,383.053c-5.892-.689-8.794-4.786-5.178-8.545,3.292-3.423,8.7-1.785,11.3-.485,0,0,4.056-2.143,6.122,0s.383,6.122.383,6.122,13.206,7.812.647,18.136C1230.6,409.6,1236.986,383.742,1231.093,383.053Z" transform="translate(-1206.224 -372.469)" fill="#193d51"/>
      <path id="Trazado_101961" data-name="Trazado 101961" d="M1249.253,432.016l-.168,2.519a5.452,5.452,0,0,0,5.835-.021l-.464-2.5Z" transform="translate(-1224.153 -415.591)" fill="#ed7e94"/>
      <path id="Trazado_101962" data-name="Trazado 101962" d="M1222.983,501c-1.99.612-4.132,1.53-6.275.918-4.285-1.071-5.356-5.969-5.356-9.8q-.424,1.271-.847,2.543a21.553,21.553,0,0,0,.541,4.538c.3,1.032,1.92,2.055,2.186,3.069a92.749,92.749,0,0,1,2.814,15.307s-6.326,5.918-7.04,12.55l6.358-.1c.386-3.845,2.857-7.636,3.182-11.427C1218.851,512.478,1215.331,503.908,1222.983,501Z" transform="translate(-1195.129 -459.118)" fill="#80ed99"/>
      <path id="Trazado_101963" data-name="Trazado 101963" d="M1237.842,505.9c-1.244-1.023-1.04-4.829-.29-9.221-.832-3.386-3.73-6.11-6.954-7.528,3.061.306,6.581.459,8.724-2.3,2.6-3.673-1.378-6.887-4.286-8.417a16.489,16.489,0,0,1,7.195,3.5,9.765,9.765,0,0,0-.52-1.97c-9.669-5.164-19.481-4.345-29.376,0a12.9,12.9,0,0,1,.581,3.308l.847-2.543c0,3.826,1.071,8.724,5.357,9.8,2.143.612,4.285-.306,6.275-.918-7.652,2.908-4.132,11.478-4.438,17.6-.325,3.791-2.8,7.582-3.182,11.427l25.373-.408S1241.209,508.673,1237.842,505.9Z" transform="translate(-1197.54 -447.73)" fill="#c2ffcd"/>
      <path id="Trazado_101964" data-name="Trazado 101964" d="M1199.146,530.371q-.364-.456-.766-.874-1.351,4.214-2.6,8.477Z" transform="translate(-1185.55 -486.183)" fill="#ed7e94"/>
      <path id="Trazado_101965" data-name="Trazado 101965" d="M1240.8,533.678l7.624,15.211a.077.077,0,0,1-.135.072l-8.3-14.853a.459.459,0,1,1,.8-.448Z" transform="translate(-1217.523 -489.027)" fill="#322666"/>
      <path id="Trazado_101966" data-name="Trazado 101966" d="M1245.474,549.9a5.292,5.292,0,0,0-3.862,1.337c.023,2.876.611,5.987.562,8.683a4.741,4.741,0,0,0,5.953-2.265,6.665,6.665,0,0,0,3.126,3.171C1252.3,559.316,1248.348,550.38,1245.474,549.9Z" transform="translate(-1218.742 -500.928)" fill="#ff96a9"/>
      <path id="Trazado_101967" data-name="Trazado 101967" d="M1188,529.045a14.539,14.539,0,0,0-2.464,2.438l-11.733,2.551,1.555-3.508q1.245-4.267,2.6-8.477a10.7,10.7,0,0,0-4.4-2.837,137.241,137.241,0,0,0-5.977,18.393c6.275,1.683,13.162,1.683,18.978-1.378a4.671,4.671,0,0,0,2.006,1.5C1188.61,535.032,1188.021,531.921,1188,529.045Z" transform="translate(-1165.128 -478.735)" fill="#ff96a9"/>
      <path id="Trazado_101968" data-name="Trazado 101968" d="M1188.085,534.434a4.74,4.74,0,0,1-7.958.765c-5.816,3.061-12.7,3.061-18.978,1.378a137.238,137.238,0,0,1,5.977-18.393,9.139,9.139,0,0,0-1.805-.391c-2.927,5.762-5.628,12.517-6.621,19.192,0,0,5.2,7.142,21.222,0,0,0,2.959,2.755,5.815,1.837s2.782-2.143,2.782-2.143a1.914,1.914,0,0,0,2.422,1.122.477.477,0,0,0,.269-.2A6.665,6.665,0,0,1,1188.085,534.434Z" transform="translate(-1158.7 -477.707)" fill="#ed7e94"/>
      <path id="Trazado_101969" data-name="Trazado 101969" d="M1205.215,502.432q.4.418.766.874l3.035-6.847h.114a17.137,17.137,0,0,1-.522-4.335C1207.464,495.553,1206.32,498.983,1205.215,502.432Z" transform="translate(-1192.384 -459.118)" fill="#80ed99"/>
      <path id="Trazado_101970" data-name="Trazado 101970" d="M1220.1,452.807l-11.153-1.591-11.769,2.74s-.5.64-1.327,1.794a154.718,154.718,0,0,0-6.606,14.222,10.7,10.7,0,0,1,4.4,2.837c1.106-3.449,2.249-6.879,3.392-10.309a17.143,17.143,0,0,0,.522,4.335l25.8-.3.573.732a7.884,7.884,0,0,0,.652-2.773,41.9,41.9,0,0,0,3.845,5.645,9.548,9.548,0,0,1,5.23-2.316C1230.2,462.525,1225.45,456.446,1220.1,452.807Z" transform="translate(-1180.821 -429.495)" fill="#c2ffcd"/>
      <path id="Trazado_101971" data-name="Trazado 101971" d="M1182.7,481.483a9.141,9.141,0,0,1,1.805.391,154.721,154.721,0,0,1,6.606-14.222A110.331,110.331,0,0,0,1182.7,481.483Z" transform="translate(-1176.082 -441.398)" fill="#80ed99"/>
      <path id="Trazado_101972" data-name="Trazado 101972" d="M1313.326,527.012c-1.664-2.539-3.627-4.828-5.491-7.21a8.34,8.34,0,0,0-1.208,1.332l4.2,5.368-11.937,8.979,1.566,1.778C1305.074,534.263,1309.588,531.166,1313.326,527.012Z" transform="translate(-1260.22 -479.162)" fill="#ed7e94"/>
      <path id="Trazado_101973" data-name="Trazado 101973" d="M1304.567,564.026l2.209,2.507a58.743,58.743,0,0,0,9.268-4.908,9.981,9.981,0,0,0-1.6-4.861A78.032,78.032,0,0,1,1304.567,564.026Z" transform="translate(-1264.331 -505.929)" fill="#ed7e94"/>
      <path id="Trazado_101974" data-name="Trazado 101974" d="M1342.477,521.748a96.554,96.554,0,0,0-5.923-10.343,9.549,9.549,0,0,0-5.23,2.316c1.864,2.382,3.827,4.671,5.491,7.21a40.044,40.044,0,0,1-3,2.985,9.984,9.984,0,0,1,1.6,4.861C1338.382,526.81,1341.219,524.384,1342.477,521.748Z" transform="translate(-1283.707 -473.081)" fill="#ff96a9"/>
      <path id="Trazado_101975" data-name="Trazado 101975" d="M1250.607,573.183h-14.519a.95.95,0,0,1-.751-1.531l10.814-13.974a.949.949,0,0,1,.751-.369h15.875a.95.95,0,0,1,.716,1.573l-12.171,13.974A.949.949,0,0,1,1250.607,573.183Z" transform="translate(-1214.053 -506.324)" fill="#a9cce7"/>
      <path id="Trazado_101976" data-name="Trazado 101976" d="M1235.8,572.417l10.815-13.974a.95.95,0,0,1,.751-.369h15.875a.938.938,0,0,1,.489.135.948.948,0,0,0-.948-.9H1246.9a.949.949,0,0,0-.751.369l-10.814,13.974a.95.95,0,0,0,.26,1.395A.934.934,0,0,1,1235.8,572.417Z" transform="translate(-1214.054 -506.324)" fill="#d6eaf5"/>
      <path id="Trazado_101977" data-name="Trazado 101977" d="M1213.333,624.756a4,4,0,0,1-.837-3.582c-2.2,1.466-3.5,2.409-3.5,2.409s-.408,8.06,8.01,8.213c5.658.1,10-4.22,12.242-7.065-.237-.91-.434-1.832-.585-2.758a30.08,30.08,0,0,1-4.311,2.17C1220.985,625.675,1216.547,627.817,1213.333,624.756Z" transform="translate(-1195.12 -552.572)" fill="#193d51"/>
      <path id="Trazado_101978" data-name="Trazado 101978" d="M1238.658,584.94a155.752,155.752,0,0,0-17.245,9.995,4,4,0,0,0,.837,3.582c3.214,3.061,7.652.918,11.019-.612a30.093,30.093,0,0,0,4.311-2.17A18.45,18.45,0,0,1,1238.658,584.94Z" transform="translate(-1204.038 -526.333)" fill="#22577a"/>
      <path id="Trazado_101979" data-name="Trazado 101979" d="M1329.725,724.934a11.513,11.513,0,0,0-3.541,1.559c1.012,4.72,2.18,9.4,3.541,14Z" transform="translate(-1279.985 -627.711)" fill="#22577a"/>
      <path id="Trazado_101980" data-name="Trazado 101980" d="M1320.9,730.585a14.747,14.747,0,0,0-2.011,1.56c2.954,7.829,5.553,13.93,5.553,13.93v-1.493C1323.083,739.981,1321.916,735.305,1320.9,730.585Z" transform="translate(-1274.705 -631.803)" fill="#193d51"/>
      <path id="Trazado_101981" data-name="Trazado 101981" d="M1292.171,610.133a11.513,11.513,0,0,1,3.541-1.559V564.252a74.8,74.8,0,0,0-15.12,5.706,15.529,15.529,0,0,0-1.378,5.753,68.683,68.683,0,0,0,7.621-3.042A311.784,311.784,0,0,0,1292.171,610.133Z" transform="translate(-1245.972 -511.351)" fill="#ff96a9"/>
      <path id="Trazado_101982" data-name="Trazado 101982" d="M1286.753,594.768a68.7,68.7,0,0,1-7.621,3.042,25.585,25.585,0,0,0,.885,7.8,22.085,22.085,0,0,0,1.685-2.424c-.353,6.007,4.341,19.918,8.375,30.606a14.747,14.747,0,0,1,2.011-1.56A311.785,311.785,0,0,1,1286.753,594.768Z" transform="translate(-1245.89 -533.45)" fill="#ed7e94"/>
      <path id="Trazado_101983" data-name="Trazado 101983" d="M1250.086,619.162c.7-2.582,2.219-5.431,4.75-6.483-.2-.027-.409-.049-.624-.062-12.911-.755-9.9,28.825-6.677,47.745a9.726,9.726,0,0,0,1.67.468c-.4-5.523-.714-11.046-1.108-16.57C1247.331,635.844,1247.637,627.427,1250.086,619.162Z" transform="translate(-1221.007 -546.366)" fill="#ed7e94"/>
      <path id="Trazado_101984" data-name="Trazado 101984" d="M1262.672,612.879c-2.531,1.052-4.045,3.9-4.75,6.483-2.449,8.264-2.755,16.682-1.99,25.1.395,5.523.709,11.047,1.108,16.57a10.035,10.035,0,0,0,4.681-.211C1268.116,632.153,1272.512,614.178,1262.672,612.879Z" transform="translate(-1228.843 -546.565)" fill="#ff96a9"/>
      <path id="Trazado_101985" data-name="Trazado 101985" d="M1257.933,801.105l.01-.049c-.617-4.948-1.046-9.9-1.4-14.843a9.722,9.722,0,0,1-1.67-.468C1256.378,794.59,1257.933,801.105,1257.933,801.105Z" transform="translate(-1228.343 -671.749)" fill="#22577a"/>
      <path id="Trazado_101986" data-name="Trazado 101986" d="M1265.6,786.68a10.034,10.034,0,0,1-4.681.211c.358,4.947.787,9.895,1.4,14.843C1263.437,796.442,1264.548,791.415,1265.6,786.68Z" transform="translate(-1232.726 -672.425)" fill="#193d51"/>
      <path id="Trazado_101987" data-name="Trazado 101987" d="M1247.884,411.65a4.22,4.22,0,0,0,.575.039c5.816,0,5.663-11.3,5.663-11.3s-.338.2-.9.474a14.041,14.041,0,0,1-8.662,2.943C1244.219,406.841,1245.451,410.12,1247.884,411.65Z" transform="translate(-1220.834 -392.688)" fill="#ff96a9"/>
      <path id="Trazado_101988" data-name="Trazado 101988" d="M1237.709,400.39s.015,10.541,5.256,11.26c-2.433-1.531-3.665-4.809-3.328-7.842a14.042,14.042,0,0,0,8.662-2.943C1246.054,401.963,1240.216,404.3,1237.709,400.39Z" transform="translate(-1215.915 -392.688)" fill="#ed7e94"/>
      <path id="Trazado_101989" data-name="Trazado 101989" d="M1277.8,399.522a.69.69,0,0,1,.867-.281c.612.2-.09,2.751-1.078,2.715S1277.8,399.522,1277.8,399.522Z" transform="translate(-1244.512 -391.82)" fill="#ff96a9"/>
      <path id="Trazado_101990" data-name="Trazado 101990" d="M1234.832,399.522a.691.691,0,0,0-.867-.281c-.612.2.09,2.751,1.078,2.715S1234.832,399.522,1234.832,399.522Z" transform="translate(-1213.038 -391.82)" fill="#ed7e94"/>
      <path id="Trazado_101991" data-name="Trazado 101991" d="M1250.618,428.872h4.54s-.456,2.449-2.27,2.449S1250.618,428.872,1250.618,428.872Z" transform="translate(-1225.264 -413.314)" fill="#fff"/>
      <path id="Trazado_101992" data-name="Trazado 101992" d="M1248.459,441.093l-.239,3.577,3.671,7.678,3.008-8.015-.605-3.261A5.451,5.451,0,0,1,1248.459,441.093Z" transform="translate(-1223.527 -422.149)" fill="#ff96a9"/>
      <path id="Trazado_101993" data-name="Trazado 101993" d="M1217.385,492.43s1.02-6.479,9.386-5.51a9.5,9.5,0,0,0-10,3.163Z" transform="translate(-1200.754 -455.088)" fill="#80ed99"/>
      <path id="Trazado_101994" data-name="Trazado 101994" d="M1284.834,477.137l-2.793-2.908-4.591-5.548,1.109,4.17a13.436,13.436,0,0,0-6.124,1.071s5.615-.861,8.93.82a5.232,5.232,0,0,1,2.323,4.536l.494.632,3.289,4.2a8.342,8.342,0,0,1,1.208-1.332A41.9,41.9,0,0,1,1284.834,477.137Z" transform="translate(-1241.063 -442.142)" fill="#80ed99"/>
    </g>
    <g id="Grupo_54416" data-name="Grupo 54416" transform="translate(264.232 260.553)">
      <path id="Trazado_101995" data-name="Trazado 101995" d="M850.026,704.159l37.581-60.667a12.123,12.123,0,0,1,16.335-4.133h0a12.123,12.123,0,0,1,4.7,16.169l-33.273,63.133a14.606,14.606,0,0,1-20.186,5.861h0A14.606,14.606,0,0,1,850.026,704.159Z" transform="translate(-819.532 -637.752)" fill="#22577a"/>
      <path id="Trazado_101996" data-name="Trazado 101996" d="M854.1,706.022l37.581-60.667a12.125,12.125,0,0,1,13.221-5.382c-.308-.217-.628-.423-.961-.614h0a12.123,12.123,0,0,0-16.335,4.133l-37.581,60.667a14.606,14.606,0,0,0,5.152,20.363h0a14.636,14.636,0,0,0,3.309,1.389A14.6,14.6,0,0,1,854.1,706.022Z" transform="translate(-819.532 -637.752)" fill="#377aa0"/>
      <circle id="Elipse_4087" data-name="Elipse 4087" cx="14.395" cy="14.395" r="14.395" transform="translate(28.303 60.313)" fill="#377aa0"/>
      <g id="Grupo_54415" data-name="Grupo 54415" transform="translate(6.246 72.592)">
        <path id="Trazado_101997" data-name="Trazado 101997" d="M823.682,1026.467a3.942,3.942,0,0,1-3.022-1.4l-51.867-61.425a3.9,3.9,0,0,1-.444-4.386l30.787-56.287a3.955,3.955,0,0,1,5.345-1.571,3.9,3.9,0,0,1,1.582,5.31l-29.506,53.944,50.142,59.383a3.9,3.9,0,0,1-.487,5.516A3.943,3.943,0,0,1,823.682,1026.467Z" transform="translate(-767.871 -900.922)" fill="#193d51"/>
      </g>
      <path id="Trazado_101998" data-name="Trazado 101998" d="M824.578,1025.225,772.711,963.8a3.9,3.9,0,0,1-.443-4.386l30.787-56.287a3.91,3.91,0,0,1,1.637-1.6c-.07-.043-.137-.088-.21-.127a3.956,3.956,0,0,0-5.345,1.571l-30.787,56.287a3.9,3.9,0,0,0,.444,4.386l51.867,61.425a3.952,3.952,0,0,0,4.842.953A3.922,3.922,0,0,1,824.578,1025.225Z" transform="translate(-761.625 -828.33)" fill="#22577a"/>
      <circle id="Elipse_4088" data-name="Elipse 4088" cx="12.632" cy="12.632" r="12.632" transform="translate(37.29 171.764)" fill="#ffc94a"/>
      <path id="Trazado_101999" data-name="Trazado 101999" d="M886.194,1273.468a12.634,12.634,0,0,1,10.569-12.462,12.634,12.634,0,1,0-1.65,24.539A12.637,12.637,0,0,1,886.194,1273.468Z" transform="translate(-843.128 -1088.686)" fill="#ffde9c"/>
      <rect id="Rectángulo_5583" data-name="Rectángulo 5583" width="103.402" height="14.333" rx="7.166" transform="translate(0 183.804)" fill="#ffc94a"/>
      <path id="Trazado_102000" data-name="Trazado 102000" d="M847.437,1314.393H758.367a7.166,7.166,0,0,1-7.167-7.167h0a7.138,7.138,0,0,1,.682-3.051,7.166,7.166,0,0,0-6.653,7.146h0a7.166,7.166,0,0,0,7.167,7.167h89.069a7.167,7.167,0,0,0,6.485-4.115C847.78,1314.384,847.609,1314.393,847.437,1314.393Z" transform="translate(-745.229 -1120.35)" fill="#ce9b36"/>
    </g>
    <g id="Grupo_54417" data-name="Grupo 54417" transform="translate(84.684 458.69)">
      <path id="Trazado_102001" data-name="Trazado 102001" d="M594.718,1357.913H95.235a.925.925,0,0,1,0-1.85H594.718a.925.925,0,0,1,0,1.85Z" transform="translate(-94.31 -1356.063)" fill="#377aa0"/>
    </g>
  </g>
</svg>
