<svg xmlns="http://www.w3.org/2000/svg" width="131.477" height="120.478" viewBox="0 0 131.477 120.478">
  <g id="publicalo" transform="translate(0 -21.423)">
    <path id="Trazado_102129" data-name="Trazado 102129" d="M101.855,178.059,68.285,93.176a2.738,2.738,0,0,0-2.223-1.709L14.037,85.345a2.7,2.7,0,0,0-3.049,2.3c0,.033-.009.067-.012.1L.023,175.364a2.738,2.738,0,0,0,2.36,3.07l.066.008,95.835,10.953H98.6a2.738,2.738,0,0,0,2.738-2.481l.712-7.6A2.73,2.73,0,0,0,101.855,178.059Z" transform="translate(0 -47.493)" fill="#80ed99"/>
    <path id="Trazado_102130" data-name="Trazado 102130" d="M183.957,87.758a2.738,2.738,0,0,0-3.038-2.4l-.024,0L157.347,88.13,87.8,96.312a2.738,2.738,0,0,0-2.415,3L93.6,186.928a2.738,2.738,0,0,0,2.738,2.481h.312l95.835-10.953a2.738,2.738,0,0,0,2.408-3.032c0-.012,0-.023,0-.034Z" transform="translate(-63.455 -47.508)" fill="#ffc94a"/>
    <path id="Trazado_102131" data-name="Trazado 102131" d="M301.481,115.151a2.738,2.738,0,0,1-1.939-4.677l13.691-13.691a2.738,2.738,0,1,1,3.939,3.8l-.067.067-13.691,13.691A2.74,2.74,0,0,1,301.481,115.151Z" transform="translate(-222.052 -55.394)" fill="#455a64"/>
    <path id="Trazado_102137" data-name="Trazado 102137" d="M13.691,0A13.691,13.691,0,1,1,0,13.691,13.691,13.691,0,0,1,13.691,0Z" transform="translate(87.644 21.423)" fill="#22577a"/>
    <path id="Trazado_102132" data-name="Trazado 102132" d="M281.015,452.962H280.7L247.845,449.2a2.738,2.738,0,0,1-2.41-3.031s0,0,0,0a2.771,2.771,0,0,1,3.034-2.41l30.081,3.439.449-4.814a2.8,2.8,0,0,1,2.985-2.47,2.738,2.738,0,0,1,2.47,2.982v0l-.712,7.6A2.738,2.738,0,0,1,281.015,452.962Z" transform="translate(-182.418 -311.06)"/>
    <path id="Trazado_102133" data-name="Trazado 102133" d="M32.175,181.8h-.318L2.45,178.44a2.738,2.738,0,0,1-2.434-3.012c0-.022,0-.044.008-.066L10.976,87.742a2.694,2.694,0,0,1,2.95-2.412l.112.014,52.025,6.123a2.738,2.738,0,0,1-.641,5.432L16.1,91.121,5.823,173.3l26.659,3.045a2.742,2.742,0,0,1-.307,5.476Z" transform="translate(0 -47.492)"/>
    <path id="Trazado_102134" data-name="Trazado 102134" d="M301.481,115.151a2.738,2.738,0,0,1-1.939-4.677l13.691-13.691a2.738,2.738,0,1,1,3.939,3.8l-.067.067-13.691,13.691A2.74,2.74,0,0,1,301.481,115.151Z" transform="translate(-222.052 -55.394)"/>
    <path id="Trazado_102135" data-name="Trazado 102135" d="M96.336,189.41a2.738,2.738,0,0,1-2.738-2.481L85.383,99.308a2.738,2.738,0,0,1,2.415-3l69.549-8.182a2.738,2.738,0,1,1,.9,5.4c-.085.014-.171.024-.258.03l-66.893,7.891L98.8,183.632l90.309-10.323L178.836,91.137l-4.847.548a2.738,2.738,0,0,1-.9-5.4c.085-.014.171-.024.258-.03l7.546-.893a2.738,2.738,0,0,1,3.058,2.375c0,.008,0,.016,0,.024l10.953,87.621a2.738,2.738,0,0,1-2.37,3.062l-.034,0L96.67,189.4Z" transform="translate(-63.455 -47.508)"/>
    <path id="Trazado_102136" data-name="Trazado 102136" d="M355.116,48.8a13.691,13.691,0,1,1,13.691-13.691A13.691,13.691,0,0,1,355.116,48.8Zm0-21.905a8.214,8.214,0,1,0,8.214,8.214A8.214,8.214,0,0,0,355.116,26.9Z" transform="translate(-253.781 0)"/>
  </g>
</svg>
