<svg xmlns="http://www.w3.org/2000/svg" width="505" height="414.765" viewBox="0 0 505 414.765"><defs><style>.a{fill:#ebebeb;}.b{fill:#f0f0f0;}.c{fill:#e6e6e6;}.d{fill:#f5f5f5;}.e{fill:#e0e0e0;}.f{fill:#fafafa;}.g{opacity:0.2;}.ae,.ak,.ao,.g,.k,.l,.m,.p,.q{isolation:isolate;}.h{fill:#d6ffdf;}.i{fill:#133347;}.ao,.j{opacity:0.4;}.k{mix-blend-mode:multiply;}.l,.m{opacity:0.05;}.n{fill:#3f946f;}.o{fill:#57cc99;}.af,.p,.q{opacity:0.3;}.ak,.q,.u{fill:#fff;}.ac,.r,.s,.t{fill:none;}.r,.s,.t{stroke:#fff;}.r{stroke-miterlimit:10;}.ac,.s,.t{stroke-linecap:round;stroke-linejoin:round;}.t{stroke-width:0.5px;}.v{fill:#ffc94a;}.w{fill:#ffc3bd;}.x{fill:#263238;}.y{fill:#407bff;}.z{fill:#0d2330;}.aa{fill:#ffaa89;}.ab{fill:#ed847e;}.ac{stroke:#263238;}.ad{fill:#22577a;}.ae{opacity:0.1;}.ag{fill:gray;}.ah{fill:#e8b743;}.ai{fill:#c79d3a;}.aj{fill:#ffdd8c;}.ak{opacity:0.6;}.al{fill:#e4897b;}.am{fill:#2d73a1;}.an{fill:#2e353a;}.ap{fill:#de5753;}.aq{fill:#80ed99;}.ar{fill:#419973;}</style></defs><g transform="translate(-2272.643 2004.436)"><g transform="translate(2280.375 -2004.436)"><rect class="a" width="497" height="2" transform="translate(0.267 365.001)"/><rect class="a" width="37.01" height="0.279" transform="translate(20.226 383.834)"/><rect class="a" width="9.711" height="0.279" transform="translate(152.846 386.874)"/><rect class="a" width="21.444" height="0.279" transform="translate(58.354 373.464)"/><rect class="a" width="48.263" height="0.279" transform="translate(416.085 375.342)"/><rect class="a" width="7.073" height="0.279" transform="translate(399.055 375.342)"/><rect class="a" width="104.683" height="0.279" transform="translate(271.374 380.057)"/><path class="a" d="M2504.853-1694.8v-303.255h0a6.38,6.38,0,0,1,6.38-6.381H2727a6.381,6.381,0,0,1,6.37,6.325V-1694.8a6.382,6.382,0,0,1-6.37,6.381h-215.77A6.38,6.38,0,0,1,2504.853-1694.8Zm6.38-309.412a6.111,6.111,0,0,0-6.1,6.1V-1694.8a6.112,6.112,0,0,0,6.1,6.1H2727a6.1,6.1,0,0,0,6.09-6.1v-303.311a6.1,6.1,0,0,0-6.09-6.1Z" transform="translate(-2253.101 2004.436)"/><path class="a" d="M2288.563-1694.8v-303.311a6.38,6.38,0,0,1,6.358-6.325H2510.7a6.392,6.392,0,0,1,6.381,6.325V-1694.8a6.393,6.393,0,0,1-6.381,6.381H2294.921A6.381,6.381,0,0,1,2288.563-1694.8Zm6.358-309.412a6.111,6.111,0,0,0-6.1,6.1V-1694.8a6.113,6.113,0,0,0,6.1,6.1H2510.7a6.113,6.113,0,0,0,6.1-6.1v-303.311a6.112,6.112,0,0,0-6.1-6.1Z" transform="translate(-2278.506 2004.436)"/><path class="b" d="M2663.915-1855.277c-10.806,8.426-11.074,17.756-20.338,26.7l-.547.514c-.793.738-1.609,1.419-2.436,2.056-.056,1.106-.156,2.19-.291,3.229,1.039-.6,2.011-1.185,2.961-1.721,3.419-1.978,6.314-3.431,9.409-3.285,7.688.38,19.656-6.124,23.534-16.605s12.292-12.426,12.292-12.426S2674.877-1863.892,2663.915-1855.277Z" transform="translate(-2237.192 2021.453)"/><path class="b" d="M2627.184-1860.3c9.5,9.867,8.448,19.176,16.359,29.3l.469.581c.682.849,1.4,1.632,2.123,2.38-.1,1.106-.168,2.19-.168,3.241l-2.682-2.123c-3.118-2.436-5.777-4.291-8.861-4.582-7.666-.7-18.55-8.828-20.952-19.757s-10.459-14.046-10.459-14.046S2617.5-1870.354,2627.184-1860.3Z" transform="translate(-2241.572 2020.629)"/><path class="b" d="M2639.544-1826.763c.738-8.426,2.347-14.762-.179-19.812-4.336-8.705-2.906-25.7,7.208-35.524s8.1-20.516,8.1-20.516,15.019,12.135,10.683,29.177-15.309,21.947-20.8,37.837a47.214,47.214,0,0,0-2.425,11.8c-.1,1.106-.168,2.19-.168,3.241a51.177,51.177,0,0,0,2.011,15.577s2.313,19.935-2.883-.279a59.058,59.058,0,0,1-1.811-17.421C2639.332-1824.092,2639.433-1825.456,2639.544-1826.763Z" transform="translate(-2237.573 2016.395)"/><path class="c" d="M2668.873-1817.436l-1.229,9.454-.905,6.861-2.291,17.745-44.855.179-2.291-17.9-.436-3.453-.447-3.431-1.207-9.454Z" transform="translate(-2240.139 2026.4)"/><path class="b" d="M2667.527-1809.436l-.458,3.352H2616.75l-.447-3.352Z" transform="translate(-2240.011 2027.34)"/><rect class="b" width="13.409" height="124.038" transform="translate(422.018 242.487)"/><rect class="b" width="13.409" height="124.038" transform="translate(368.38 242.487)"/><rect class="c" width="13.409" height="14.527" transform="translate(422.018 249.192)"/><rect class="c" width="13.409" height="14.527" transform="translate(368.38 249.192)"/><rect class="b" width="69.282" height="14.527" transform="translate(367.263 242.487)"/><rect class="d" width="139.257" height="153.404" transform="translate(18.651 212.763)"/><path class="e" d="M2313.855-1740.436a2.434,2.434,0,0,1,2.09,2.235c.413,2.157,1.274,4.47,5.364,4.47h20.316c4.09,0,4.95-2.235,5.364-4.47s2.09-2.235,2.09-2.235h12.828v65.93h-60.343v-65.93Z" transform="translate(-2276.979 2035.444)"/><path class="e" d="M2374.855-1740.436a2.434,2.434,0,0,1,2.09,2.235c.413,2.157,1.274,4.47,5.364,4.47h20.315c4.09,0,4.95-2.235,5.364-4.47s2.09-2.235,2.09-2.235h12.828v65.93h-60.343v-65.93Z" transform="translate(-2269.814 2035.444)"/><path class="e" d="M2313.855-1807.436a2.434,2.434,0,0,1,2.09,2.235c.413,2.157,1.274,4.47,5.364,4.47h20.316c4.09,0,4.95-2.235,5.364-4.47s2.09-2.235,2.09-2.235h12.828v65.93h-60.343v-65.93Z" transform="translate(-2276.979 2027.575)"/><path class="e" d="M2374.855-1807.436a2.434,2.434,0,0,1,2.09,2.235c.413,2.157,1.274,4.47,5.364,4.47h20.315c4.09,0,4.95-2.235,5.364-4.47s2.09-2.235,2.09-2.235h12.828v65.93h-60.343v-65.93Z" transform="translate(-2269.814 2027.575)"/><rect class="d" width="44" height="56" transform="translate(290.267 19.001)"/><rect class="f" width="11" height="3" transform="translate(290.267 65.001)"/><rect class="f" width="11" height="3" transform="translate(290.267 60.001)"/><rect class="f" width="11" height="4" transform="translate(290.267 25.001)"/><rect class="f" width="11" height="1" transform="translate(290.267 31.001)"/><rect class="c" width="44" height="56" transform="translate(299.267 19.001)"/><rect class="b" width="53" height="67" transform="translate(310.267 8.001)"/><rect class="f" width="15" height="4" transform="translate(310.267 63.001)"/><rect class="f" width="15" height="2" transform="translate(310.267 58.001)"/><rect class="f" width="15" height="4" transform="translate(310.267 18.001)"/><rect class="f" width="15" height="2" transform="translate(310.267 25.001)"/><rect class="c" width="52" height="67" transform="translate(322.267 8.001)"/><rect class="b" width="155" height="5" transform="translate(275.267 75.001)"/><path class="d" d="M2640.771-1931.916h-44.7l10.035-52.521h44.7Z" transform="translate(-2242.387 2006.785)"/><rect class="e" width="46" height="5" transform="translate(384.267 75.001)"/><path class="f" d="M2636.781-1938.09h-35.758l7.911-41.346h35.759Z" transform="translate(-2241.806 2007.372)"/><path class="c" d="M2636.073-1933.447h7.252V-1971.4Z" transform="translate(-2237.689 2008.317)"/></g><g transform="translate(2272.643 -1996.626)"><rect class="g" width="233.664" height="302.009" transform="translate(0 5.791)"/><rect class="c" width="233.664" height="302.009" transform="translate(4.633)"/><rect class="h" width="222.638" height="185.947" transform="translate(10.146 29.163)"/><path class="i" d="M2461.6-1794.291c1.831-3.068,5.432-1.945,7.321.394,1.818-2.4,5.385-3.614,7.308-.591,3.23,5.084-3.22,9.938-6.278,11.849-.336.22-.626.406-.868.544l-.88-.521C2465.1-1784.446,2458.508-1789.114,2461.6-1794.291Z" transform="translate(-2250.543 2021.075)"/><path class="i" d="M2415.6-1782.63l-6.625-3.243-6.613,3.243v-13.238H2415.6Z" transform="translate(-2257.406 2021.124)"/><path class="i" d="M2444.007-1796.428h-10.1a1.82,1.82,0,0,0-1.819,1.819h0v8.362a1.819,1.819,0,0,0,1.819,1.818h3.88l1.158,2.49,1.159-2.49h3.868a1.819,1.819,0,0,0,1.83-1.807v-8.373A1.819,1.819,0,0,0,2444.007-1796.428Z" transform="translate(-2253.915 2021.058)"/><path class="i" d="M2464.473-1775.22v-4.3a2.316,2.316,0,0,1-.8.464l-.127-.672a2.323,2.323,0,0,0,1.157-.833h.557v5.339Z" transform="translate(-2250.22 2022.922)"/><path class="i" d="M2466.1-1775.405l.174-.684a2.448,2.448,0,0,0,1.1.324,1.227,1.227,0,0,0,1.274-1.18v-.047c0-.626-.453-.939-1.61-.939h-.649l.313-2.628h2.433l-.069.648h-1.783l-.151,1.332c1.68,0,2.317.509,2.317,1.563a1.947,1.947,0,0,1-1.989,1.9l-.061,0A2.78,2.78,0,0,1,2466.1-1775.405Z" transform="translate(-2249.92 2022.922)"/><path class="i" d="M2470.849-1775.22h-.764l2.027-4.691H2469.7v-.648h3.475Z" transform="translate(-2249.497 2022.922)"/><path class="i" d="M2434.619-1776.646a1.589,1.589,0,0,1,1.019-1.436,1.484,1.484,0,0,1-.706-1.25c0-.637.36-1.321,1.587-1.321s1.541.626,1.541,1.159-.244.834-.892,1.285a1.42,1.42,0,0,1,1.158,1.448,1.726,1.726,0,0,1-1.826,1.619c-.036,0-.072-.006-.108-.01a1.586,1.586,0,0,1-1.763-1.388C2434.625-1776.574,2434.621-1776.61,2434.619-1776.646Zm.788,0c0,.6.395.892,1.043.892a1.041,1.041,0,0,0,1.153-.917c0-.018,0-.037,0-.055,0-.544-.5-.915-1.088-1.066A1.159,1.159,0,0,0,2435.407-1776.646Zm.186-2.641c0,.348.348.672.846.87.625-.186.892-.568.892-.95s-.3-.637-.857-.637S2435.592-1779.738,2435.592-1779.286Z" transform="translate(-2253.618 2022.911)"/><path class="i" d="M2442.2-1778.741c0,2.317-1.447,3.474-2.224,3.474l-.556-.289a2.906,2.906,0,0,0,1.933-2.316,1.34,1.34,0,0,1-1.053.429,1.425,1.425,0,0,1-1.613-1.207,1.444,1.444,0,0,1-.009-.334,1.738,1.738,0,0,1,1.7-1.775,1.448,1.448,0,0,1,.156,0A1.767,1.767,0,0,1,2442.2-1778.741Zm-.765-.3a.951.951,0,0,0-.9-1c-.032,0-.064,0-.095,0a1.03,1.03,0,0,0-1.027,1.035.962.962,0,0,0,.007.124.869.869,0,0,0,.78.949.932.932,0,0,0,.158,0,1.032,1.032,0,0,0,1.078-.982c0-.036,0-.072,0-.107Z" transform="translate(-2253.141 2022.898)"/><path class="i" d="M2404.9-1775.51l.174-.671a2.461,2.461,0,0,0,1.285.428,1.019,1.019,0,0,0,1.151-.867,1.015,1.015,0,0,0,.008-.209c0-.511-.209-1-1.263-1h-.568l.082-.579h.277c.962,0,1.275-.324,1.275-.881s-.313-.717-.9-.717a1.577,1.577,0,0,0-1.03.313l-.127-.615a1.807,1.807,0,0,1,1.239-.347c1.332,0,1.621.777,1.621,1.366a1.266,1.266,0,0,1-.7,1.159,1.3,1.3,0,0,1,.892,1.332,1.76,1.76,0,0,1-1.773,1.747,1.491,1.491,0,0,1-.172-.01A2.635,2.635,0,0,1,2404.9-1775.51Z" transform="translate(-2257.108 2022.91)"/><path class="i" d="M2408.755-1775.208c2-2.873,2.224-3.475,2.224-3.9a.846.846,0,0,0-.817-.874.872.872,0,0,0-.122,0,1.531,1.531,0,0,0-1.239.707l-.093-.649a1.823,1.823,0,0,1,1.518-.73,1.367,1.367,0,0,1,1.48,1.243,1.4,1.4,0,0,1,0,.217c0,.706-.44,1.621-1.645,3.324h1.853v.66Z" transform="translate(-2256.661 2022.91)"/><g class="j" transform="translate(10.783 256.898)"><path d="M2325.551-1762.919h-40.942a2.316,2.316,0,0,1-2.316-2.316h0a2.316,2.316,0,0,1,2.316-2.317h40.942a2.316,2.316,0,0,1,2.316,2.317h0a2.316,2.316,0,0,1-2.316,2.316Z" transform="translate(-2282.292 1767.552)"/><path d="M2492.511-1761.394H2283.563a1.262,1.262,0,0,0-1.137,1.377,1.263,1.263,0,0,0,1.137,1.136h208.948a1.262,1.262,0,0,0,1.377-1.136,1.261,1.261,0,0,0-1.135-1.377A1.247,1.247,0,0,0,2492.511-1761.394Z" transform="translate(-2282.277 1768.275)"/><path d="M2480.929-1757.249H2283.563a1.264,1.264,0,0,0-1.137,1.378,1.262,1.262,0,0,0,1.137,1.135h197.366a1.263,1.263,0,0,0,1.378-1.135,1.265,1.265,0,0,0-1.137-1.378A1.266,1.266,0,0,0,2480.929-1757.249Z" transform="translate(-2282.277 1768.761)"/><path d="M2376.693-1747.921h-93.13a1.263,1.263,0,0,0-1.137,1.378,1.262,1.262,0,0,0,1.137,1.135h93.13a1.261,1.261,0,0,0,1.377-1.135,1.263,1.263,0,0,0-1.135-1.378A1.247,1.247,0,0,0,2376.693-1747.921Z" transform="translate(-2282.277 1769.857)"/><path d="M2399.856-1743.775H2283.563a1.264,1.264,0,0,0-1.137,1.378,1.262,1.262,0,0,0,1.137,1.135h116.293a1.261,1.261,0,0,0,1.377-1.135,1.263,1.263,0,0,0-1.135-1.378A1.247,1.247,0,0,0,2399.856-1743.775Z" transform="translate(-2282.277 1770.344)"/></g><g class="k" transform="translate(10.64 34.935)"><rect class="a" width="222.372" height="0.111" transform="translate(0 145.61)"/><rect class="a" width="14.73" height="0.111" transform="translate(46.494 148.638)"/><rect class="a" width="18.123" height="0.111" transform="translate(76.114 152.712)"/><rect class="a" width="22.718" height="0.111" transform="translate(23.331 151.32)"/><rect class="a" width="41.423" height="0.111" transform="translate(158.667 149.386)"/><rect class="a" width="2.815" height="0.111" transform="translate(151.893 149.386)"/><rect class="a" width="18.782" height="0.111" transform="translate(123.288 151.262)"/><path class="a" d="M2385.783-1840.41h-85.875a2.539,2.539,0,0,1-2.536-2.54v-120.717a2.54,2.54,0,0,1,2.536-2.518h85.875a2.54,2.54,0,0,1,2.54,2.54h0v120.694A2.54,2.54,0,0,1,2385.783-1840.41Zm-85.875-125.685a2.428,2.428,0,0,0-2.424,2.428v120.717a2.429,2.429,0,0,0,2.424,2.429h85.875a2.438,2.438,0,0,0,2.428-2.429v-120.717a2.436,2.436,0,0,0-2.428-2.428Z" transform="translate(-2280.379 1966.184)"/><path class="a" d="M2471.875-1840.41H2386a2.548,2.548,0,0,1-2.54-2.54v-120.717a2.545,2.545,0,0,1,2.54-2.518h85.88a2.541,2.541,0,0,1,2.531,2.518v120.717a2.536,2.536,0,0,1-2.531,2.54ZM2386-1966.094a2.436,2.436,0,0,0-2.428,2.428v120.717a2.438,2.438,0,0,0,2.428,2.429h85.88a2.438,2.438,0,0,0,2.428-2.429v-120.717a2.437,2.437,0,0,0-2.428-2.428Z" transform="translate(-2270.268 1966.184)"/><path class="c" d="M2310.291-1918.779h38.587s-2.078-4.83-9.016-3.327c0,0-1.458-5.492-6.75-4.732a11.143,11.143,0,0,0-10.772-2.909,7.451,7.451,0,0,0-5.84,7.641S2311.772-1923.342,2310.291-1918.779Z" transform="translate(-2278.861 1970.414)"/><path class="c" d="M2406.77-1945.111h-38.582s2.073-4.834,9.01-3.331c0,0,1.459-5.492,6.756-4.731a11.135,11.135,0,0,1,10.767-2.9c6.387,1.842,5.845,7.635,5.845,7.635S2405.311-1949.673,2406.77-1945.111Z" transform="translate(-2272.061 1967.321)"/><path class="c" d="M2428.178-1946.5H2457.7a4.058,4.058,0,0,0-5.4-2.718s.889-5.452-2.259-6.083-4.15,3.518-4.15,3.518a5.845,5.845,0,0,0-5.9-1.779,5.943,5.943,0,0,0-4.27,4.318S2430.46-1952.257,2428.178-1946.5Z" transform="translate(-2265.015 1967.454)"/><rect class="c" width="35.909" height="71.146" transform="translate(20.44 74.348)"/><rect class="b" width="29.38" height="71.146" transform="translate(20.44 74.348)"/><rect class="e" width="37.105" height="1.161" transform="translate(19.667 74.348)"/><rect class="e" width="37.105" height="1.161" transform="translate(19.667 72.027)"/><rect class="b" width="35.553" height="1.161" transform="translate(20.44 73.188)"/><rect class="c" width="5.519" height="5.604" transform="translate(23.229 78.533)"/><rect class="d" width="5.03" height="5.604" transform="translate(23.714 78.533)"/><rect class="c" width="5.519" height="5.604" transform="translate(31.586 78.533)"/><rect class="d" width="5.03" height="5.604" transform="translate(32.071 78.533)"/><rect class="c" width="5.519" height="5.604" transform="translate(39.942 78.533)"/><rect class="d" width="5.03" height="5.604" transform="translate(40.427 78.533)"/><rect class="c" width="5.519" height="5.604" transform="translate(23.229 86.783)"/><rect class="d" width="5.03" height="5.604" transform="translate(23.714 86.783)"/><rect class="c" width="5.519" height="5.604" transform="translate(31.586 86.783)"/><rect class="d" width="5.03" height="5.604" transform="translate(32.071 86.783)"/><rect class="c" width="5.519" height="5.604" transform="translate(39.942 86.783)"/><rect class="d" width="5.03" height="5.604" transform="translate(40.427 86.783)"/><rect class="c" width="5.519" height="5.604" transform="translate(23.229 101.891)"/><rect class="d" width="5.03" height="5.604" transform="translate(23.714 101.891)"/><rect class="c" width="5.519" height="5.604" transform="translate(31.586 101.891)"/><rect class="d" width="5.03" height="5.604" transform="translate(32.071 101.891)"/><rect class="c" width="5.519" height="5.604" transform="translate(39.942 101.891)"/><rect class="d" width="5.03" height="5.604" transform="translate(40.427 101.891)"/><rect class="c" width="5.519" height="5.604" transform="translate(23.229 110.141)"/><rect class="d" width="5.03" height="5.604" transform="translate(23.714 110.141)"/><rect class="c" width="5.519" height="5.604" transform="translate(31.586 110.141)"/><rect class="d" width="5.03" height="5.604" transform="translate(32.071 110.141)"/><rect class="c" width="5.519" height="5.604" transform="translate(39.942 110.141)"/><rect class="d" width="5.03" height="5.604" transform="translate(40.427 110.141)"/><rect class="c" width="5.519" height="5.604" transform="translate(23.229 126.93)"/><rect class="d" width="5.03" height="5.604" transform="translate(23.714 126.93)"/><rect class="c" width="5.519" height="5.604" transform="translate(31.586 126.93)"/><rect class="d" width="5.03" height="5.604" transform="translate(32.071 126.93)"/><rect class="c" width="5.519" height="5.604" transform="translate(39.942 126.93)"/><rect class="d" width="5.03" height="5.604" transform="translate(40.427 126.93)"/><rect class="c" width="5.519" height="5.604" transform="translate(23.229 135.18)"/><rect class="d" width="5.03" height="5.604" transform="translate(23.714 135.18)"/><rect class="c" width="5.519" height="5.604" transform="translate(31.586 135.18)"/><rect class="d" width="5.03" height="5.604" transform="translate(32.071 135.18)"/><rect class="c" width="5.519" height="5.604" transform="translate(39.942 135.18)"/><rect class="d" width="5.03" height="5.604" transform="translate(40.427 135.18)"/><rect class="e" width="35.909" height="0.52" transform="translate(20.44 96.328)"/><rect class="e" width="35.909" height="0.52" transform="translate(20.44 122.149)"/><rect class="e" width="35.477" height="86.329" transform="translate(162.078 59.667)"/><rect class="b" width="25.373" height="86.329" transform="translate(162.078 59.667)"/><rect class="c" width="9.442" height="4.585" transform="translate(164.693 66.761)"/><rect class="d" width="8.815" height="4.585" transform="translate(165.32 66.761)"/><rect class="c" width="9.442" height="4.585" transform="translate(175.616 66.761)"/><rect class="d" width="8.815" height="4.585" transform="translate(176.243 66.761)"/><rect class="c" width="9.442" height="4.585" transform="translate(164.693 75.389)"/><rect class="d" width="8.815" height="4.585" transform="translate(165.32 75.389)"/><rect class="c" width="9.442" height="4.585" transform="translate(175.616 75.389)"/><rect class="d" width="8.815" height="4.585" transform="translate(176.243 75.389)"/><rect class="c" width="9.442" height="4.585" transform="translate(164.693 86.414)"/><rect class="d" width="8.815" height="4.585" transform="translate(165.32 86.414)"/><rect class="c" width="9.442" height="4.585" transform="translate(175.616 86.414)"/><rect class="d" width="8.815" height="4.585" transform="translate(176.243 86.414)"/><rect class="c" width="9.442" height="4.585" transform="translate(164.693 92.752)"/><rect class="d" width="8.815" height="4.585" transform="translate(165.32 92.752)"/><rect class="c" width="9.442" height="4.585" transform="translate(175.616 92.752)"/><rect class="d" width="8.815" height="4.585" transform="translate(176.243 92.752)"/><rect class="c" width="9.442" height="4.585" transform="translate(164.693 103.163)"/><rect class="d" width="8.815" height="4.585" transform="translate(165.32 103.163)"/><rect class="c" width="9.442" height="4.585" transform="translate(175.616 103.163)"/><rect class="d" width="8.815" height="4.585" transform="translate(176.243 103.163)"/><rect class="c" width="9.442" height="4.585" transform="translate(164.693 109.496)"/><rect class="d" width="8.815" height="4.585" transform="translate(165.32 109.496)"/><rect class="c" width="9.442" height="4.585" transform="translate(175.616 109.496)"/><rect class="d" width="8.815" height="4.585" transform="translate(176.243 109.496)"/><rect class="c" width="9.442" height="4.585" transform="translate(164.693 120.829)"/><rect class="d" width="8.815" height="4.585" transform="translate(165.32 120.829)"/><rect class="c" width="9.442" height="4.585" transform="translate(175.616 120.829)"/><rect class="d" width="8.815" height="4.585" transform="translate(176.243 120.829)"/><rect class="c" width="9.442" height="4.585" transform="translate(164.693 129.194)"/><rect class="d" width="8.815" height="4.585" transform="translate(165.32 129.194)"/><rect class="c" width="9.442" height="4.585" transform="translate(175.616 129.194)"/><rect class="d" width="8.815" height="4.585" transform="translate(176.243 129.194)"/><rect class="l" width="35.477" height="0.787" transform="translate(162.078 82.798)"/><rect class="l" width="35.477" height="0.787" transform="translate(162.078 99.854)"/><rect class="l" width="35.477" height="0.787" transform="translate(162.078 117.061)"/><rect class="e" width="37.149" height="2.757" transform="translate(160.406 57.114)"/><rect class="l" width="8.49" height="2.757" transform="translate(189.065 57.114)"/><rect class="c" width="40.107" height="104.239" transform="translate(71.444 40.285)"/><rect class="b" width="40.111" height="104.239" transform="translate(56.598 40.285)"/><rect class="c" width="33.111" height="5.31" transform="translate(60.098 47.361)"/><rect class="d" width="31.826" height="5.31" transform="translate(61.384 47.361)"/><rect class="c" width="33.111" height="5.31" transform="translate(60.098 56.301)"/><rect class="d" width="31.826" height="5.31" transform="translate(61.384 56.301)"/><rect class="c" width="33.111" height="5.31" transform="translate(60.098 65.587)"/><rect class="d" width="31.826" height="5.31" transform="translate(61.384 65.587)"/><rect class="c" width="33.111" height="5.31" transform="translate(60.098 74.878)"/><rect class="d" width="31.826" height="5.31" transform="translate(61.384 74.878)"/><rect class="c" width="33.111" height="5.31" transform="translate(60.098 84.164)"/><rect class="d" width="31.826" height="5.31" transform="translate(61.384 84.164)"/><rect class="c" width="33.111" height="5.31" transform="translate(60.098 93.455)"/><rect class="d" width="31.826" height="5.31" transform="translate(61.384 93.455)"/><rect class="c" width="33.111" height="5.31" transform="translate(60.098 103.693)"/><rect class="d" width="31.826" height="5.31" transform="translate(61.384 103.693)"/><rect class="c" width="33.111" height="5.31" transform="translate(60.098 113.926)"/><rect class="d" width="31.826" height="5.31" transform="translate(61.384 113.926)"/><rect class="c" width="33.111" height="5.31" transform="translate(60.098 124.164)"/><rect class="d" width="31.826" height="5.31" transform="translate(61.384 124.164)"/><rect class="c" width="33.111" height="5.31" transform="translate(60.098 134.402)"/><rect class="d" width="31.826" height="5.31" transform="translate(61.384 134.402)"/><rect class="d" width="57.132" height="2.544" transform="translate(55.464 39.236)"/><rect class="d" width="57.132" height="2.544" transform="translate(55.464 34.646)"/><rect class="b" width="54.099" height="2.544" transform="translate(56.598 36.692)"/><rect class="e" width="11.176" height="5.31" transform="translate(100.379 47.361)"/><rect class="e" width="11.176" height="5.31" transform="translate(100.379 56.1)"/><rect class="e" width="11.176" height="5.31" transform="translate(100.379 64.84)"/><rect class="e" width="11.176" height="5.31" transform="translate(100.379 74.873)"/><rect class="e" width="11.176" height="5.31" transform="translate(100.379 84.164)"/><rect class="e" width="11.176" height="5.31" transform="translate(100.379 93.455)"/><rect class="e" width="11.176" height="5.31" transform="translate(100.379 103.688)"/><rect class="e" width="11.176" height="5.31" transform="translate(100.379 113.926)"/><rect class="e" width="11.176" height="5.31" transform="translate(100.379 124.164)"/><rect class="e" width="11.176" height="5.31" transform="translate(100.379 134.402)"/><rect class="e" width="4.412" height="6.902" transform="translate(158.698 76.714)"/><rect class="e" width="4.412" height="6.902" transform="translate(158.698 88.011)"/><rect class="e" width="4.412" height="6.902" transform="translate(158.698 98.991)"/><rect class="e" width="4.412" height="6.902" transform="translate(158.698 110.599)"/><rect class="e" width="4.412" height="6.902" transform="translate(158.698 121.896)"/><rect class="c" width="46.427" height="70.608" transform="translate(116.683 69.776)"/><rect class="b" width="38.582" height="70.608" transform="translate(116.688 69.776)"/><rect class="a" width="31.372" height="6.902" transform="translate(120.156 76.719)"/><rect class="a" width="31.372" height="6.902" transform="translate(120.156 88.011)"/><rect class="a" width="31.372" height="6.902" transform="translate(120.156 99.307)"/><rect class="a" width="31.372" height="6.902" transform="translate(120.156 110.599)"/><rect class="a" width="31.372" height="6.902" transform="translate(120.156 121.896)"/><rect class="d" width="30.216" height="6.902" transform="translate(121.313 76.719)"/><rect class="d" width="30.216" height="6.902" transform="translate(121.313 88.011)"/><rect class="d" width="30.216" height="6.902" transform="translate(121.313 99.307)"/><rect class="d" width="30.216" height="6.902" transform="translate(121.313 110.599)"/><rect class="d" width="30.216" height="6.902" transform="translate(121.313 121.896)"/></g><g class="m" transform="translate(35.595 190.56)"><ellipse cx="86.231" cy="5.035" rx="86.231" ry="5.035"/></g><g transform="translate(18.173 195.016)"><g transform="translate(52.253)"><path class="n" d="M2338.025-1821.771h-1.779a.578.578,0,0,1-.579-.579.578.578,0,0,1,.579-.579h1.779a.579.579,0,0,1,.579.579A.579.579,0,0,1,2338.025-1821.771Z" transform="translate(-2335.667 1822.929)"/></g><g transform="translate(5.075)"><path class="n" d="M2337.842-1821.771h-8.764a.579.579,0,0,1-.579-.579.579.579,0,0,1,.579-.579h8.764a.579.579,0,0,1,.579.579A.579.579,0,0,1,2337.842-1821.771Zm-17.526,0h-8.763a.579.579,0,0,1-.579-.579.579.579,0,0,1,.579-.579h8.763a.578.578,0,0,1,.579.579A.578.578,0,0,1,2320.316-1821.771Zm-17.526,0h-8.762a.579.579,0,0,1-.58-.579.579.579,0,0,1,.58-.579h8.762a.579.579,0,0,1,.579.579A.579.579,0,0,1,2302.79-1821.771Z" transform="translate(-2293.448 1822.929)"/></g><path class="n" d="M2291.264-1821.771h-1.779a.579.579,0,0,1-.579-.579.579.579,0,0,1,.579-.579h1.779a.578.578,0,0,1,.579.579A.578.578,0,0,1,2291.264-1821.771Z" transform="translate(-2288.906 1822.929)"/></g><g transform="translate(64.376 61.502)"><rect class="o" width="51.323" height="37.052" transform="translate(62.952 28.486) rotate(-0.95)"/><rect class="p" width="31.03" height="37.052" transform="translate(62.902 28.482) rotate(-0.95)"/><rect class="q" width="8.937" height="2.491" transform="translate(89.668 30.642) rotate(-1.146)"/><rect class="q" width="8.935" height="2.491" transform="translate(89.934 59.42) rotate(-0.95)"/><ellipse class="r" cx="5.244" cy="5.933" rx="5.244" ry="5.933" transform="translate(99.581 39.482)"/><line class="s" y2="0.996" transform="translate(105.042 40.385)"/><line class="s" y2="0.996" transform="translate(105.269 49.511)"/><line class="s" x2="1.001" transform="translate(100.403 45.219)"/><line class="s" x2="1.001" transform="translate(108.435 45.224)"/><line class="t" y1="3.069" x2="0.004" transform="translate(105.038 42.151)"/><line class="t" x2="2.17" y2="2.17" transform="translate(105.233 45.419)"/><path class="u" d="M2424.786-1901.888a.485.485,0,0,1-.485.485.485.485,0,0,1-.485-.485.485.485,0,0,1,.485-.485h0a.482.482,0,0,1,.485.476Z" transform="translate(-2319.263 1947.111)"/><ellipse class="q" cx="6.942" cy="7.503" rx="6.942" ry="7.503" transform="translate(97.882 37.912)"/><path class="v" d="M2372.462-1840.531c.775.592,16.309-1.081,12.293-28.641,0,0,7.37,1.873,8.161,1.748,0,0,10.812,16.576,2.94,24.786s-19.6,8.713-19.6,8.713Z" transform="translate(-2325.295 1951.011)"/><path class="p" d="M2372.462-1840.531c.775.592,16.309-1.081,12.293-28.641,0,0,7.37,1.873,8.161,1.748,0,0,10.812,16.576,2.94,24.786s-19.6,8.713-19.6,8.713Z" transform="translate(-2325.295 1951.011)"/><path class="i" d="M2388.633-1863.073c.04,0-4.341.085-5.809-1.739s-2.459-5.083.209-7.307,18.338-11.831,25.715-12.587,15.278,4,15.278,4l-9.66,7.143-20.8,5.035Z" transform="translate(-2324.249 1949.177)"/><path class="w" d="M2375.193-1847.371l.4,3.985,4.786-.4-.72-4.1Z" transform="translate(-2324.974 1953.511)"/><path class="x" d="M2374.783-1844.108l6.943-.1.493,3.5s-6.5.088-9.174-.267-2.255-1.748-2.255-1.748S2373.921-1842.639,2374.783-1844.108Z" transform="translate(-2325.494 1953.944)"/><ellipse class="x" cx="18.541" cy="15.695" rx="18.541" ry="15.695" transform="matrix(0.101, -0.995, 0.995, 0.101, 76.77, 135.192)"/><path class="y" d="M2409.328-1887.234s.721,16.532-8.894,17a153.667,153.667,0,0,1-19.948-.583l3.029,29.705-9.016.555s-6.471-25.2-7.489-31.532-.133-10.812,6.552-13.623S2409.328-1887.234,2409.328-1887.234Z" transform="translate(-2325.977 1948.855)"/><path class="y" d="M2357.433-1834.815l11.977-34.787,16.011-17.675s-13.974.053-20.689,3.914-6.965,8.5-8.2,14.019-6.173,31.643-6.173,31.643Z" transform="translate(-2327.89 1948.885)"/><path class="z" d="M2411.242-1887.234s-14.88-.663-25.794,0h0s-13.974.054-20.689,3.915-6.992,8.485-8.224,14.005-6.173,31.643-6.173,31.643l7.071,2.886,11.977-34.787h0c2.015,9.641,7,29,7,29l9.016-.538L2382.4-1870.8a153.57,153.57,0,0,0,19.948.583C2411.963-1870.684,2411.242-1887.234,2411.242-1887.234Z" transform="translate(-2327.89 1948.855)"/><path class="aa" d="M2386.538-1911.26l-5.528.672s-.961,10.162-1.855,12.137c0,0-17,2.335-23.967,2.135l-3.536,2.4-.124,4.176,3.464.1,1.116-2.646s2.34-.1,2.882-1.419c0,0,18.066,4.363,24.719-.618C2383.718-1894.315,2387.73-1900.208,2386.538-1911.26Z" transform="translate(-2327.753 1946.068)"/><path class="z" d="M2397.542-1935.613s1.73,2.224,1.072,4.149a3.368,3.368,0,0,1-2.441,2.224s-.325,3.082-2.143,3.171-1.21-6.792-1.21-6.792Z" transform="translate(-2322.916 1943.207)"/><path class="o" d="M2385.421-1883.133,2384.207-1903l-7.534-5.008s2.464-8.686,7.178-10.157,15-4.848,21.232-3.171,5.519,9.032,4.447,14.49l-1.2.284s-.187,21.5-.2,23.354Z" transform="translate(-2324.8 1944.831)"/><path class="aa" d="M2398.086-1917.858c-2.469,2.389-7.5,3.812-8.895,2.625s.364-2.277,1.671-3.62c.708-.739.685-2.121.521-3.225a11.438,11.438,0,0,0-.382-1.64c-4.621-.254-6.538-2.415-6.729-6.227a23.7,23.7,0,0,1,1.534-8.237l3.264-2.784a21.735,21.735,0,0,1,8.006,3.113c2.118,1.441,1.491,4.278.615,6.373a17.1,17.1,0,0,1-1.334,2.566C2395.858-1923.7,2398.086-1917.858,2398.086-1917.858Z" transform="translate(-2323.909 1942.579)"/><g transform="translate(62.499 12.23)"><path class="z" d="M2386.707-1929.577c-.063,0-.1,0-.111,0a.432.432,0,0,1-.413-.453.411.411,0,0,1,.452-.415,2.847,2.847,0,0,0,2.184-.835.433.433,0,0,1,.6-.1.434.434,0,0,1,.1.605A3.563,3.563,0,0,1,2386.707-1929.577Z" transform="translate(-2386.183 1931.465)"/></g><path class="z" d="M2389.2-1934.127c0,.338-.2.605-.445.6s-.413-.285-.4-.623.2-.605.445-.6S2389.209-1934.465,2389.2-1934.127Z" transform="translate(-2323.429 1943.309)"/><path class="z" d="M2385.566-1934.031c0,.337-.2.6-.445.6s-.414-.284-.4-.622.2-.6.445-.6S2385.58-1934.366,2385.566-1934.031Z" transform="translate(-2323.856 1943.32)"/><path class="ab" d="M2386.9-1931.338l-.183-2.727-1.3,2.588A1.3,1.3,0,0,0,2386.9-1931.338Z" transform="translate(-2323.774 1943.389)"/><g transform="translate(65.119 6.558)"><path class="z" d="M2390.714-1934.8a.434.434,0,0,1-.394-.251,1.059,1.059,0,0,0-1.244-.578.432.432,0,0,1-.533-.3.435.435,0,0,1,.3-.534,1.923,1.923,0,0,1,2.263,1.051.434.434,0,0,1-.212.576A.42.42,0,0,1,2390.714-1934.8Z" transform="translate(-2388.527 1936.541)"/></g><g transform="translate(60.022 6.415)"><path class="z" d="M2384.4-1935.1a.431.431,0,0,1-.294-.114.434.434,0,0,1-.026-.614,2.5,2.5,0,0,1,2.2-.791.434.434,0,0,1,.323.522.436.436,0,0,1-.522.323,1.677,1.677,0,0,0-1.36.534A.435.435,0,0,1,2384.4-1935.1Z" transform="translate(-2383.966 1936.668)"/></g><path class="z" d="M2397.556-1931.479h0c-5.088.182-5.719-5.586-5.719-5.586-2.516,1.334-6.177-1.112-6.177-1.112l3.264-2.792a21.92,21.92,0,0,1,8.006,3.113C2399.061-1936.412,2398.434-1933.566,2397.556-1931.479Z" transform="translate(-2323.745 1942.578)"/><path class="o" d="M2384.623-1936.433s-2.633-1.752-1.472-3.015,8.273,1.139,13.587,4.083c0,0-12.172-8.144-15.481-5.568-2.736,2.13,3.331,5.088,3.148,5.083Z" transform="translate(-2324.345 1942.523)"/><path class="o" d="M2398.8-1936.914a7.643,7.643,0,0,1-.516,2.7L2386.325-1940a6.363,6.363,0,0,1,1.752-1.415,7.435,7.435,0,0,1,2.277-.845,8.365,8.365,0,0,1,2.575-.088C2397.3-1941.847,2398.817-1938.484,2398.8-1936.914Z" transform="translate(-2323.667 1942.409)"/><path class="v" d="M2376.923-1888.857c-.778.813-10.842-1.273-12.6-.339-.743.391-1.067,1.779-1.815,3.3h0c-1.018,2.069-2.828,4.337-7.561,4.488-8.219.263-7.227-8.077-7.875-10.784,0,0-7.783-1.419-8.192-2.785s.093-1.57.093-1.57,9.6,1.779,11.462-.649a4.06,4.06,0,0,1,1.245-.831h0a9.036,9.036,0,0,1,3.38-.761c3.384-.178,7.511.774,8.668,2.917,2.348,4.372,12.417,3.389,13.343,4.537S2377.7-1889.671,2376.923-1888.857Z" transform="translate(-2329.258 1947.53)"/><path class="ac" d="M2350.819-1884.8s-13.5,18.679-2.383,47.432" transform="translate(-2328.633 1949.175)"/><path class="v" d="M2369.531-1874.929h0v.343a35.642,35.642,0,0,1-.889,5.337c-.615,2.593-1.428,5.061-2.1,7.044a56.016,56.016,0,0,0-2.518,17.51,9.251,9.251,0,0,0-4.825-2.6c-7.854-2.158-21.187-1-21.187-1-2.616-9.174-1.682-23.536.92-31.577s9.816-6.225,9.816-6.225,7.614.222,8.571.12a18.731,18.731,0,0,1,5.261.106C2368.46-1884.792,2369.874-1880.145,2369.531-1874.929Z" transform="translate(-2329.524 1949.003)"/><path class="v" d="M2426.224-1841.116c-13.342,12.043-39.1,13.307-58.262,11.972l-10.736-19.315-4.349-7.823,13.974-18.835.739-.992v.343c-.191,3.357-1.428,30.3,8.45,36.913l.079.058a8.565,8.565,0,0,0,4.479,1.37c18.124.525,17.616-23.127,13.009-28.192l31.448-6.32S2431.263-1856.3,2426.224-1841.116Z" transform="translate(-2327.595 1950.196)"/><path class="ad" d="M2387.408-1870.146s-2.948,2.446-1.427,5.728,16.184-3.091,21.957-4.252,12.453-2.294,15.326-2.886,2.624-8.832.275-9.562-25.349,3.336-29.166,5.568A38.747,38.747,0,0,0,2387.408-1870.146Z" transform="translate(-2323.758 1949.598)"/><path class="aa" d="M2393.87-1930.211a1.824,1.824,0,0,1-.173-2.264c.712-1.067,2.147-2.762,3.527-1.494,1.93,1.779-1.366,5.012-2.731,4.229A2.778,2.778,0,0,1,2393.87-1930.211Z" transform="translate(-2322.838 1943.347)"/><path class="g" d="M2384.627-1936.433s-2.633-1.752-1.472-3.015c.517-.561,2.06-.445,4.145.151a29.282,29.282,0,0,1,3.932,1.365c1.832.8,3.78,1.815,5.51,2.567,0,0-12.172-8.144-15.481-5.568-2.736,2.13,2.952,4.892,3.152,5.079l.1-.361Z" transform="translate(-2324.348 1942.523)"/><path class="z" d="M2385.469-1937.639s-2.668.445-.827,3.318Z" transform="translate(-2323.94 1942.969)"/><path class="z" d="M2388.19-1939.117s-4.025-1.415-5.146-.615.053,2.326,1.334,3.113l1.028.134.6-1.824,1.565-.191Z" transform="translate(-2324.105 1942.695)"/><path class="q" d="M2393.052-1941.024l-.965,1.428-4.194-1.824a7.43,7.43,0,0,1,2.277-.845Z" transform="translate(-2323.482 1942.426)"/><path class="ae" d="M2391.838-1925.882a7.126,7.126,0,0,1-1.179,2.031,11.309,11.309,0,0,0-.382-1.64A4.614,4.614,0,0,0,2391.838-1925.882Z" transform="translate(-2323.202 1944.35)"/><path class="d" d="M2356.764-1890.174c-.177,3.082-1.512,5.6-3.148,6.225h0a2.121,2.121,0,0,1-.89.139c-2.019-.116-3.487-3.145-3.283-6.761s2.01-6.453,4.03-6.337a2.808,2.808,0,0,1,2.113,1.422h0A8.865,8.865,0,0,1,2356.764-1890.174Z" transform="translate(-2328.001 1947.753)"/><path class="u" d="M2356.645-1890.266c-.177,3.082-1.512,5.6-3.148,6.225h0c-1.868-.106-3.225-2.9-3.034-6.225s1.855-5.96,3.722-5.853a2.169,2.169,0,0,1,1.3.555h0A8.9,8.9,0,0,1,2356.645-1890.266Z" transform="translate(-2327.881 1947.846)"/><path class="ad" d="M2423.967-1851.284c-3.438-2.415-16.74-4.786-16.74-4.786-8.082,0-15.175,7.272-16.153,16.927-.8,7.855,2.668,14.984,8.259,18.235,0,0,.467.2,1.25.5,2.962,1.169,10.478,4,14.921,4.625" transform="translate(-2323.123 1952.55)"/><ellipse class="i" cx="18.541" cy="15.695" rx="18.541" ry="15.695" transform="matrix(0.101, -0.995, 0.995, 0.101, 76.77, 135.192)"/><ellipse class="x" cx="18.541" cy="15.695" rx="18.541" ry="15.695" transform="matrix(0.101, -0.995, 0.995, 0.101, 7.63, 134.599)"/><path class="ad" d="M2364.7-1849.963l-7.953,33.387a13.42,13.42,0,0,1-3.509.1h-.088c-1.526-.392-.846.03-2.376-.476-3.891-1.286-9.544-3.558-9.544-3.558-5.99-2.913-9.375-10-8.552-18.093,1-9.807,8.032-17.132,16.313-16.531,0,0,3.932.724,7.979,1.779a47.2,47.2,0,0,1,5.022,1.525h0A14.952,14.952,0,0,1,2364.7-1849.963Z" transform="translate(-2329.982 1952.656)"/><path class="i" d="M2370-1833.529c-.89,8.784-6.835,15.6-13.983,16.754a13.417,13.417,0,0,1-3.509.1h-.088a13.462,13.462,0,0,1-4.67-1.392c-6.009-3.046-9.811-10.447-8.98-18.63,1.036-10.18,8.85-17.719,17.469-16.856h.022a13.454,13.454,0,0,1,5,1.525h0a14.911,14.911,0,0,1,2.709,1.867C2368.227-1846.457,2370.7-1840.249,2370-1833.529Z" transform="translate(-2329.265 1952.838)"/><path class="v" d="M2368.823-1844.8a8.219,8.219,0,0,0-.89-1.17c-1.988-2.712-6.532-3.727-9.508-3.487a13.832,13.832,0,0,0-6.373,2.286c-2.171,1.406-3.723,3.558-5.876,5.034a13.115,13.115,0,0,1-14.378-.164,6.179,6.179,0,0,1-.658-.539,3.033,3.033,0,0,1-.8-1.579,4,4,0,0,1,.165-2.224c.889-2.5,3.855-4.7,5.728-6.034a25.094,25.094,0,0,1,12.9-4.541C2362.352-1858.126,2367.991-1846.834,2368.823-1844.8Z" transform="translate(-2330.253 1952.409)"/><path class="p" d="M2367.9-1844.964c-2.842-4.1-6.488-5.253-9.464-5.013a13.831,13.831,0,0,0-6.373,2.286c-2.171,1.406-3.723,3.558-5.876,5.034a13.115,13.115,0,0,1-14.378-.164,6.182,6.182,0,0,1-.658-.539,3.031,3.031,0,0,1-.8-1.579,4.005,4.005,0,0,1,.165-2.224c1.373,1.588,5.376,5.413,10.8,3.558,6.76-2.334,8.41-9.272,15.637-9.21C2362.7-1852.747,2366.233-1848.3,2367.9-1844.964Z" transform="translate(-2330.251 1952.932)"/><g class="af" transform="translate(7.914 94.927)"><path d="M2337.335-1853.874a18.836,18.836,0,0,1,6.4-2.931,21.247,21.247,0,0,1,7.046-.578,23.157,23.157,0,0,1,6.853,1.743l.809.356.792.4c.533.249,1.036.56,1.552.845s.991.636,1.485.952.957.685,1.428,1.036a33.376,33.376,0,0,0-6.178-3.26,23.664,23.664,0,0,0-6.764-1.615,21.854,21.854,0,0,0-6.925.445,21.487,21.487,0,0,0-3.34,1.031A18.264,18.264,0,0,0,2337.335-1853.874Z" transform="translate(-2337.335 1857.46)"/></g><g class="af" transform="translate(21.17 72.331)"><path d="M2350.342-1854.679a24.5,24.5,0,0,1-.991-5.7c-.146-1.925-.177-3.86-.139-5.782s.174-3.86.352-5.782l.324-2.873c.143-.956.267-1.912.445-2.864l-.4,5.782-.16,2.882c-.027.961-.085,1.921-.089,2.882-.075,1.921-.039,3.843.031,5.782.031.961.107,1.917.2,2.873A20.765,20.765,0,0,0,2350.342-1854.679Z" transform="translate(-2349.197 1877.681)"/></g><path class="p" d="M2375.207-1837.74c-9.286-5.974-9.656-21.384-9.339-31.55.058-1.748.128-3.335.182-4.7a28.8,28.8,0,0,0,0-4.105c-.938-6.982-6.275-7.822-6.275-7.822h.022c5.911,1.085,7.325,5.732,6.983,10.949h0v.343C2366.579-1871.269,2365.342-1844.323,2375.207-1837.74Z" transform="translate(-2326.785 1949.044)"/><path class="g" d="M2375.562-1888.855c-.778.813-10.842-1.273-12.6-.339-.743.391-1.067,1.779-1.815,3.3h0a8.223,8.223,0,0,1-5.234,3.888c3.522-2.668,4.5-9.091,2.757-13.151s-8.006-3.007-8.361-2.886a9.035,9.035,0,0,1,3.38-.761c3.384-.178,7.512.774,8.668,2.917,2.348,4.373,12.417,3.389,13.342,4.537S2376.341-1889.669,2375.562-1888.855Z" transform="translate(-2327.897 1947.528)"/><path class="z" d="M2365.934-1893.378a6.168,6.168,0,0,0-.7,3.7l8.525.961a4.641,4.641,0,0,0,1.082-3.709S2366.4-1893.28,2365.934-1893.378Z" transform="translate(-2326.149 1948.168)"/><path class="z" d="M2343.229-1893.282s-.849-1.8.17-2.948c-2.277-.2-3.687-.445-5.155-.658a2.156,2.156,0,0,0,.445,2.308C2339.457-1893.57,2343.229-1893.282,2343.229-1893.282Z" transform="translate(-2329.333 1947.756)"/><path class="v" d="M2338.75-1883.547c-1.477,2.406-2.74,6.257-2.852,12.408" transform="translate(-2329.59 1949.323)"/><path class="v" d="M2343.1-1887.1a6.149,6.149,0,0,0-2.86,1.544" transform="translate(-2329.08 1948.906)"/><path class="aa" d="M2405.89-1907.845l-5.613.685s-.978,10.313-1.885,12.319c0,0-17.26,2.375-24.337,2.167l-3.588,2.437-.125,4.242,3.518.1,1.134-2.668s2.375-.1,2.922-1.442c0,0,18.341,4.448,25.1-.622C2403.008-1890.643,2407.086-1896.625,2405.89-1907.845Z" transform="translate(-2325.544 1946.469)"/><path class="ad" d="M2362.915-1835.745c-.16,5.594-3.825,10.024-8.187,9.9a6.258,6.258,0,0,1-1.726-.3c-3.5-1.112-6.012-5.234-5.875-10.06.138-4.67,2.713-8.531,6.1-9.6a6.267,6.267,0,0,1,2.1-.3C2359.681-1845.974,2363.08-1841.322,2362.915-1835.745Z" transform="translate(-2328.271 1953.72)"/><path class="z" d="M2358.9-1835.778c-.137,4.776-2.668,8.7-5.9,9.615-3.5-1.112-6.013-5.234-5.876-10.059.138-4.67,2.713-8.531,6.1-9.6C2356.586-1844.913,2359.036-1840.724,2358.9-1835.778Z" transform="translate(-2328.271 1953.753)"/><path class="ad" d="M2424.238-1835.347c-.164,5.594-3.83,10.028-8.187,9.9a6.037,6.037,0,0,1-1.725-.3c-3.5-1.112-6.017-5.23-5.875-10.059.134-4.665,2.709-8.531,6.094-9.6a6.249,6.249,0,0,1,2.094-.3C2421-1845.576,2424.4-1840.933,2424.238-1835.347Z" transform="translate(-2321.069 1953.767)"/><path class="z" d="M2420.222-1835.379c-.142,4.771-2.668,8.7-5.9,9.61-3.5-1.112-6.017-5.23-5.875-10.059.134-4.665,2.709-8.531,6.094-9.6C2417.91-1844.519,2420.365-1840.33,2420.222-1835.379Z" transform="translate(-2321.069 1953.8)"/><path class="v" d="M2433.252-1848.168c.076,5.5-8.3,9.144-22.312,11.438a35.35,35.35,0,0,1-11.43.134c-6.227-1.028-9.268-3.661-9.268-3.661s1.583-19.012,17.251-21.423c10.674-1.637,18.706,2.668,22.781,7.307C2432.189-1852.194,2433.229-1849.93,2433.252-1848.168Z" transform="translate(-2323.207 1951.849)"/><path class="p" d="M2432.278-1848.71c.076,5.5-8.3,9.144-22.312,11.438a35.35,35.35,0,0,1-11.43.134c.672-5.164,3.688-18.706,16.794-20.112a24.161,24.161,0,0,1,13.969,2.335C2431.215-1852.735,2432.255-1850.471,2432.278-1848.71Z" transform="translate(-2322.233 1952.391)"/><g class="af" transform="translate(67.942 89.761)"><path d="M2391.053-1840.166a30.6,30.6,0,0,1,1.837-7.561,27.329,27.329,0,0,1,3.753-6.867,20.415,20.415,0,0,1,2.669-2.878,16.97,16.97,0,0,1,3.188-2.3,18.568,18.568,0,0,1,7.428-2.316,22.5,22.5,0,0,0-3.763.969,17.811,17.811,0,0,0-1.779.72,19.267,19.267,0,0,0-1.7.921c-.56.32-1.076.707-1.6,1.067a11.515,11.515,0,0,0-1.486,1.236,20.262,20.262,0,0,0-2.583,2.843,28.3,28.3,0,0,0-3.785,6.719,34.21,34.21,0,0,0-1.272,3.665A32.482,32.482,0,0,0,2391.053-1840.166Z" transform="translate(-2391.053 1862.083)"/></g><path class="ad" d="M2372.236-1847.873l.925,3.14,9.7-.81.129-4.39Z" transform="translate(-2325.322 1953.271)"/></g><g transform="translate(168.46 140.024)"><g transform="translate(0 4.016)"><path class="n" d="M2423.977-1866.522a.581.581,0,0,1-.58-.556.58.58,0,0,1,.555-.6l21.343-.867a.577.577,0,0,1,.6.554.58.58,0,0,1-.555.6l-21.342.867Z" transform="translate(-2423.396 1868.547)"/></g><g transform="translate(28.398)"><path class="n" d="M2449.389-1870.855a.579.579,0,0,1-.579-.555.58.58,0,0,1,.555-.6l3.17-.128a.583.583,0,0,1,.6.554.58.58,0,0,1-.556.6l-3.17.13Z" transform="translate(-2448.81 1872.141)"/></g><g transform="translate(10.229 0.227)"><path class="n" d="M2433.131-1870.14a.58.58,0,0,1-.58-.555.581.581,0,0,1,.555-.6l15.736-.64a.571.571,0,0,1,.6.555.578.578,0,0,1-.555.6l-15.735.641Z" transform="translate(-2432.551 1871.938)"/></g><g transform="translate(21.242 11.381)"><path class="n" d="M2442.985-1860.265a.579.579,0,0,1-.579-.555.58.58,0,0,1,.555-.6l13.187-.533a.577.577,0,0,1,.6.554.58.58,0,0,1-.555.6l-13.187.534Z" transform="translate(-2442.406 1861.957)"/></g><g transform="translate(13.089 12.012)"><path class="n" d="M2435.689-1860a.581.581,0,0,1-.579-.555.58.58,0,0,1,.555-.6l5.747-.236a.594.594,0,0,1,.6.554.579.579,0,0,1-.555.6l-5.746.236Z" transform="translate(-2435.11 1861.391)"/></g></g><g class="af" transform="translate(4.633)"><path class="u" d="M2411.282-1997.447l-80.83,302.009h-16.238l80.818-302.009Z" transform="translate(-2272.393 1997.447)"/><path class="u" d="M2392.283-1997.447l-80.818,302.009h-34.676v-302.009Z" transform="translate(-2276.789 1997.447)"/></g><circle class="o" cx="8.837" cy="8.837" r="8.837" transform="translate(8.909 20.792) rotate(-76.72)"/><g class="j" transform="translate(34.984 7.169)"><path d="M2347.283-1986.4h-40.93a2.317,2.317,0,0,1-2.317-2.317h0a2.317,2.317,0,0,1,2.317-2.316h40.93a2.317,2.317,0,0,1,2.317,2.316h0A2.317,2.317,0,0,1,2347.283-1986.4Z" transform="translate(-2303.939 1991.032)"/><path d="M2374.164-1984.833h-68.832a1.262,1.262,0,0,0-1.377,1.136,1.262,1.262,0,0,0,1.135,1.378,1.424,1.424,0,0,0,.241,0h68.832a1.262,1.262,0,0,0,1.135-1.378A1.263,1.263,0,0,0,2374.164-1984.833Z" transform="translate(-2303.95 1991.759)"/><path d="M2362.582-1980.687h-57.249a1.262,1.262,0,0,0-1.377,1.136,1.261,1.261,0,0,0,1.135,1.377,1.287,1.287,0,0,0,.241,0h57.249a1.262,1.262,0,0,0,1.136-1.377A1.263,1.263,0,0,0,2362.582-1980.687Z" transform="translate(-2303.95 1992.246)"/></g></g><g transform="translate(2340.674 -1881.042)"><g transform="translate(0 266.072)"><ellipse class="d" cx="216.663" cy="12.65" rx="216.663" ry="12.65"/></g><g transform="translate(146.431 107.919)"><rect class="ag" width="56" height="7" transform="translate(-0.462 122.687)"/><rect class="ag" width="7" height="162" transform="translate(41.538 7.687)"/><rect class="ag" width="7" height="162" transform="translate(6.538 7.687)"/><rect class="y" width="227" height="8" transform="translate(-0.462 -0.313)"/><rect class="y" width="227" height="8" transform="translate(-0.462 -0.313)"/><rect class="v" width="227" height="8" transform="translate(-0.462 -0.313)"/><rect class="ah" width="49" height="8" transform="translate(177.538 -0.313)"/><rect class="ag" width="56" height="7" transform="translate(174.538 122.687)"/><rect class="ag" width="7" height="162" transform="translate(215.538 7.687)"/><rect class="ag" width="7" height="162" transform="translate(180.538 7.687)"/></g><g transform="translate(200.069 172.732)"><rect class="z" width="6" height="87" transform="translate(45.901 17.874)"/><rect class="z" width="5" height="87" transform="translate(138.901 17.874)"/><rect class="z" width="5" height="87" transform="translate(102.901 17.874)"/><rect class="z" width="6" height="87" transform="translate(9.901 17.874)"/><rect class="y" width="151" height="11" transform="translate(-0.099 17.874)"/><rect class="ai" width="151" height="11" transform="translate(-0.099 17.874)"/><path class="y" d="M2532.664-1739.436h110.628a20.114,20.114,0,0,1,19.991,17.879h-150.61A20.113,20.113,0,0,1,2532.664-1739.436Z" transform="translate(-2512.55 1739.436)"/><path class="aj" d="M2532.664-1739.436h110.628a20.114,20.114,0,0,1,19.991,17.879h-150.61A20.113,20.113,0,0,1,2532.664-1739.436Z" transform="translate(-2512.55 1739.436)"/><path class="ak" d="M2615.664-1739.436h17.879a20.114,20.114,0,0,1,19.991,17.879h-57.862A20.113,20.113,0,0,1,2615.664-1739.436Z" transform="translate(-2502.801 1739.436)"/></g><g transform="translate(194.459)"><path class="al" d="M2514.267-1800.794a55.819,55.819,0,0,0,12.426.7c7.654-.291,18.315-2.235,28.428-3.352,5.006-.559,8.358-1.564,10.593-3.151a14.021,14.021,0,0,0,4.85-6.7c.391-.927.794-1.944,1.2-3.062,2.079-5.744,4.123-12.929,4.123-12.929l11.175-3.106a95.33,95.33,0,0,1-4.38,18.74c-.38,1.062-.782,2.112-1.218,3.162a25.489,25.489,0,0,1-22.606,16.427c-10.481,1.117-38.44,1.274-45.816-1.117S2514.267-1800.794,2514.267-1800.794Z" transform="translate(-2507.248 1901.249)"/><path class="ae" d="M2514.267-1800.794a55.819,55.819,0,0,0,12.426.7c7.654-.291,18.315-2.235,28.428-3.352,5.006-.559,8.358-1.564,10.593-3.151a14.021,14.021,0,0,0,4.85-6.7c.391-.927.794-1.944,1.2-3.062,2.079-5.744,4.123-12.929,4.123-12.929l11.175-3.106a95.33,95.33,0,0,1-4.38,18.74c-.38,1.062-.782,2.112-1.218,3.162a25.489,25.489,0,0,1-22.606,16.427c-10.481,1.117-38.44,1.274-45.816-1.117S2514.267-1800.794,2514.267-1800.794Z" transform="translate(-2507.248 1901.249)"/><path class="i" d="M2621.293-1856.47c1.967,13.409,11.063,14.627,1.564,28.853s-32.272,10.18-39.435,1.117-3.207-18.36-.782-24.115-3.933-23.679-3.777-28.909,4.347-16.169,23.467-14.27C2625.137-1891.536,2619.326-1869.879,2621.293-1856.47Z" transform="translate(-2499.166 1894.012)"/><path class="al" d="M2530.6-1662.954l-.637-11.443,9.073.547-.145,9.722-.19,10.594-7.521.76Z" transform="translate(-2504.909 1919.807)"/><path class="i" d="M2538.972-1643.217l-16.762-2.335c-6.7-.894-9.644-5.006-3.353-5.587s13.41-6.057,13.41-6.057,10.225.76,10.135,1.6C2541.431-1647.016,2543.867-1642.5,2538.972-1643.217Z" transform="translate(-2506.621 1921.827)"/><path class="am" d="M2524.586-1655.371a.982.982,0,0,1-.09-1.117,1.116,1.116,0,0,1,.637-.615,4.167,4.167,0,0,1,2.3.067c-.76-.6-1.363-1.184-1.363-1.721.022-.346.291-.6.782-.76a1.56,1.56,0,0,1,1.319.145c1.3.76,1.844,3.252,1.844,3.352a.253.253,0,0,1,0,.2h0a.12.12,0,0,1,0,.056.223.223,0,0,1-.1,0,15.244,15.244,0,0,1-3.833.738A1.944,1.944,0,0,1,2524.586-1655.371Zm.883-1.285a.6.6,0,0,0-.346.313c-.156.391,0,.548,0,.548.414.458,2.358.156,3.933-.268C2527.939-1656.467,2526.207-1656.969,2525.469-1656.656Zm1.978-2.458a1.112,1.112,0,0,0-.291.056c-.156.045-.414.145-.414.291-.033.458,1.308,1.453,2.727,2.235a4.471,4.471,0,0,0-1.442-2.425,1.023,1.023,0,0,0-.536-.156Z" transform="translate(-2505.567 1921.545)"/><path class="g" d="M2529.963-1674.356l9.085.6-.145,9.822-8.269,1.207Z" transform="translate(-2504.909 1919.812)"/><path class="an" d="M2530.663-1657.4l10.906-.2c2.146-33.725,3.576-78.993,3.576-78.993,36.876,0,70.724,1.911,70.724,1.911l-30.171-32.082a424.387,424.387,0,0,0-52.14,10.325h-.078s-13.488,1.352-15.477,12.638S2530.663-1657.4,2530.663-1657.4Z" transform="translate(-2506.336 1908.958)"/><path class="i" d="M2530.663-1657.4l10.906-.2c2.146-33.725,3.576-78.993,3.576-78.993,36.876,0,70.724,1.911,70.724,1.911l-30.171-32.082a424.387,424.387,0,0,0-52.14,10.325h-.078s-13.488,1.352-15.477,12.638S2530.663-1657.4,2530.663-1657.4Z" transform="translate(-2506.336 1908.958)"/><path class="al" d="M2566.271-1661.741l-2.358-11.219,9.063-.816,1.307,9.632,1.408,10.5-7.319,1.877Z" transform="translate(-2500.921 1919.88)"/><path class="i" d="M2577.482-1643.23l-16.907.2c-6.839.078-10.269-3.553-4.2-5.062s12.292-7.99,12.292-7.99,10.258-.782,10.258.056C2579.225-1647.4,2582.31-1643.3,2577.482-1643.23Z" transform="translate(-2502.176 1921.919)"/><path class="am" d="M2561.478-1653.419a.993.993,0,0,1-.257-1.117,1.113,1.113,0,0,1,.537-.693,4.105,4.105,0,0,1,2.235-.279c-.838-.391-1.609-.961-1.609-1.509-.022-.346.2-.637.659-.86a1.581,1.581,0,0,1,1.33-.056c1.4.559,2.324,2.939,2.324,3.04a.28.28,0,0,1,0,.212v.056h0a.277.277,0,0,1-.089.067,12.717,12.717,0,0,1-4.269,1.352A1.388,1.388,0,0,1,2561.478-1653.419Zm4.19-1.3c-1.151-.246-2.939-.48-3.621-.056a.577.577,0,0,0-.29.369c-.1.4.078.536.078.536.5.391,2.347-.19,3.855-.849Zm-1.822-2.794a1.038,1.038,0,0,0-.491.112c-.146.067-.369.2-.369.346.033.458,1.509,1.24,3.028,1.8a4.474,4.474,0,0,0-1.777-2.179,1.018,1.018,0,0,0-.4-.078Z" transform="translate(-2501.246 1921.727)"/><path class="g" d="M2563.933-1672.927l9.063-.76,1.33,9.733-8,2.436Z" transform="translate(-2500.919 1919.89)"/><path class="ad" d="M2541.483-1736.919c-.28,11.454,25.288,83.552,25.288,83.552l10.761-1.833c-2.939-33.669-8.314-78.646-8.314-78.646,35.971,1.631,43.882,1.631,43.882,1.631,6.291.045,12.482-1.4,15.645-4.615,14.259-14.493-6.347-49.436-6.347-49.436s-34.295-4.894-36.876,2.85a54.348,54.348,0,0,0-1.442,6.951c-.391,2.369-1.229,13.979-1.229,13.979C2541.427-1753.245,2541.762-1748.373,2541.483-1736.919Z" transform="translate(-2503.556 1906.488)"/><path class="am" d="M2576.691-1666.123l-11.968,1.542-2.861-5.8,14.784-1.676Z" transform="translate(-2501.162 1920.082)"/><path class="am" d="M2541.576-1665.81l-12.057-.279-1.956-6.157,14.873.559Z" transform="translate(-2505.191 1920.059)"/><path class="an" d="M2580-1788.319l.972,6.3,36.876-2.838-.827-5.341Z" transform="translate(-2499.032 1906.206)"/><path class="i" d="M2580-1788.319l.972,6.3,36.876-2.838-.827-5.341Z" transform="translate(-2499.032 1906.206)"/><rect class="an" width="1.833" height="9.331" transform="translate(105.395 115.65) rotate(-5.88)"/><rect class="u" width="8.105" height="6.146" transform="matrix(0.998, -0.06, 0.06, 0.998, 87.9, 117.63)"/><rect class="an" width="1.833" height="9.331" transform="translate(82.742 116.646) rotate(-5.88)"/><path class="y" d="M2577.6-1838.865c.782-8.135,2.045-8.437,2.045-8.437s8.817-.861,16.494-.8a125.459,125.459,0,0,1,17.723,1.866,108.576,108.576,0,0,1,15.8,4.034c-.894,2.559-1.117,5-1.878,7.23-1.006,3.017-1.9,5.811-2.715,8.414-1.52,4.883-2.7,9.107-3.643,12.884-2.984,11.7-3.475,20.483-4.1,30.283l-37.021,1.877C2578.7-1809.364,2576.874-1831.187,2577.6-1838.865Z" transform="translate(-2499.333 1899.404)"/><path class="o" d="M2577.6-1838.865c.782-8.135,2.045-8.437,2.045-8.437s8.817-.861,16.494-.8a125.459,125.459,0,0,1,17.723,1.866,110.17,110.17,0,0,1,15.756,4.034c-.872,2.5-1.106,4.85-1.833,7.085v.145c-1.006,3.017-1.9,5.811-2.715,8.414-1.52,4.883-2.7,9.2-3.643,12.884s-1.631,7.141-2.157,10.392a195.132,195.132,0,0,0-1.944,19.891l-37.021,1.877C2578.7-1809.364,2576.874-1831.187,2577.6-1838.865Z" transform="translate(-2499.333 1899.404)"/><path class="ad" d="M2542.914-1850.894c5.409,0,4.794,1.039,5,9.018s1.05,20.483,1.05,20.483c.157,2.335,1.587,6.112-2.078,7.04a7.14,7.14,0,0,1-2.022.235c-6.157,0-8.169.224-8.526-5.4s-1.107-21.812-1.319-27.4S2537.506-1850.894,2542.914-1850.894Z" transform="translate(-2504.317 1899.052)"/><path class="ao" d="M2542.914-1850.894c1.866.067,1.8.056,1.945,3.978s.961,23.12,1.575,28.026a31.512,31.512,0,0,1,.447,4.537,7.14,7.14,0,0,1-2.022.235c-6.157,0-8.169.224-8.526-5.4s-1.107-21.812-1.319-27.4S2537.517-1850.894,2542.914-1850.894Z" transform="translate(-2504.317 1899.052)"/><path class="i" d="M2604.667-1856.634c15.186,2.313,20.673-35.68-3.811-36.8s-18.516,21.645-18.516,21.645S2589.481-1858.947,2604.667-1856.634Z" transform="translate(-2498.832 1894.075)"/><path class="al" d="M2593.022-1844.719s3.241-.57,2.034-7.755a35.289,35.289,0,0,0-1.229-4.917l11.51-4.045s-3.609,11.018,3.554,15.946c0,0-5.476,6.068-13.063,5.14C2593.916-1840.584,2591.536-1840.495,2593.022-1844.719Z" transform="translate(-2497.557 1897.838)"/><path class="g" d="M2605.2-1861.416s-4.771,6.7-10.281,8.94a35.289,35.289,0,0,0-1.229-4.917Z" transform="translate(-2497.424 1897.84)"/><path class="al" d="M2599.035-1852.185c-12.772,3.978-16.561-5.285-16.762-18.773-.156-10.828,2.715-16.639,13.119-17.533C2612.668-1889.977,2616.367-1857.593,2599.035-1852.185Z" transform="translate(-2498.766 1894.655)"/><path class="ap" d="M2588.711-1868.327a2.85,2.85,0,0,1-2.838-.938,22.533,22.533,0,0,0,2.659-4.571Z" transform="translate(-2498.342 1896.382)"/><path class="i" d="M2594.822-1876.536c.559-.033,1.062.626,1.117,1.486s-.38,1.564-.938,1.609-1.062-.626-1.117-1.475S2594.263-1876.5,2594.822-1876.536Z" transform="translate(-2497.402 1896.064)"/><path class="i" d="M2593.233-1877.066l1.9.615C2594.25-1875.557,2593.233-1877.066,2593.233-1877.066Z" transform="translate(-2497.478 1896.002)"/><path class="i" d="M2585.282-1876.1c.559-.045,1.062.615,1.117,1.475s-.38,1.587-.939,1.62-1.062-.625-1.117-1.486S2584.723-1876.051,2585.282-1876.1Z" transform="translate(-2498.522 1896.116)"/><path class="i" d="M2583.693-1876.626l1.911.615C2584.665-1875.117,2583.693-1876.626,2583.693-1876.626Z" transform="translate(-2498.598 1896.054)"/><path class="i" d="M2597.764-1879.924c-1.553-1.665-4.235-1.117-4.235-1.117l-.032.007a.425.425,0,0,1-.493-.342.447.447,0,0,1,.346-.525,5.83,5.83,0,0,1,5.062,1.308.447.447,0,0,1,0,.626.429.429,0,0,1-.313.123A.475.475,0,0,1,2597.764-1879.924Z" transform="translate(-2497.506 1895.419)"/><path class="an" d="M2582.663-1879.785a.447.447,0,0,1,.078-.626,5.283,5.283,0,0,1,4.47-1.3.446.446,0,0,1,.292.51.448.448,0,0,1-.526.351,4.47,4.47,0,0,0-3.677,1.117.425.425,0,0,1-.28.1A.445.445,0,0,1,2582.663-1879.785Z" transform="translate(-2498.73 1895.448)"/><path class="i" d="M2591.11-1865.3c1.486-.335,4.246-1.073,5.654-2.324a4.173,4.173,0,0,1,.146,2.883c-.425,1.218-1.632,2.481-4.638,3.04a6.419,6.419,0,0,1-.659.123,27.159,27.159,0,0,0-1.52-3.509S2590.484-1865.179,2591.11-1865.3Z" transform="translate(-2497.846 1897.111)"/><path class="u" d="M2596.657-1867.626a3.825,3.825,0,0,1,.291,1.028c-.726,1.028-2.648,1.788-5.464,2.324L2591-1865.3C2592.489-1865.637,2595.249-1866.374,2596.657-1867.626Z" transform="translate(-2497.74 1897.111)"/><path class="ap" d="M2593.473-1863.75a9.724,9.724,0,0,1,3.207-1.3c-.425,1.218-1.632,2.481-4.638,3.04A3.726,3.726,0,0,1,2593.473-1863.75Z" transform="translate(-2497.617 1897.414)"/><path class="i" d="M2608.036-1859.455c8.571-8.593,6.4-34.775-11.454-32.82s-14.248,20.36-14.248,20.36c-.782-21.064,20.561-14.359,20.561-14.359-.156,6.66,5.431,14.8,5.431,14.8C2611.768-1866.395,2608-1859.455,2608.036-1859.455Z" transform="translate(-2498.793 1894.204)"/><path class="al" d="M2606.217-1866.846c7.889-2.291,5.777-8.772,2.525-8.85a4.592,4.592,0,0,0-4.559,4.593C2604.339-1867.583,2605.088-1866.466,2606.217-1866.846Z" transform="translate(-2496.192 1896.163)"/><path class="i" d="M2602.809-1873.419c-8.973-3.408-8.806-15.343-8.806-15.466h0a.3.3,0,0,1,.3-.3h0a.312.312,0,0,1,.3.313c-.011.123-.167,11.621,8.414,14.873a.323.323,0,0,1,.179.4.313.313,0,0,1-.291.2Z" transform="translate(-2497.387 1894.579)"/><path class="i" d="M2580.189-1874.026c7.141-2.425,12.75-8.157,15.734-13.086,1.765,4.783,6.514,12.359,18.527,15.712,0,0,7.655-7.129-1.43-16.929-5.71-6.168-11.376-5.956-14.795-4.939v-.123s-5.174-2.324-13.968,5.062S2580.133-1874.026,2580.189-1874.026Z" transform="translate(-2499.162 1894.035)"/><path class="y" d="M2611.206-1847.077c-1.5,10.247-9.588,12.292-9.588,12.292-.827-3.464-6.135-6.939-6.135-6.939,11.845-.615,10.415-7.755,10.415-7.755C2607.943-1850.708,2611.217-1847.032,2611.206-1847.077Z" transform="translate(-2497.213 1899.213)"/><path class="y" d="M2592.136-1847.729c-2.648,5.006-1.944,11.331-1.944,11.331a10.535,10.535,0,0,1,5.922-5.308c-1.24-1.43-.581-8.135-.581-8.135C2593.589-1850.255,2592.136-1847.729,2592.136-1847.729Z" transform="translate(-2497.844 1899.195)"/><path class="aq" d="M2611.206-1847.077c-1.5,10.247-9.588,12.292-9.588,12.292-.827-3.464-6.135-6.939-6.135-6.939,11.845-.615,10.415-7.755,10.415-7.755C2607.943-1850.708,2611.217-1847.032,2611.206-1847.077Z" transform="translate(-2497.213 1899.213)"/><path class="aq" d="M2592.136-1847.729c-2.648,5.006-1.944,11.331-1.944,11.331a10.535,10.535,0,0,1,5.922-5.308c-1.24-1.43-.581-8.135-.581-8.135C2593.589-1850.255,2592.136-1847.729,2592.136-1847.729Z" transform="translate(-2497.844 1899.195)"/><path class="al" d="M2559.96-1810.818l-9.208-4.548c-.816.291-9.331.067-11.119-.995s-1.564-8.638-.592-9.565,10.627.671,12.046,1.464,2.537,4.146,2.537,4.146l9.018,3.833Z" transform="translate(-2503.93 1901.976)"/><path class="y" d="M2579.13-1823.722c-4.771-4.067-11.577-3.185-11.577-3.185.536-2.794,1.866-8.157,1.866-8.157,2.827-11.778,11.387-12.292,11.387-12.292Z" transform="translate(-2500.494 1899.492)"/><path class="o" d="M2569.429-1835.064c2.827-11.778,11.387-12.292,11.387-12.292l-.715,10.124-.961,13.51a13.249,13.249,0,0,0-5.319-2.682,18.058,18.058,0,0,0-6.258-.5C2568.088-1829.7,2569.418-1835.064,2569.429-1835.064Z" transform="translate(-2500.493 1899.492)"/><path class="v" d="M2511.563-1816.2v19a2.235,2.235,0,0,0,2.235,2.235h15.644a2.236,2.236,0,0,0,2.235-2.235v-.771h.425a8.17,8.17,0,0,0,2.927-.536,8.307,8.307,0,0,0,4.831-4.831,8.3,8.3,0,0,0-4.831-10.7,8.141,8.141,0,0,0-2.927-.536h-.425v-1.62a2.235,2.235,0,0,0-2.235-2.235H2513.8A2.234,2.234,0,0,0,2511.563-1816.2Zm20.114,4.124h.425a5.721,5.721,0,0,1,4.919,2.8,5.722,5.722,0,0,1-1.991,7.842,5.6,5.6,0,0,1-2.927.816h-.425Z" transform="translate(-2507.07 1902.889)"/><path class="al" d="M2517.712-1805.077c-.838-3.252-2.045-2.682-5.677-2.481s-4.269,1.922-4.47,3.609.939,6.783,2.782,7.543,6.034-.268,6.034-.268C2519.254-1797.579,2518.55-1801.826,2517.712-1805.077Z" transform="translate(-2507.542 1904.146)"/><path class="ao" d="M2529.988-1814.964a8.141,8.141,0,0,1,2.927.536v2.838a5.666,5.666,0,0,0-2.927-.8h-.425v-2.593Z" transform="translate(-2504.956 1903.294)"/><path class="ao" d="M2529.988-1802.39a5.6,5.6,0,0,0,2.927-.816v2.861a8.17,8.17,0,0,1-2.927.536h-.425v-2.6A.561.561,0,0,0,2529.988-1802.39Z" transform="translate(-2504.956 1904.678)"/><path class="ar" d="M2579.433-1838.3l-.961,13.51a13.249,13.249,0,0,0-5.319-2.682A38,38,0,0,1,2579.433-1838.3Z" transform="translate(-2499.836 1900.556)"/><path class="ar" d="M2618.191-1836.776l6.336.324v.145c-1.006,3.017-1.9,5.811-2.715,8.414-1.52,4.883-2.7,9.2-3.643,12.884s-1.631,7.141-2.156,10.392c-5.241-4.369-10.627-10.035-10.448-14.739C2605.865-1828.462,2618.191-1836.776,2618.191-1836.776Z" transform="translate(-2496.03 1900.734)"/><path class="al" d="M2549.63-1815.253c6.2,4.66,32.82,13.342,43.078,15.644s19.3,0,26.651-8.426a91.728,91.728,0,0,0,12.292-19l-11.633-.615s-5.979,8.7-10.113,13.476-7.822,6.615-17.767,4.47-20.673-3.676-28.026-5.822a55.448,55.448,0,0,1-11.566-4.626S2543.428-1819.913,2549.63-1815.253Z" transform="translate(-2502.853 1901.807)"/><path class="y" d="M2626.292-1842.8h0a5.584,5.584,0,0,1,2.313,2.548c1.14,2.235,1.8,6.213-.514,13.052a49.355,49.355,0,0,1-4.012,8.56c-2.313-1.084-10.537-4.559-17.566-2.816C2613.452-1831.1,2621.1-1843.418,2626.292-1842.8Z" transform="translate(-2495.918 1900.024)"/><path class="o" d="M2626.292-1842.8h0a5.584,5.584,0,0,1,2.313,2.548c1.14,2.235,1.8,6.213-.514,13.052a49.355,49.355,0,0,1-4.012,8.56c-2.313-1.084-10.537-4.559-17.566-2.816C2613.452-1831.1,2621.1-1843.418,2626.292-1842.8Z" transform="translate(-2495.918 1900.024)"/></g></g></g></svg>