<svg xmlns="http://www.w3.org/2000/svg" width="140.418" height="102.941" viewBox="0 0 140.418 102.941">
  <g id="Grupo_54382" data-name="Grupo 54382" transform="translate(-964.582 -3819.553)">
    <rect id="Rectángulo_5570" data-name="Rectángulo 5570" width="140.418" height="61.495" rx="10" transform="translate(964.582 3819.553)" fill="#c7f9cc"/>
    <g id="web-design" transform="translate(972.239 3839.602)">
      <path id="Trazado_101894" data-name="Trazado 101894" d="M92.872,10.78h-.984A7.086,7.086,0,0,0,79.95,3.148L74.843,10.78H30.97a6.548,6.548,0,0,0-6.54,6.54V59.134a6.547,6.547,0,0,0,6.54,6.54h25.4l-1.919,8.062H50.312a4.9,4.9,0,0,0-4.9,4.9v1.022H40.308a1.619,1.619,0,0,0,0,3.238H83.534a1.619,1.619,0,0,0,0-3.238H78.427V78.632a4.9,4.9,0,0,0-4.9-4.9H69.388l-1.919-8.062h25.4a6.547,6.547,0,0,0,6.54-6.54V17.32a6.548,6.548,0,0,0-6.54-6.54Zm-23.2,28.461c-2.531,1.772-7.273-.637-11.8,1.78-1.1-5.74-.408-11.138,5.343-12.33a10.305,10.305,0,0,1,2.225-.211L71.3,32.825C72.148,35.3,71.829,37.734,69.675,39.241Zm1.632-17.353,4.583,3.4-3.524,4.3-4.149-3.078ZM82.642,4.948a3.848,3.848,0,1,1,6.173,4.581L77.945,22.782l-4.836-3.588ZM75.189,78.632v1.022H48.653V78.632a1.66,1.66,0,0,1,1.659-1.658H73.53A1.66,1.66,0,0,1,75.189,78.632Zm-9.13-4.9H57.783L59.7,65.674H64.14Zm30.115-14.6a3.306,3.306,0,0,1-3.3,3.3H30.97a3.306,3.306,0,0,1-3.3-3.3V51.552h4.626a1.619,1.619,0,0,0,0-3.238H27.668V17.32a3.306,3.306,0,0,1,3.3-3.3H72.677L65.168,25.239a11.062,11.062,0,0,0-8.414,3.555c-2.822,3.294-3.317,8.469-1.473,15.383a1.62,1.62,0,0,0,2.683.753c4.186-4,9.4.363,14.069-3.416,2.85-2.307,3.524-5.975,2.45-9.4L89.321,14.018h3.551a3.306,3.306,0,0,1,3.3,3.3V48.314H45.246a1.619,1.619,0,0,0,0,3.238H96.174Z" fill="#22577a"/>
      <path id="Trazado_101895" data-name="Trazado 101895" d="M104.337,298.455a1.619,1.619,0,1,0,1.9,1.271A1.617,1.617,0,0,0,104.337,298.455Z" transform="translate(-65.879 -250.11)" fill="#22577a"/>
    </g>
  </g>
</svg>
