<svg xmlns="http://www.w3.org/2000/svg" width="140.418" height="93.311" viewBox="0 0 140.418 93.311">
  <g id="Grupo_54625" data-name="Grupo 54625" transform="translate(-495 -3632.73)">
    <rect id="Rectángulo_5564" data-name="Rectángulo 5564" width="140.418" height="61.495" rx="10" transform="translate(495 3632.73)" fill="#c7f9cc"/>
    <g id="adjuntar" transform="translate(530 3652.376)">
      <g id="Grupo_54385" data-name="Grupo 54385" transform="translate(0 5.044)">
        <g id="Grupo_54384" data-name="Grupo 54384" transform="translate(0 0)">
          <path id="Trazado_101896" data-name="Trazado 101896" d="M335.388,131.063a7.046,7.046,0,1,0,7.046,7.046A7.054,7.054,0,0,0,335.388,131.063Zm0,11.358a4.312,4.312,0,1,1,4.312-4.312A4.316,4.316,0,0,1,335.388,142.421Z" transform="translate(-283.451 -113.834)" fill="#22577a"/>
          <path id="Trazado_101897" data-name="Trazado 101897" d="M363.629,445.85a1.349,1.349,0,0,0-.126-.237,1.325,1.325,0,0,0-.377-.377,1.349,1.349,0,0,0-.237-.126,1.28,1.28,0,0,0-.256-.078,1.347,1.347,0,0,0-.533,0,1.283,1.283,0,0,0-.256.078,1.35,1.35,0,0,0-.236.126,1.324,1.324,0,0,0-.377.377,1.353,1.353,0,0,0-.126.237,1.284,1.284,0,0,0-.078.256,1.316,1.316,0,0,0,0,.533,1.287,1.287,0,0,0,.078.256,1.352,1.352,0,0,0,.126.236,1.31,1.31,0,0,0,.169.208c.031.031.064.061.1.09a1.276,1.276,0,0,0,.109.08,1.358,1.358,0,0,0,.236.126,1.291,1.291,0,0,0,.256.078,1.314,1.314,0,0,0,.533,0,1.291,1.291,0,0,0,.256-.078,1.358,1.358,0,0,0,.236-.126,1.3,1.3,0,0,0,.109-.08,1.326,1.326,0,0,0,.1-.09,1.307,1.307,0,0,0,.169-.208,1.348,1.348,0,0,0,.126-.236,1.382,1.382,0,0,0,.079-.256,1.38,1.38,0,0,0,0-.533A1.377,1.377,0,0,0,363.629,445.85Z" transform="translate(-311.645 -384.855)" fill="#22577a"/>
          <path id="Trazado_101898" data-name="Trazado 101898" d="M206.249,50.12a1.454,1.454,0,0,0-.126-.237,1.371,1.371,0,0,0-.17-.208,1.307,1.307,0,0,0-.208-.17,1.349,1.349,0,0,0-.237-.126,1.381,1.381,0,0,0-.256-.078,1.346,1.346,0,0,0-.533,0,1.428,1.428,0,0,0-.257.078,1.387,1.387,0,0,0-.235.126,1.307,1.307,0,0,0-.208.17,1.468,1.468,0,0,0-.171.208,1.444,1.444,0,0,0-.124.237,1.283,1.283,0,0,0-.078.256,1.321,1.321,0,0,0,0,.535,1.283,1.283,0,0,0,.078.256,1.444,1.444,0,0,0,.124.237,1.469,1.469,0,0,0,.171.208,1.307,1.307,0,0,0,.208.17,1.387,1.387,0,0,0,.235.126,1.428,1.428,0,0,0,.257.078,1.314,1.314,0,0,0,.533,0,1.381,1.381,0,0,0,.256-.078,1.349,1.349,0,0,0,.237-.126,1.307,1.307,0,0,0,.208-.17,1.371,1.371,0,0,0,.17-.208,1.453,1.453,0,0,0,.126-.237,1.285,1.285,0,0,0,.078-.256,1.321,1.321,0,0,0,0-.535A1.285,1.285,0,0,0,206.249,50.12Z" transform="translate(-175.781 -43.229)" fill="#22577a"/>
          <path id="Trazado_101899" data-name="Trazado 101899" d="M62.361,11.1a7.875,7.875,0,0,0-7.65-6.053h-42.9A11.828,11.828,0,0,0,0,16.859v42.9a7.87,7.87,0,0,0,7.639,7.857,7.875,7.875,0,0,0,7.65,6.053H62.137A7.872,7.872,0,0,0,70,65.8V18.954A7.87,7.87,0,0,0,62.361,11.1Zm4.9,54.705a5.134,5.134,0,0,1-5.128,5.128H15.289A5.131,5.131,0,0,1,10.161,65.8V58.549l15.685-26.6a2.577,2.577,0,0,1,4.482.077l6.753,12.4L46.9,62.457a1.367,1.367,0,0,0,2.4-1.308L46.114,55.3a5.639,5.639,0,0,0,3.87-1.3l6.148-5.1a2.587,2.587,0,0,1,3.386.084l.321.294,2.734,2.506,4.692,4.3Zm0-13.425-4.692-4.3-2.734-2.082a5.335,5.335,0,0,0-5.453.8l-6.148,5.1a2.928,2.928,0,0,1-4.441-.853l-4.314-7.921L37.074,38.7h0L32.73,30.723a5.311,5.311,0,0,0-9.239-.158l-13.33,22.6V18.954a5.134,5.134,0,0,1,5.128-5.128h8.448a1.367,1.367,0,1,0,0-2.734H15.289a7.872,7.872,0,0,0-7.863,7.863V64.863a5.134,5.134,0,0,1-4.692-5.108v-42.9a9.091,9.091,0,0,1,9.08-9.08h42.9a5.136,5.136,0,0,1,4.8,3.313H34.674a1.367,1.367,0,1,0,0,2.734H59.839l2.734.02a5.134,5.134,0,0,1,4.692,5.108Z" transform="translate(0 -5.044)" fill="#22577a"/>
        </g>
      </g>
    </g>
  </g>
</svg>
