<svg xmlns="http://www.w3.org/2000/svg" width="140.418" height="99.296" viewBox="0 0 140.418 99.296">
  <g id="Grupo_54447" data-name="Grupo 54447" transform="translate(-495 -2496.953)">
    <rect id="Rectángulo_5570" data-name="Rectángulo 5570" width="140.418" height="61.495" rx="10" transform="translate(495 2496.953)" fill="#c7f9cc"/>
    <g id="audio" transform="translate(524.322 2520.652)">
      <path id="Trazado_102114" data-name="Trazado 102114" d="M55.494,92.994H72.219a1.107,1.107,0,1,0,0-2.215H55.494a.369.369,0,0,1-.369-.369V75.357a.369.369,0,0,1,.369-.369H82.231a.37.37,0,0,1,.37.369V90.411a.369.369,0,0,1-.37.369H77.244a1.107,1.107,0,1,0,0,2.215h4.987a2.586,2.586,0,0,0,2.584-2.584V75.357a2.587,2.587,0,0,0-2.584-2.584H55.494a2.587,2.587,0,0,0-2.584,2.584V90.411A2.587,2.587,0,0,0,55.494,92.994Zm0,0" transform="translate(-45.09 -62.017)" fill="#22577a"/>
      <path id="Trazado_102115" data-name="Trazado 102115" d="M133.653,108.656a2.016,2.016,0,0,0-3.024,1.745v5.656a2.012,2.012,0,0,0,3.024,1.746l4.9-2.828a2.016,2.016,0,0,0,0-3.491Zm-.809,7.057v-4.967l4.3,2.483Zm0,0" transform="translate(-111.321 -92.363)" fill="#22577a"/>
      <path id="Trazado_102116" data-name="Trazado 102116" d="M289.506,96.115h13.243v.456a2.06,2.06,0,0,0,2.058,2.058H307a2.06,2.06,0,0,0,2.058-2.058v-.456h3.463a1.107,1.107,0,0,0,0-2.215h-3.463v-.456A2.059,2.059,0,0,0,307,91.387h-2.193a2.06,2.06,0,0,0-2.058,2.058V93.9H289.506a1.107,1.107,0,0,0,0,2.215ZM304.963,93.6h1.881v2.812h-1.881Zm0,0" transform="translate(-245.771 -77.879)" fill="#22577a"/>
      <path id="Trazado_102117" data-name="Trazado 102117" d="M289.506,151.182h5.419v.456a2.06,2.06,0,0,0,2.058,2.058h2.194a2.06,2.06,0,0,0,2.058-2.058v-.456h11.287a1.107,1.107,0,0,0,0-2.215H301.235v-.456a2.06,2.06,0,0,0-2.058-2.058h-2.194a2.06,2.06,0,0,0-2.058,2.058v.456h-5.419a1.107,1.107,0,0,0,0,2.215Zm7.633-2.514h1.88v2.813h-1.88Zm0,0" transform="translate(-245.771 -124.806)" fill="#22577a"/>
      <path id="Trazado_102118" data-name="Trazado 102118" d="M70.8,0H4.874A4.88,4.88,0,0,0,0,4.874V58.465a4.88,4.88,0,0,0,4.875,4.874H26.426v3.973H23.082a4.05,4.05,0,0,0-4.046,4.046V73.75A1.849,1.849,0,0,0,20.882,75.6h33.83a1.848,1.848,0,0,0,1.846-1.846V71.357a4.05,4.05,0,0,0-4.045-4.045H49.168V63.339H70.719a4.88,4.88,0,0,0,4.874-4.874l.084-53.591A4.88,4.88,0,0,0,70.8,0ZM52.512,69.527a1.832,1.832,0,0,1,1.83,1.83v2.024H21.251V71.357a1.832,1.832,0,0,1,1.831-1.83ZM28.641,67.312V63.339H46.953v3.973Zm44.739-8.847a2.663,2.663,0,0,1-2.66,2.66H4.875a2.663,2.663,0,0,1-2.66-2.66V57.213H73.379Zm0-3.467H2.215V8.627H73.379Zm0-48.586H2.3V4.874a2.663,2.663,0,0,1,2.66-2.659H70.719a2.663,2.663,0,0,1,2.66,2.659Zm0,0" fill="#22577a"/>
      <path id="Trazado_102119" data-name="Trazado 102119" d="M55.494,237.721h54.87a2.587,2.587,0,0,0,2.584-2.584v-2.362a1.107,1.107,0,1,0-2.215,0v2.362a.369.369,0,0,1-.369.369H88.17v-9.891h22.194a.369.369,0,0,1,.369.369v1.648a1.107,1.107,0,1,0,2.215,0v-1.648a2.586,2.586,0,0,0-2.584-2.584H88.17v-.826a1.846,1.846,0,0,0,1.762-1.841v-2.047a1.848,1.848,0,0,0-1.845-1.845H86.039a1.848,1.848,0,0,0-1.846,1.845v2.047a1.847,1.847,0,0,0,1.762,1.841v.826H55.494a2.587,2.587,0,0,0-2.584,2.584v9.153A2.587,2.587,0,0,0,55.494,237.721Zm30.914-18.667h1.309v1.31H86.408ZM67.17,230.56v-4.945H85.956v9.891H67.17Zm-12.045-4.576a.369.369,0,0,1,.369-.369h9.461v3.837h-9.83Zm0,5.684h9.83v3.838H55.494a.369.369,0,0,1-.369-.369Zm0,0" transform="translate(-45.09 -184.789)" fill="#22577a"/>
      <path id="Trazado_102120" data-name="Trazado 102120" d="M80.029,283.91h4.356a1.107,1.107,0,0,0,0-2.215H80.029a1.107,1.107,0,0,0,0,2.215Zm0,0" transform="translate(-67.257 -240.058)" fill="#22577a"/>
      <path id="Trazado_102121" data-name="Trazado 102121" d="M80.029,324.859h4.356a1.107,1.107,0,0,0,0-2.215H80.029a1.107,1.107,0,1,0,0,2.215Zm0,0" transform="translate(-67.257 -274.955)" fill="#22577a"/>
    </g>
  </g>
</svg>
