<svg xmlns="http://www.w3.org/2000/svg" width="140.418" height="100.408" viewBox="0 0 140.418 100.408">
  <g id="Grupo_54448" data-name="Grupo 54448" transform="translate(-964.582 -2674.553)">
    <rect id="Rectángulo_5570" data-name="Rectángulo 5570" width="140.418" height="61.495" rx="10" transform="translate(964.582 2674.553)" fill="#c7f9cc"/>
    <g id="mp4" transform="translate(941.128 2686.896)">
      <path id="Trazado_102122" data-name="Trazado 102122" d="M136.728,341.013a1.3,1.3,0,0,0,1.293-1.3v-13.1a1.293,1.293,0,0,0-2.359-.73l-3.422,5-3.422-5a1.293,1.293,0,0,0-2.359.73v13.1a1.293,1.293,0,0,0,2.585-.007v-8.922l2.13,3.108a1.305,1.305,0,0,0,2.133,0l2.13-3.108v8.929A1.289,1.289,0,0,0,136.728,341.013Z" transform="translate(-55.962 -269.371)" fill="#22577a"/>
      <path id="Trazado_102123" data-name="Trazado 102123" d="M213.274,339.632v-4.326h1.1a5.044,5.044,0,0,0,0-10.089h-2.395a1.292,1.292,0,0,0-1.293,1.293v13.122a1.293,1.293,0,0,0,2.585,0Zm3.561-9.371a2.462,2.462,0,0,1-2.459,2.459h-1.1V327.8h1.1A2.462,2.462,0,0,1,216.836,330.261Z" transform="translate(-125.704 -269.279)" fill="#22577a"/>
      <path id="Trazado_102124" data-name="Trazado 102124" d="M269.129,325.261a1.293,1.293,0,0,0-1.454.6l-5.331,9.265a1.3,1.3,0,0,0,1.12,1.937H267.5v2.565a1.293,1.293,0,0,0,2.585,0v-2.565h1.1a1.293,1.293,0,1,0,0-2.585h-1.1V326.51A1.293,1.293,0,0,0,269.129,325.261Zm-1.626,9.221h-1.8l1.8-3.134Z" transform="translate(-168.335 -269.28)" fill="#22577a"/>
      <path id="Trazado_102125" data-name="Trazado 102125" d="M125.391,170.156a1.292,1.292,0,0,0-1.293,1.293V187.8a2.157,2.157,0,0,1-2.154,2.154H66.731a2.157,2.157,0,0,1-2.154-2.154v-6.281H76.716a1.293,1.293,0,1,0,0-2.585H61.457v-22.03h51.73v22.03h-31.3a1.293,1.293,0,1,0,0,2.585H114.48a1.292,1.292,0,0,0,1.293-1.293V155.616a1.292,1.292,0,0,0-1.293-1.293h-49.9V127.476a1.293,1.293,0,1,0-2.585,0v26.848H60.165a1.292,1.292,0,0,0-1.293,1.293v24.615a1.292,1.292,0,0,0,1.293,1.293h1.827V187.8a4.745,4.745,0,0,0,4.739,4.739h55.214a4.745,4.745,0,0,0,4.739-4.739V171.449a1.293,1.293,0,0,0-1.293-1.293Z" transform="translate(0 -104.479)" fill="#22577a"/>
      <path id="Trazado_102126" data-name="Trazado 102126" d="M141.7,17.18a1.3,1.3,0,0,0-.372-.785L125.308.379A1.3,1.3,0,0,0,124.394,0H81.75a4.745,4.745,0,0,0-4.739,4.739V17.826a1.293,1.293,0,1,0,2.585,0V4.739A2.157,2.157,0,0,1,81.75,2.585H123.1V13.863a4.745,4.745,0,0,0,4.739,4.739h11.277V61.8a1.293,1.293,0,1,0,2.585,0V17.309Q141.7,17.244,141.7,17.18Zm-16.01-3.318V4.413l11.6,11.6h-9.449a2.157,2.157,0,0,1-2.154-2.154Z" transform="translate(-15.019)" fill="#22577a"/>
      <path id="Trazado_102127" data-name="Trazado 102127" d="M190.77,121.632h-17.7a2.94,2.94,0,0,0-2.936,2.936v15.556a2.94,2.94,0,0,0,2.936,2.936h6.266a1.293,1.293,0,0,0,0-2.585h-6.266a.352.352,0,0,1-.351-.351V124.568a.352.352,0,0,1,.351-.351h17.7a.352.352,0,0,1,.351.351v15.556a.352.352,0,0,1-.351.351H184.5a1.293,1.293,0,1,0,0,2.585h6.267a2.94,2.94,0,0,0,2.936-2.936v-3.289l4.29,2.948a3.06,3.06,0,0,0,4.793-2.522v-9.831A3.06,3.06,0,0,0,198,124.909l-4.29,2.948v-3.289a2.94,2.94,0,0,0-2.937-2.936Zm8.69,5.408a.477.477,0,0,1,.744.391v9.831a.477.477,0,0,1-.744.391l-5.754-3.954v-2.705Z" transform="translate(-92.122 -100.711)" fill="#22577a"/>
    </g>
  </g>
</svg>
