<svg xmlns="http://www.w3.org/2000/svg" width="140.418" height="99.629" viewBox="0 0 140.418 99.629">
  <g id="Grupo_54446" data-name="Grupo 54446" transform="translate(-495 -2135)">
    <rect id="Rectángulo_5564" data-name="Rectángulo 5564" width="140.418" height="61.495" rx="10" transform="translate(495 2135)" fill="#c7f9cc"/>
    <g id="editar-guion" transform="translate(523.729 2158.363)">
      <path id="Trazado_102098" data-name="Trazado 102098" d="M5.092,76.263H50.85a5.084,5.084,0,0,0,5.084-5.084V5.084A5.084,5.084,0,0,0,50.85,0H13.989c-.028,0-.054.014-.081.016a1.213,1.213,0,0,0-.324.064,1.211,1.211,0,0,0-.127.044,1.228,1.228,0,0,0-.371.248L.376,13.083a1.271,1.271,0,0,0-.254.372,1.25,1.25,0,0,0-.042.119,1.269,1.269,0,0,0-.066.329c.009.028-.005.052-.005.079v57.2A5.084,5.084,0,0,0,5.092,76.263Zm48.3-71.179V71.179a2.542,2.542,0,0,1-2.542,2.542H5.092A2.542,2.542,0,0,1,2.55,71.179V15.252h8.9a3.813,3.813,0,0,0,3.813-3.813v-8.9H50.85A2.542,2.542,0,0,1,53.392,5.084ZM12.719,4.339v7.1a1.271,1.271,0,0,1-1.271,1.271h-7.1Zm0,0" fill="#22577a"/>
      <path id="Trazado_102099" data-name="Trazado 102099" d="M405.253,0h-2.542a5.084,5.084,0,0,0-5.084,5.084v5.084h-1.271a3.813,3.813,0,0,0-3.813,3.813V27.963a1.271,1.271,0,0,0,2.542,0V13.982a1.271,1.271,0,0,1,1.271-1.271h1.271V55.418a32.945,32.945,0,0,0,1.989,11.293l3.177,8.721a1.271,1.271,0,0,0,2.387,0l3.177-8.722a32.937,32.937,0,0,0,1.979-11.292V5.084A5.084,5.084,0,0,0,405.253,0Zm-5.084,53.384V12.71h2.542V53.384Zm5.084-40.673H407.8V53.384h-2.542Zm-5.084-7.626a2.542,2.542,0,0,1,2.542-2.542h2.542A2.542,2.542,0,0,1,407.8,5.084v5.084h-7.626ZM405.96,65.84l-1.978,5.433L402,65.84a30.478,30.478,0,0,1-1.835-9.915H407.8A30.447,30.447,0,0,1,405.96,65.84Zm0,0" transform="translate(-334.067)" fill="#22577a"/>
      <path id="Trazado_102100" data-name="Trazado 102100" d="M146.346,70.808h11.44a1.271,1.271,0,0,0,0-2.542h-11.44a1.271,1.271,0,1,0,0,2.542Zm0,0" transform="translate(-123.459 -58.097)" fill="#22577a"/>
      <path id="Trazado_102101" data-name="Trazado 102101" d="M43.947,130.542H60.47a1.271,1.271,0,1,0,0-2.542H43.947a1.271,1.271,0,0,0,0,2.542Zm0,0" transform="translate(-36.313 -108.934)" fill="#22577a"/>
      <path id="Trazado_102102" data-name="Trazado 102102" d="M204.809,129.271a1.271,1.271,0,0,0,1.271,1.271H222.6a1.271,1.271,0,0,0,0-2.542H206.08A1.271,1.271,0,0,0,204.809,129.271Zm0,0" transform="translate(-174.296 -108.934)" fill="#22577a"/>
      <path id="Trazado_102103" data-name="Trazado 102103" d="M43.947,164.675H66.826a1.271,1.271,0,1,0,0-2.542H43.947a1.271,1.271,0,0,0,0,2.542Zm0,0" transform="translate(-36.313 -137.983)" fill="#22577a"/>
      <path id="Trazado_102104" data-name="Trazado 102104" d="M258.916,162.133H248.747a1.271,1.271,0,0,0,0,2.542h10.169a1.271,1.271,0,0,0,0-2.542Zm0,0" transform="translate(-210.608 -137.983)" fill="#22577a"/>
      <path id="Trazado_102105" data-name="Trazado 102105" d="M43.947,198.808H54.115a1.271,1.271,0,0,0,0-2.542H43.947a1.271,1.271,0,0,0,0,2.542Zm0,0" transform="translate(-36.313 -167.032)" fill="#22577a"/>
      <path id="Trazado_102106" data-name="Trazado 102106" d="M186.291,196.266H163.412a1.271,1.271,0,1,0,0,2.542h22.879a1.271,1.271,0,0,0,0-2.542Zm0,0" transform="translate(-137.983 -167.032)" fill="#22577a"/>
      <path id="Trazado_102107" data-name="Trazado 102107" d="M43.947,232.94H63.012a1.271,1.271,0,1,0,0-2.542H43.947a1.271,1.271,0,0,0,0,2.542Zm0,0" transform="translate(-36.313 -196.08)" fill="#22577a"/>
      <path id="Trazado_102108" data-name="Trazado 102108" d="M237.128,230.4H223.146a1.271,1.271,0,1,0,0,2.542h13.982a1.271,1.271,0,0,0,0-2.542Zm0,0" transform="translate(-188.82 -196.08)" fill="#22577a"/>
      <path id="Trazado_102109" data-name="Trazado 102109" d="M52.844,265.806a1.271,1.271,0,0,0-1.271-1.271H43.947a1.271,1.271,0,0,0,0,2.542h7.627A1.271,1.271,0,0,0,52.844,265.806Zm0,0" transform="translate(-36.313 -225.133)" fill="#22577a"/>
      <path id="Trazado_102110" data-name="Trazado 102110" d="M171.767,264.535H146.346a1.271,1.271,0,1,0,0,2.542h25.421a1.271,1.271,0,0,0,0-2.542Zm0,0" transform="translate(-123.459 -225.133)" fill="#22577a"/>
      <path id="Trazado_102111" data-name="Trazado 102111" d="M101.324,315.734h-30.5a2.542,2.542,0,0,0-2.542,2.542v17.794a2.542,2.542,0,0,0,2.542,2.542h30.5a2.542,2.542,0,0,0,2.542-2.542V318.276A2.542,2.542,0,0,0,101.324,315.734Zm-6.355,11.44a8.9,8.9,0,1,1-8.9-8.9A8.9,8.9,0,0,1,94.969,327.174Zm-24.15,8.9V318.276H78.9a11.411,11.411,0,0,0,0,17.794Zm22.426,0a11.412,11.412,0,0,0,0-17.794h8.078v17.794Zm0,0" transform="translate(-58.101 -268.706)" fill="#22577a"/>
      <path id="Trazado_102112" data-name="Trazado 102112" d="M162.785,362.413a1.271,1.271,0,0,0,1.281-.016l8.474-5.084a1.271,1.271,0,0,0,0-2.179l-8.474-5.084a1.271,1.271,0,0,0-1.926,1.089v10.169A1.271,1.271,0,0,0,162.785,362.413Zm1.9-9.03,4.734,2.84-4.734,2.839Zm0,0" transform="translate(-137.983 -297.755)" fill="#22577a"/>
    </g>
  </g>
</svg>
