<svg xmlns="http://www.w3.org/2000/svg" width="140.418" height="96.204" viewBox="0 0 140.418 96.204">
  <g id="Grupo_54623" data-name="Grupo 54623" transform="translate(-964.582 -3102.775)">
    <g id="Grupo_54622" data-name="Grupo 54622">
      <g id="Grupo_54378" data-name="Grupo 54378" transform="translate(0 -399.842)">
        <rect id="Rectángulo_5570" data-name="Rectángulo 5570" width="140.418" height="61.495" rx="10" transform="translate(964.582 3502.617)" fill="#c7f9cc"/>
        <g id="XMLID_1156_" transform="translate(996.949 3523.137)">
          <g id="XMLID_416_">
            <path id="XMLID_419_" d="M72.137,52.526v-42.1a4.514,4.514,0,0,0-4.509-4.509H56.911V4.435a4.435,4.435,0,1,0-8.869,0V5.913H24.095V4.435a4.435,4.435,0,1,0-8.869,0V5.913H4.509A4.514,4.514,0,0,0,0,10.421V65.263a4.514,4.514,0,0,0,4.509,4.509H24.657a1.478,1.478,0,1,0,0-2.956H4.509a1.554,1.554,0,0,1-1.552-1.552V10.421A1.554,1.554,0,0,1,4.509,8.869H15.226v1.478a4.435,4.435,0,1,0,8.869,0V8.869H48.042v1.478a4.435,4.435,0,1,0,8.869,0V8.869H67.628a1.554,1.554,0,0,1,1.552,1.552v7.317H13.3a1.478,1.478,0,0,0,0,2.956H69.18V50.028a13.818,13.818,0,0,0-4.139-1.749V26.312a1.478,1.478,0,0,0-1.478-1.478H8.574A1.478,1.478,0,0,0,7.1,26.312V61.2a1.478,1.478,0,0,0,1.478,1.478h39.35a13.791,13.791,0,0,0,.912,4.139H36.482a1.478,1.478,0,1,0,0,2.956h13.94A13.89,13.89,0,1,0,72.137,52.526Zm-51-42.179a1.478,1.478,0,0,1-2.956,0V4.435a1.478,1.478,0,1,1,2.956,0Zm32.816,0a1.478,1.478,0,1,1-2.956,0V4.435a1.478,1.478,0,1,1,2.956,0Zm7.835,37.547a13.953,13.953,0,0,0-2.024.148H54.044V39.468h8.041V47.9C61.987,47.9,61.888,47.894,61.789,47.894ZM48.048,59.72h-5V51h8.041v1.939A13.842,13.842,0,0,0,48.048,59.72Zm-38-20.252h8.041v8.574H10.052Zm11,0h8.041v8.574H21.05Zm22,0h8.041v8.574H43.046Zm-2.956,8.574H32.048V39.468h8.041Zm2.956-11.53V27.79h8.041v8.721Zm-2.956,0H32.048V27.79h8.041Zm-11,0H21.05V27.79h8.041Zm0,14.486V59.72H21.05V51Zm2.956,0h8.041V59.72H32.048ZM62.085,36.512H54.044V27.79h8.041ZM18.093,27.79v8.721H10.052V27.79ZM10.052,51h8.041V59.72H10.052Zm51.737,21.73A10.939,10.939,0,1,1,72.728,61.789,10.951,10.951,0,0,1,61.789,72.728Z" fill="#22577a"/>
            <path id="XMLID_1115_" d="M394.3,391.266l-4.572,4.572L387.69,393.8a1.478,1.478,0,0,0-2.091,2.09l3.08,3.08a1.478,1.478,0,0,0,2.09,0l5.617-5.617a1.478,1.478,0,1,0-2.09-2.091Z" transform="translate(-328.23 -333.06)" fill="#22577a"/>
            <path id="XMLID_1116_" d="M198.278,452a1.479,1.479,0,1,0,1.045.433A1.489,1.489,0,0,0,198.278,452Z" transform="translate(-167.709 -385.185)" fill="#22577a"/>
            <path id="XMLID_1120_" d="M42.523,122.523a1.477,1.477,0,1,0-1.045.433A1.489,1.489,0,0,0,42.523,122.523Z" transform="translate(-34.087 -102.261)" fill="#22577a"/>
          </g>
        </g>
      </g>
    </g>
  </g>
</svg>
