<svg xmlns="http://www.w3.org/2000/svg" width="140.418" height="99.91" viewBox="0 0 140.418 99.91">
  <g id="Grupo_54624" data-name="Grupo 54624" transform="translate(-495 -3274.953)">
    <g id="Grupo_54379" data-name="Grupo 54379" transform="translate(0 -367)">
      <rect id="Rectángulo_5570" data-name="Rectángulo 5570" width="140.418" height="61.495" rx="10" transform="translate(495 3641.953)" fill="#c7f9cc"/>
      <g id="Icons_copy" data-name="Icons copy" transform="translate(507.479 3648.961)">
        <path id="Trazado_101889" data-name="Trazado 101889" d="M250.3,155.51h-4.16l-1.363-4.77a5.133,5.133,0,0,0-5.73-3.656l-18.659,2.946a4.044,4.044,0,0,0-3.133,5.48h-2.846a1.282,1.282,0,0,0-.711.215l-3.522,2.348H208v2.564h2.176l3.522,2.348a1.282,1.282,0,0,0,.711.215h5.878l3.116,3.116a6.924,6.924,0,0,0,4.355,5.911l2.033.813v10.367l-2.428,4.857a1.278,1.278,0,0,0-.133.573h0v14.1h2.564V190.119h16.664v12.818h2.564v-14.1h0a1.278,1.278,0,0,0-.133-.573l-2.428-4.856V163.2H250.3a3.845,3.845,0,1,0,0-7.691Zm-30.764-1.483a1.476,1.476,0,0,1,1.252-1.465l18.659-2.946a2.566,2.566,0,0,1,2.865,1.828l1.162,4.066h-6.742l1.657-1.657-1.813-1.813-3.47,3.47H221.019A1.485,1.485,0,0,1,219.536,154.027Zm-6.662,5.328,1.923-1.282h3.725a4,4,0,0,0-.107,2.564H214.8Zm17.709,28.2,1.282-2.564h12.516l1.282,2.564Zm13.308-5.127H232.355V172.173a1.282,1.282,0,0,0-.806-1.19l-2.839-1.135a4.377,4.377,0,0,1-2.765-4.084,1.282,1.282,0,0,0-.375-.906l-4.331-4.331a1.437,1.437,0,0,1,1.016-2.454h.484a1.445,1.445,0,0,1,.643.152l9.494,4.747,3.7,3.7,1.813-1.813-1.657-1.657h7.16Zm-9.952-21.791-5.127-2.564h17.643v2.564Zm16.361,0h-1.282v-2.564H250.3a1.282,1.282,0,1,1,0,2.564Z" transform="translate(-154.518 -110.036)" fill="#22577a"/>
        <path id="Trazado_101890" data-name="Trazado 101890" d="M24,49.282v65.373a1.282,1.282,0,0,0,1.282,1.282H70.146v-2.564H26.564V50.564H84.246V60.818h2.564V49.282A1.282,1.282,0,0,0,85.527,48H25.282A1.282,1.282,0,0,0,24,49.282Z" transform="translate(0 -26.881)" fill="#22577a"/>
        <path id="Trazado_101891" data-name="Trazado 101891" d="M87.569,153.692a19.211,19.211,0,0,1,11.1,1.263l1.017-2.353a21.787,21.787,0,1,0,11.985,27.013l-2.428-.823a19.232,19.232,0,0,1-13.2,12.375l9.474-9.474L103.7,179.88,91.769,191.81a19.389,19.389,0,0,1-3.449-.176l8.439-8.439-1.812-1.812-9.59,9.59a19.113,19.113,0,0,1-2.609-1.016l8.464-8.465L89.4,179.679l-8.968,8.969a19.165,19.165,0,0,1-2.056-1.57l7.288-7.288-1.813-1.813-7.289,7.289a19.315,19.315,0,0,1-1.573-2.054l8.331-8.329-1.812-1.813L73.675,180.9a18.98,18.98,0,0,1-1.019-2.606l8.318-8.319-1.813-1.813L72,175.328a19.5,19.5,0,0,1-.191-2.721c0-.243.006-.486.015-.727l8.093-8.093L78.1,161.973l-5.644,5.644A19.257,19.257,0,0,1,87.569,153.692Z" transform="translate(-38.003 -113.221)" fill="#22577a"/>
        <path id="Trazado_101892" data-name="Trazado 101892" d="M111.4,97.05c1.914,0,2.767-1.706,3.39-2.952.324-.648.767-1.535,1.1-1.535s.773.887,1.1,1.535c.623,1.246,1.476,2.952,3.39,2.952s2.767-1.706,3.39-2.952c.324-.648.767-1.535,1.1-1.535V90c-1.914,0-2.767,1.706-3.39,2.952-.324.648-.767,1.535-1.1,1.535s-.773-.887-1.1-1.535C118.656,91.706,117.8,90,115.889,90s-2.767,1.706-3.39,2.952c-.324.648-.767,1.535-1.1,1.535s-.773-.887-1.1-1.535c-.623-1.246-1.476-2.952-3.39-2.952s-2.767,1.706-3.39,2.952c-.324.648-.767,1.535-1.1,1.535s-.773-.887-1.1-1.535C100.71,91.706,99.857,90,97.943,90s-2.766,1.706-3.389,2.952c-.324.648-.767,1.535-1.1,1.535s-.773-.887-1.1-1.535C91.738,91.706,90.885,90,88.971,90s-2.766,1.706-3.389,2.952c-.324.647-.767,1.535-1.1,1.535s-.773-.887-1.1-1.535C82.767,91.706,81.914,90,80,90v2.564c.329,0,.773.887,1.1,1.535.623,1.246,1.476,2.952,3.39,2.952s2.767-1.706,3.389-2.952c.324-.648.767-1.535,1.1-1.535s.773.887,1.1,1.535c.623,1.246,1.476,2.952,3.389,2.952s2.767-1.706,3.39-2.952c.324-.648.767-1.535,1.1-1.535s.773.887,1.1,1.535c.623,1.246,1.476,2.952,3.39,2.952s2.767-1.706,3.39-2.952c.324-.648.767-1.535,1.1-1.535s.773.887,1.1,1.535C108.636,95.344,109.489,97.05,111.4,97.05Z" transform="translate(-47.027 -62.151)" fill="#22577a"/>
        <rect id="Rectángulo_5572" data-name="Rectángulo 5572" width="37" height="3" transform="translate(33.521 16.073)" fill="#22577a"/>
        <rect id="Rectángulo_5573" data-name="Rectángulo 5573" width="2" height="3" transform="translate(72.521 16.073)" fill="#22577a"/>
      </g>
    </g>
  </g>
</svg>
