<svg xmlns="http://www.w3.org/2000/svg" width="140.418" height="98.075" viewBox="0 0 140.418 98.075">
  <g id="Grupo_54621" data-name="Grupo 54621" transform="translate(-495 -2913)">
    <rect id="Rectángulo_5564" data-name="Rectángulo 5564" width="140.418" height="61.495" rx="10" transform="translate(495 2913)" fill="#c7f9cc"/>
    <g id="proyecto" transform="translate(527.367 2937.914)">
      <path id="Trazado_101884" data-name="Trazado 101884" d="M85.377,24H81.593a1.261,1.261,0,0,0-1.261,1.261v5.046H27.353V25.261A1.261,1.261,0,0,0,26.091,24H22.307A6.314,6.314,0,0,0,16,30.307V73.195A6.314,6.314,0,0,0,22.307,79.5H24.83V76.979H22.307a3.784,3.784,0,1,1,0-7.568h3.784a1.261,1.261,0,0,0,1.261-1.261V32.83H80.331V68.149a1.261,1.261,0,0,0,1.261,1.261h3.784a3.784,3.784,0,1,1,0,7.568H80.331V79.5h5.046a6.314,6.314,0,0,0,6.307-6.307V30.307A6.314,6.314,0,0,0,85.377,24ZM24.83,66.888H22.307a6.275,6.275,0,0,0-3.784,1.264V30.307a3.788,3.788,0,0,1,3.784-3.784H24.83Zm60.547,0H82.854V26.523h2.523a3.788,3.788,0,0,1,3.784,3.784V68.152A6.275,6.275,0,0,0,85.377,66.888Z" transform="translate(-16 -24)" fill="#22577a"/>
      <path id="Trazado_101885" data-name="Trazado 101885" d="M176,172.614a13.717,13.717,0,0,0,2.311,7.633l2.735,4.1v9.709a1.254,1.254,0,0,0,.134.564h0l2.523,5.046a1.261,1.261,0,0,0,1.128.7H192.4a1.261,1.261,0,0,0,1.128-.7l2.523-5.046h0a1.254,1.254,0,0,0,.134-.564v-9.709l2.735-4.1a13.717,13.717,0,0,0,2.311-7.633,12.614,12.614,0,0,0-25.228,0Zm9.453,1.729,2.4,1.8a1.261,1.261,0,0,0,1.514,0l2.4-1.8-1.673,8.363h-2.977Zm8.207,10.885V192.8H183.568v-7.568Zm-2.041,12.614h-6.009l-1.261-2.523h8.532Zm-3-35.319a10.1,10.1,0,0,1,10.091,10.091,11.2,11.2,0,0,1-1.887,6.233l-2.572,3.858h-1.57L194.9,171.6a1.261,1.261,0,0,0-1.994-1.256l-4.289,3.217-4.289-3.217a1.261,1.261,0,0,0-1.994,1.256l2.221,11.105h-1.57l-2.572-3.858a11.2,11.2,0,0,1-1.887-6.233A10.1,10.1,0,0,1,188.614,162.523Z" transform="translate(-150.772 -138.556)" fill="#22577a"/>
      <path id="Trazado_101886" data-name="Trazado 101886" d="M16,342.551a3.942,3.942,0,0,0,3.937,3.937H38.705a5.051,5.051,0,0,0,5.046-5.046V324.828a4.829,4.829,0,0,0-8.244-3.415L17.153,339.767A3.912,3.912,0,0,0,16,342.551ZM37.291,323.2a2.306,2.306,0,0,1,3.937,1.631v1.478H38.705v2.523h2.523v2.523H38.705v2.523h2.523V336.4H38.705v2.523h2.523v2.523a2.526,2.526,0,0,1-2.523,2.523H36.182v-2.523H33.66v2.523H31.137v-2.523H28.614v2.523H26.091v-2.523H23.568v2.523H19.937a1.414,1.414,0,0,1-1-2.415Z" transform="translate(-16 -273.328)" fill="#22577a"/>
      <path id="Trazado_101887" data-name="Trazado 101887" d="M89.261,392.83h6.307a1.261,1.261,0,0,0,1.261-1.261v-6.307a1.261,1.261,0,0,0-2.153-.892l-6.307,6.307a1.261,1.261,0,0,0,.892,2.153Zm5.046-4.523v2h-2Z" transform="translate(-76.648 -327.237)" fill="#22577a"/>
      <path id="Trazado_101888" data-name="Trazado 101888" d="M344,257.261v27.751a1.263,1.263,0,0,0,.18.649l3.784,6.307a1.261,1.261,0,0,0,2.163,0l3.784-6.307a1.262,1.262,0,0,0,.18-.649V257.261A1.261,1.261,0,0,0,352.83,256h-7.568A1.262,1.262,0,0,0,344,257.261Zm6.307,26.489v-16.4h1.261v16.4Zm-3.784,0v-16.4h1.261v16.4Zm0-18.921v-1.261h5.046v1.261Zm2.523,24.038-1.556-2.594H350.6Zm2.523-30.345v2.523h-5.046v-2.523Z" transform="translate(-292.283 -219.419)" fill="#22577a"/>
      <rect id="Rectángulo_5565" data-name="Rectángulo 5565" width="2.523" height="3.784" transform="translate(23.571 20.309) rotate(-45)" fill="#22577a"/>
      <rect id="Rectángulo_5566" data-name="Rectángulo 5566" width="2.217" height="3.695" transform="translate(37.102 14.042)" fill="#22577a"/>
      <rect id="Rectángulo_5567" data-name="Rectángulo 5567" width="3.784" height="2.523" transform="translate(47.653 21.201) rotate(-45.002)" fill="#22577a"/>
      <rect id="Rectángulo_5568" data-name="Rectángulo 5568" width="3.695" height="2.217" transform="translate(53.361 31.779)" fill="#22577a"/>
      <rect id="Rectángulo_5569" data-name="Rectángulo 5569" width="3.695" height="2.217" transform="translate(18.626 31.779)" fill="#22577a"/>
    </g>
  </g>
</svg>
