<svg xmlns="http://www.w3.org/2000/svg" width="229.999" height="222.982" viewBox="0 0 229.999 222.982">
  <g id="Grupo_54626" data-name="Grupo 54626" transform="translate(-1000 -1142)">
    <g id="Grupo_54431" data-name="Grupo 54431" transform="translate(562.564 1079.336)">
      <g id="Grupo_54425" data-name="Grupo 54425" transform="translate(497.77 62.664)">
        <circle id="Elipse_4090" data-name="Elipse 4090" cx="15.832" cy="15.832" r="15.832" fill="#fff"/>
        <g id="Grupo_54424" data-name="Grupo 54424" transform="translate(8.778 3.84)">
          <g id="Grupo_54421" data-name="Grupo 54421">
            <path id="Trazado_102024" data-name="Trazado 102024" d="M561.845,81.88a5.006,5.006,0,0,1,6.933,0" transform="translate(-558.257 -73.911)" fill="none" stroke="#7fec90" stroke-linecap="round" stroke-linejoin="round" stroke-width="2"/>
            <path id="Trazado_102025" data-name="Trazado 102025" d="M558.775,76.977a7.6,7.6,0,0,1,10.521,0" transform="translate(-556.981 -71.573)" fill="none" stroke="#7fec90" stroke-linecap="round" stroke-linejoin="round" stroke-width="2"/>
            <path id="Trazado_102026" data-name="Trazado 102026" d="M555.705,72.073a10.187,10.187,0,0,1,14.109,0" transform="translate(-555.705 -69.235)" fill="none" stroke="#7fec90" stroke-linecap="round" stroke-linejoin="round" stroke-width="2"/>
          </g>
          <g id="Grupo_54423" data-name="Grupo 54423" transform="translate(3.949 9.963)">
            <path id="Trazado_102027" data-name="Trazado 102027" d="M566.419,95.3h0a1.91,1.91,0,0,1-1.91-1.91v-5.2a1.91,1.91,0,0,1,1.91-1.91h0a1.91,1.91,0,0,1,1.91,1.91v5.2A1.91,1.91,0,0,1,566.419,95.3Z" transform="translate(-563.313 -86.285)" fill="#80ed99"/>
            <g id="Grupo_54422" data-name="Grupo 54422" transform="translate(0 4.508)">
              <path id="Trazado_102028" data-name="Trazado 102028" d="M568.674,94v2.616a3.105,3.105,0,0,1-3.106,3.106h0a3.105,3.105,0,0,1-3.105-3.106V94" transform="translate(-562.463 -94)" fill="none" stroke="#7fec90" stroke-miterlimit="10" stroke-width="0.75"/>
              <line id="Línea_137" data-name="Línea 137" y2="3.792" transform="translate(3.106 5.721)" fill="none" stroke="#7fec90" stroke-miterlimit="10" stroke-width="0.75"/>
              <path id="Trazado_102095" data-name="Trazado 102095" d="M0,0H6.211" transform="translate(0 9.513)" fill="none" stroke="#7fec90" stroke-width="0.75"/>
            </g>
          </g>
        </g>
      </g>
      <g id="Grupo_54426" data-name="Grupo 54426" transform="translate(437.436 65.72)">
        <path id="Trazado_102029" data-name="Trazado 102029" d="M464.31,98.164a16.767,16.767,0,1,0-5.146,2.613l10.1,7.39Z" transform="translate(-437.436 -67.894)" fill="#57cc99"/>
        <path id="Trazado_102030" data-name="Trazado 102030" d="M469.364,90.613l-10.108-5.836a1.2,1.2,0,0,0-1.8,1.039V97.488a1.2,1.2,0,0,0,1.8,1.038l10.108-5.836A1.2,1.2,0,0,0,469.364,90.613Z" transform="translate(-445.758 -74.844)" fill="#fff"/>
      </g>
      <g id="Grupo_54430" data-name="Grupo 54430" transform="translate(446.241 91.682)">
        <path id="Trazado_102031" data-name="Trazado 102031" d="M542.851,428.92l5.752,4.273s8.382.986,8.3,4.684H535.77a1.854,1.854,0,0,1-1.8-2.3l1.648-6.656Z" transform="translate(-486.341 -243.913)" fill="#193d51"/>
        <path id="Trazado_102032" data-name="Trazado 102032" d="M462.038,428.92l5.752,4.273s8.382.986,8.3,4.684H454.957a1.854,1.854,0,0,1-1.8-2.3l1.649-6.656Z" transform="translate(-452.752 -243.913)" fill="#193d51"/>
        <path id="Trazado_102033" data-name="Trazado 102033" d="M502.151,248.217s6.465,45.078,6.957,51.547,2.137,54.788,2.137,54.788h-10.19l-5.588-55.8L484.7,266.624s-4.521,28.1-6.657,37.472-13.476,50.455-13.476,50.455H453.722l11.012-55.8-2.356-50.538Z" transform="translate(-453.01 -168.806)" fill="#22577a"/>
        <line id="Línea_139" data-name="Línea 139" x1="3.193" y2="19.372" transform="translate(31.693 77.999)" fill="none" stroke="#193d51" stroke-miterlimit="10" stroke-width="0.75"/>
        <path id="Trazado_102034" data-name="Trazado 102034" d="M513.853,245.8s.241,10.2-4.941,11.67" transform="translate(-475.949 -167.801)" fill="none" stroke="#193d50" stroke-miterlimit="10" stroke-width="0.75"/>
        <path id="Trazado_102035" data-name="Trazado 102035" d="M495.711,275.25c.292-.1,14.408-2.628,14.408-2.628" transform="translate(-470.462 -178.949)" fill="none" stroke="#193d50" stroke-miterlimit="10" stroke-width="0.75"/>
        <line id="Línea_140" data-name="Línea 140" x2="8.52" transform="translate(28.163 92.407)" fill="none" stroke="#193d50" stroke-miterlimit="10" stroke-width="0.75"/>
        <path id="Trazado_102036" data-name="Trazado 102036" d="M529.53,245.8s-2.763,9.142,5.239,10.558" transform="translate(-484.327 -167.801)" fill="none" stroke="#193d50" stroke-miterlimit="10" stroke-width="0.75"/>
        <path id="Trazado_102037" data-name="Trazado 102037" d="M476.384,244.8c-.1,9.053-3.937,11.852-7.031,12.253" transform="translate(-459.507 -167.386)" fill="none" stroke="#193d50" stroke-miterlimit="10" stroke-width="0.75"/>
        <path id="Trazado_102038" data-name="Trazado 102038" d="M522.814,120.487c2.863.521,4.944-.438,5.9-2.985s-2.657-5.2-6.218-4.574c-2.685-1.506-6.163.274-6.163.274s-4.026-.6-5.122,2-1.49,10.345-.594,12.377Z" transform="translate(-476.453 -112.322)" fill="#22577a"/>
        <path id="Trazado_102039" data-name="Trazado 102039" d="M542.3,182.454l1.151,7.286s14.956-15.942,15.887-18.188-.11-3.451.328-6.245.931-3.287,1.972-2.63c.986-1.479,1.48-1.863,2.137-1.753a6.114,6.114,0,0,1,2.356,1.315,3.236,3.236,0,0,1,1.151,1.424s1.2,1.863.438,3.4-4.383,6.3-4.383,6.3-8.1,17.744-10.82,23.2c-3.373,6.779-14.6,11.477-21.064,4.027s-3.013-16.983-3.013-16.983Z" transform="translate(-483.684 -132.516)" fill="#ff6fa2"/>
        <line id="Línea_141" data-name="Línea 141" x1="4.328" y2="4.52" transform="translate(55.441 57.224)" fill="none" stroke="#a82626" stroke-linecap="round" stroke-linejoin="round" stroke-width="0.5"/>
        <path id="Trazado_102040" data-name="Trazado 102040" d="M542.305,197.78l-13.86,1.15a19.521,19.521,0,0,0-.03,11.659l12.523-6.032a3.381,3.381,0,0,0,1.872-3.573Z" transform="translate(-483.686 -147.842)" fill="#ad3838"/>
        <path id="Trazado_102041" data-name="Trazado 102041" d="M496.413,151.39c1.717.573,7.027,2.713,11.3,4.457a10.646,10.646,0,0,1,6.564,8.754l1.615,15.47a56.372,56.372,0,0,1-13.081.843,41.89,41.89,0,0,1-.89,4.848c.712,2.849-.329,9.861-1.151,11.778,1.206,2.52,1.534,7.724.877,9.587H461.871l3.944-29.364H452.5a23.685,23.685,0,0,1,1.7-5.533c1.2-2.52,1.041-4.766,2.9-7.889s3.616-4.054,5.424-7.122,5.287-7.67,18.914-7.861Z" transform="translate(-452.503 -127.716)" fill="#fec94a"/>
        <path id="Trazado_102042" data-name="Trazado 102042" d="M515.89,180.071l-1.615-15.47a10.646,10.646,0,0,0-6.565-8.754c-4.27-1.744-9.579-3.884-11.3-4.457l-14.97-2.032c-13.628.192-17.107,4.793-18.914,7.861s-3.561,4-5.424,7.122-1.7,5.369-2.9,7.889a23.685,23.685,0,0,0-1.7,5.533h19.01l2.41-17.531,7.943-9.039s2.019,2.423,8,3.123c5.149.6,6.519-1.534,6.519-1.534l8.539,13.641a48.492,48.492,0,0,1-2.115,14.49A56.379,56.379,0,0,0,515.89,180.071Z" transform="translate(-452.503 -127.716)" fill="#ce9b36"/>
        <path id="Trazado_102043" data-name="Trazado 102043" d="M542.316,167.311s.822,1.808,0,5.643" transform="translate(-489.833 -135.178)" fill="none" stroke="#a82626" stroke-linecap="round" stroke-linejoin="round" stroke-width="0.5"/>
        <path id="Trazado_102044" data-name="Trazado 102044" d="M587.245,168.412a9.837,9.837,0,0,0,2.178,2.383" transform="translate(-508.507 -135.635)" fill="none" stroke="#a82626" stroke-linecap="round" stroke-linejoin="round" stroke-width="0.5"/>
        <path id="Trazado_102045" data-name="Trazado 102045" d="M586.353,174.012a4.624,4.624,0,0,1,1.189-3.989" transform="translate(-508.108 -136.305)" fill="none" stroke="#a82626" stroke-linecap="round" stroke-linejoin="round" stroke-width="0.5"/>
        <path id="Trazado_102046" data-name="Trazado 102046" d="M585.817,164.358c.931,1.068,1.4,1.534,1.068,1.945s-1.069-.055-1.726-.972" transform="translate(-507.64 -133.951)" fill="none" stroke="#a82626" stroke-linecap="round" stroke-linejoin="round" stroke-width="0.5"/>
        <path id="Trazado_102047" data-name="Trazado 102047" d="M589.142,163.233a3.869,3.869,0,0,0-1.781,1.381" transform="translate(-508.556 -133.483)" fill="none" stroke="#a82626" stroke-linecap="round" stroke-linejoin="round" stroke-width="0.5"/>
        <path id="Trazado_102048" data-name="Trazado 102048" d="M590.667,165.307a3.868,3.868,0,0,0-1.782,1.382" transform="translate(-509.189 -134.345)" fill="none" stroke="#a82626" stroke-linecap="round" stroke-linejoin="round" stroke-width="0.5"/>
        <path id="Trazado_102049" data-name="Trazado 102049" d="M592.447,167.23a3.867,3.867,0,0,0-1.782,1.382" transform="translate(-509.929 -135.144)" fill="none" stroke="#a82626" stroke-linecap="round" stroke-linejoin="round" stroke-width="0.5"/>
        <path id="Trazado_102050" data-name="Trazado 102050" d="M528.871,131.546c-.425,1.966-1.98,3.3-3.473,2.976s-2.36-2.179-1.935-4.145,1.981-3.3,3.474-2.976S529.3,129.579,528.871,131.546Z" transform="translate(-481.952 -118.569)" fill="#fff"/>
        <path id="Trazado_102051" data-name="Trazado 102051" d="M519.448,125.535S518.3,129.069,517.8,131s-1.561,4.684-3.863,4.972v4.068l3.055,1s-1.658,2.678-7.04,2.02a12.075,12.075,0,0,1-7.93-4.052l3.78-.329,1.972-8.258,1.807-1.89a4.272,4.272,0,0,0,3.246-4.068,7.468,7.468,0,0,0,3.985.576A4.119,4.119,0,0,0,519.448,125.535Z" transform="translate(-473.087 -117.37)" fill="#ff6fa2"/>
        <path id="Trazado_102052" data-name="Trazado 102052" d="M518.471,142.122a4.39,4.39,0,0,1-4.692-2.6.38.38,0,0,0-.73.033c-.4,1.817-.158,4.928,5.422,6.264Z" transform="translate(-477.616 -123.52)" fill="#ad3838"/>
        <path id="Trazado_102053" data-name="Trazado 102053" d="M509.33,134.03c-.767,2.9-5.446,10.428,3.156,15.705" transform="translate(-475.309 -121.345)" fill="none" stroke="#fff" stroke-linecap="round" stroke-linejoin="round" stroke-width="0.5"/>
        <path id="Trazado_102054" data-name="Trazado 102054" d="M517.738,137.311c-.061,3.451-.335,6.41-3.814,9.916s-5.054,3.561-6.923,8.546-1.376,7.779-2.143,11.066-2.769,5.2-3.287,9.948-2.683,17.006,2.658,17.061,5.012-16.271,6.929-18.9" transform="translate(-472.535 -122.709)" fill="none" stroke="#fff" stroke-linecap="round" stroke-linejoin="round" stroke-width="0.5"/>
        <path id="Trazado_102055" data-name="Trazado 102055" d="M513.629,128.25c-.425,1.967-1.981,3.3-3.474,2.976s-2.36-2.178-1.934-4.145,1.98-3.3,3.474-2.976S514.054,126.284,513.629,128.25Z" transform="translate(-475.617 -117.2)" fill="#fff"/>
        <g id="Grupo_54427" data-name="Grupo 54427" transform="translate(34.945 0.033)">
          <path id="Trazado_102056" data-name="Trazado 102056" d="M513.441,120.85l-1.138-.266a18.85,18.85,0,0,1,4.082-7.865,1.1,1.1,0,0,1,1.657.075h0C514.754,115.384,513.454,120.8,513.441,120.85Z" transform="translate(-512.303 -112.379)" fill="#fff"/>
        </g>
        <g id="Grupo_54428" data-name="Grupo 54428" transform="translate(34.956 38.707)">
          <path id="Trazado_102057" data-name="Trazado 102057" d="M517.959,192.75h-5.014a.622.622,0,0,1-.542-.928l6.963-12.353a1.785,1.785,0,0,1,1.554-.908h5.014a.622.622,0,0,1,.542.928l-6.964,12.353A1.784,1.784,0,0,1,517.959,192.75Z" transform="translate(-512.322 -178.561)" fill="#22577a"/>
          <path id="Trazado_102058" data-name="Trazado 102058" d="M527.119,181.129a1.5,1.5,0,0,1-1.125.706c-.39,0-.518-.316-.286-.706a1.5,1.5,0,0,1,1.125-.706C527.223,180.423,527.351,180.739,527.119,181.129Z" transform="translate(-517.838 -179.335)" fill="#fff"/>
        </g>
        <g id="Grupo_54429" data-name="Grupo 54429" transform="translate(0.886 43.218)">
          <path id="Trazado_102059" data-name="Trazado 102059" d="M493.1,186.28l-1.019,1.807c-.4.706.878,1.187,2.233.982a14.779,14.779,0,0,0,4.766-1.561c1.151-.74.761.413-.153,1.069.441.574.523,1.025-.422,1.724.288.576-.77,1.192-1.844,1.644.857.328,1.433-.37,1.556,0s-1.151.885-2.589,1.244-3.944.522-5.3,1.057-10.971,10.067-15.7,13.847-12.326,9.121-16.763,6.163-4.232-7.807-3.328-12,2.218-9.149,2.218-9.149h14.5l-.74,6.3s15.572-7.213,17.216-8.2S491.313,186.409,493.1,186.28Z" transform="translate(-454.019 -186.28)" fill="#ff6fa2"/>
          <path id="Trazado_102060" data-name="Trazado 102060" d="M523.331,192.011a10.132,10.132,0,0,0,4.331-1.568" transform="translate(-482.828 -188.01)" fill="none" stroke="#a82626" stroke-linecap="round" stroke-linejoin="round" stroke-width="0.5"/>
          <path id="Trazado_102061" data-name="Trazado 102061" d="M523,194.393a8.917,8.917,0,0,0,4.006-1.267" transform="translate(-482.692 -189.125)" fill="none" stroke="#a82626" stroke-linecap="round" stroke-linejoin="round" stroke-width="0.5"/>
          <path id="Trazado_102062" data-name="Trazado 102062" d="M523.331,196.509a4.461,4.461,0,0,0,2.142-.534" transform="translate(-482.828 -190.31)" fill="none" stroke="#a82626" stroke-linecap="round" stroke-linejoin="round" stroke-width="0.5"/>
          <line id="Línea_142" data-name="Línea 142" x1="8.464" y2="3.402" transform="translate(8.044 13.124)" fill="none" stroke="#a82626" stroke-linecap="round" stroke-linejoin="round" stroke-width="0.5"/>
          <path id="Trazado_102063" data-name="Trazado 102063" d="M471.826,198.441l.056-.475h-14.5s-1.018,3.839-1.878,7.617c3.659,1.849,9.973-2.568,13.953-4.064A3.742,3.742,0,0,0,471.826,198.441Z" transform="translate(-454.635 -191.138)" fill="#ad3838"/>
        </g>
      </g>
    </g>
    <g id="Grupo_54442" data-name="Grupo 54442" transform="translate(486.343 1109.355)">
      <g id="Grupo_54433" data-name="Grupo 54433" transform="translate(632.809 71.127)">
        <path id="Trazado_102064" data-name="Trazado 102064" d="M683.934,78.14c4.974-.041,9.581,5.323,9.727,10.789,2.7.875,3.06,3.8,2.769,6.27,2.551,2.767,1.9,7.139,1.9,7.139H666.842s-1.239-4.227,3.5-5.539c-.656-5.393,1.947-9.038,3.346-9.984C674.494,83.827,676.332,78.2,683.934,78.14Z" transform="translate(-646.108 -78.14)" fill="#ce9b36"/>
        <path id="Trazado_102065" data-name="Trazado 102065" d="M680.2,94.866c0,1.833-1.009,3.319-2.254,3.319s-2.254-1.486-2.254-3.319,1.009-3.319,2.254-3.319S680.2,93.033,680.2,94.866Z" transform="translate(-648.11 -81.125)" fill="#fff"/>
        <path id="Trazado_102066" data-name="Trazado 102066" d="M685.906,114.513c7.762,3.06,15.05,7,19.421,15.85a139.175,139.175,0,0,1,7.252,18.256h-9.511l-1.421,26.564h-44.6l1.2-22.957H640.212s4.263-14.976,6.559-22.956,17.053-13.336,21.644-16.251Z" transform="translate(-640.212 -85.905)" fill="#22577a"/>
        <path id="Trazado_102067" data-name="Trazado 102067" d="M658.185,138.058c-.592,4.456-1.269,13.883,2.474,19.5h-9.4S649.87,149.347,653.99,144a10.355,10.355,0,0,1,2.5-6.724A.979.979,0,0,1,658.185,138.058Z" transform="translate(-642.621 -91.233)" fill="#193d51"/>
        <line id="Línea_143" data-name="Línea 143" x2="3.498" y2="14.648" transform="translate(47.88 47.847)" fill="none" stroke="#193d51" stroke-linecap="round" stroke-linejoin="round" stroke-width="0.5"/>
        <path id="Trazado_102068" data-name="Trazado 102068" d="M714.736,158.816s2.3,9.237,3.061,14.921-1.094,13.719-9.62,13.719h-35.2v-6.668l29.187-6.45-3.279-15.522Z" transform="translate(-647.507 -96.102)" fill="#ff6fa2"/>
        <line id="Línea_144" data-name="Línea 144" y1="1.202" x2="7.907" transform="translate(54.658 77.034)" fill="none" stroke="#a82626" stroke-linecap="round" stroke-linejoin="round" stroke-width="0.5"/>
        <path id="Trazado_102069" data-name="Trazado 102069" d="M689.5,99.66s-.839,4.956.547,7.652a11.761,11.761,0,0,0,3.935,4.227,20.7,20.7,0,0,1-10.093,2.3c-6.34,0-7.4-3.79-7.4-3.79l4.118-2.514.218-5.83Z" transform="translate(-648.29 -82.931)" fill="#ff6fa2"/>
        <path id="Trazado_102070" data-name="Trazado 102070" d="M684.135,86.441s.358,6.53,7.829,6.821c0,0,.407,7.823-7.974,7.754-4.409-.037-4.774-4.519-3.863-6.413l-.309-3.224a1.749,1.749,0,0,1,.7-1.573A18.729,18.729,0,0,0,684.135,86.441Z" transform="translate(-649.009 -79.988)" fill="#ff6fa2"/>
        <path id="Trazado_102071" data-name="Trazado 102071" d="M684.47,104.719a4.46,4.46,0,0,1-2.5-.7l-.092,2.462a5.429,5.429,0,0,0,1.048.116c3.96.033,5.955-1.7,6.961-3.53A8.081,8.081,0,0,1,684.47,104.719Z" transform="translate(-649.488 -83.69)" fill="#a82626"/>
        <path id="Trazado_102072" data-name="Trazado 102072" d="M698.713,94.96c0,2.093-1.152,3.79-2.574,3.79s-2.574-1.7-2.574-3.79,1.152-3.791,2.574-3.791S698.713,92.867,698.713,94.96Z" transform="translate(-652.091 -81.041)" fill="#fff"/>
        <g id="Grupo_54432" data-name="Grupo 54432" transform="translate(28.593 1.23)">
          <path id="Trazado_102073" data-name="Trazado 102073" d="M693.671,90.192h-1.555c0-1.489-.327-8.915-6.765-8.915-6.14,0-6.8,5.776-6.8,8.259h-1.555c0-4.744,2.2-9.814,8.357-9.814C691.492,79.722,693.671,85.362,693.671,90.192Z" transform="translate(-676.994 -79.722)" fill="#fff"/>
        </g>
      </g>
      <g id="Grupo_54434" data-name="Grupo 54434" transform="translate(685.1 46.644)">
        <path id="Trazado_102074" data-name="Trazado 102074" d="M722.918,46.732A17.193,17.193,0,0,0,711.348,74.7a3.047,3.047,0,0,1,.26,3.461l-3.4,5.832,6.758-3.6a4.97,4.97,0,0,1,3.984-.337,17.2,17.2,0,1,0,3.969-33.327Z" transform="translate(-707.481 -46.644)" fill="#fff"/>
        <path id="Trazado_102075" data-name="Trazado 102075" d="M731.985,59.4c-2.843-.076-4.628,2.959-4.628,2.959s-1.785-3.036-4.627-2.959-3.9,4.022-2.777,6.906,4.694,5.843,7.4,7.665c2.711-1.821,6.28-4.781,7.4-7.665S734.827,59.471,731.985,59.4Z" transform="translate(-710.16 -49.483)" fill="#57cc99"/>
      </g>
      <g id="Grupo_54436" data-name="Grupo 54436" transform="translate(617.468 127.145)">
        <g id="Grupo_54435" data-name="Grupo 54435">
          <path id="Trazado_102076" data-name="Trazado 102076" d="M680.528,185.538h-49.7L620.478,150.2h49.7Z" transform="translate(-620.478 -150.202)" fill="#fff"/>
          <path id="Trazado_102077" data-name="Trazado 102077" d="M664.061,170.906c1.144,3.9-1.094,7.068-5,7.068a10.209,10.209,0,0,1-9.139-7.068c-1.143-3.9,1.095-7.069,5-7.069A10.207,10.207,0,0,1,664.061,170.906Z" transform="translate(-626.967 -153.238)" fill="none" stroke="#214d6e" stroke-miterlimit="10" stroke-width="0.75"/>
        </g>
        <line id="Línea_145" data-name="Línea 145" x2="9.222" y2="33.159" transform="translate(47.425 2.178)" fill="none" stroke="#214d6e" stroke-miterlimit="10" stroke-width="0.75"/>
      </g>
      <path id="Trazado_102097" data-name="Trazado 102097" d="M0,0H136.7V8.021H0Z" transform="translate(606.96 160.405)" fill="#ffc94a"/>
      <g id="Grupo_54438" data-name="Grupo 54438" transform="translate(703.625 116.259)">
        <g id="Trazado_102078" data-name="Trazado 102078" transform="translate(-731.312 -141.661)" fill="none" stroke-miterlimit="10">
          <path d="M757.987,160.736H745.635l8.454,22.938H731.312v1.494h35.68Z" stroke="none"/>
          <path d="M 745.6353759765625 160.7362976074219 L 754.0897216796875 183.67431640625 L 731.3115844726562 183.67431640625 L 731.3115844726562 185.1683044433594 L 766.991455078125 185.1683044433594 L 757.9865112304688 160.7362976074219 L 745.6353759765625 160.7362976074219 M 744.5596313476562 159.9862976074219 L 758.5093994140625 159.9862976074219 L 768.0671997070312 185.9183044433594 L 730.5615844726562 185.9183044433594 L 730.5615844726562 182.92431640625 L 753.0139770507812 182.92431640625 L 744.5596313476562 159.9862976074219 Z" stroke="none" fill="#214d6e"/>
        </g>
        <path id="Trazado_102079" data-name="Trazado 102079" d="M759.016,185.91h9.944l-15.521-15.132Z" transform="translate(-736.238 -143.896)" fill="#193d51"/>
        <g id="Grupo_54437" data-name="Grupo 54437" transform="translate(0.724)">
          <path id="Trazado_102080" data-name="Trazado 102080" d="M751.6,174.348H737.341c-1.979,0-3.085-1.6-2.468-3.584l9.646-30.984a5.3,5.3,0,0,1,4.7-3.584h14.258c1.979,0,3.084,1.6,2.468,3.584L756.3,170.764A5.3,5.3,0,0,1,751.6,174.348Z" transform="translate(-732.79 -136.197)" fill="#193d51"/>
          <path id="Trazado_102081" data-name="Trazado 102081" d="M749.14,174.348H734.881c-1.979,0-3.084-1.6-2.468-3.584l9.646-30.984a5.3,5.3,0,0,1,4.7-3.584h14.258c1.979,0,3.084,1.6,2.468,3.584l-9.647,30.984A5.3,5.3,0,0,1,749.14,174.348Z" transform="translate(-732.242 -136.197)" fill="#22577a"/>
          <path id="Trazado_102082" data-name="Trazado 102082" d="M749.746,172.714H737.139a1.607,1.607,0,0,1-1.558-2.262l9.043-29.047a3.346,3.346,0,0,1,2.966-2.262H760.2a1.607,1.607,0,0,1,1.558,2.262l-9.044,29.047A3.344,3.344,0,0,1,749.746,172.714Z" transform="translate(-732.962 -136.853)" fill="#fff"/>
          <path id="Trazado_102083" data-name="Trazado 102083" d="M754.508,158.5l-5.645-3.973a.844.844,0,0,0-1.291.439L745.1,162.91a.844.844,0,0,0,1.177,1.009l8.119-3.973A.845.845,0,0,0,754.508,158.5Z" transform="translate(-735.096 -140.243)" fill="#57cc99"/>
        </g>
      </g>
      <g id="Grupo_54439" data-name="Grupo 54439" transform="translate(615.14 168.426)">
        <line id="Línea_146" data-name="Línea 146" y1="18.288" fill="none" stroke="#fff" stroke-miterlimit="10" stroke-width="0.75"/>
        <line id="Línea_147" data-name="Línea 147" y1="18.288" transform="translate(120.337)" fill="none" stroke="#fff" stroke-miterlimit="10" stroke-width="0.75"/>
      </g>
      <path id="Trazado_102084" data-name="Trazado 102084" d="M626.881,223.147V210.285H732.606v12.863" transform="translate(-4.435 -36.433)" fill="none" stroke="#fff" stroke-miterlimit="10" stroke-width="0.75"/>
      <g id="Grupo_54441" data-name="Grupo 54441" transform="translate(706.908 90.107)">
        <path id="Trazado_102085" data-name="Trazado 102085" d="M766.013,115.3c0-7.041-6.823-12.749-15.24-12.749s-15.239,5.708-15.239,12.749c0,5.389,4,10,9.646,11.862a5.718,5.718,0,0,1,3.549,3.573l2.063,5.884,2.042-5.885a5.7,5.7,0,0,1,3.538-3.574C762.019,125.3,766.013,120.692,766.013,115.3Z" transform="translate(-735.534 -102.555)" fill="#80ed99"/>
        <g id="Grupo_54440" data-name="Grupo 54440" transform="translate(7.276 6.971)">
          <path id="Trazado_102086" data-name="Trazado 102086" d="M747.207,114.1a2.756,2.756,0,1,1,2.75,2.573A2.588,2.588,0,0,1,747.207,114.1Zm4.086,0a1.338,1.338,0,1,0-1.336,1.413A1.325,1.325,0,0,0,751.293,114.1Z" transform="translate(-745.409 -111.523)" fill="#22577a"/>
          <path id="Trazado_102087" data-name="Trazado 102087" d="M761.748,111.651V116.6H760.6l-2.184-2.638V116.6H757.04v-4.949h1.152l2.184,2.637v-2.637Z" transform="translate(-747.598 -111.551)" fill="#22577a"/>
          <path id="Trazado_102088" data-name="Trazado 102088" d="M748.8,123.968h-2.093l-.389.962h-1.428l2.184-4.949h1.378l2.192,4.949h-1.456Zm-.41-1.032-.636-1.583-.636,1.583Z" transform="translate(-744.894 -113.406)" fill="#22577a"/>
          <path id="Trazado_102089" data-name="Trazado 102089" d="M754.619,119.981h1.4v4.949h-1.4Z" transform="translate(-747.059 -113.406)" fill="#22577a"/>
          <path id="Trazado_102090" data-name="Trazado 102090" d="M761.681,123.615h-.764v1.315h-1.4v-4.949h2.263c1.35,0,2.2.7,2.2,1.831a1.642,1.642,0,0,1-.969,1.562l1.067,1.555h-1.5Zm.013-2.531h-.777v1.449h.777c.58,0,.87-.269.87-.721S762.274,121.084,761.694,121.084Z" transform="translate(-748.15 -113.406)" fill="#22577a"/>
        </g>
      </g>
    </g>
    <g id="Grupo_54444" data-name="Grupo 54444" transform="translate(527.218 1054.854)">
      <path id="Trazado_102091" data-name="Trazado 102091" d="M598.137,439.934c0,1.432-5.207,2.593-11.631,2.593s-11.631-1.161-11.631-2.593,5.207-2.593,11.631-2.593S598.137,438.5,598.137,439.934Z" transform="translate(-14.687 -135.141)" fill="none" stroke="#214d6e" stroke-miterlimit="10" stroke-width="0.75"/>
      <path id="Trazado_102092" data-name="Trazado 102092" d="M583.59,308.709V164.587L563.767,150.6l-3.165,2.809" transform="translate(-8.155 -3.917)" fill="none" stroke="#214d6e" stroke-miterlimit="10" stroke-width="0.75"/>
      <path id="Trazado_102093" data-name="Trazado 102093" d="M603.173,175.43a1.2,1.2,0,1,1-1.195-1.195A1.195,1.195,0,0,1,603.173,175.43Z" transform="translate(-26.543 -14.734)" fill="#22577a"/>
      <circle id="Elipse_4091" data-name="Elipse 4091" cx="1.195" cy="1.195" r="1.195" transform="translate(554.372 145.486)" fill="#22577a"/>
      <path id="Trazado_102094" data-name="Trazado 102094" d="M560.788,154.552a1.2,1.2,0,1,1-1.195-1.195A1.195,1.195,0,0,1,560.788,154.552Z" transform="translate(-7.146 -5.18)" fill="#22577a"/>
      <g id="Grupo_54443" data-name="Grupo 54443" transform="translate(542.782 142.038)">
        <rect id="Rectángulo_5585" data-name="Rectángulo 5585" width="1.64" height="4.347" transform="matrix(0.845, -0.535, 0.535, 0.845, 8.24, 12.417)" fill="#fff"/>
        <path id="Trazado_102096" data-name="Trazado 102096" d="M0,0H5.338V9.076H0Z" transform="matrix(0.845, -0.535, 0.535, 0.845, 2.537, 6.864)" fill="#377aa0"/>
        <path id="Rectángulo_5587" data-name="Rectángulo 5587" d="M2.669,0h0A2.669,2.669,0,0,1,5.338,2.669V4.745a0,0,0,0,1,0,0H0a0,0,0,0,1,0,0V2.669A2.669,2.669,0,0,1,2.669,0Z" transform="matrix(0.845, -0.535, 0.535, 0.845, 0, 2.855)" fill="#22577a"/>
        <rect id="Rectángulo_5588" data-name="Rectángulo 5588" width="1.22" height="0.686" transform="matrix(0.845, -0.535, 0.535, 0.845, 3.625, 8.583)" fill="#22577a"/>
        <rect id="Rectángulo_5589" data-name="Rectángulo 5589" width="1.22" height="0.686" transform="translate(4.597 10.119) rotate(-32.328)" fill="#22577a"/>
        <rect id="Rectángulo_5590" data-name="Rectángulo 5590" width="1.22" height="0.686" transform="translate(5.569 11.655) rotate(-32.328)" fill="#22577a"/>
        <rect id="Rectángulo_5591" data-name="Rectángulo 5591" width="1.22" height="0.686" transform="translate(7.105 6.38) rotate(-32.33)" fill="#22577a"/>
        <rect id="Rectángulo_5592" data-name="Rectángulo 5592" width="1.22" height="0.686" transform="translate(8.077 7.916) rotate(-32.33)" fill="#22577a"/>
        <rect id="Rectángulo_5593" data-name="Rectángulo 5593" width="1.22" height="0.686" transform="translate(9.049 9.452) rotate(-32.33)" fill="#22577a"/>
      </g>
    </g>
  </g>
</svg>
