<svg xmlns="http://www.w3.org/2000/svg" width="505" height="366.287" viewBox="0 0 505 366.287">
  <g id="Grupo_54607" data-name="Grupo 54607" transform="translate(0 -58.73)">
    <g id="Background_Complete" data-name="Background Complete" transform="translate(0 58.73)">
      <g id="Grupo_54449" data-name="Grupo 54449" transform="translate(40.001)">
        <path id="Trazado_102138" data-name="Trazado 102138" d="M240.383,344.358H45.362a5.766,5.766,0,0,1-5.757-5.767V64.447a5.767,5.767,0,0,1,5.757-5.717H240.383A5.768,5.768,0,0,1,246.15,64.5h0V338.591A5.767,5.767,0,0,1,240.383,344.358ZM45.362,58.932a5.515,5.515,0,0,0-5.5,5.515V338.591a5.514,5.514,0,0,0,5.5,5.515H240.383a5.524,5.524,0,0,0,5.515-5.515V64.447a5.526,5.526,0,0,0-5.515-5.515Z" transform="translate(-39.605 -58.73)" fill="#bf9941"/>
        <path id="Trazado_102139" data-name="Trazado 102139" d="M456.693,344.358H261.662a5.776,5.776,0,0,1-5.767-5.767V64.447a5.778,5.778,0,0,1,5.767-5.717H456.693a5.767,5.767,0,0,1,5.747,5.717V338.591A5.767,5.767,0,0,1,456.693,344.358ZM261.662,58.932a5.525,5.525,0,0,0-5.515,5.515V338.591a5.524,5.524,0,0,0,5.515,5.515H456.693a5.524,5.524,0,0,0,5.515-5.515V64.447a5.526,5.526,0,0,0-5.515-5.515Z" transform="translate(-37.442 -58.73)" fill="#bf9941"/>
      </g>
      <g id="Grupo_54450" data-name="Grupo 54450" transform="translate(54.328 334.795)">
        <rect id="Rectángulo_5597" data-name="Rectángulo 5597" width="41.622" height="0.252" transform="translate(0 2.02)" fill="#bf9941"/>
        <rect id="Rectángulo_5598" data-name="Rectángulo 5598" width="41.743" height="0.252" transform="translate(84.719)" fill="#bf9941"/>
        <rect id="Rectángulo_5599" data-name="Rectángulo 5599" width="10.1" height="0.252" transform="translate(170.68)" fill="#bf9941"/>
        <rect id="Rectángulo_5600" data-name="Rectángulo 5600" width="46.713" height="0.252" transform="translate(33.118 8.625)" fill="#bf9941"/>
        <rect id="Rectángulo_5601" data-name="Rectángulo 5601" width="21.816" height="0.252" transform="translate(219.584 1.889)" fill="#bf9941"/>
        <rect id="Rectángulo_5602" data-name="Rectángulo 5602" width="28.209" height="0.252" transform="translate(250.389 1.889)" fill="#bf9941"/>
        <rect id="Rectángulo_5603" data-name="Rectángulo 5603" width="63.064" height="0.252" transform="translate(351.581 6.161)" fill="#bf9941"/>
      </g>
      <rect id="Rectángulo_5604" data-name="Rectángulo 5604" width="505" height="0.252" transform="translate(0 326.907)" fill="#bf9941"/>
      <g id="Grupo_54474" data-name="Grupo 54474" transform="translate(51.07 36.592)">
        <g id="Grupo_54452" data-name="Grupo 54452" transform="translate(16.693)">
          <g id="Grupo_54451" data-name="Grupo 54451" transform="translate(14.544 5.419)">
            <rect id="Rectángulo_5605" data-name="Rectángulo 5605" width="1.818" height="141.77" fill="#bf9941"/>
            <rect id="Rectángulo_5606" data-name="Rectángulo 5606" width="1.818" height="141.77" transform="translate(113.17)" fill="#bf9941"/>
          </g>
          <path id="Trazado_102140" data-name="Trazado 102140" d="M203.7,109.213H74.469l-2.727-6.363H206.426Z" transform="translate(-67.046 -94.881)" fill="#f0c755"/>
          <path id="Trazado_102141" data-name="Trazado 102141" d="M203.7,117.862H74.469L71.742,111.5H206.426Z" transform="translate(-67.046 -94.794)" fill="#f0c755"/>
          <path id="Trazado_102142" data-name="Trazado 102142" d="M203.7,126.512H74.469l-2.727-6.363H206.426Z" transform="translate(-67.046 -94.708)" fill="#f0c755"/>
          <path id="Trazado_102143" data-name="Trazado 102143" d="M203.7,135.161H74.469L71.742,128.8H206.426Z" transform="translate(-67.046 -94.621)" fill="#f0c755"/>
          <path id="Trazado_102144" data-name="Trazado 102144" d="M203.7,143.81H74.469l-2.727-6.363H206.426Z" transform="translate(-67.046 -94.535)" fill="#f0c755"/>
          <path id="Trazado_102145" data-name="Trazado 102145" d="M203.7,152.46H74.469L71.742,146.1H206.426Z" transform="translate(-67.046 -94.448)" fill="#f0c755"/>
          <path id="Trazado_102146" data-name="Trazado 102146" d="M203.7,161.109H74.469l-2.727-6.363H206.426Z" transform="translate(-67.046 -94.362)" fill="#f0c755"/>
          <path id="Trazado_102147" data-name="Trazado 102147" d="M203.7,169.759H74.469L71.742,163.4H206.426Z" transform="translate(-67.046 -94.275)" fill="#f0c755"/>
          <path id="Trazado_102148" data-name="Trazado 102148" d="M203.7,178.408H74.469l-2.727-6.363H206.426Z" transform="translate(-67.046 -94.189)" fill="#f0c755"/>
          <path id="Trazado_102149" data-name="Trazado 102149" d="M203.7,187.057H74.469l-2.727-6.363H206.426Z" transform="translate(-67.046 -94.102)" fill="#f0c755"/>
          <path id="Trazado_102150" data-name="Trazado 102150" d="M203.7,195.707H74.469l-2.727-6.363H206.426Z" transform="translate(-67.046 -94.016)" fill="#f0c755"/>
          <path id="Trazado_102151" data-name="Trazado 102151" d="M203.7,204.356H74.469l-2.727-6.363H206.426Z" transform="translate(-67.046 -93.929)" fill="#f0c755"/>
          <path id="Trazado_102152" data-name="Trazado 102152" d="M203.7,213.006H74.469l-2.727-6.363H206.426Z" transform="translate(-67.046 -93.843)" fill="#f0c755"/>
          <path id="Trazado_102153" data-name="Trazado 102153" d="M203.7,221.655H74.469l-2.727-6.363H206.426Z" transform="translate(-67.046 -93.756)" fill="#f0c755"/>
          <path id="Trazado_102154" data-name="Trazado 102154" d="M203.7,230.3H74.469l-2.727-6.363H206.426Z" transform="translate(-67.046 -93.67)" fill="#f0c755"/>
          <path id="Trazado_102155" data-name="Trazado 102155" d="M203.7,238.954H74.469l-2.727-6.363H206.426Z" transform="translate(-67.046 -93.583)" fill="#f0c755"/>
          <rect id="Rectángulo_5607" data-name="Rectángulo 5607" width="134.684" height="3.636" transform="translate(4.696 145.371)" fill="#bf9941"/>
          <rect id="Rectángulo_5608" data-name="Rectángulo 5608" width="144.076" height="8.485" fill="#bf9941"/>
          <path id="Trazado_102156" data-name="Trazado 102156" d="M68.572,180.039h0a1.466,1.466,0,0,1-1.466-1.467V129.09a1.466,1.466,0,0,1,1.466-1.467h0a1.466,1.466,0,0,1,1.466,1.467v49.483A1.466,1.466,0,0,1,68.572,180.039Z" transform="translate(-67.092 -94.633)" fill="#bf9941"/>
          <rect id="Rectángulo_5609" data-name="Rectángulo 5609" width="1.06" height="29.389" transform="translate(0.949 6.783)" fill="#bf9941"/>
        </g>
        <g id="Grupo_54456" data-name="Grupo 54456" transform="translate(0 106.835)">
          <g id="Grupo_54453" data-name="Grupo 54453" transform="translate(235.735 84.494)">
            <rect id="Rectángulo_5610" data-name="Rectángulo 5610" width="76.565" height="82.411" transform="translate(78.871 6.131)" fill="#bf9941"/>
            <rect id="Rectángulo_5611" data-name="Rectángulo 5611" width="9.624" height="99.235" transform="translate(157.501)" fill="#bf9941"/>
            <rect id="Rectángulo_5612" data-name="Rectángulo 5612" width="6.273" height="30.797" transform="translate(91.059 12.618)" fill="#fafafa"/>
            <rect id="Rectángulo_5613" data-name="Rectángulo 5613" width="6.274" height="30.797" transform="translate(117.07 12.618)" fill="#f5dc9d"/>
            <rect id="Rectángulo_5614" data-name="Rectángulo 5614" width="6.274" height="28.633" transform="translate(97.332 14.783)" fill="#f5dc9d"/>
            <rect id="Rectángulo_5615" data-name="Rectángulo 5615" width="6.274" height="28.633" transform="translate(110.797 14.783)" fill="#fafafa"/>
            <rect id="Rectángulo_5616" data-name="Rectángulo 5616" width="4.054" height="30.797" transform="translate(106.743 12.618)" fill="#f0c755"/>
            <rect id="Rectángulo_5617" data-name="Rectángulo 5617" width="3.137" height="28.633" transform="translate(103.606 14.783)" fill="#fafafa"/>
            <rect id="Rectángulo_5618" data-name="Rectángulo 5618" width="6.273" height="30.797" transform="translate(123.344 12.618)" fill="#f0c755"/>
            <rect id="Rectángulo_5619" data-name="Rectángulo 5619" width="6.274" height="28.633" transform="translate(129.617 14.783)" fill="#bf9941"/>
            <rect id="Rectángulo_5620" data-name="Rectángulo 5620" width="6.273" height="28.633" transform="translate(143.081 14.783)" fill="#bf9941"/>
            <rect id="Rectángulo_5621" data-name="Rectángulo 5621" width="4.054" height="30.797" transform="translate(139.027 12.618)" fill="#fafafa"/>
            <rect id="Rectángulo_5622" data-name="Rectángulo 5622" width="3.137" height="28.633" transform="translate(135.891 14.783)" fill="#f0c755"/>
            <rect id="Rectángulo_5623" data-name="Rectángulo 5623" width="3.137" height="30.067" transform="translate(149.355 13.348)" fill="#fafafa"/>
            <rect id="Rectángulo_5624" data-name="Rectángulo 5624" width="6.274" height="30.797" transform="translate(152.492 84.692) rotate(180)" fill="#fafafa"/>
            <rect id="Rectángulo_5625" data-name="Rectángulo 5625" width="6.273" height="30.797" transform="translate(126.48 84.692) rotate(180)" fill="#fafafa"/>
            <rect id="Rectángulo_5626" data-name="Rectángulo 5626" width="6.273" height="28.633" transform="translate(146.218 84.692) rotate(180)" fill="#f0c755"/>
            <rect id="Rectángulo_5627" data-name="Rectángulo 5627" width="6.274" height="28.633" transform="translate(132.754 84.692) rotate(180)" fill="#f0c755"/>
            <rect id="Rectángulo_5628" data-name="Rectángulo 5628" width="4.054" height="30.797" transform="translate(136.808 84.692) rotate(180)" fill="#fafafa"/>
            <rect id="Rectángulo_5629" data-name="Rectángulo 5629" width="3.137" height="28.633" transform="translate(139.945 84.692) rotate(180)" fill="#f5dc9d"/>
            <rect id="Rectángulo_5630" data-name="Rectángulo 5630" width="6.274" height="30.797" transform="translate(120.207 84.692) rotate(180)" fill="#f0c755"/>
            <rect id="Rectángulo_5631" data-name="Rectángulo 5631" width="6.274" height="28.633" transform="translate(113.933 84.692) rotate(180)" fill="#f5dc9d"/>
            <rect id="Rectángulo_5632" data-name="Rectángulo 5632" width="6.274" height="28.633" transform="translate(100.469 84.692) rotate(180)" fill="#bf9941"/>
            <rect id="Rectángulo_5633" data-name="Rectángulo 5633" width="4.054" height="30.797" transform="translate(104.523 84.692) rotate(180)" fill="#fafafa"/>
            <rect id="Rectángulo_5634" data-name="Rectángulo 5634" width="4.054" height="30.797" transform="translate(91.059 84.692) rotate(180)" fill="#fafafa"/>
            <rect id="Rectángulo_5635" data-name="Rectángulo 5635" width="3.137" height="28.633" transform="translate(107.66 84.692) rotate(180)" fill="#f0c755"/>
            <rect id="Rectángulo_5636" data-name="Rectángulo 5636" width="3.137" height="30.068" transform="translate(94.196 84.692) rotate(180)" fill="#f0c755"/>
            <path id="Trazado_102157" data-name="Trazado 102157" d="M438.258,284.394h-78.6v93.673h76.037v5.561h5.133V284.394Zm-2.566,84.692h-71.2v-36.11h71.2Zm0-41.242h-71.2V293.376h71.2Z" transform="translate(-283.208 -284.394)" fill="#f0c755"/>
            <rect id="Rectángulo_5637" data-name="Rectángulo 5637" width="76.565" height="82.411" transform="translate(78.746 88.542) rotate(180)" fill="#bf9941"/>
            <rect id="Rectángulo_5638" data-name="Rectángulo 5638" width="9.624" height="6.568" transform="translate(14.749 99.235) rotate(180)" fill="#bf9941"/>
            <rect id="Rectángulo_5639" data-name="Rectángulo 5639" width="6.273" height="30.797" transform="translate(76.166 43.415) rotate(180)" fill="#fafafa"/>
            <rect id="Rectángulo_5640" data-name="Rectángulo 5640" width="6.274" height="30.797" transform="translate(50.155 43.415) rotate(180)" fill="#f5dc9d"/>
            <rect id="Rectángulo_5641" data-name="Rectángulo 5641" width="6.274" height="28.633" transform="translate(69.893 43.415) rotate(180)" fill="#f5dc9d"/>
            <rect id="Rectángulo_5642" data-name="Rectángulo 5642" width="6.274" height="28.633" transform="translate(56.429 43.415) rotate(180)" fill="#fafafa"/>
            <rect id="Rectángulo_5643" data-name="Rectángulo 5643" width="4.054" height="30.797" transform="translate(60.483 43.415) rotate(180)" fill="#f0c755"/>
            <rect id="Rectángulo_5644" data-name="Rectángulo 5644" width="3.137" height="28.633" transform="translate(63.619 43.415) rotate(180)" fill="#fafafa"/>
            <rect id="Rectángulo_5645" data-name="Rectángulo 5645" width="6.273" height="30.797" transform="translate(48.017 43.415) rotate(180)" fill="#f0c755"/>
            <rect id="Rectángulo_5646" data-name="Rectángulo 5646" width="6.274" height="28.633" transform="translate(41.744 43.415) rotate(180)" fill="#bf9941"/>
            <rect id="Rectángulo_5647" data-name="Rectángulo 5647" width="6.274" height="28.633" transform="translate(28.28 43.415) rotate(180)" fill="#bf9941"/>
            <rect id="Rectángulo_5648" data-name="Rectángulo 5648" width="4.054" height="30.797" transform="translate(32.334 43.415) rotate(180)" fill="#fafafa"/>
            <rect id="Rectángulo_5649" data-name="Rectángulo 5649" width="3.137" height="28.633" transform="translate(35.47 43.415) rotate(180)" fill="#f0c755"/>
            <rect id="Rectángulo_5650" data-name="Rectángulo 5650" width="3.137" height="30.067" transform="translate(22.006 43.415) rotate(180)" fill="#f5dc9d"/>
            <rect id="Rectángulo_5651" data-name="Rectángulo 5651" width="6.274" height="30.797" transform="translate(15.923 53.895)" fill="#fafafa"/>
            <rect id="Rectángulo_5652" data-name="Rectángulo 5652" width="6.273" height="30.797" transform="translate(41.934 53.895)" fill="#fafafa"/>
            <rect id="Rectángulo_5653" data-name="Rectángulo 5653" width="6.273" height="28.633" transform="translate(22.196 56.059)" fill="#f5dc9d"/>
            <rect id="Rectángulo_5654" data-name="Rectángulo 5654" width="6.274" height="28.633" transform="translate(35.661 56.059)" fill="#f0c755"/>
            <rect id="Rectángulo_5655" data-name="Rectángulo 5655" width="4.054" height="30.797" transform="translate(31.607 53.895)" fill="#fafafa"/>
            <rect id="Rectángulo_5656" data-name="Rectángulo 5656" width="3.137" height="28.633" transform="translate(28.47 56.059)" fill="#f5dc9d"/>
            <rect id="Rectángulo_5657" data-name="Rectángulo 5657" width="6.274" height="30.797" transform="translate(44.072 53.895)" fill="#f0c755"/>
            <rect id="Rectángulo_5658" data-name="Rectángulo 5658" width="6.274" height="28.633" transform="translate(50.345 56.059)" fill="#f5dc9d"/>
            <rect id="Rectángulo_5659" data-name="Rectángulo 5659" width="6.274" height="28.633" transform="translate(63.809 56.059)" fill="#bf9941"/>
            <rect id="Rectángulo_5660" data-name="Rectángulo 5660" width="4.054" height="30.797" transform="translate(59.756 53.895)" fill="#fafafa"/>
            <rect id="Rectángulo_5661" data-name="Rectángulo 5661" width="4.054" height="30.797" transform="translate(72.393 53.895)" fill="#fafafa"/>
            <rect id="Rectángulo_5662" data-name="Rectángulo 5662" width="3.137" height="28.633" transform="translate(56.619 56.059)" fill="#f0c755"/>
            <rect id="Rectángulo_5663" data-name="Rectángulo 5663" width="3.137" height="30.068" transform="translate(70.083 54.624)" fill="#f0c755"/>
            <path id="Trazado_102158" data-name="Trazado 102158" d="M283.965,284.394v99.234H289.1v-5.561h76.037V284.394h-81.17Zm5.133,48.582h71.2v36.11H289.1Zm0-39.6h71.2v34.467H289.1Z" transform="translate(-283.965 -284.394)" fill="#f0c755"/>
          </g>
          <g id="Grupo_54455" data-name="Grupo 54455">
            <path id="Trazado_102159" data-name="Trazado 102159" d="M94.085,351.363s-7.352-34.74,6.036-53.558-12.1-.216-15.031,17.4c0,0-4.394-31.5,8.593-53.655s-11.311-3.965-13.375,18.867c0,0-3.978-28.1,1.989-43.89s-4.414-5.637-8.405,4.262S75.137,275.2,75.137,275.2s-10.414-45.322-20.272-41.714,14.737,33.3,18.15,48.749c0,0-11.625-20.789-20.443-16.461s13.658,6.48,23.95,37.477l3.616,14.533s-10.7-20.516-17.691-14.044,20.737,17.644,27.181,48.737Z" transform="translate(-50.564 -200.461)" fill="#f0c755"/>
            <g id="Grupo_54454" data-name="Grupo 54454" transform="translate(11.351 148.681)">
              <path id="Rectángulo_5664" data-name="Rectángulo 5664" d="M0,0H50.459a0,0,0,0,1,0,0V11.226A10.994,10.994,0,0,1,39.465,22.22H10.994A10.994,10.994,0,0,1,0,11.226V0A0,0,0,0,1,0,0Z" transform="translate(6.608 12.827)" fill="#f0c755"/>
              <rect id="Rectángulo_5665" data-name="Rectángulo 5665" width="63.675" height="19.897" rx="4.211" fill="#f5dc9d"/>
            </g>
            <path id="Trazado_102160" data-name="Trazado 102160" d="M92.56,353.639s-1.546-43.8-23.189-62.349S83.8,287.424,92.56,307.65c0,0-4.123-39.033-26.28-61.7s12.367-8.119,21.642,18.612c0,0-3.607-34.841-15.458-51.976s3.607-8.066,11.336,2.6,8.76,41.584,8.76,41.584-1.031-57.386,11.851-56-7.73,44.278-7.214,63.8c0,0,7.73-28.362,19.581-25.807s-14.428,11.831-17.519,52.023v18.485s6.7-27.76,17-22.092-19.581,27.31-18.035,66.472Z" transform="translate(-50.48 -200.737)" fill="#f5dc9d"/>
          </g>
        </g>
        <g id="Grupo_54459" data-name="Grupo 54459" transform="translate(319.621 0.998)">
          <rect id="Rectángulo_5666" data-name="Rectángulo 5666" width="60.095" height="89.572" fill="#f0c755"/>
          <rect id="Rectángulo_5667" data-name="Rectángulo 5667" width="51.803" height="77.213" transform="translate(4.146 6.18)" fill="#f5dc9d"/>
          <g id="Grupo_54458" data-name="Grupo 54458" transform="translate(11.159 11.095)">
            <circle id="Elipse_4092" data-name="Elipse 4092" cx="10.393" cy="10.393" r="10.393" transform="translate(8.66 28.557) rotate(-76.717)" fill="#bf9941"/>
            <path id="Trazado_102161" data-name="Trazado 102161" d="M388.732,167.737l15.2-18.18,5.589,18.18Z" transform="translate(-377.962 -106.507)" fill="#f0c755"/>
            <g id="Grupo_54457" data-name="Grupo 54457" transform="translate(0 7.197)">
              <path id="Trazado_102162" data-name="Trazado 102162" d="M381.517,114.775c-7.273,11.844-2.012,26.55,6.25,36.207,1.27,1.485,3.4-.668,2.142-2.142-7.378-8.625-12.3-21.917-5.775-32.536,1.023-1.665-1.6-3.19-2.617-1.529Z" transform="translate(-378.069 -114.058)" fill="#f0c755"/>
            </g>
            <path id="Trazado_102163" data-name="Trazado 102163" d="M411.833,106.933l-5.555,5.68,5.555,4.757,5.05-5.218Z" transform="translate(-377.787 -106.933)" fill="#f0c755"/>
          </g>
        </g>
        <g id="Grupo_54473" data-name="Grupo 54473" transform="translate(330.106 166.2)">
          <g id="Grupo_54462" data-name="Grupo 54462" transform="translate(7.339)">
            <g id="Grupo_54460" data-name="Grupo 54460">
              <path id="Trazado_102164" data-name="Trazado 102164" d="M411.292,270.119H384.668l6.639-10.605h16.025v3.03H392.986l-2.846,4.545h21.152Z" transform="translate(-384.668 -259.514)" fill="#bf9941"/>
            </g>
            <g id="Grupo_54461" data-name="Grupo 54461" transform="translate(16.999 1.057)">
              <rect id="Rectángulo_5668" data-name="Rectángulo 5668" width="3.03" height="6.105" transform="translate(0 0.46) rotate(-8.735)" fill="#bf9941"/>
            </g>
          </g>
          <g id="Grupo_54465" data-name="Grupo 54465" transform="translate(32.29 0.617)">
            <g id="Grupo_54463" data-name="Grupo 54463" transform="translate(0 1.417)">
              <rect id="Rectángulo_5669" data-name="Rectángulo 5669" width="7.404" height="3.031" transform="translate(0 6.51) rotate(-61.55)" fill="#f0c755"/>
            </g>
            <g id="Grupo_54464" data-name="Grupo 54464" transform="translate(1.042)">
              <path id="Trazado_102165" data-name="Trazado 102165" d="M428.927,264.256l-16.342.507a1.988,1.988,0,0,1-2.183-1.812v-1.014a1.988,1.988,0,0,1,2.183-1.811l16.342.507a1.962,1.962,0,0,1,2.03,1.811h0A1.963,1.963,0,0,1,428.927,264.256Z" transform="translate(-410.403 -260.125)" fill="#bf9941"/>
            </g>
          </g>
          <g id="Grupo_54468" data-name="Grupo 54468" transform="translate(0 9.844)">
            <g id="Grupo_54466" data-name="Grupo 54466" transform="translate(1.109)">
              <path id="Trazado_102166" data-name="Trazado 102166" d="M378.5,279.9l8.006-4.144V273.4L378.5,269.26Z" transform="translate(-378.499 -269.26)" fill="#bf9941"/>
            </g>
            <g id="Grupo_54467" data-name="Grupo 54467">
              <rect id="Rectángulo_5670" data-name="Rectángulo 5670" width="1.109" height="10.637" fill="#bf9941"/>
            </g>
          </g>
          <g id="Grupo_54471" data-name="Grupo 54471" transform="translate(31.243 6.831)">
            <g id="Grupo_54469" data-name="Grupo 54469">
              <path id="Trazado_102167" data-name="Trazado 102167" d="M420.877,282.939l-12.542-6.491v-3.681l12.542-6.491Z" transform="translate(-408.336 -266.277)" fill="#bf9941"/>
            </g>
            <g id="Grupo_54470" data-name="Grupo 54470" transform="translate(12.542)">
              <rect id="Rectángulo_5671" data-name="Rectángulo 5671" width="1.737" height="16.662" fill="#bf9941"/>
            </g>
          </g>
          <g id="Grupo_54472" data-name="Grupo 54472" transform="translate(4.558 6.831)">
            <path id="Trazado_102168" data-name="Trazado 102168" d="M412.76,284.377H389.949a8.035,8.035,0,0,1-8.035-8.035v-2.031a8.035,8.035,0,0,1,8.035-8.035H412.76Z" transform="translate(-381.914 -266.277)" fill="#f0c755"/>
          </g>
        </g>
      </g>
    </g>
    <g id="Shadows" transform="translate(56.671 402.15)">
      <g id="Shadow--inject-214">
        <ellipse id="path--inject-214" cx="195.829" cy="11.433" rx="195.829" ry="11.433" fill="#f5dc9d"/>
      </g>
    </g>
    <g id="Desk" transform="translate(131.587 281.907)">
      <g id="Grupo_54479" data-name="Grupo 54479">
        <path id="Trazado_102169" data-name="Trazado 102169" d="M296.676,290.69h-6.305L280.28,410.228a2.286,2.286,0,0,0,2.278,2.479h0a2.285,2.285,0,0,0,2.275-2.061Z" transform="translate(-128.784 -279.587)" fill="#2b3f51"/>
        <path id="Trazado_102170" data-name="Trazado 102170" d="M296.676,290.69h-6.305L280.28,410.228a2.286,2.286,0,0,0,2.278,2.479h0a2.285,2.285,0,0,0,2.275-2.061Z" transform="translate(-128.784 -279.587)" fill="#2b3f51"/>
        <g id="Grupo_54475" data-name="Grupo 54475" transform="translate(0 10.27)">
          <path id="Trazado_102171" data-name="Trazado 102171" d="M146.69,289.865h-6.306L130.292,410.237a2.286,2.286,0,0,0,2.278,2.478h0a2.287,2.287,0,0,0,2.276-2.063Z" transform="translate(-130.284 -289.865)" fill="#2b3f51"/>
          <path id="Trazado_102172" data-name="Trazado 102172" d="M146.69,289.865h-6.306L130.292,410.237a2.286,2.286,0,0,0,2.278,2.478h0a2.287,2.287,0,0,0,2.276-2.063Z" transform="translate(-130.284 -289.865)" fill="#2b3f51"/>
        </g>
        <g id="Grupo_54478" data-name="Grupo 54478" transform="translate(8.203 10.27)">
          <g id="Grupo_54476" data-name="Grupo 54476" transform="translate(36.158)">
            <path id="Trazado_102173" data-name="Trazado 102173" d="M174.206,289.865h6.305l.183,120.738A2.291,2.291,0,0,1,178.4,412.9h0a2.29,2.29,0,0,1-2.29-2.257Z" transform="translate(-174.206 -289.865)" fill="#2b3f51"/>
            <path id="Trazado_102174" data-name="Trazado 102174" d="M174.206,289.865h6.305l.183,120.738A2.291,2.291,0,0,1,178.4,412.9h0a2.29,2.29,0,0,1-2.29-2.257Z" transform="translate(-174.206 -289.865)" fill="#2b3f51"/>
          </g>
          <g id="Grupo_54477" data-name="Grupo 54477" transform="translate(185.624)">
            <path id="Trazado_102175" data-name="Trazado 102175" d="M322.192,289.865H328.5L328.68,410.6a2.29,2.29,0,0,1-2.29,2.293h0a2.29,2.29,0,0,1-2.291-2.257Z" transform="translate(-322.192 -289.865)" fill="#2b3f51"/>
            <path id="Trazado_102176" data-name="Trazado 102176" d="M328.5,289.865,328.68,410.6a2.29,2.29,0,0,1-2.29,2.293h0a2.29,2.29,0,0,1-2.291-2.257l-1.908-120.774Z" transform="translate(-322.192 -289.865)" fill="#fff" opacity="0.2"/>
          </g>
          <path id="Trazado_102177" data-name="Trazado 102177" d="M138.406,312.5l191.8-1.423V289.865H140.3Z" transform="translate(-138.406 -289.865)" fill="#3a5878"/>
          <path id="Trazado_102178" data-name="Trazado 102178" d="M174.564,290.026l.353,22.2-36.511.271,1.9-22.63Z" transform="translate(-138.406 -289.865)" opacity="0.3"/>
        </g>
        <path id="Trazado_102179" data-name="Trazado 102179" d="M337.632,284.875h0c0-2.856-1.066-5.17-2.376-5.178H137.47c-1.311.008-2.371,2.322-2.376,5.178h0c0,2.856,1.065,5.169,2.376,5.178H335.257C336.567,290.044,337.628,287.732,337.632,284.875Z" transform="translate(-130.236 -279.697)" fill="#2b3f51"/>
        <path id="Trazado_102180" data-name="Trazado 102180" d="M337.632,284.875h0c0-2.856-1.066-5.17-2.376-5.178H137.47c-1.311.008-2.371,2.322-2.376,5.178h0c0,2.856,1.065,5.169,2.376,5.178H335.257C336.567,290.044,337.628,287.732,337.632,284.875Z" transform="translate(-130.236 -279.697)" fill="#fff" opacity="0.1"/>
        <path id="Trazado_102181" data-name="Trazado 102181" d="M186.145,284.875h0c0-2.856-1.066-5.17-2.376-5.178h-46.3c-1.311.008-2.371,2.322-2.376,5.178h0c0,2.856,1.065,5.169,2.376,5.178h46.3C185.08,290.044,186.141,287.732,186.145,284.875Z" transform="translate(-130.236 -279.697)" opacity="0.3"/>
      </g>
    </g>
    <g id="Device" transform="translate(158.342 196.005)">
      <g id="Grupo_54538" data-name="Grupo 54538">
        <path id="Trazado_102182" data-name="Trazado 102182" d="M285.482,280.3H264.709l.48-2.255c2.215-5.964,13.573-5.964,13.573-5.964,2.813.161,5.565,2.8,6.35,6.481Z" transform="translate(-155.695 -193.872)" fill="#3a5878"/>
        <g id="Grupo_54480" data-name="Grupo 54480" transform="translate(68.457 49.768)">
          <path id="Trazado_102183" data-name="Trazado 102183" d="M228.2,277.139h20.87l2.485-21.819H232.6Z" transform="translate(-224.518 -243.807)" fill="#2b3f51"/>
          <path id="Trazado_102184" data-name="Trazado 102184" d="M224.554,280.021h.987v.246h35.4v-3.015h-32.7l4.4-21.819h18.95l1.051-9.257a2.371,2.371,0,0,0-2.366-2.256H234.039a2.378,2.378,0,0,0-2.376,2.256Z" transform="translate(-224.554 -243.921)" fill="#2b3f51"/>
          <path id="Trazado_102185" data-name="Trazado 102185" d="M228.2,277.139h20.869l2.294-20.1.192-1.718H232.6Z" transform="translate(-224.518 -243.807)" fill="#2b3f51"/>
          <path id="Trazado_102186" data-name="Trazado 102186" d="M250.68,262.584l.874-7.263H229.683l-1.526,7.263Z" transform="translate(-224.518 -243.807)" opacity="0.1"/>
        </g>
        <g id="Grupo_54483" data-name="Grupo 54483" transform="translate(54.839 80.481)">
          <g id="Grupo_54482" data-name="Grupo 54482">
            <g id="Grupo_54481" data-name="Grupo 54481" transform="translate(2.021)">
              <path id="Trazado_102187" data-name="Trazado 102187" d="M261.018,277.585H263.5a.454.454,0,0,0,.474-.431v-2.392a.455.455,0,0,0-.474-.432h-1.78a.467.467,0,0,0-.457.32l-.7,2.392A.442.442,0,0,0,261.018,277.585Z" transform="translate(-212.597 -274.33)" fill="#2b3f51"/>
              <path id="Trazado_102188" data-name="Trazado 102188" d="M257.627,277.585H260.1a.454.454,0,0,0,.474-.431v-2.392a.455.455,0,0,0-.474-.432h-1.779a.468.468,0,0,0-.458.32l-.7,2.392A.442.442,0,0,0,257.627,277.585Z" transform="translate(-212.631 -274.33)" fill="#2b3f51"/>
              <path id="Trazado_102189" data-name="Trazado 102189" d="M254.236,277.585h2.477a.454.454,0,0,0,.474-.431v-2.392a.455.455,0,0,0-.474-.432h-1.779a.469.469,0,0,0-.458.32l-.7,2.392A.442.442,0,0,0,254.236,277.585Z" transform="translate(-212.665 -274.33)" fill="#2b3f51"/>
              <path id="Trazado_102190" data-name="Trazado 102190" d="M250.845,277.585h2.479a.454.454,0,0,0,.473-.431v-2.392a.454.454,0,0,0-.473-.432h-1.78a.469.469,0,0,0-.458.32l-.7,2.392A.442.442,0,0,0,250.845,277.585Z" transform="translate(-212.699 -274.33)" fill="#2b3f51"/>
              <path id="Trazado_102191" data-name="Trazado 102191" d="M247.454,277.585h2.479a.454.454,0,0,0,.473-.431v-2.392a.454.454,0,0,0-.473-.432h-1.78a.469.469,0,0,0-.458.32l-.7,2.392A.442.442,0,0,0,247.454,277.585Z" transform="translate(-212.733 -274.33)" fill="#2b3f51"/>
              <path id="Trazado_102192" data-name="Trazado 102192" d="M244.063,277.585h2.479a.453.453,0,0,0,.473-.431v-2.392a.454.454,0,0,0-.473-.432h-1.78a.467.467,0,0,0-.457.32l-.7,2.392A.442.442,0,0,0,244.063,277.585Z" transform="translate(-212.767 -274.33)" fill="#2b3f51"/>
              <path id="Trazado_102193" data-name="Trazado 102193" d="M240.672,277.585h2.479a.454.454,0,0,0,.474-.431v-2.392a.455.455,0,0,0-.474-.432h-1.78a.467.467,0,0,0-.457.32l-.7,2.392A.442.442,0,0,0,240.672,277.585Z" transform="translate(-212.8 -274.33)" fill="#2b3f51"/>
              <path id="Trazado_102194" data-name="Trazado 102194" d="M237.281,277.585h2.479a.454.454,0,0,0,.474-.431v-2.392a.455.455,0,0,0-.474-.432h-1.78a.467.467,0,0,0-.457.32l-.7,2.392A.442.442,0,0,0,237.281,277.585Z" transform="translate(-212.834 -274.33)" fill="#2b3f51"/>
              <path id="Trazado_102195" data-name="Trazado 102195" d="M233.89,277.585h2.479a.454.454,0,0,0,.474-.431v-2.392a.455.455,0,0,0-.474-.432H234.59a.468.468,0,0,0-.458.32l-.7,2.392A.442.442,0,0,0,233.89,277.585Z" transform="translate(-212.868 -274.33)" fill="#2b3f51"/>
              <path id="Trazado_102196" data-name="Trazado 102196" d="M230.5,277.585h2.478a.454.454,0,0,0,.474-.431v-2.392a.455.455,0,0,0-.474-.432H231.2a.468.468,0,0,0-.458.32l-.7,2.392A.442.442,0,0,0,230.5,277.585Z" transform="translate(-212.902 -274.33)" fill="#2b3f51"/>
              <path id="Trazado_102197" data-name="Trazado 102197" d="M227.109,277.585h2.478a.454.454,0,0,0,.474-.431v-2.392a.455.455,0,0,0-.474-.432h-1.779a.469.469,0,0,0-.458.32l-.7,2.392A.442.442,0,0,0,227.109,277.585Z" transform="translate(-212.936 -274.33)" fill="#2b3f51"/>
              <path id="Trazado_102198" data-name="Trazado 102198" d="M223.718,277.585H226.2a.454.454,0,0,0,.473-.431v-2.392a.454.454,0,0,0-.473-.432h-1.78a.469.469,0,0,0-.458.32l-.7,2.392A.442.442,0,0,0,223.718,277.585Z" transform="translate(-212.97 -274.33)" fill="#2b3f51"/>
              <path id="Trazado_102199" data-name="Trazado 102199" d="M220.327,277.585h2.479a.454.454,0,0,0,.473-.431v-2.392a.454.454,0,0,0-.473-.432h-1.78a.469.469,0,0,0-.458.32l-.7,2.392A.442.442,0,0,0,220.327,277.585Z" transform="translate(-213.004 -274.33)" fill="#2b3f51"/>
              <path id="Trazado_102200" data-name="Trazado 102200" d="M216.936,277.585h2.479a.453.453,0,0,0,.473-.431v-2.392a.454.454,0,0,0-.473-.432h-1.78a.469.469,0,0,0-.458.32l-.7,2.392A.441.441,0,0,0,216.936,277.585Z" transform="translate(-213.038 -274.33)" fill="#2b3f51"/>
              <path id="Trazado_102201" data-name="Trazado 102201" d="M213.545,277.585h2.479a.453.453,0,0,0,.473-.431v-2.392a.454.454,0,0,0-.473-.432h-1.78a.467.467,0,0,0-.457.32l-.7,2.392A.442.442,0,0,0,213.545,277.585Z" transform="translate(-213.072 -274.33)" fill="#2b3f51"/>
            </g>
            <path id="Trazado_102202" data-name="Trazado 102202" d="M211.071,277.829a1.982,1.982,0,0,0,2.062,1.882h51.278a1.976,1.976,0,0,0,2.063-1.882,1.805,1.805,0,0,0-.6-1.334,2.15,2.15,0,0,0-1.412-.548H213.133a2.275,2.275,0,0,0-.571.074A1.918,1.918,0,0,0,211.071,277.829Z" transform="translate(-211.071 -274.314)" fill="#2b3f51"/>
          </g>
          <path id="Trazado_102203" data-name="Trazado 102203" d="M211.071,277.829a1.982,1.982,0,0,0,2.062,1.882h51.278a1.976,1.976,0,0,0,2.063-1.882,1.805,1.805,0,0,0-.6-1.334,2.15,2.15,0,0,0-1.412-.548H213.133a2.275,2.275,0,0,0-.571.074A1.918,1.918,0,0,0,211.071,277.829Z" transform="translate(-211.071 -274.314)" fill="#fff" opacity="0.2"/>
          <path id="Trazado_102204" data-name="Trazado 102204" d="M211.071,277.828a1.982,1.982,0,0,0,2.062,1.882H230.5a1.919,1.919,0,0,0,1.431-1.8,1.716,1.716,0,0,0-.61-1.334,2.447,2.447,0,0,0-.441-.31l-.239-.11a2.29,2.29,0,0,0-.792-.136H212.563A1.918,1.918,0,0,0,211.071,277.828Z" transform="translate(-211.071 -274.313)" fill="#2b3f51"/>
        </g>
        <g id="Grupo_54527" data-name="Grupo 54527" transform="translate(38.667)">
          <g id="Grupo_54485" data-name="Grupo 54485">
            <path id="Trazado_102205" data-name="Trazado 102205" d="M196.473,194.646h5.24l5.889,63.911h-5.24a1.913,1.913,0,0,1-1.739-1.816l-5.555-60.28A1.533,1.533,0,0,1,196.473,194.646Z" transform="translate(-195.059 -194.646)" fill="#3a5878"/>
            <path id="Trazado_102206" data-name="Trazado 102206" d="M196.473,194.646h5.24l5.889,63.911h-5.24a1.913,1.913,0,0,1-1.739-1.816l-5.555-60.28A1.533,1.533,0,0,1,196.473,194.646Z" transform="translate(-195.059 -194.646)" opacity="0.3"/>
            <g id="Grupo_54484" data-name="Grupo 54484" transform="translate(2.216)">
              <path id="Trazado_102207" data-name="Trazado 102207" d="M204.556,258.557h78.533a1.533,1.533,0,0,0,1.4-1.816l-5.554-60.28a1.912,1.912,0,0,0-1.74-1.815H198.667a1.533,1.533,0,0,0-1.4,1.815l5.555,60.28A1.912,1.912,0,0,0,204.556,258.557Z" transform="translate(-197.253 -194.646)" fill="#3a5878"/>
            </g>
          </g>
          <g id="Grupo_54526" data-name="Grupo 54526" transform="translate(4.998 2.471)">
            <path id="Trazado_102208" data-name="Trazado 102208" d="M206.869,245.674H278.2l-3.956-45.216H202.913Z" transform="translate(-199.979 -197.059)" fill="#3a5878"/>
            <path id="Trazado_102209" data-name="Trazado 102209" d="M207.88,249.247h70.287a3.256,3.256,0,0,0,3.295-3.611L277.531,200.7a4.019,4.019,0,0,0-3.927-3.61H203.317a3.255,3.255,0,0,0-3.295,3.61l3.931,44.934A4.02,4.02,0,0,0,207.88,249.247Z" transform="translate(-200.008 -197.093)" fill="#2b3f51"/>
            <g id="Grupo_54486" data-name="Grupo 54486" transform="translate(2.934 3.399)">
              <path id="Trazado_102210" data-name="Trazado 102210" d="M206.869,245.674H278.2l-3.956-45.216H202.913Z" transform="translate(-202.913 -200.459)" fill="#3a5878"/>
              <path id="Trazado_102211" data-name="Trazado 102211" d="M206.869,245.674H278.2l-3.956-45.216H202.913Z" transform="translate(-202.913 -200.459)" fill="#52799c"/>
            </g>
            <g id="Grupo_54504" data-name="Grupo 54504" transform="translate(2.994 4.864)">
              <path id="Trazado_102212" data-name="Trazado 102212" d="M230.222,202.919l3.446,39.387H207.52l-3.446-39.387h26.148m.925-1.01H202.972l.1,1.1,3.446,39.387.081.922H234.77l-.1-1.1-3.446-39.387-.081-.922Z" transform="translate(-202.972 -201.909)" fill="#3a5878"/>
              <g id="Grupo_54487" data-name="Grupo 54487" transform="translate(1.102 1.01)">
                <path id="Trazado_102213" data-name="Trazado 102213" d="M233.657,242.3H207.509l-3.446-39.386h26.147Z" transform="translate(-204.063 -202.909)" fill="#fff"/>
              </g>
              <g id="Grupo_54491" data-name="Grupo 54491" transform="translate(3.408 3.051)">
                <path id="Trazado_102214" data-name="Trazado 102214" d="M215.173,214.929h-7.951l-.875-10H214.3Z" transform="translate(-206.346 -204.93)" fill="#3a5878"/>
                <g id="Grupo_54488" data-name="Grupo 54488" opacity="0.2">
                  <path id="Trazado_102215" data-name="Trazado 102215" d="M207.289,204.931h-.943l.679,7.755h.259l-.049-.564h.685l.049.564h.259l-.679-7.755Zm-.32,4.159-.1-1.128h.685l.1,1.128Zm.707.259.1,1.128h-.684l-.1-1.128Zm-.828-1.645-.1-1.128h.684l.1,1.128Zm-.121-1.387-.1-1.128h.684l.1,1.128Zm.485,5.546-.1-1.128h.685l.1,1.128Z" transform="translate(-206.346 -204.93)"/>
                </g>
                <g id="Grupo_54489" data-name="Grupo 54489" transform="translate(6.75)" opacity="0.2">
                  <path id="Trazado_102216" data-name="Trazado 102216" d="M213.972,204.931h-.943l.679,7.755h.259l-.049-.564h.685l.049.564h.259l-.679-7.755Zm-.32,4.159-.1-1.128h.684l.1,1.128Zm.707.259.1,1.128h-.684l-.1-1.128Zm-.828-1.645-.1-1.128h.684l.1,1.128Zm-.121-1.387-.1-1.128h.684l.1,1.128Zm.485,5.546-.1-1.128h.685l.1,1.128Z" transform="translate(-213.029 -204.93)"/>
                </g>
                <path id="Trazado_102217" data-name="Trazado 102217" d="M213.762,212.676l-5.547.01-.679-7.755h5.548Z" transform="translate(-206.334 -204.93)" fill="#fff" opacity="0.2"/>
                <path id="Trazado_102218" data-name="Trazado 102218" d="M212.947,208.894a2.07,2.07,0,0,1-2.1,2.3,2.554,2.554,0,0,1-2.5-2.3,2.069,2.069,0,0,1,2.095-2.295A2.556,2.556,0,0,1,212.947,208.894Z" transform="translate(-206.326 -204.913)" fill="#a6eb9b"/>
                <g id="Grupo_54490" data-name="Grupo 54490" transform="translate(3.602 2.78)">
                  <path id="Trazado_102219" data-name="Trazado 102219" d="M209.912,207.682l2.023,1.327-1.79,1.327Z" transform="translate(-209.912 -207.682)" fill="#61946c"/>
                </g>
              </g>
              <g id="Grupo_54495" data-name="Grupo 54495" transform="translate(4.504 15.579)">
                <path id="Trazado_102220" data-name="Trazado 102220" d="M216.258,227.333h-7.951l-.875-10h7.951Z" transform="translate(-207.432 -217.334)" fill="#3a5878"/>
                <g id="Grupo_54492" data-name="Grupo 54492" transform="translate(0)" opacity="0.2">
                  <path id="Trazado_102221" data-name="Trazado 102221" d="M208.374,217.335h-.942l.678,7.754h.259l-.048-.564H209l.049.564h.259l-.679-7.754Zm-.32,4.159-.1-1.129h.685l.1,1.129Zm.707.258.1,1.128h-.685l-.1-1.128Zm-.828-1.645-.1-1.127h.685l.1,1.127Zm-.121-1.386-.1-1.128h.685l.1,1.128Zm.485,5.546-.1-1.128h.685l.1,1.128Z" transform="translate(-207.432 -217.334)"/>
                </g>
                <g id="Grupo_54493" data-name="Grupo 54493" transform="translate(6.75)" opacity="0.2">
                  <path id="Trazado_102222" data-name="Trazado 102222" d="M215.057,217.335h-.942l.678,7.754h.259l-.048-.564h.684l.049.564h.259l-.679-7.754Zm-.32,4.159-.1-1.129h.685l.1,1.129Zm.707.258.1,1.128h-.685l-.1-1.128Zm-.828-1.645-.1-1.127h.685l.1,1.127Zm-.121-1.386-.1-1.128h.684l.1,1.128Zm.485,5.546-.1-1.128h.685l.1,1.128Z" transform="translate(-214.115 -217.334)"/>
                </g>
                <path id="Trazado_102223" data-name="Trazado 102223" d="M214.847,225.08l-5.547.01-.678-7.755h5.548Z" transform="translate(-207.42 -217.334)" fill="#fff" opacity="0.2"/>
                <path id="Trazado_102224" data-name="Trazado 102224" d="M214.032,221.3a2.07,2.07,0,0,1-2.095,2.3,2.556,2.556,0,0,1-2.5-2.3,2.07,2.07,0,0,1,2.095-2.3A2.557,2.557,0,0,1,214.032,221.3Z" transform="translate(-207.412 -217.317)" fill="#a6eb9b"/>
                <g id="Grupo_54494" data-name="Grupo 54494" transform="translate(3.601 2.78)">
                  <path id="Trazado_102225" data-name="Trazado 102225" d="M211,220.086l2.023,1.327-1.79,1.327Z" transform="translate(-210.997 -220.086)" fill="#61946c"/>
                </g>
              </g>
              <g id="Grupo_54499" data-name="Grupo 54499" transform="translate(13.839 3.052)">
                <path id="Trazado_102226" data-name="Trazado 102226" d="M225.5,214.93h-7.951l-.875-10h7.951Z" transform="translate(-216.674 -204.931)" fill="#3a5878"/>
                <g id="Grupo_54496" data-name="Grupo 54496" transform="translate(0)" opacity="0.2">
                  <path id="Trazado_102227" data-name="Trazado 102227" d="M217.616,204.932h-.942l.678,7.755h.259l-.048-.565h.684l.049.565h.259l-.679-7.755Zm-.32,4.159-.1-1.129h.685l.1,1.129Zm.707.258.1,1.128h-.685l-.1-1.128Zm-.828-1.645-.1-1.127h.685l.1,1.127Zm-.121-1.386-.1-1.128h.685l.1,1.128Zm.485,5.546-.1-1.128h.685l.1,1.128Z" transform="translate(-216.674 -204.931)"/>
                </g>
                <g id="Grupo_54497" data-name="Grupo 54497" transform="translate(6.75)" opacity="0.2">
                  <path id="Trazado_102228" data-name="Trazado 102228" d="M224.3,204.932h-.942l.678,7.755h.259l-.048-.565h.684l.049.565h.259l-.679-7.755Zm-.32,4.159-.1-1.129h.685l.1,1.129Zm.707.258.1,1.128H224.1l-.1-1.128Zm-.828-1.645-.1-1.127h.685l.1,1.127Zm-.121-1.386-.1-1.128h.684l.1,1.128Zm.485,5.546-.1-1.128h.685l.1,1.128Z" transform="translate(-223.357 -204.931)"/>
                </g>
                <path id="Trazado_102229" data-name="Trazado 102229" d="M224.089,212.676l-5.547.01-.678-7.755h5.548Z" transform="translate(-216.662 -204.931)" fill="#fff" opacity="0.2"/>
                <path id="Trazado_102230" data-name="Trazado 102230" d="M223.274,208.895a2.07,2.07,0,0,1-2.095,2.3,2.556,2.556,0,0,1-2.5-2.3,2.07,2.07,0,0,1,2.095-2.3A2.557,2.557,0,0,1,223.274,208.895Z" transform="translate(-216.654 -204.914)" fill="#a6eb9b"/>
                <g id="Grupo_54498" data-name="Grupo 54498" transform="translate(3.601 2.779)">
                  <path id="Trazado_102231" data-name="Trazado 102231" d="M220.239,207.683l2.023,1.327-1.79,1.328Z" transform="translate(-220.239 -207.683)" fill="#61946c"/>
                </g>
              </g>
              <g id="Grupo_54503" data-name="Grupo 54503" transform="translate(5.6 28.106)">
                <path id="Trazado_102232" data-name="Trazado 102232" d="M217.343,239.736h-7.951l-.875-10h7.951Z" transform="translate(-208.517 -229.737)" fill="#3a5878"/>
                <g id="Grupo_54500" data-name="Grupo 54500" transform="translate(0)" opacity="0.2">
                  <path id="Trazado_102233" data-name="Trazado 102233" d="M209.459,229.738h-.942l.679,7.755h.259l-.049-.564h.684l.049.564h.259l-.678-7.755Zm-.32,4.159-.1-1.128h.685l.1,1.128Zm.707.259.1,1.128h-.685l-.1-1.128Zm-.828-1.645-.1-1.128h.685l.1,1.128Zm-.121-1.386L208.8,230h.685l.1,1.129Zm.485,5.546-.1-1.128h.684l.1,1.128Z" transform="translate(-208.517 -229.737)"/>
                </g>
                <g id="Grupo_54501" data-name="Grupo 54501" transform="translate(6.75)" opacity="0.2">
                  <path id="Trazado_102234" data-name="Trazado 102234" d="M216.142,229.738H215.2l.678,7.755h.26l-.05-.564h.684l.049.564h.259l-.679-7.755Zm-.32,4.159-.1-1.128h.685l.1,1.128Zm.707.259.1,1.128h-.685l-.1-1.128Zm-.828-1.645-.1-1.128h.685l.1,1.128Zm-.121-1.386-.1-1.129h.685l.1,1.129Zm.485,5.546-.1-1.128h.684l.1,1.128Z" transform="translate(-215.2 -229.737)"/>
                </g>
                <path id="Trazado_102235" data-name="Trazado 102235" d="M215.932,237.483l-5.547.01-.678-7.755h5.548Z" transform="translate(-208.505 -229.737)" fill="#fff" opacity="0.2"/>
                <path id="Trazado_102236" data-name="Trazado 102236" d="M215.117,233.7a2.07,2.07,0,0,1-2.095,2.3,2.556,2.556,0,0,1-2.5-2.3,2.07,2.07,0,0,1,2.095-2.3A2.556,2.556,0,0,1,215.117,233.7Z" transform="translate(-208.497 -229.72)" fill="#a6eb9b"/>
                <g id="Grupo_54502" data-name="Grupo 54502" transform="translate(3.601 2.78)">
                  <path id="Trazado_102237" data-name="Trazado 102237" d="M212.083,232.49l2.023,1.327-1.79,1.327Z" transform="translate(-212.083 -232.49)" fill="#61946c"/>
                </g>
              </g>
            </g>
            <g id="Grupo_54505" data-name="Grupo 54505" transform="translate(13.481 0.023)">
              <path id="Trazado_102238" data-name="Trazado 102238" d="M227.288,197.116l-13.932,52.108h4.687l13.778-52.108Z" transform="translate(-213.355 -197.116)" fill="#fff" opacity="0.1" style="isolation: isolate"/>
              <path id="Trazado_102239" data-name="Trazado 102239" d="M234.449,197.116l-13.932,52.108h9.3l13.778-52.108Z" transform="translate(-213.284 -197.116)" fill="#fff" opacity="0.1" style="isolation: isolate"/>
            </g>
            <g id="Grupo_54525" data-name="Grupo 54525" transform="translate(28.606 9.695)">
              <g id="Grupo_54522" data-name="Grupo 54522" transform="translate(0.212 2.421)">
                <g id="Grupo_54507" data-name="Grupo 54507">
                  <path id="Trazado_102240" data-name="Trazado 102240" d="M276.2,235.859H230.882l-2.342-26.77h45.315Z" transform="translate(-228.54 -209.089)" fill="#2b3f51"/>
                  <g id="Grupo_54506" data-name="Grupo 54506" transform="translate(17.874 4.793)">
                    <path id="Trazado_102241" data-name="Trazado 102241" d="M257.535,219.472a5.084,5.084,0,0,1-5.145,5.638,6.276,6.276,0,0,1-6.131-5.638,5.083,5.083,0,0,1,5.144-5.638A6.277,6.277,0,0,1,257.535,219.472Z" transform="translate(-246.237 -213.834)" fill="#a6eb9b"/>
                    <path id="Trazado_102242" data-name="Trazado 102242" d="M254.951,219.649l-4.93-2.709.474,5.419Z" transform="translate(-246.199 -213.803)" fill="#2b3f51"/>
                  </g>
                </g>
                <g id="Grupo_54520" data-name="Grupo 54520" transform="translate(2.406 20.648)">
                  <g id="Grupo_54508" data-name="Grupo 54508">
                    <path id="Trazado_102243" data-name="Trazado 102243" d="M275.115,230.4H231l-.076-.868h44.116Z" transform="translate(-230.922 -229.533)" fill="#fff"/>
                    <path id="Trazado_102244" data-name="Trazado 102244" d="M255.728,230.4H231l-.076-.868h24.73Z" transform="translate(-230.922 -229.533)" fill="#3a5878"/>
                  </g>
                  <g id="Grupo_54513" data-name="Grupo 54513" transform="translate(0.261 2.383)">
                    <g id="Grupo_54509" data-name="Grupo 54509" transform="translate(0 0.031)">
                      <path id="Trazado_102245" data-name="Trazado 102245" d="M231.753,233.594h-.426l-.146-1.672h.426Z" transform="translate(-231.181 -231.923)" fill="#fff"/>
                      <path id="Trazado_102246" data-name="Trazado 102246" d="M232.49,233.594h-.426l-.146-1.672h.426Z" transform="translate(-231.173 -231.923)" fill="#fff"/>
                    </g>
                    <g id="Grupo_54512" data-name="Grupo 54512" transform="translate(3.321)">
                      <path id="Trazado_102247" data-name="Trazado 102247" d="M236.287,233.594h-1.672l-.146-1.672h1.672Z" transform="translate(-234.469 -231.891)" fill="#fff"/>
                      <path id="Trazado_102248" data-name="Trazado 102248" d="M238.466,232.759l1.375-.836.146,1.672Z" transform="translate(-234.429 -231.891)" fill="#fff"/>
                      <path id="Trazado_102249" data-name="Trazado 102249" d="M238.544,233.594h-.426l-.146-1.672h.426Z" transform="translate(-234.434 -231.891)" fill="#fff"/>
                      <g id="Grupo_54510" data-name="Grupo 54510" transform="translate(7.211 0.031)">
                        <path id="Trazado_102250" data-name="Trazado 102250" d="M243.13,232.759l-1.521-.836.146,1.672Z" transform="translate(-241.609 -231.923)" fill="#fff"/>
                        <path id="Trazado_102251" data-name="Trazado 102251" d="M243.188,233.594h.426l-.146-1.672h-.426Z" transform="translate(-241.594 -231.923)" fill="#fff"/>
                      </g>
                      <g id="Grupo_54511" data-name="Grupo 54511" transform="translate(11.09)">
                        <path id="Trazado_102252" data-name="Trazado 102252" d="M246.2,231.892l-.748,1.008h1.672Z" transform="translate(-245.449 -231.892)" fill="#fff"/>
                        <path id="Trazado_102253" data-name="Trazado 102253" d="M247.22,233.613l-.037-.426h-1.734l.037.426Z" transform="translate(-245.449 -231.879)" fill="#fff"/>
                      </g>
                    </g>
                  </g>
                  <g id="Grupo_54519" data-name="Grupo 54519" transform="translate(38.076 2.246)">
                    <g id="Grupo_54514" data-name="Grupo 54514" transform="translate(3.029 0.001)">
                      <path id="Trazado_102254" data-name="Trazado 102254" d="M275.021,233.733h-3.228l-.173-1.976h3.227Zm-2.979-.274h2.68l-.125-1.429h-2.678Z" transform="translate(-271.62 -231.757)" fill="#fff"/>
                    </g>
                    <g id="Grupo_54515" data-name="Grupo 54515" transform="translate(0.123 1.373)">
                      <path id="Trazado_102255" data-name="Trazado 102255" d="M269.447,233.719h-.653l-.051-.58.273-.024.028.33h.4Z" transform="translate(-268.743 -233.116)" fill="#fff"/>
                    </g>
                    <g id="Grupo_54516" data-name="Grupo 54516" transform="translate(1.618 1.373)">
                      <path id="Trazado_102256" data-name="Trazado 102256" d="M270.88,233.719h-.657v-.273h.358l-.027-.306.274-.024Z" transform="translate(-270.223 -233.116)" fill="#fff"/>
                    </g>
                    <g id="Grupo_54517" data-name="Grupo 54517" transform="translate(1.47)">
                      <path id="Trazado_102257" data-name="Trazado 102257" d="M270.489,232.386l-.03-.356h-.382v-.273h.632l.053.606Z" transform="translate(-270.076 -231.757)" fill="#fff"/>
                    </g>
                    <g id="Grupo_54518" data-name="Grupo 54518">
                      <path id="Trazado_102258" data-name="Trazado 102258" d="M268.678,232.386l-.057-.63h.678v.273h-.379l.029.332Z" transform="translate(-268.621 -231.757)" fill="#fff"/>
                    </g>
                  </g>
                </g>
                <g id="Grupo_54521" data-name="Grupo 54521" transform="translate(2.331)">
                  <path id="Trazado_102259" data-name="Trazado 102259" d="M236.979,209.089H242.1l-6.073,26.77h-5.184Z" transform="translate(-230.848 -209.089)" fill="#fff" stroke="#263238" stroke-linecap="round" stroke-linejoin="round" stroke-width="1" opacity="0.1"/>
                </g>
                <path id="Trazado_102260" data-name="Trazado 102260" d="M262.145,235.859l6.131-26.77H273.4l-6.073,26.77Z" transform="translate(-228.204 -209.089)" fill="#fff" stroke="#263238" stroke-linecap="round" stroke-linejoin="round" stroke-width="1" opacity="0.1"/>
                <path id="Trazado_102261" data-name="Trazado 102261" d="M273.743,212.315l-3.982,17.39-.2.868-.347,1.515-.32,1.395-.537,2.344h1.334l.848-3.739.343-1.515.2-.868L274.1,216.4" transform="translate(-228.142 -209.057)" fill="#fff" stroke="#263238" stroke-linecap="round" stroke-linejoin="round" stroke-width="1" opacity="0.1"/>
              </g>
              <g id="Grupo_54524" data-name="Grupo 54524">
                <path id="Trazado_102262" data-name="Trazado 102262" d="M273.858,209.113H228.542l-.212-2.421h45.316Z" transform="translate(-228.33 -206.692)" fill="#3a5878"/>
                <g id="Grupo_54523" data-name="Grupo 54523" transform="translate(1.925 0.48)">
                  <path id="Trazado_102263" data-name="Trazado 102263" d="M231.734,207.915a.674.674,0,0,1-.682.747.832.832,0,0,1-.813-.747.674.674,0,0,1,.682-.748A.832.832,0,0,1,231.734,207.915Z" transform="translate(-230.236 -207.167)" fill="#fff"/>
                  <path id="Trazado_102264" data-name="Trazado 102264" d="M233.951,207.915a.674.674,0,0,1-.682.747.834.834,0,0,1-.814-.747.675.675,0,0,1,.683-.748A.833.833,0,0,1,233.951,207.915Z" transform="translate(-230.214 -207.167)" fill="#fff"/>
                  <path id="Trazado_102265" data-name="Trazado 102265" d="M236.168,207.915a.674.674,0,0,1-.682.747.834.834,0,0,1-.814-.747.675.675,0,0,1,.683-.748A.833.833,0,0,1,236.168,207.915Z" transform="translate(-230.192 -207.167)" fill="#fff"/>
                </g>
              </g>
            </g>
          </g>
        </g>
        <g id="Grupo_54532" data-name="Grupo 54532" transform="translate(0 8.548)">
          <g id="Grupo_54528" data-name="Grupo 54528">
            <path id="Trazado_102266" data-name="Trazado 102266" d="M189.443,280.463h-25.9l-6.768-77.353h25.9Z" transform="translate(-156.775 -203.109)" fill="#3a5878"/>
            <path id="Trazado_102267" data-name="Trazado 102267" d="M189.443,280.463h-25.9l-6.768-77.353h25.9Z" transform="translate(-156.775 -203.109)" opacity="0.3"/>
          </g>
          <path id="Trazado_102268" data-name="Trazado 102268" d="M191.961,280.463h-25.9l-6.768-77.353h25.9Z" transform="translate(-156.749 -203.109)" fill="#3a5878"/>
          <g id="Grupo_54531" data-name="Grupo 54531" transform="translate(7.294 5.951)">
            <g id="Grupo_54530" data-name="Grupo 54530">
              <path id="Trazado_102269" data-name="Trazado 102269" d="M173.029,209a8.889,8.889,0,0,0-9,9.858,10.975,10.975,0,0,0,10.719,9.857,8.889,8.889,0,0,0,9-9.857A10.974,10.974,0,0,0,173.029,209Z" transform="translate(-163.996 -209.001)" opacity="0.5"/>
              <path id="Trazado_102270" data-name="Trazado 102270" d="M171.145,219.451a3.122,3.122,0,0,0,3.05,2.8,2.529,2.529,0,0,0,2.559-2.8,3.122,3.122,0,0,0-3.05-2.8A2.529,2.529,0,0,0,171.145,219.451Z" transform="translate(-163.925 -208.925)" fill="#3a5878"/>
              <g id="Grupo_54529" data-name="Grupo 54529" transform="translate(6.82 24.273)">
                <path id="Trazado_102271" data-name="Trazado 102271" d="M170.767,237.845A5.356,5.356,0,0,0,176,242.655a4.338,4.338,0,0,0,4.389-4.811,5.356,5.356,0,0,0-5.231-4.811h0A4.338,4.338,0,0,0,170.767,237.845Z" transform="translate(-170.749 -233.034)" opacity="0.5"/>
                <path id="Trazado_102272" data-name="Trazado 102272" d="M172.455,250.032a4.631,4.631,0,0,0,4.523,4.159,3.75,3.75,0,0,0,3.795-4.159,4.628,4.628,0,0,0-4.522-4.158h0A3.751,3.751,0,0,0,172.455,250.032Z" transform="translate(-170.732 -232.906)" opacity="0.5"/>
                <path id="Trazado_102273" data-name="Trazado 102273" d="M174.059,261.254a3.905,3.905,0,0,0,3.815,3.508,3.163,3.163,0,0,0,3.2-3.508,3.9,3.9,0,0,0-3.814-3.507h0A3.163,3.163,0,0,0,174.059,261.254Z" transform="translate(-170.716 -232.787)" opacity="0.5"/>
                <path id="Trazado_102274" data-name="Trazado 102274" d="M175.494,270.543A3.179,3.179,0,0,0,178.6,273.4a2.575,2.575,0,0,0,2.606-2.856,3.179,3.179,0,0,0-3.106-2.855h0A2.575,2.575,0,0,0,175.494,270.543Z" transform="translate(-170.701 -232.687)" opacity="0.5"/>
              </g>
            </g>
          </g>
        </g>
        <g id="Grupo_54537" data-name="Grupo 54537" transform="translate(131.856 8.45)">
          <g id="Grupo_54533" data-name="Grupo 54533">
            <path id="Trazado_102275" data-name="Trazado 102275" d="M319.993,280.365h-25.9l-6.768-77.353h25.9Z" transform="translate(-287.325 -203.012)" fill="#3a5878"/>
            <path id="Trazado_102276" data-name="Trazado 102276" d="M319.993,280.365h-25.9l-6.768-77.353h25.9Z" transform="translate(-287.325 -203.012)" opacity="0.3"/>
          </g>
          <path id="Trazado_102277" data-name="Trazado 102277" d="M322.511,280.365h-25.9l-6.767-77.353h25.9Z" transform="translate(-287.3 -203.012)" fill="#3a5878"/>
          <g id="Grupo_54536" data-name="Grupo 54536" transform="translate(7.295 5.951)">
            <g id="Grupo_54535" data-name="Grupo 54535">
              <path id="Trazado_102278" data-name="Trazado 102278" d="M303.579,208.9a8.887,8.887,0,0,0-8.994,9.857,10.973,10.973,0,0,0,10.718,9.858,8.889,8.889,0,0,0,9-9.858A10.974,10.974,0,0,0,303.579,208.9Z" transform="translate(-294.547 -208.904)" opacity="0.5"/>
              <path id="Trazado_102279" data-name="Trazado 102279" d="M301.7,219.354a3.122,3.122,0,0,0,3.05,2.8,2.529,2.529,0,0,0,2.559-2.8,3.122,3.122,0,0,0-3.05-2.8A2.529,2.529,0,0,0,301.7,219.354Z" transform="translate(-294.476 -208.828)" fill="#3a5878"/>
              <g id="Grupo_54534" data-name="Grupo 54534" transform="translate(6.819 24.273)">
                <path id="Trazado_102280" data-name="Trazado 102280" d="M301.317,237.748a5.355,5.355,0,0,0,5.231,4.81,4.337,4.337,0,0,0,4.389-4.81,5.356,5.356,0,0,0-5.231-4.811h0A4.338,4.338,0,0,0,301.317,237.748Z" transform="translate(-301.298 -232.937)" opacity="0.5"/>
                <path id="Trazado_102281" data-name="Trazado 102281" d="M303.006,249.935a4.629,4.629,0,0,0,4.522,4.159,3.75,3.75,0,0,0,3.795-4.159,4.628,4.628,0,0,0-4.522-4.158h0A3.749,3.749,0,0,0,303.006,249.935Z" transform="translate(-301.282 -232.809)" opacity="0.5"/>
                <path id="Trazado_102282" data-name="Trazado 102282" d="M304.609,261.157a3.905,3.905,0,0,0,3.815,3.508,3.163,3.163,0,0,0,3.2-3.508,3.9,3.9,0,0,0-3.814-3.507h0A3.163,3.163,0,0,0,304.609,261.157Z" transform="translate(-301.266 -232.69)" opacity="0.5"/>
                <path id="Trazado_102283" data-name="Trazado 102283" d="M306.044,270.446a3.179,3.179,0,0,0,3.106,2.855,2.574,2.574,0,0,0,2.606-2.855,3.179,3.179,0,0,0-3.106-2.855h0A2.575,2.575,0,0,0,306.044,270.446Z" transform="translate(-301.251 -232.59)" opacity="0.5"/>
              </g>
            </g>
          </g>
        </g>
      </g>
    </g>
    <g id="Video_Files" data-name="Video Files" transform="translate(108.611 73.055)">
      <g id="Grupo_54571" data-name="Grupo 54571" transform="translate(0 0)">
        <g id="Grupo_54567" data-name="Grupo 54567">
          <g id="Grupo_54541" data-name="Grupo 54541" transform="translate(0 13.256)">
            <g id="Grupo_54539" data-name="Grupo 54539" transform="translate(3.099 12.522)">
              <path id="Trazado_102284" data-name="Trazado 102284" d="M115.327,181.108l-4.712-78.172c-.008-.1-.011-.205-.01-.308a3.748,3.748,0,0,1,3.78-3.715l208.258-.477a4.355,4.355,0,0,1,4.27,4.022l4.712,78.173c.008.105.011.211.01.317a3.744,3.744,0,0,1-3.784,3.7l-208.257.477A4.344,4.344,0,0,1,115.327,181.108Z" transform="translate(-110.605 -98.436)" fill="#fff"/>
            </g>
            <path id="Trazado_102285" data-name="Trazado 102285" d="M192.4,99.308H135.237l-.041-.433,57.156-.145Z" transform="translate(-107.259 -85.911)" fill="#fff"/>
            <g id="Grupo_54540" data-name="Grupo 54540">
              <path id="Trazado_102286" data-name="Trazado 102286" d="M331.637,181.04a3.748,3.748,0,0,1-3.789,3.706l-208.258.475a4.334,4.334,0,0,1-4.263-4.015l-4.716-78.179c0-.1-.011-.207-.011-.31A3.762,3.762,0,0,1,114.39,99l16-.031-.32-3.726a5.532,5.532,0,0,1,5.6-6.141h44.874a6.823,6.823,0,0,1,6.677,6.141l.32,3.581,135.1-.3a4.355,4.355,0,0,1,4.262,4.025l4.717,78.169A3.154,3.154,0,0,1,331.637,181.04Z" transform="translate(-107.505 -86.007)" fill="#fff"/>
              <path id="Trazado_102287" data-name="Trazado 102287" d="M180.581,89.135a6.823,6.823,0,0,1,6.677,6.141l.32,3.581,135.1-.3a4.355,4.355,0,0,1,4.262,4.025l4.717,78.169a3.154,3.154,0,0,1,.011.319,3.748,3.748,0,0,1-3.75,3.706h-.038l-208.258.475a4.334,4.334,0,0,1-4.263-4.015l-4.716-78.179c0-.1-.011-.207-.011-.31a3.763,3.763,0,0,1,3.769-3.716h.019l16-.031-.32-3.726a5.532,5.532,0,0,1,5.6-6.141h44.874m0-3.1H135.707a8.628,8.628,0,0,0-8.688,9.509l.031.366-12.638.023a6.882,6.882,0,0,0-6.876,6.781c0,.133,0,.237.009.34v.093l.007.093,4.716,78.179a7.4,7.4,0,0,0,7.31,6.925l208.309-.475a6.871,6.871,0,0,0,6.876-6.77c0-.2,0-.383-.018-.574L330.031,102.4a7.421,7.421,0,0,0-7.3-6.935h-.065l-132.262.292L190.343,95a9.86,9.86,0,0,0-9.762-8.962Z" transform="translate(-107.536 -86.038)" fill="#3a5878"/>
            </g>
          </g>
          <g id="Grupo_54547" data-name="Grupo 54547" transform="translate(14.33 8.936)">
            <g id="Grupo_54545" data-name="Grupo 54545">
              <rect id="Rectángulo_5672" data-name="Rectángulo 5672" width="46.262" height="58.17" transform="translate(0.001 0.006)" fill="#3a5878"/>
              <g id="Grupo_54542" data-name="Grupo 54542" opacity="0.2">
                <path id="Trazado_102288" data-name="Trazado 102288" d="M127.21,81.767v-.006h-3.98v.006h-1.506v45.118h1.506V123.6h3.98v3.281h1.506V81.767Zm-3.98,24.2V99.4h3.98v6.565Zm3.98,1.5v6.565h-3.98v-6.565Zm-3.98-9.572V91.334h3.98v6.561Zm0-8.064V83.267h3.98v6.564Zm0,32.267v-6.565h3.98V122.1Z" transform="translate(-121.724 -81.761)"/>
              </g>
              <g id="Grupo_54543" data-name="Grupo 54543" transform="translate(39.272)" opacity="0.2">
                <path id="Trazado_102289" data-name="Trazado 102289" d="M166.092,81.767v-.006h-3.98v.006h-1.5v45.118h1.5V123.6h3.98v3.281H167.6V81.767Zm-3.98,24.2V99.4h3.98v6.565Zm3.98,1.5v6.565h-3.98v-6.565Zm-3.98-9.572V91.334h3.98v6.561Zm0-8.064V83.267h3.98v6.564Zm0,32.267v-6.565h3.98V122.1Z" transform="translate(-160.607 -81.761)"/>
              </g>
              <path id="Trazado_102290" data-name="Trazado 102290" d="M160.926,126.827l-32.279.057V81.767h32.279Z" transform="translate(-121.655 -81.761)" fill="#fff" opacity="0.2"/>
              <path id="Trazado_102291" data-name="Trazado 102291" d="M158.115,104.824a13.357,13.357,0,1,1-13.356-13.356A13.357,13.357,0,0,1,158.115,104.824Z" transform="translate(-121.627 -81.664)" fill="#a6eb9b"/>
              <g id="Grupo_54544" data-name="Grupo 54544" transform="translate(19.54 16.174)">
                <path id="Trazado_102292" data-name="Trazado 102292" d="M141.07,97.774l11.093,7.723-11.093,7.723Z" transform="translate(-141.07 -97.774)" fill="#61946c"/>
              </g>
            </g>
            <path id="Trazado_102293" data-name="Trazado 102293" d="M152.158,105.492l-.846.588-10.248-7.132V97.772Z" transform="translate(-121.531 -81.601)" fill="#3a5878"/>
            <g id="Grupo_54546" data-name="Grupo 54546" transform="translate(10.688 47.958)">
              <path id="Trazado_102294" data-name="Trazado 102294" d="M139.308,136.939l-.01-4.617-2.265,3.8h-.8l-2.253-3.7v4.518h-1.672v-7.7h1.474l2.88,4.782,2.836-4.782h1.461l.022,7.7Z" transform="translate(-132.306 -129.244)" fill="#fff"/>
              <path id="Trazado_102295" data-name="Trazado 102295" d="M145.5,133.916l-1.032,1.077v1.946H142.7v-7.7h1.771v3.595l3.407-3.595h1.979l-3.188,3.43,3.375,4.265h-2.079Z" transform="translate(-132.202 -129.244)" fill="#fff"/>
              <path id="Trazado_102296" data-name="Trazado 102296" d="M157.719,129.244l-3.33,7.7H152.63l-3.32-7.7h1.923l2.341,5.5,2.374-5.5Z" transform="translate(-132.136 -129.244)" fill="#fff"/>
            </g>
          </g>
          <g id="Grupo_54554" data-name="Grupo 54554" transform="translate(64.759 21.901)">
            <g id="Grupo_54552" data-name="Grupo 54552">
              <rect id="Rectángulo_5673" data-name="Rectángulo 5673" width="46.262" height="58.17" transform="translate(0 0.006)" fill="#3a5878"/>
              <g id="Grupo_54548" data-name="Grupo 54548" opacity="0.2">
                <path id="Trazado_102297" data-name="Trazado 102297" d="M177.14,94.6V94.6h-3.981V94.6h-1.5V139.72h1.5v-3.28h3.981v3.28h1.5V94.6Zm-3.981,24.2v-6.565h3.981V118.8Zm3.981,1.5v6.565h-3.981V120.3Zm-3.981-9.572v-6.562h3.981v6.562Zm0-8.064V96.1h3.981v6.565Zm0,32.267v-6.565h3.981v6.565Z" transform="translate(-171.654 -94.597)"/>
              </g>
              <g id="Grupo_54549" data-name="Grupo 54549" transform="translate(39.271)" opacity="0.2">
                <path id="Trazado_102298" data-name="Trazado 102298" d="M216.022,94.6V94.6h-3.981V94.6h-1.5V139.72h1.5v-3.28h3.981v3.28h1.5V94.6Zm-3.981,24.2v-6.565h3.981V118.8Zm3.981,1.5v6.565h-3.981V120.3Zm-3.981-9.572v-6.562h3.981v6.562Zm0-8.064V96.1h3.981v6.565Zm0,32.267v-6.565h3.981v6.565Z" transform="translate(-210.536 -94.597)"/>
              </g>
              <path id="Trazado_102299" data-name="Trazado 102299" d="M210.856,139.663l-32.28.057V94.6h32.28Z" transform="translate(-171.585 -94.597)" fill="#fff" opacity="0.2"/>
              <path id="Trazado_102300" data-name="Trazado 102300" d="M208.045,117.66A13.357,13.357,0,1,1,194.688,104.3,13.356,13.356,0,0,1,208.045,117.66Z" transform="translate(-171.557 -94.5)" fill="#a6eb9b"/>
              <g id="Grupo_54551" data-name="Grupo 54551" transform="translate(19.539 16.173)">
                <g id="Grupo_54550" data-name="Grupo 54550" transform="translate(0.001 0.001)">
                  <path id="Trazado_102301" data-name="Trazado 102301" d="M191,110.61l11.092,7.723L191,126.057Z" transform="translate(-191 -110.61)" fill="#61946c"/>
                </g>
                <path id="Trazado_102302" data-name="Trazado 102302" d="M202.094,118.329l-.846.588L191,111.786v-1.177Z" transform="translate(-190.999 -110.609)" fill="#3a5878"/>
              </g>
            </g>
            <g id="Grupo_54553" data-name="Grupo 54553" transform="translate(12.381 47.958)">
              <path id="Trazado_102303" data-name="Trazado 102303" d="M189.991,148.126h-3.573l-.681,1.648h-1.825l3.43-7.694H189.1l3.439,7.694h-1.868Zm-.561-1.352-1.221-2.946-1.219,2.946Z" transform="translate(-183.912 -142.08)" fill="#fff"/>
              <path id="Trazado_102304" data-name="Trazado 102304" d="M200.241,142.08l-3.33,7.694h-1.758l-3.32-7.694h1.923l2.341,5.5,2.375-5.5Z" transform="translate(-183.833 -142.08)" fill="#fff"/>
              <path id="Trazado_102305" data-name="Trazado 102305" d="M200.786,142.08h1.781v7.694h-1.781Z" transform="translate(-183.743 -142.08)" fill="#fff"/>
            </g>
          </g>
          <g id="Grupo_54560" data-name="Grupo 54560" transform="translate(114.97)">
            <g id="Grupo_54558" data-name="Grupo 54558">
              <rect id="Rectángulo_5674" data-name="Rectángulo 5674" width="46.262" height="58.17" transform="translate(0 0.006)" fill="#3a5878"/>
              <g id="Grupo_54555" data-name="Grupo 54555" opacity="0.2">
                <path id="Trazado_102306" data-name="Trazado 102306" d="M226.854,72.919v-.006h-3.98v.006h-1.506v45.118h1.506v-3.281h3.98v3.281h1.5V72.919Zm-3.98,24.2V90.552h3.98v6.565Zm3.98,1.5v6.565h-3.98V98.619Zm-3.98-9.572V82.485h3.98v6.562Zm0-8.064V74.418h3.98v6.565Zm0,32.267v-6.565h3.98v6.565Z" transform="translate(-221.368 -72.913)"/>
              </g>
              <g id="Grupo_54556" data-name="Grupo 54556" transform="translate(39.271)" opacity="0.2">
                <path id="Trazado_102307" data-name="Trazado 102307" d="M265.736,72.919v-.006h-3.981v.006h-1.5v45.118h1.5v-3.281h3.981v3.281h1.5V72.919Zm-3.981,24.2V90.552h3.981v6.565Zm3.981,1.5v6.565h-3.981V98.619Zm-3.981-9.572V82.485h3.981v6.562Zm0-8.064V74.418h3.981v6.565Zm0,32.267v-6.565h3.981v6.565Z" transform="translate(-260.25 -72.913)"/>
              </g>
              <path id="Trazado_102308" data-name="Trazado 102308" d="M260.57,117.979l-32.28.057V72.919h32.28Z" transform="translate(-221.299 -72.913)" fill="#fff" opacity="0.2"/>
              <path id="Trazado_102309" data-name="Trazado 102309" d="M257.759,95.976A13.357,13.357,0,1,1,244.4,82.62,13.357,13.357,0,0,1,257.759,95.976Z" transform="translate(-221.271 -72.816)" fill="#a6eb9b"/>
              <g id="Grupo_54557" data-name="Grupo 54557" transform="translate(19.539 16.173)">
                <path id="Trazado_102310" data-name="Trazado 102310" d="M240.714,88.926l11.092,7.723-11.092,7.723Z" transform="translate(-240.714 -88.926)" fill="#61946c"/>
              </g>
              <path id="Trazado_102311" data-name="Trazado 102311" d="M251.808,96.648l-.846.588L240.713,90.1V88.928Z" transform="translate(-221.175 -72.753)" fill="#3a5878"/>
            </g>
            <g id="Grupo_54559" data-name="Grupo 54559" transform="translate(10.688 47.959)">
              <path id="Trazado_102312" data-name="Trazado 102312" d="M238.953,128.091l-.011-4.617-2.265,3.8h-.8l-2.253-3.7v4.518H231.95V120.4h1.474l2.88,4.781,2.836-4.781H240.6l.022,7.694Z" transform="translate(-231.95 -120.397)" fill="#fff"/>
              <path id="Trazado_102313" data-name="Trazado 102313" d="M249.012,123.19c0,1.714-1.286,2.781-3.341,2.781h-1.549v2.121H242.34V120.4h3.331C247.726,120.4,249.012,121.464,249.012,123.19Zm-1.8,0c0-.847-.55-1.342-1.637-1.342h-1.451v2.671h1.451C246.66,124.519,247.21,124.024,247.21,123.19Z" transform="translate(-231.846 -120.397)" fill="#fff"/>
              <path id="Trazado_102314" data-name="Trazado 102314" d="M256.546,126.476h-1.253v1.615h-1.736v-1.615h-4.145v-1.2l3.628-4.88h1.868l-3.363,4.628h2.066v-1.44h1.682v1.44h1.253Z" transform="translate(-231.775 -120.397)" fill="#fff"/>
            </g>
          </g>
          <g id="Grupo_54566" data-name="Grupo 54566" transform="translate(165.062 9.994)">
            <g id="Grupo_54564" data-name="Grupo 54564">
              <rect id="Rectángulo_5675" data-name="Rectángulo 5675" width="46.262" height="58.17" transform="translate(0 0.006)" fill="#3a5878"/>
              <g id="Grupo_54561" data-name="Grupo 54561" opacity="0.2">
                <path id="Trazado_102315" data-name="Trazado 102315" d="M276.449,82.814v-.006h-3.98v.006h-1.5v45.117h1.5v-3.28h3.98v3.28h1.506V82.814Zm-3.98,24.2v-6.565h3.98v6.565Zm3.98,1.5v6.565h-3.98v-6.565Zm-3.98-9.572V92.38h3.98v6.562Zm0-8.064V84.313h3.98v6.565Zm0,32.267V116.58h3.98v6.565Z" transform="translate(-270.964 -82.808)"/>
              </g>
              <g id="Grupo_54562" data-name="Grupo 54562" transform="translate(39.271)" opacity="0.2">
                <path id="Trazado_102316" data-name="Trazado 102316" d="M315.332,82.814v-.006h-3.981v.006h-1.5v45.117h1.5v-3.28h3.981v3.28h1.5V82.814Zm-3.981,24.2v-6.565h3.981v6.565Zm3.981,1.5v6.565h-3.981v-6.565Zm-3.981-9.572V92.38h3.981v6.562Zm0-8.064V84.313h3.981v6.565Zm0,32.267V116.58h3.981v6.565Z" transform="translate(-309.846 -82.808)"/>
              </g>
              <path id="Trazado_102317" data-name="Trazado 102317" d="M310.166,127.874l-32.28.057V82.814h32.28Z" transform="translate(-270.895 -82.808)" fill="#fff" opacity="0.2"/>
              <circle id="Elipse_4093" data-name="Elipse 4093" cx="13.357" cy="13.357" r="13.357" transform="translate(9.774 9.804)" fill="#a6eb9b"/>
              <g id="Grupo_54563" data-name="Grupo 54563" transform="translate(19.539 16.173)">
                <path id="Trazado_102318" data-name="Trazado 102318" d="M290.31,98.821l11.092,7.723-11.092,7.723Z" transform="translate(-290.31 -98.821)" fill="#61946c"/>
              </g>
              <path id="Trazado_102319" data-name="Trazado 102319" d="M301.412,106.546l-.846.588L290.317,100V98.826Z" transform="translate(-270.77 -82.648)" fill="#3a5878"/>
            </g>
            <g id="Grupo_54565" data-name="Grupo 54565" transform="translate(10.687 47.828)">
              <path id="Trazado_102320" data-name="Trazado 102320" d="M288.546,137.987l-.01-4.617-2.264,3.8h-.8l-2.254-3.7v4.519h-1.671v-7.7h1.474l2.88,4.782,2.836-4.782H290.2l.022,7.7Z" transform="translate(-281.545 -130.161)" fill="#fff"/>
              <path id="Trazado_102321" data-name="Trazado 102321" d="M291.456,134.14a4.217,4.217,0,1,1,4.21,3.979A3.981,3.981,0,0,1,291.456,134.14Zm6.618,0a2.408,2.408,0,1,0-2.408,2.462A2.347,2.347,0,0,0,298.074,134.14Z" transform="translate(-281.446 -130.162)" fill="#fff"/>
              <path id="Trazado_102322" data-name="Trazado 102322" d="M308.275,130.292l-3.33,7.7h-1.759l-3.32-7.7h1.923l2.341,5.5,2.375-5.5Z" transform="translate(-281.362 -130.161)" fill="#fff"/>
            </g>
          </g>
        </g>
        <g id="Grupo_54570" data-name="Grupo 54570" transform="translate(106.224 85.198)">
          <path id="Trazado_102323" data-name="Trazado 102323" d="M233.628,178.384H218.6a5.891,5.891,0,0,1-5.755-5.292l-.117-1.338a4.772,4.772,0,0,1,4.83-5.292h15.027Z" transform="translate(-212.709 -157.175)" fill="#3a5878"/>
          <g id="Grupo_54568" data-name="Grupo 54568" transform="translate(21.19 9.286)">
            <path id="Trazado_102324" data-name="Trazado 102324" d="M242.537,177.437l-8.636-4.276-.212-2.425,7.888-4.276Z" transform="translate(-233.689 -166.461)" fill="#3a5878"/>
            <path id="Trazado_102325" data-name="Trazado 102325" d="M243.6,177.437h-1.145l-.96-10.976h1.144Z" transform="translate(-233.611 -166.461)" fill="#3a5878"/>
          </g>
          <g id="Grupo_54569" data-name="Grupo 54569" transform="translate(1.404)">
            <path id="Trazado_102326" data-name="Trazado 102326" d="M222.434,161.426a3.751,3.751,0,0,1-3.8,4.159,4.631,4.631,0,0,1-4.523-4.159,3.751,3.751,0,0,1,3.8-4.159A4.631,4.631,0,0,1,222.434,161.426Z" transform="translate(-214.099 -157.267)" fill="#3a5878"/>
            <path id="Trazado_102327" data-name="Trazado 102327" d="M230.669,161.426a3.75,3.75,0,0,1-3.8,4.159,4.63,4.63,0,0,1-4.522-4.159,3.75,3.75,0,0,1,3.795-4.159A4.631,4.631,0,0,1,230.669,161.426Z" transform="translate(-214.017 -157.267)" fill="#3a5878"/>
          </g>
        </g>
      </g>
    </g>
    <g id="Character" transform="translate(219.865 183.644)">
      <g id="Grupo_54606" data-name="Grupo 54606">
        <g id="Grupo_54577" data-name="Grupo 54577" transform="translate(79.904)">
          <g id="Grupo_54576" data-name="Grupo 54576">
            <g id="Grupo_54575" data-name="Grupo 54575">
              <g id="Grupo_54574" data-name="Grupo 54574">
                <g id="Character-2" data-name="Character">
                  <g id="Grupo_54573" data-name="Grupo 54573">
                    <path id="Trazado_102328" data-name="Trazado 102328" d="M301.76,203.574a22.557,22.557,0,0,1-2.366,5.525,3.445,3.445,0,0,0,2.917.165Z" transform="translate(-296.776 -182.196)" fill="#a02724"/>
                    <path id="Trazado_102329" data-name="Trazado 102329" d="M324,209.371l-4.806,5.017-6.562,6.84a7.817,7.817,0,0,1,1.146,2.613c.585,2.049,1.086,3.552-3.358,5.548a2.673,2.673,0,0,0-1.662,2.366c.009,1.264.992,2.636,5.392,2.712a19.94,19.94,0,0,0,11.79-3.926c1.677-1.188,1.508-2.278.462-4C323.311,221.649,323.39,214.793,324,209.371Z" transform="translate(-296.682 -182.138)" fill="#ff8b7b"/>
                    <path id="Trazado_102330" data-name="Trazado 102330" d="M300.2,203.255c-.053.676.189,1.245.539,1.274s.677-.5.73-1.174-.188-1.245-.538-1.273S300.249,202.58,300.2,203.255Z" transform="translate(-296.768 -182.211)" fill="#2b3f51"/>
                    <path id="Trazado_102331" data-name="Trazado 102331" d="M300.79,199.5a4.5,4.5,0,0,1,4.046,1.569" transform="translate(-296.762 -182.237)" fill="none" stroke="#263238" stroke-linecap="round" stroke-linejoin="round" stroke-width="1"/>
                    <path id="Trazado_102332" data-name="Trazado 102332" d="M301.7,212.545a12.248,12.248,0,0,0,7.171,8.115,11.4,11.4,0,0,0,3.706.845,10.465,10.465,0,0,0,8.294-3.381c4.172-4.426,3.9-9.424,4.172-17.932a11.837,11.837,0,0,0-16.385-11.4C300.431,192.279,299.644,204.925,301.7,212.545Z" transform="translate(-296.762 -182.353)" fill="#ff8b7b"/>
                    <path id="Trazado_102333" data-name="Trazado 102333" d="M308.787,220.344a11.4,11.4,0,0,0,3.706.845l.144-.06-.808-1.58S311.332,220.9,308.787,220.344Z" transform="translate(-296.682 -182.036)" opacity="0.2"/>
                    <g id="Grupo_54572" data-name="Grupo 54572">
                      <path id="Trazado_102334" data-name="Trazado 102334" d="M328.472,205.755c-.908,3.074-2.147,6.206-4.469,8.412-.86.819-8.276,1.571-8.276,1.571-.351-2.508-4.952-10.558-6.963-13.183-.273,1.258-.745,6.665-1.165,7.855-.839-.019-2.159-1.3-2.159-1.3a20.056,20.056,0,0,0,.968-11l-.292-1.522c-.029.322-4.9,2.625-7.281-1.825-8.9-16.658,13.926-13.7,20.26-7.2a6.276,6.276,0,0,1,6.45.8,10.349,10.349,0,0,1,3.543,5.719A21.92,21.92,0,0,1,328.472,205.755Z" transform="translate(-296.801 -182.408)" fill="#2b3f51"/>
                    </g>
                  </g>
                </g>
              </g>
              <path id="Trazado_102335" data-name="Trazado 102335" d="M321.533,183.85a2.819,2.819,0,0,0-2.736,1.838c-.256.658-.5,2.238.23,2.579A23.771,23.771,0,0,1,321.533,183.85Z" transform="translate(-296.584 -182.393)" fill="#2b3f51"/>
            </g>
          </g>
          <path id="Trazado_102336" data-name="Trazado 102336" d="M314.346,204.6a7.785,7.785,0,0,1-3,4.682c-1.991,1.441-4-.6-3.98-3.022.019-2.169,1.445-5.169,3.7-5.648S314.817,202.277,314.346,204.6Z" transform="translate(-296.696 -182.226)" fill="#ff8b7b"/>
        </g>
        <g id="Grupo_54597" data-name="Grupo 54597" transform="translate(0 44.46)">
          <g id="Grupo_54578" data-name="Grupo 54578" transform="translate(49.272 146.941)">
            <path id="Trazado_102337" data-name="Trazado 102337" d="M274.722,399.609l-8.249-2.457,2.5-19.491,10.147,3.612Z" transform="translate(-266.473 -371.856)" fill="#ff8b7b"/>
            <path id="Trazado_102338" data-name="Trazado 102338" d="M280.249,375.9l-10.709-3.982-1.613,14.019,9.506,2.662Z" transform="translate(-266.459 -371.914)" opacity="0.2" style="isolation: isolate"/>
          </g>
          <g id="Grupo_54580" data-name="Grupo 54580" transform="translate(31.795 168.296)">
            <path id="Trazado_102339" data-name="Trazado 102339" d="M265.944,395.577l9.4,2.552a.718.718,0,0,1,.487.84l-1.422,8.958a1.6,1.6,0,0,1-1.847,1.363c-3.256-.953-4.78-1.6-8.912-2.72-2.545-.689-8.357-2.344-11.918-3s-2.837-4.821-1.272-4.926c7.039-.435,11.081-1.282,13.909-2.844A2.13,2.13,0,0,1,265.944,395.577Z" transform="translate(-249.169 -393.032)" fill="#2b3f51"/>
            <g id="Grupo_54579" data-name="Grupo 54579" transform="translate(10.758)">
              <path id="Trazado_102340" data-name="Trazado 102340" d="M261.446,396.922a10.958,10.958,0,0,0,2.259.226.183.183,0,0,0,.179-.113.213.213,0,0,0,.015-.215c-.221-.254-2.219-2.43-3.333-2.281a.713.713,0,0,0-.588.436,1.136,1.136,0,0,0-.012,1.137A2.377,2.377,0,0,0,261.446,396.922Zm1.844-.179c-1.574-.11-2.67-.369-2.966-.855a.716.716,0,0,1,.051-.725.365.365,0,0,1,.278-.23C261.239,394.847,262.463,395.888,263.29,396.743Z" transform="translate(-259.82 -393.042)" fill="#3a5878"/>
              <path id="Trazado_102341" data-name="Trazado 102341" d="M263.692,397.164l.09.006a.227.227,0,0,0,.146-.138c.007-.1.8-2.469.141-3.482a.968.968,0,0,0-.764-.475.761.761,0,0,0-.848.419c-.413.87.422,2.919,1.135,3.618A.15.15,0,0,0,263.692,397.164Zm-.335-3.675a.594.594,0,0,1,.379.277,4.452,4.452,0,0,1-.092,2.792,4.075,4.075,0,0,1-.822-2.891c.008-.113.141-.228.434-.2Z" transform="translate(-259.794 -393.057)" fill="#3a5878"/>
            </g>
          </g>
          <g id="Grupo_54596" data-name="Grupo 54596">
            <g id="Grupo_54584" data-name="Grupo 54584" transform="translate(48.346 69.046)">
              <g id="Grupo_54583" data-name="Grupo 54583" transform="translate(1.468)">
                <g id="Grupo_54581" data-name="Grupo 54581">
                  <path id="Trazado_102342" data-name="Trazado 102342" d="M316.52,294.789s-46.162-.147-47.662,25.342c-1.462,17.918-2.391,25.264-1.5,64.3l12.293.678s12.5-42.244,10.817-59.028c13.772,0,45.3,1.208,49.885-11.219a55.237,55.237,0,0,0,3.265-19.688Z" transform="translate(-267.009 -294.789)" fill="#3a5878"/>
                </g>
                <g id="Grupo_54582" data-name="Grupo 54582">
                  <path id="Trazado_102343" data-name="Trazado 102343" d="M316.52,294.789s-46.162-.147-47.662,25.342c-1.462,17.918-2.391,25.264-1.5,64.3l12.293.678s12.5-42.244,10.817-59.028c13.772,0,45.3,1.208,49.885-11.219a55.237,55.237,0,0,0,3.265-19.688Z" transform="translate(-267.009 -294.789)" fill="#61946c"/>
                </g>
              </g>
              <path id="Trazado_102344" data-name="Trazado 102344" d="M281.618,386.664l-16.063-2.749.263-7.105,16.628,3.694Z" transform="translate(-265.556 -293.969)" fill="#3a5878"/>
            </g>
            <g id="Grupo_54585" data-name="Grupo 54585" transform="translate(17.88 149.033)">
              <path id="Trazado_102345" data-name="Trazado 102345" d="M243.169,402.145l-7.778-3.686,5.447-18.881,9.477,5.117Z" transform="translate(-235.392 -373.928)" fill="#ff8b7b"/>
              <path id="Trazado_102346" data-name="Trazado 102346" d="M252.241,379.553l-9.976-5.569-3.733,13.609,8.988,4.081Z" transform="translate(-235.36 -373.984)" opacity="0.2" style="isolation: isolate"/>
            </g>
            <g id="Grupo_54587" data-name="Grupo 54587" transform="translate(0 169.145)">
              <path id="Trazado_102347" data-name="Trazado 102347" d="M235.087,396.8l8.9,3.957a.718.718,0,0,1,.353.9L241.57,410.3a1.6,1.6,0,0,1-2.034,1.065c-3.071-1.438-4.48-2.308-8.392-4.047-2.411-1.069-7.9-3.592-11.322-4.779s-2.067-5.2-.5-5.063c7.023.644,11.145.424,14.179-.688A2.12,2.12,0,0,1,235.087,396.8Z" transform="translate(-217.689 -393.87)" fill="#2b3f51"/>
              <g id="Grupo_54586" data-name="Grupo 54586" transform="translate(11.444)">
                <path id="Trazado_102348" data-name="Trazado 102348" d="M230.431,397.466a10.943,10.943,0,0,0,2.2.569.183.183,0,0,0,.194-.085.214.214,0,0,0,.047-.21c-.18-.285-1.823-2.741-2.946-2.762a.715.715,0,0,0-.648.341,1.134,1.134,0,0,0-.184,1.122A2.373,2.373,0,0,0,230.431,397.466Zm1.85.105c-1.539-.348-2.584-.772-2.8-1.3a.719.719,0,0,1,.161-.709.366.366,0,0,1,.31-.186C230.542,395.384,231.593,396.6,232.281,397.571Z" transform="translate(-229.019 -393.886)" fill="#3a5878"/>
                <path id="Trazado_102349" data-name="Trazado 102349" d="M232.614,398.047l.089.02a.226.226,0,0,0,.165-.114c.023-.1,1.167-2.319.672-3.421a.967.967,0,0,0-.682-.585.762.762,0,0,0-.9.284c-.541.8-.028,2.95.57,3.749A.15.15,0,0,0,232.614,398.047Zm.23-3.683a.6.6,0,0,1,.332.331,4.453,4.453,0,0,1-.518,2.745,4.075,4.075,0,0,1-.372-2.982c.025-.111.175-.205.461-.128Z" transform="translate(-228.992 -393.897)" fill="#3a5878"/>
              </g>
            </g>
            <g id="Grupo_54590" data-name="Grupo 54590" transform="translate(19.154 68.722)">
              <g id="Grupo_54589" data-name="Grupo 54589">
                <g id="Grupo_54588" data-name="Grupo 54588" transform="translate(1.942)">
                  <path id="Trazado_102350" data-name="Trazado 102350" d="M302.262,294.792c-.321,0-51.419-4.973-54.845,24.075-5.423,35.574-8.841,65.563-8.841,65.563l10.763,5.331S268.08,351.8,267.8,327.99c14.98-4.3,53.734,2.924,58.315-9.493,3.752-10.157,1.725-23.7,1.725-23.7Z" transform="translate(-238.576 -294.469)" fill="#3a5878"/>
                  <path id="Trazado_102351" data-name="Trazado 102351" d="M302.262,294.792c-.321,0-51.419-4.973-54.845,24.075-5.423,35.574-8.841,65.563-8.841,65.563l10.763,5.331S268.08,351.8,267.8,327.99c14.98-4.3,53.734,2.924,58.315-9.493,3.752-10.157,1.725-23.7,1.725-23.7Z" transform="translate(-238.576 -294.469)" fill="#61946c"/>
                </g>
                <path id="Trazado_102352" data-name="Trazado 102352" d="M251.078,390.472l-14.425-6.491,1.16-5.906,15.215,5.254Z" transform="translate(-236.653 -293.633)" fill="#3a5878"/>
              </g>
            </g>
            <g id="Grupo_54591" data-name="Grupo 54591" transform="translate(68.293 5.933)">
              <path id="Trazado_102353" data-name="Trazado 102353" d="M326.4,232.3c1.156,3.194,2.072,6.249,2.975,9.42s1.674,6.332,2.357,9.562,1.235,6.528,1.611,9.926a50.805,50.805,0,0,1,.158,10.65,21.76,21.76,0,0,1-1.464,6.064,13.816,13.816,0,0,1-1.926,3.314,11.055,11.055,0,0,1-1.537,1.568l-.454.371c-.249.174-.521.365-.779.509a7.823,7.823,0,0,1-1.364.6,10.315,10.315,0,0,1-2.156.485,13.746,13.746,0,0,1-1.741.1,23.826,23.826,0,0,1-2.961-.261,41.761,41.761,0,0,1-5.172-1.043,99.254,99.254,0,0,1-18.37-7.058l1.88-5.226c6.1,1.281,12.322,2.621,18.231,3.416,1.476.13,2.907.324,4.253.375a12.406,12.406,0,0,0,1.8-.067c.494-.044.926-.183.78-.186a1.108,1.108,0,0,0-.284.112,1.69,1.69,0,0,0-.29.18h0a1.533,1.533,0,0,0,.1-.158,4.548,4.548,0,0,0,.368-.838,13.6,13.6,0,0,0,.547-3.22,43.13,43.13,0,0,0-.507-8.352c-.4-2.971-1.008-5.881-1.686-8.847s-1.434-5.939-2.288-8.91-1.764-5.958-2.672-8.768Z" transform="translate(-285.203 -232.301)" fill="#ff8b7b"/>
              <path id="Trazado_102354" data-name="Trazado 102354" d="M300.059,272.617l-6.119-4.188-3.847,6.686s7.249,3.8,9,1.978Z" transform="translate(-285.258 -231.94)" fill="#ff8b7b"/>
              <path id="Trazado_102355" data-name="Trazado 102355" d="M288.658,269.291l-3.352,4.4,4.84,1.376,3.847-6.686Z" transform="translate(-285.305 -231.94)" fill="#ff8b7b"/>
            </g>
            <g id="Grupo_54593" data-name="Grupo 54593" transform="translate(28.051 39.707)">
              <g id="Grupo_54592" data-name="Grupo 54592">
                <path id="Trazado_102356" data-name="Trazado 102356" d="M262.759,266.764l-8.965-1.023L251.22,275.6s10.247.085,11.863-2.85Z" transform="translate(-245.404 -265.741)" fill="#ff8b7b"/>
                <path id="Trazado_102357" data-name="Trazado 102357" d="M247.13,269.4l-1.538,3.777a1.733,1.733,0,0,0,1.588,2.386l4.1.042,2.574-9.862L248,268.481A1.734,1.734,0,0,0,247.13,269.4Z" transform="translate(-245.462 -265.741)" fill="#ff8b7b"/>
              </g>
            </g>
            <path id="Trazado_102358" data-name="Trazado 102358" d="M340.261,230.326c-.731-1.949-4.142-3.9-6.238-3.9h-1.385a75.645,75.645,0,0,0-8.353.535,149.024,149.024,0,0,0-16.569,2.788c-2.515.663-4.942,1.5-6.872,2.223l-.074.028a5.243,5.243,0,0,0-3.255,5.593c.868,6.271,2.522,19.028,3.515,31.724.774,9.9.453,19.741.7,26.505h41.581c1.432-8.129,1.207-15.219,1.323-29.9C344.7,257.116,343.273,238.347,340.261,230.326Z" transform="translate(-216.891 -226.427)" fill="#3a5878"/>
            <path id="Trazado_102359" data-name="Trazado 102359" d="M340.261,230.326c-.731-1.949-4.142-3.9-6.238-3.9h-1.385a75.645,75.645,0,0,0-8.353.535,149.024,149.024,0,0,0-16.569,2.788c-2.515.663-4.942,1.5-6.872,2.223l-.074.028a5.243,5.243,0,0,0-3.255,5.593c.868,6.271,2.522,19.028,3.515,31.724.774,9.9.453,19.741.7,26.505h41.581c1.432-8.129,1.207-15.219,1.323-29.9C344.7,257.116,343.273,238.347,340.261,230.326Z" transform="translate(-216.891 -226.427)" fill="#fff" opacity="0.8"/>
            <g id="Grupo_54595" data-name="Grupo 54595" transform="translate(41.243 5.644)">
              <g id="Grupo_54594" data-name="Grupo 54594">
                <path id="Trazado_102360" data-name="Trazado 102360" d="M304.708,232.437a6.538,6.538,0,0,1,3.8,8.475c-2.972,7.683-7.959,19.869-10.16,24.159-.837,1.526-1.677,3.042-2.633,4.568-.477.769-1.014,1.532-1.588,2.32-.315.4-.566.767-.938,1.183l-.53.616-.3.341a8.293,8.293,0,0,1-3.028,1.982,14.073,14.073,0,0,1-1.846.571,19.6,19.6,0,0,1-3.114.414,40.543,40.543,0,0,1-5.427-.038,99.051,99.051,0,0,1-19.738-3.684l-.682-6.823c6.35.179,12.839.394,18.9.091a41.365,41.365,0,0,0,4.265-.452,10.729,10.729,0,0,0,1.674-.428,2.18,2.18,0,0,0,.506-.242c.059-.005-.006-.068-.253.121a1.29,1.29,0,0,0-.244.218s.06-.093.087-.125l.243-.326c.159-.19.345-.5.528-.752.351-.542.709-1.123,1.061-1.752.7-1.229,1.368-2.583,2.025-3.955,1.313-2.744,2.5-5.643,3.664-8.569.822-2.074,3.237-8.376,5.27-14.009a6.539,6.539,0,0,1,8.459-3.9Z" transform="translate(-258.523 -232.015)" fill="#3a5878"/>
              </g>
              <path id="Trazado_102361" data-name="Trazado 102361" d="M300.105,259.238c.312,3.733.2,2.523.537,6.441,10.157-15.682,6.8-26.042,6.8-26.042Z" transform="translate(-258.107 -231.939)" opacity="0.2" style="isolation: isolate"/>
              <path id="Trazado_102362" data-name="Trazado 102362" d="M304.708,232.437a6.538,6.538,0,0,1,3.8,8.475c-2.972,7.683-7.959,19.869-10.16,24.159-.837,1.526-1.677,3.042-2.633,4.568-.477.769-1.014,1.532-1.588,2.32-.315.4-.566.767-.938,1.183l-.53.616-.3.341a8.293,8.293,0,0,1-3.028,1.982,14.073,14.073,0,0,1-1.846.571,19.6,19.6,0,0,1-3.114.414,40.543,40.543,0,0,1-5.427-.038,99.051,99.051,0,0,1-19.738-3.684l-.682-6.823c6.35.179,12.839.394,18.9.091a41.365,41.365,0,0,0,4.265-.452,10.729,10.729,0,0,0,1.674-.428,2.18,2.18,0,0,0,.506-.242c.059-.005-.006-.068-.253.121a1.29,1.29,0,0,0-.244.218s.06-.093.087-.125l.243-.326c.159-.19.345-.5.528-.752.351-.542.709-1.123,1.061-1.752.7-1.229,1.368-2.583,2.025-3.955,1.313-2.744,2.5-5.643,3.664-8.569.822-2.074,3.237-8.376,5.27-14.009a6.539,6.539,0,0,1,8.459-3.9Z" transform="translate(-258.523 -232.015)" fill="#fff" opacity="0.8"/>
            </g>
          </g>
        </g>
        <g id="Grupo_54605" data-name="Grupo 54605" transform="translate(35.538 12.359)">
          <g id="Grupo_54598" data-name="Grupo 54598" transform="translate(29.761 212.056)">
            <path id="Trazado_102363" data-name="Trazado 102363" d="M290.821,410.182a4.24,4.24,0,1,1-4.24-4.24,4.24,4.24,0,0,1,4.24,4.24Z" transform="translate(-282.341 -404.587)" fill="#2b3f51"/>
            <path id="Trazado_102364" data-name="Trazado 102364" d="M352.391,410.182a4.24,4.24,0,1,0,4.24-4.24,4.24,4.24,0,0,0-4.24,4.24Z" transform="translate(-281.641 -404.587)" fill="#2b3f51"/>
            <path id="Trazado_102365" data-name="Trazado 102365" d="M316.029,408.84a4.24,4.24,0,1,0,4.24-4.24,4.24,4.24,0,0,0-4.24,4.24Z" transform="translate(-282.004 -404.6)" fill="#2b3f51"/>
          </g>
          <g id="Grupo_54599" data-name="Grupo 54599" transform="translate(24.159 204.815)">
            <path id="Trazado_102366" data-name="Trazado 102366" d="M366.624,404.575a2.069,2.069,0,0,1-2.089,1.658l-44.216-.6-41.406.937a2.06,2.06,0,0,1-.459-4.079l22.611-4.391a38.655,38.655,0,0,1,7.113-.664h24.3a38.565,38.565,0,0,1,7.1.664l25.411,4.069A2.056,2.056,0,0,1,366.624,404.575Z" transform="translate(-276.795 -397.431)" fill="#2b3f51"/>
          </g>
          <g id="Grupo_54600" data-name="Grupo 54600" transform="translate(60.16 140.493)">
            <rect id="Rectángulo_5676" data-name="Rectángulo 5676" width="15.039" height="43.292" transform="translate(0 27.43)" fill="#2b3f51"/>
            <rect id="Rectángulo_5677" data-name="Rectángulo 5677" width="10.721" height="27.642" transform="translate(2.164)" fill="#2b3f51"/>
            <path id="Trazado_102367" data-name="Trazado 102367" d="M314.582,338.873l10.721,2.7v-7.827H314.582Z" transform="translate(-312.418 -333.746)" opacity="0.2" style="isolation: isolate"/>
          </g>
          <g id="Grupo_54604" data-name="Grupo 54604">
            <g id="Grupo_54602" data-name="Grupo 54602" transform="translate(0.027)">
              <g id="Grupo_54601" data-name="Grupo 54601" transform="translate(22.67 100.999)">
                <rect id="Rectángulo_5678" data-name="Rectángulo 5678" width="5.448" height="23.246" fill="#2b3f51"/>
                <rect id="Rectángulo_5679" data-name="Rectángulo 5679" width="5.448" height="23.246" fill="#2b3f51"/>
              </g>
              <path id="Trazado_102368" data-name="Trazado 102368" d="M316.592,243.037a12.867,12.867,0,0,0-.142,1.912v89.7h-8.66v-89.7a1.606,1.606,0,0,1,.009-.208Z" transform="translate(-252.353 -194.16)" fill="#2b3f51"/>
              <path id="Trazado_102369" data-name="Trazado 102369" d="M366.422,333.639v.1h-1.458A10.52,10.52,0,0,0,366.422,333.639Z" transform="translate(-251.781 -193.254)" fill="#2b3f51"/>
              <path id="Trazado_102370" data-name="Trazado 102370" d="M375.656,242.953l-.643-10.658a12.73,12.73,0,0,0-3.512-8.036l-6.8-7.1L361.213,199.4a5.892,5.892,0,0,0-5.783-4.76H339.783a5.889,5.889,0,0,0-5.575,3.984l-6.55,19.1-12.5,7.7a12.718,12.718,0,0,0-5.917,8.964l-1.618,10.875.18-.037,8.793-1.7a12.867,12.867,0,0,0-.142,1.912v89.7h49.086a10.52,10.52,0,0,0,1.458-.1H367a10.125,10.125,0,0,0,8.651-10.013V244.647a13.309,13.309,0,0,0-.113-1.732Zm-41.5-6.777-15.163,1.448-.663.066,1.628-6.938,10.146-4.893,3.379-1.628.663,1.628.113.275.615,1.5Zm30,.18h-.009l-1.9-.483c-.076-.587-.151-1.193-.227-1.789-.425-3.322-.8-6.455-.8-6.455l.151-1.1.312-2.3,7.221,6.522.1,1.552.37,5.385Z" transform="translate(-252.355 -194.644)" fill="#2b3f51"/>
              <path id="Trazado_102371" data-name="Trazado 102371" d="M317,314.391v19.544H259.925a7.01,7.01,0,0,1-6.039-10.591,18.226,18.226,0,0,1,15.684-8.954Z" transform="translate(-252.902 -193.447)" fill="#2b3f51"/>
            </g>
            <g id="Grupo_54603" data-name="Grupo 54603" transform="translate(0 95.487)">
              <path id="Trazado_102372" data-name="Trazado 102372" d="M296.8,301.793a56.2,56.2,0,0,0-37.039,0,5.264,5.264,0,0,1-6.521-2.485h0c-1.111-2.349.381-5.39,3.4-6.453a65.563,65.563,0,0,1,43.256,0c3.022,1.052,4.513,4.1,3.4,6.453h0A5.272,5.272,0,0,1,296.8,301.793Z" transform="translate(-252.875 -289.185)" fill="#2b3f51"/>
              <path id="Trazado_102373" data-name="Trazado 102373" d="M296.8,301.793a56.2,56.2,0,0,0-37.039,0,5.264,5.264,0,0,1-6.521-2.485h0c-1.111-2.349.381-5.39,3.4-6.453a65.563,65.563,0,0,1,43.256,0c3.022,1.052,4.513,4.1,3.4,6.453h0A5.272,5.272,0,0,1,296.8,301.793Z" transform="translate(-252.875 -289.185)" fill="#2b3f51" opacity="0.4"/>
            </g>
          </g>
        </g>
      </g>
    </g>
  </g>
</svg>
